<svg width="30" height="40" viewBox="0 0 30 40" fill="none" xmlns="http://www.w3.org/2000/svg">
<path d="M23.8594 1.32031H6.72408C3.88501 1.32031 1.5835 3.62183 1.5835 6.4609V33.8773C1.5835 36.7164 3.88501 39.0179 6.72408 39.0179H23.8594C26.6984 39.0179 28.9999 36.7164 28.9999 33.8773V6.4609C28.9999 3.62183 26.6984 1.32031 23.8594 1.32031Z" stroke="#9FFE00" stroke-width="1.5079" stroke-linecap="round" stroke-linejoin="round"/>
<path d="M11.385 6.59766H18.2391" stroke="#9FFE00" stroke-width="1.5079" stroke-linecap="round" stroke-linejoin="round"/>
<path d="M14.9932 23.3467V28.6133H9.72656V23.3467H14.9932ZM21.0615 23.3467V28.6133H15.7949V23.3467H21.0615ZM18.4277 17.0029C19.1993 17.0029 19.9398 17.3089 20.4854 17.8545L20.6777 18.0684C21.1019 18.586 21.3369 19.237 21.3369 19.9121C21.3368 20.6834 21.0307 21.4233 20.4854 21.9688C19.9398 22.5143 19.1993 22.8213 18.4277 22.8213C17.6563 22.8213 16.9166 22.5142 16.3711 21.9688C15.8256 21.4233 15.5187 20.6835 15.5186 19.9121C15.5186 19.1406 15.8255 18.4001 16.3711 17.8545L16.584 17.6611C17.1016 17.237 17.7527 17.003 18.4277 17.0029ZM14.9932 17.2783V22.5449H9.72656V17.2783H14.9932Z" fill="white" stroke="#9FFE00" stroke-width="0.301581"/>
</svg>
