<svg width="38" height="38" viewBox="0 0 38 38" fill="none" xmlns="http://www.w3.org/2000/svg">
<path d="M18.3639 0H19.0685C20.4828 0.079101 21.8692 0.602779 22.9583 1.51171C24.013 2.37596 24.7872 3.57053 25.1585 4.88083C26.2132 4.12571 27.4883 3.6782 28.7869 3.63645C30.3367 3.56907 31.9012 4.07737 33.1192 5.03683C34.2859 5.9443 35.1384 7.24873 35.49 8.68573C35.8445 10.1096 35.709 11.6506 35.1048 12.988C34.6177 14.0844 33.8216 15.0329 32.846 15.7272C33.801 15.7748 34.8154 15.5749 35.7149 15.9931C36.7263 16.4362 37.4272 17.4689 37.4998 18.5675V34.6675C37.4316 35.5149 37.0142 36.3323 36.3381 36.853C35.8657 37.2346 35.2732 37.4412 34.6726 37.4998H2.89085C2.05809 37.4551 1.24804 37.064 0.713374 36.4209C0.294432 35.9338 0.0585934 35.3098 0 34.6734V18.5763C0.0651851 17.4923 0.746333 16.4721 1.73583 16.018C2.64256 15.5668 3.68186 15.7755 4.65451 15.7272C3.70823 15.0541 2.9304 14.1422 2.43968 13.089C1.76952 11.6696 1.63476 10.0092 2.05809 8.49897C2.44774 7.0854 3.32591 5.81686 4.50217 4.94382C5.72164 4.03122 7.26338 3.55589 8.78534 3.64011C10.059 3.69431 11.3071 4.13816 12.3405 4.88083C12.7023 3.60276 13.4472 2.43382 14.4638 1.57763C15.5492 0.645992 16.9408 0.101074 18.3639 0ZM17.7626 1.29931C16.6815 1.49926 15.6649 2.03392 14.893 2.81688C14.006 3.7009 13.4406 4.9006 13.33 6.14864C13.2333 7.18062 13.4377 8.23896 13.9181 9.15814C14.5114 10.3014 15.5214 11.2221 16.7174 11.7018C18.5865 12.4775 20.8695 12.082 22.3651 10.7175C23.3231 9.87005 23.9669 8.67548 24.1397 7.40767C24.2877 6.36177 24.1229 5.27414 23.6666 4.32053C23.1144 3.15306 22.1322 2.19432 20.9493 1.67504C19.9576 1.23046 18.8304 1.10448 17.7626 1.29931ZM6.00875 5.42721C4.82663 6.02413 3.87742 7.06709 3.39768 8.30122C2.91868 9.51483 2.9011 10.9013 3.34641 12.1274C4.0466 14.1261 6.00362 15.6056 8.12251 15.7133C9.46576 15.8034 10.8368 15.369 11.8813 14.5194C12.925 13.683 13.6317 12.4482 13.839 11.1283C12.6701 9.84662 12.0058 8.09687 12.1112 6.35811C12.1501 6.22628 12.0094 6.16549 11.9333 6.09151C11.11 5.4089 10.0854 4.97091 9.01972 4.86764C7.98994 4.76144 6.93013 4.9548 6.00875 5.42721ZM26.9464 5.25583C26.3795 5.50778 25.8111 5.82272 25.3863 6.27755C25.5079 8.04194 24.8502 9.82611 23.66 11.1276C23.909 12.7638 24.9491 14.2565 26.4044 15.0475C27.5411 15.6781 28.907 15.881 30.1778 15.6027C31.4163 15.3405 32.5493 14.6227 33.3242 13.623C34.6543 11.9633 34.8491 9.50604 33.7989 7.65742C33.1939 6.55806 32.1993 5.67843 31.031 5.21994C29.7339 4.70139 28.2339 4.7131 26.9464 5.25583ZM14.8769 12.0527C14.4726 13.5285 13.5431 14.8483 12.2907 15.7279C16.5973 15.7272 20.9032 15.7272 25.2098 15.7272C23.9574 14.8483 23.0257 13.5292 22.6229 12.0527C21.4042 12.9257 19.8888 13.3813 18.3903 13.2956C17.1305 13.2267 15.9022 12.7836 14.8769 12.0527ZM1.21069 18.7513C1.20849 23.7794 1.20995 28.8067 1.20922 33.834C1.21801 34.2691 1.16308 34.7239 1.3352 35.1362C1.58422 35.7866 2.23534 36.262 2.93406 36.2854C3.56907 36.2942 4.20334 36.2861 4.83835 36.2883C14.1129 36.2891 23.3868 36.2891 32.6614 36.2883C33.3199 36.2832 33.979 36.3001 34.6375 36.2803C35.5383 36.2202 36.2986 35.3963 36.2883 34.4939C36.2927 29.3187 36.2883 24.1434 36.2913 18.9681C36.2957 18.6759 36.2795 18.3771 36.1697 18.1032C35.9258 17.4484 35.2761 16.9679 34.5759 16.9401C33.938 16.9247 33.2993 16.9379 32.6614 16.9335C23.3868 16.9335 14.1129 16.9335 4.83835 16.9335C4.17771 16.9401 3.51707 16.9196 2.85643 16.9445C1.95043 17.0067 1.18871 17.8431 1.21069 18.7513Z" fill="#9FFE00"/>
<path d="M16.1498 3.0535C16.338 2.98759 16.5365 3.04911 16.705 3.13846C18.6745 4.1221 20.6447 5.105 22.6127 6.0923C22.8815 6.20802 23.0462 6.52223 22.9628 6.80787C22.9144 7.01515 22.743 7.15943 22.557 7.24293C20.5707 8.23389 18.588 9.23218 16.5988 10.2173C16.215 10.4311 15.703 10.0972 15.7279 9.6643C15.7235 7.6648 15.7257 5.6653 15.7272 3.66581C15.7126 3.39628 15.8898 3.13187 16.1498 3.0535ZM16.9364 4.60696C16.935 5.97072 16.935 7.33448 16.9364 8.69824C18.3017 8.02076 19.6625 7.33448 21.0255 6.65407C19.6639 5.96926 18.3017 5.28591 16.9364 4.60696Z" fill="white"/>
<path d="M5.59499 7.86553C6.35011 7.14923 7.60547 7.05548 8.45508 7.65972C9.03295 7.28692 9.7661 7.14996 10.4304 7.35211C11.2514 7.58428 11.9062 8.30644 12.0549 9.14726C12.1802 9.79911 12.0088 10.5022 11.5891 11.0179C11.2624 11.395 10.8896 11.729 10.5432 12.0864C10.2056 12.4043 9.91259 12.7808 9.51122 13.0232C8.84692 13.4194 7.9585 13.3953 7.31983 12.9566C6.917 12.6636 6.6006 12.2718 6.23878 11.9326C5.80299 11.4646 5.25148 11.0662 5.01198 10.4517C4.64211 9.57865 4.88454 8.49468 5.59499 7.86553ZM6.05055 9.5911C6.04835 9.94413 6.24684 10.2576 6.50245 10.4861C6.95875 10.9366 7.40772 11.395 7.86548 11.8433C8.18115 12.1656 8.74878 12.1648 9.06738 11.8477C9.56103 11.365 10.0459 10.8728 10.5344 10.3843C10.8669 10.0694 10.987 9.54569 10.7908 9.12602C10.5952 8.67705 10.0818 8.38774 9.59618 8.48662C9.1018 8.56059 8.81396 9.00883 8.46899 9.32011C8.11817 9.00664 7.82813 8.54595 7.32276 8.48369C6.67677 8.35698 6.01686 8.93632 6.05055 9.5911Z" fill="white"/>
<path d="M24.799 9.6778C25.2018 9.67706 25.6046 9.67706 26.0074 9.6778C26.0082 10.0814 26.0096 10.4842 26.006 10.8877C25.6031 10.887 25.2003 10.8892 24.7982 10.8856C24.799 10.4827 24.7975 10.0806 24.799 9.6778Z" fill="white"/>
<path d="M27.2183 9.67757C27.6211 9.67757 28.0239 9.67684 28.4267 9.67757C28.4231 10.0819 28.4392 10.4869 28.4172 10.8905C28.0173 10.8824 27.6174 10.8912 27.2168 10.8853C27.2183 10.4825 27.2161 10.0797 27.2183 9.67757Z" fill="white"/>
<path d="M29.6372 9.6778C30.04 9.67706 30.4429 9.67706 30.8457 9.6778C30.8464 10.0814 30.8479 10.4842 30.845 10.8877C30.4421 10.8863 30.0393 10.8899 29.6365 10.8856C29.6372 10.4827 29.6357 10.0799 29.6372 9.6778Z" fill="white"/>
<path d="M32.0566 9.6778C32.4595 9.67706 32.8623 9.67706 33.2659 9.6778C33.2629 10.0821 33.2754 10.4864 33.2585 10.8907C32.8572 10.8834 32.4565 10.8914 32.0559 10.8848C32.0574 10.4827 32.0552 10.0799 32.0566 9.6778Z" fill="white"/>
<path d="M24.5016 17.6206C24.8583 17.3899 25.3798 17.6704 25.3981 18.0901C25.4105 19.3374 25.3981 20.5854 25.4039 21.8335C26.2689 22.0136 27.0431 22.5842 27.4584 23.3657C27.9381 24.2372 27.9396 25.3483 27.4635 26.2221C27.0482 27.0073 26.2711 27.5815 25.4032 27.7631C25.3995 29.0068 25.4091 30.2511 25.3988 31.4948C25.3893 31.9225 24.8568 32.2052 24.4979 31.973C23.652 31.4032 22.8617 30.7448 21.9579 30.265C20.6769 29.57 19.2458 29.1562 17.7919 29.058C17.3063 29.0221 16.8193 29.036 16.3337 29.0324C16.3264 29.8776 16.3337 30.7221 16.3293 31.5673C16.3352 31.6676 16.319 31.7877 16.3974 31.8661C16.7629 32.296 17.2954 32.6183 17.4711 33.1815C17.6938 33.8356 17.3664 34.6119 16.7482 34.9166C16.3754 35.1239 15.936 35.0792 15.5258 35.0829C15.0351 35.0778 14.5444 35.0939 14.0537 35.0748C13.3374 35.0382 12.7177 34.4003 12.7046 33.6825C12.6972 32.0734 12.7046 30.4635 12.7009 28.8544C11.5854 28.5182 10.6223 27.7082 10.1118 26.6594C9.58593 25.6054 9.53979 24.3273 9.97997 23.2353C10.5549 21.7492 12.0315 20.6682 13.6237 20.5781C15.0131 20.5371 16.4055 20.6045 17.7949 20.5378C19.1974 20.4426 20.5795 20.0544 21.8254 19.4026C22.7834 18.9126 23.6139 18.2204 24.5016 17.6206ZM23.0382 20.105C21.2152 21.2234 19.0729 21.7998 16.9357 21.7734C16.935 23.789 16.9365 25.8046 16.935 27.8202C17.6872 27.821 18.4401 27.8766 19.1799 28.0158C21.0058 28.3417 22.7204 29.1562 24.1933 30.2753C24.194 26.6257 24.194 22.976 24.1933 19.3264C23.8124 19.5915 23.4359 19.8647 23.0382 20.105ZM13.6875 21.7851C12.4563 21.8569 11.3393 22.7702 11.0083 23.9553C10.7395 24.8649 10.9314 25.8969 11.5188 26.6425C12.0644 27.3581 12.9433 27.8041 13.8435 27.8188C14.4712 27.8261 15.0988 27.8202 15.7258 27.8217C15.7251 25.8054 15.7258 23.789 15.7258 21.7727C15.0461 21.7785 14.3664 21.758 13.6875 21.7851ZM25.4039 23.0947C25.4025 24.2307 25.4025 25.3666 25.4039 26.5026C26.0939 26.2529 26.608 25.571 26.6117 24.8305C26.6359 24.0695 26.1166 23.3474 25.4039 23.0947ZM13.9204 29.0287C13.8984 30.5346 13.9167 32.0412 13.9116 33.547C13.8933 33.6906 13.9753 33.8583 14.1372 33.8656C14.7692 33.8795 15.4021 33.87 16.0349 33.8707C16.2312 33.903 16.4047 33.6759 16.2963 33.5016C16.0334 33.1815 15.7038 32.9223 15.4365 32.6058C15.2189 32.3363 15.1127 31.9877 15.1208 31.6435C15.1215 30.7741 15.1208 29.904 15.1215 29.0346C14.7209 29.0295 14.321 29.0382 13.9204 29.0287Z" fill="#9FFE00"/>
<path d="M2.80217 18.1881C3.153 18.0336 3.59685 18.3009 3.62175 18.6832C3.63713 19.097 3.62688 19.5123 3.62761 19.9269C3.64738 20.2411 3.39177 20.5414 3.07537 20.5604C2.75164 20.597 2.4323 20.326 2.42425 19.9994C2.41326 19.5812 2.41839 19.1622 2.42205 18.744C2.41912 18.5031 2.57732 18.2731 2.80217 18.1881Z" fill="#9FFE00"/>
<path d="M34.2282 18.1994C34.6355 17.9928 35.1555 18.3832 35.0734 18.8307C35.0332 19.2826 34.4289 19.5221 34.0927 19.2152C33.747 18.9574 33.8291 18.3583 34.2282 18.1994Z" fill="#9FFE00"/>
<path d="M34.2274 20.6184C34.6346 20.4119 35.1547 20.8008 35.0741 21.2491C35.0345 21.7017 34.4274 21.9419 34.0912 21.6336C33.7477 21.375 33.8297 20.7774 34.2274 20.6184Z" fill="#9FFE00"/>
<path d="M2.88792 24.2106C3.23655 24.1176 3.6196 24.4039 3.62473 24.7658C3.63498 25.934 3.62473 27.1022 3.62986 28.2704C3.63279 28.4469 3.62546 28.6388 3.51047 28.7845C3.3281 29.0504 2.91868 29.1112 2.66526 28.912C2.48362 28.786 2.40526 28.5582 2.41917 28.3436C2.42064 27.1703 2.41697 25.9969 2.42064 24.8236C2.40526 24.5409 2.61033 24.2684 2.88792 24.2106Z" fill="#9FFE00"/>
<path d="M33.8707 35.0793C33.8743 33.4665 33.8641 31.853 33.8758 30.2402C34.2772 30.2432 34.6785 30.2402 35.0806 30.2424C35.0814 31.8552 35.0806 33.468 35.0806 35.0808C34.6771 35.0808 34.2735 35.0822 33.8707 35.0793Z" fill="#9FFE00"/>
<path d="M2.80676 32.7017C3.15393 32.553 3.58825 32.813 3.62121 33.188C3.63732 33.6238 3.62926 34.0618 3.62487 34.4983C3.62267 34.7928 3.37145 35.0557 3.07849 35.0762C2.7489 35.1165 2.42517 34.8352 2.42371 34.5027C2.41565 34.0831 2.41638 33.6626 2.42297 33.2422C2.4259 33.0057 2.5863 32.7837 2.80676 32.7017Z" fill="#9FFE00"/>
<path d="M23.038 20.1047C23.4357 19.8645 23.8122 19.5913 24.1931 19.3262C24.1938 22.9758 24.1938 26.6254 24.1931 30.2751C22.7202 29.1559 21.0056 28.3415 19.1797 28.0156C18.4399 27.8764 17.687 27.8207 16.9348 27.82C16.9363 25.8044 16.9348 23.7888 16.9355 21.7732C19.0727 21.7995 21.2151 21.2231 23.038 20.1047Z" fill="white"/>
<path d="M13.6874 21.7849C14.3663 21.7578 15.046 21.7783 15.7257 21.7725C15.7257 23.7888 15.725 25.8052 15.7257 27.8215C15.0988 27.8201 14.4711 27.8259 13.8434 27.8186C12.9433 27.8039 12.0644 27.3579 11.5187 26.6423C10.9313 25.8967 10.7394 24.8648 11.0082 23.9551C11.3393 22.77 12.4562 21.8567 13.6874 21.7849Z" fill="white"/>
<path d="M25.4039 23.0947C26.1166 23.3474 26.6359 24.0696 26.6117 24.8306C26.608 25.571 26.0939 26.2529 25.4039 26.5027C25.4025 25.3667 25.4025 24.2307 25.4039 23.0947Z" fill="white"/>
<path d="M13.9204 29.0288C14.321 29.0383 14.7209 29.0295 15.1215 29.0347C15.1208 29.904 15.1215 30.7742 15.1208 31.6435C15.1127 31.9878 15.2189 32.3364 15.4365 32.6059C15.7038 32.9223 16.0334 33.1816 16.2963 33.5017C16.4047 33.676 16.2311 33.903 16.0349 33.8708C15.402 33.8701 14.7692 33.8796 14.1372 33.8657C13.9753 33.8584 13.8933 33.6906 13.9116 33.5471C13.9167 32.0412 13.8984 30.5347 13.9204 29.0288Z" fill="white"/>
</svg>
