<svg width="37" height="38" viewBox="0 0 37 38" fill="none" xmlns="http://www.w3.org/2000/svg">
<path d="M16.274 0.866096C17.7577 0.864604 19.2414 0.86535 20.7259 0.866096C20.8997 1.40991 21.0743 1.95373 21.2496 2.4968C21.7084 2.64376 22.153 2.83249 22.5842 3.04584C23.0892 2.78251 23.5957 2.52365 24.1022 2.26405C25.1511 3.31215 26.2021 4.35875 27.2472 5.41132C26.9869 5.91784 26.7266 6.42436 26.4655 6.93088C26.6811 7.36056 26.8638 7.80665 27.0153 8.26319C27.5591 8.43402 28.1021 8.60857 28.6452 8.78313C28.6452 9.32695 28.6452 9.87076 28.6452 10.4146C28.6452 11.2404 28.6452 12.0654 28.6452 12.8912C28.6452 13.0068 28.6445 13.1225 28.6445 13.2381C28.1006 13.4112 27.5583 13.5887 27.0138 13.7588C26.8638 14.2146 26.6803 14.6599 26.4655 15.0896C26.7243 15.5969 26.9876 16.1026 27.2465 16.6099C26.5222 17.3372 25.7956 18.0616 25.0697 18.7867C24.2335 17.9139 23.4323 17.0083 22.6632 16.0758C23.8061 15.1329 24.6266 13.8021 24.9243 12.3481C25.2294 10.9077 25.028 9.36649 24.3588 8.05431C23.6733 6.6944 22.4999 5.58588 21.0997 4.98313C19.8472 4.43708 18.4201 4.30579 17.0863 4.5997C15.716 4.90033 14.4515 5.65675 13.537 6.72051C12.4926 7.91482 11.9107 9.50001 11.9369 11.086C11.9443 12.9994 12.8611 14.8673 14.3381 16.0765C13.5676 17.0083 12.7656 17.9139 11.9309 18.7882C11.2043 18.0638 10.4785 17.3372 9.75338 16.6114C10.0115 16.1034 10.2733 15.5976 10.5344 15.0918C10.3203 14.6614 10.1353 14.2168 9.98613 13.7595C9.4438 13.5812 8.89924 13.4089 8.35468 13.2359C8.35468 13.0143 8.35468 12.792 8.35468 12.5704C8.35468 11.8513 8.35468 11.133 8.35468 10.4146C8.35468 9.87151 8.35393 9.32844 8.35542 8.78537C8.89924 8.61156 9.44306 8.43849 9.98613 8.26095C10.1361 7.80367 10.3203 7.35832 10.5352 6.92715C10.2726 6.42287 10.0122 5.91709 9.75338 5.40983C10.8015 4.36024 11.8511 3.3114 12.9007 2.26331C13.4087 2.52216 13.9152 2.78325 14.421 3.04584C14.8499 2.82801 15.296 2.64823 15.7518 2.49605C15.9256 1.95224 16.0994 1.40917 16.274 0.866096Z" fill="white"/>
<path d="M17.0863 4.59958C18.4201 4.30567 19.8471 4.43696 21.0996 4.98301C22.4998 5.58576 23.6732 6.69428 24.3588 8.05419C25.0279 9.36637 25.2293 10.9075 24.9242 12.348C24.6266 13.8019 23.806 15.1328 22.6632 16.0757C23.4323 17.0081 24.2335 17.9138 25.0697 18.7865C26.4348 20.2166 27.8932 21.5556 29.4195 22.8118C28.6168 24.2068 27.6925 25.5399 27.0562 27.0243C26.223 28.937 25.756 31.0071 25.6829 33.0914C26.085 33.0981 26.505 33.0518 26.8876 33.207C27.571 33.4532 28.0551 34.1529 28.0476 34.8795C28.0499 35.8746 28.0484 36.8697 28.0476 37.8649C21.683 37.8656 15.3176 37.8656 8.95216 37.8656C8.9529 36.8466 8.94694 35.8276 8.95439 34.8086C8.97155 34.1051 9.4542 33.4479 10.1129 33.2062C10.4956 33.0518 10.9148 33.0981 11.3169 33.0914C11.2199 30.3417 10.4352 27.6167 9.03571 25.2459C8.55381 24.4358 8.06967 23.6272 7.58105 22.8215C9.09911 21.5526 10.5664 20.2211 11.9308 18.788C12.7656 17.9137 13.5675 17.0081 14.3381 16.0764C12.8611 14.8672 11.9443 12.9993 11.9368 11.0858C11.9107 9.49989 12.4926 7.9147 13.5369 6.72039C14.4515 5.65663 15.7159 4.90021 17.0863 4.59958ZM16.2888 6.11615C15.0751 6.6637 14.08 7.67748 13.56 8.90386C13.1043 9.95942 13.008 11.1642 13.2833 12.2809C13.5533 13.4028 14.2068 14.4218 15.0953 15.1551C15.7413 14.3726 16.3806 13.5856 17.0244 12.8016C18.0083 12.8001 18.9915 12.8008 19.9754 12.8008C20.62 13.5841 21.26 14.3711 21.9038 15.1551C23.1921 14.1093 23.9463 12.4428 23.865 10.783C23.818 9.54018 23.3152 8.32349 22.4767 7.4052C21.6524 6.49063 20.5051 5.87371 19.2862 5.69766C18.2746 5.54846 17.2198 5.69094 16.2888 6.11615ZM17.9031 13.9951C17.9024 17.6012 17.9039 21.2072 17.9024 24.8133C17.5458 25.011 17.184 25.2385 16.9736 25.6003C16.6536 26.109 16.6253 26.7827 16.8953 27.3183C17.1639 27.8695 17.7338 28.2619 18.347 28.3089C18.9721 28.3693 19.6151 28.0657 19.968 27.5465C20.3245 27.0452 20.3887 26.356 20.1313 25.798C19.9381 25.3399 19.5241 25.0363 19.0974 24.8133C19.0959 21.2072 19.0974 17.6012 19.0967 13.9951C18.6983 13.9944 18.3007 13.9944 17.9031 13.9951ZM15.1408 16.9805C13.3191 19.1819 11.3005 21.2177 9.12895 23.0752C9.56983 23.8256 10.0405 24.5589 10.4486 25.328C11.7175 27.7136 12.4172 30.3924 12.5127 33.0914C16.5044 33.0914 20.4954 33.0914 24.4871 33.0914C24.5863 30.1739 25.4009 27.2802 26.8682 24.7551C27.1965 24.1911 27.5381 23.6361 27.8716 23.0752C26.3319 21.754 24.8623 20.3501 23.4935 18.8514C22.3685 17.6415 21.3398 16.3472 20.2917 15.0708C20.2887 18.0973 20.291 21.1244 20.2902 24.1509C20.899 24.6156 21.3286 25.3131 21.4443 26.0725C21.5726 26.858 21.3615 27.689 20.8788 28.3209C20.3447 29.04 19.4704 29.4913 18.5745 29.5077C17.6077 29.539 16.6469 29.0586 16.0844 28.2731C15.5809 27.5876 15.3966 26.679 15.5981 25.8524C15.754 25.1758 16.1642 24.5731 16.7103 24.1494C16.7081 21.1229 16.711 18.0973 16.7088 15.0708C16.1859 15.7064 15.6697 16.3487 15.1408 16.9805ZM10.1472 34.8728C10.1412 35.4725 10.1465 36.0723 10.1457 36.6713C15.7152 36.672 21.2846 36.672 26.8541 36.672C26.8533 36.0738 26.8578 35.4762 26.8526 34.8787C26.8615 34.5311 26.5266 34.2469 26.1872 34.2849C21.037 34.2864 15.8867 34.2819 10.7365 34.2872C10.4232 34.2805 10.142 34.5594 10.1472 34.8728Z" fill="#9FFE00"/>
<path d="M0.777622 9.25028C1.56313 8.5058 2.86784 8.41479 3.74362 9.0526C4.20911 9.37561 4.54181 9.86944 4.69101 10.4133C5.91217 10.4155 7.13333 10.4125 8.35449 10.4148C8.35449 11.1331 8.35449 11.8515 8.35449 12.5706C6.93341 13.2771 5.68241 14.3296 4.76635 15.6284C3.73541 17.0659 3.12148 18.7943 3.00585 20.5593C3.99278 20.5593 4.9797 20.5585 5.96663 20.56C5.96737 22.1504 5.96737 23.7416 5.96663 25.3328C3.97786 25.3335 1.98909 25.3335 0.000315341 25.3335C-0.000430634 23.7423 -0.000430634 22.1512 0.000315341 20.56C0.603063 20.5585 1.20656 20.56 1.81005 20.5593C1.93165 18.3728 2.75147 16.2378 4.10915 14.5221C5.05579 13.3158 6.25979 12.3125 7.62194 11.6083C6.64472 11.6076 5.66824 11.6068 4.69101 11.6083C4.48437 12.3856 3.87715 13.0466 3.10506 13.2853C2.06518 13.6374 0.834316 13.145 0.310641 12.1842C-0.239889 11.2532 -0.0339995 9.96493 0.777622 9.25028ZM2.17707 9.83587C1.62356 9.92688 1.18269 10.4491 1.19388 11.0108C1.1797 11.618 1.70263 12.1738 2.30911 12.2006C2.99988 12.267 3.6444 11.621 3.57652 10.9302C3.54892 10.2477 2.8477 9.69489 2.17707 9.83587ZM1.19388 21.7536C1.19313 22.5488 1.19313 23.344 1.19388 24.1392C2.38669 24.1399 3.58025 24.1399 4.77307 24.1392C4.77381 23.344 4.77381 22.5488 4.77307 21.7528C3.58025 21.7528 2.38669 21.7528 1.19388 21.7536Z" fill="#9FFE00"/>
<path d="M32.3078 10.4135C32.58 9.31169 33.7065 8.50007 34.8411 8.63658C36.0578 8.72386 37.0656 9.87191 36.9962 11.0901C36.9828 12.2777 35.9578 13.337 34.771 13.3907C33.6587 13.4899 32.5763 12.6857 32.3085 11.6085C31.1343 11.6071 29.9602 11.6078 28.786 11.6085C30.5308 12.5089 32.0221 13.8957 33.0351 15.5779C33.9564 17.0758 34.4897 18.805 34.5934 20.5595C35.3953 20.5602 36.1973 20.5588 36.9992 20.5602C36.9999 22.1514 36.9999 23.7426 36.9992 25.3337C35.0104 25.3337 33.0217 25.3337 31.0329 25.333C31.0321 23.7418 31.0321 22.1507 31.0329 20.5602C31.8206 20.5588 32.6091 20.5595 33.3976 20.5595C33.2895 18.8893 32.7374 17.2489 31.8027 15.8591C30.9963 14.6447 29.9042 13.6249 28.645 12.8916C28.645 12.0658 28.645 11.2408 28.645 10.415C29.8662 10.4127 31.0873 10.4165 32.3078 10.4135ZM34.3987 9.83685C33.846 9.92935 33.4081 10.4523 33.42 11.0133C33.4066 11.619 33.928 12.1725 34.5315 12.2008C35.2238 12.2687 35.872 11.622 35.8027 10.929C35.7743 10.2456 35.0709 9.69288 34.3987 9.83685ZM32.2257 21.7538C32.2257 22.549 32.2257 23.3442 32.2264 24.1394C33.4193 24.1402 34.6128 24.1402 35.8056 24.1402C35.8064 23.3442 35.8064 22.549 35.8064 21.7538C34.6128 21.7531 33.4193 21.7531 32.2257 21.7538Z" fill="#9FFE00"/>
</svg>
