<svg width="37" height="37" viewBox="0 0 37 37" fill="none" xmlns="http://www.w3.org/2000/svg">
<path d="M13.291 0.00628334C14.774 -0.00416071 16.2578 0.00106132 17.7409 0.00329933C17.9154 0.523264 18.0758 1.04994 18.2683 1.56319C19.1948 1.80341 20.0878 2.17641 20.9129 2.66131C21.4052 2.42632 21.8894 2.17566 22.378 1.93321C22.6898 2.21296 22.9815 2.52106 23.2747 2.8217C23.5507 3.1104 23.832 3.39463 24.1229 3.66841C24.5981 4.12795 25.0592 4.60241 25.5262 5.07015C25.283 5.56103 25.033 6.04891 24.7928 6.54127C24.8771 6.68003 24.9562 6.82177 25.0204 6.97097C25.2099 7.35367 25.3889 7.74159 25.5441 8.13996C25.7082 8.48014 25.7865 8.85239 25.9089 9.20749C26.4266 9.3649 26.9368 9.54618 27.4508 9.71403C27.4576 10.0512 27.4479 10.3892 27.4568 10.7264C27.4471 11.8685 27.4583 13.0106 27.4508 14.1527C27.3158 14.19 27.1815 14.2288 27.0532 14.284C26.6765 14.4437 26.264 14.525 25.8954 14.6936C25.8067 14.9666 25.744 15.2494 25.6299 15.5142C25.4732 15.9156 25.3068 16.3124 25.127 16.7041C25.036 16.9197 24.9085 17.1166 24.8025 17.3248C24.8607 17.5329 25.0017 17.7149 25.0763 17.9216C25.2128 18.2192 25.3658 18.5094 25.5127 18.8026C25.4225 18.8906 25.3359 18.9816 25.2501 19.0734C25.1882 19.1428 25.1241 19.2084 25.0547 19.2696C24.7026 19.609 24.3572 19.9559 24.017 20.3073C23.4978 20.8534 22.9524 21.3741 22.4243 21.9112L22.3706 21.9388C21.8827 21.6971 21.4 21.4442 20.9076 21.2137C20.0885 21.7038 19.1956 22.0626 18.2757 22.3133C18.0669 22.8124 17.9192 23.3532 17.7409 23.8702C16.2578 23.8739 14.7748 23.8769 13.2924 23.8694C13.1283 23.3577 12.9538 22.8504 12.7859 22.3401C12.7247 22.273 12.6188 22.2819 12.5397 22.2484C11.6945 22.0074 10.8814 21.6553 10.1227 21.2129C9.63106 21.4531 9.14317 21.7016 8.65305 21.9448C7.60417 20.8966 6.54111 19.8582 5.51237 18.7936C5.75706 18.3072 6.00175 17.8201 6.24196 17.3322C5.7414 16.5027 5.39674 15.5888 5.11923 14.6653C4.60523 14.5049 4.0987 14.3199 3.58395 14.1617C3.57799 12.6786 3.58022 11.1963 3.58321 9.71403C4.10168 9.53872 4.63731 9.38579 5.14086 9.18063C5.38854 8.25708 5.75632 7.36486 6.24122 6.53978C6.001 6.05264 5.75781 5.56625 5.51312 5.0806C6.5426 4.01605 7.60267 2.97239 8.65752 1.93023C9.14541 2.17492 9.63255 2.41886 10.1212 2.66131C10.8799 2.21893 11.6923 1.86532 12.5382 1.62586C12.6173 1.59154 12.7262 1.60198 12.7859 1.53335C12.953 1.02383 13.1291 0.517296 13.291 0.00628334ZM14.583 3.63484C13.2805 3.77882 12.0153 4.23985 10.9231 4.96273C9.38786 5.97282 8.19873 7.50063 7.60864 9.24255C7.01482 10.9733 7.01408 12.9017 7.60939 14.6317C8.21067 16.4057 9.43337 17.9589 11.0104 18.9667C12.5114 19.9373 14.3309 20.4028 16.1138 20.2692C17.7468 20.1573 19.3418 19.5464 20.6309 18.537C22.1236 17.3859 23.2076 15.7149 23.6418 13.879C24.0394 12.2266 23.917 10.4511 23.2874 8.87104C22.5899 7.09406 21.259 5.57669 19.5932 4.64568C18.0848 3.79151 16.3041 3.44088 14.583 3.63484Z" fill="white"/>
<path d="M27.671 0.165406C29.1854 -0.152391 30.7952 -0.00169847 32.2223 0.597342C34.0068 1.33589 35.4898 2.76896 36.2933 4.52505C37.0147 6.08047 37.1863 7.87684 36.7968 9.54416C36.4932 10.8735 35.8218 12.1141 34.8833 13.1026C34.6782 13.3234 34.4536 13.5256 34.2627 13.7591C33.8971 14.2059 33.6368 14.7401 33.5144 15.3055C33.5107 15.4189 33.4227 15.548 33.4838 15.6547C34.0396 15.8695 34.4671 16.3805 34.5782 16.9662C34.6991 17.5092 34.5148 18.0852 34.1567 18.5014C34.4186 18.8162 34.5999 19.2071 34.6118 19.6212C34.6513 20.3724 34.1552 21.1154 33.4428 21.3601C33.3988 21.4698 33.4286 21.5929 33.4212 21.7085C33.4204 25.067 33.4227 28.4255 33.4197 31.7833C32.5364 33.2484 31.6076 34.6905 30.7072 36.1459C30.4387 36.6159 29.9426 36.9501 29.4002 36.9934C28.7736 37.062 28.1328 36.7338 27.8112 36.1936C26.8981 34.724 25.9649 33.2641 25.0667 31.787C25.0644 29.5721 25.0667 27.358 25.0659 25.1438C25.0555 23.8846 25.0861 22.6216 25.051 21.3646C24.5795 21.2035 24.1991 20.8215 24.0081 20.3649L24.0171 20.3075C24.3572 19.9561 24.7026 19.6092 25.0547 19.2698C25.0853 19.5085 25.0197 19.7711 25.145 19.9897C25.2584 20.1986 25.5001 20.309 25.7329 20.2926C28.0977 20.2911 30.4618 20.2956 32.8266 20.2903C33.1429 20.2971 33.4257 20.0143 33.4197 19.698C33.4286 19.3817 33.1474 19.0952 32.8303 19.1012C30.4655 19.096 28.0999 19.1005 25.7351 19.099C25.5732 19.0945 25.4084 19.1169 25.2502 19.0736C25.336 18.9819 25.4225 18.8908 25.5128 18.8028C25.3658 18.5096 25.2129 18.2194 25.0764 17.9218C27.659 17.883 30.2439 17.9188 32.8274 17.9031C33.1444 17.9098 33.4271 17.6256 33.4197 17.3086C33.4271 16.993 33.1466 16.7073 32.8303 16.714C30.2626 16.7043 27.6941 16.723 25.1271 16.7043C25.3069 16.3127 25.4733 15.9158 25.6299 15.5144C26.1879 15.5226 26.7467 15.5167 27.3054 15.5174C27.2286 15.1049 27.0973 14.7005 27.0533 14.2843C27.1816 14.2291 27.3159 14.1903 27.4509 14.153C27.4584 13.0108 27.4472 11.8687 27.4569 10.7266C27.8247 12.3186 28.173 13.9157 28.5229 15.5122C29.0041 15.5197 29.486 15.5271 29.9664 15.5085C30.3059 13.918 30.6707 12.3327 31.0183 10.7445C31.0452 10.6482 31.0459 10.5408 31.1026 10.4565C31.6255 9.73141 32.1955 9.03688 32.6968 8.29834C32.2753 7.62246 31.8755 6.93315 31.4629 6.25205C30.7147 6.79365 29.9866 7.36359 29.2406 7.90743C28.4931 7.3442 27.7441 6.7832 26.9951 6.22221C26.5259 6.88168 26.0827 7.55979 25.6038 8.21105L25.5441 8.14018C25.389 7.74182 25.2099 7.3539 25.0204 6.9712C25.5889 6.16104 26.1469 5.34267 26.7153 4.53251C27.5703 5.14125 28.3976 5.79176 29.2436 6.41468C30.0985 5.78057 30.9474 5.13827 31.7994 4.49969C32.5849 5.7858 33.3451 7.08683 34.1336 8.37144C33.598 9.154 32.9967 9.89702 32.4365 10.6639C32.3402 10.8116 32.1865 10.9325 32.1589 11.1145C31.8352 12.5826 31.5054 14.0493 31.1824 15.5174C31.5465 15.5129 31.9113 15.5308 32.2746 15.5077C32.3775 14.5864 32.7617 13.7009 33.3525 12.9877C33.5995 12.6878 33.8912 12.4282 34.1493 12.138C35.0631 11.1175 35.6435 9.80303 35.7741 8.43784C35.918 7.03311 35.5973 5.58363 34.8625 4.3766C34.0642 3.04498 32.7796 2.01251 31.304 1.52686C29.9433 1.07329 28.4327 1.08672 27.0809 1.56565C25.9231 1.97073 24.8899 2.71301 24.123 3.66864C23.832 3.39486 23.5508 3.11063 23.2748 2.82193C24.3841 1.47464 25.9604 0.51752 27.671 0.165406ZM26.2603 21.4869C26.2595 24.547 26.2588 27.6064 26.2603 30.6665C26.6587 30.4673 27.06 30.2726 27.4539 30.0652C27.4517 27.2058 27.4539 24.3464 27.4524 21.4869C27.0548 21.4854 26.6572 21.4854 26.2603 21.4869ZM28.6475 21.4869C28.6505 24.3919 28.6385 27.2968 28.6535 30.2017C28.8549 30.3912 29.0444 30.5941 29.2443 30.7859C29.442 30.5941 29.633 30.395 29.8322 30.2047C29.8508 27.2998 29.8351 24.3926 29.8396 21.4869C29.442 21.4854 29.0444 21.4854 28.6475 21.4869ZM31.0347 21.4869C31.0332 24.3471 31.034 27.2073 31.034 30.0682C31.4308 30.2681 31.8299 30.4636 32.2268 30.6643C32.2276 27.6049 32.2283 24.5455 32.2268 21.4862C31.8292 21.4862 31.4316 21.4854 31.0347 21.4869ZM26.5251 31.8653C27.2734 33.1059 28.0582 34.3271 28.8228 35.5581C28.9907 35.8721 29.5009 35.8691 29.668 35.5558C30.4297 34.3249 31.2167 33.1059 31.9605 31.8661C31.5017 31.6348 31.0407 31.4073 30.5826 31.1745C30.1037 31.5557 29.7098 32.0556 29.2443 32.4606C28.8019 32.0511 28.3864 31.6102 27.9582 31.1857C27.4658 31.3543 27.0085 31.655 26.5251 31.8653Z" fill="#9FFE00"/>
<path d="M14.583 3.63505C16.3041 3.44109 18.0848 3.79171 19.5932 4.64589C21.259 5.5769 22.5899 7.09427 23.2874 8.87125C23.917 10.4513 24.0394 12.2268 23.6417 13.8792C23.2076 15.7151 22.1236 17.3861 20.6309 18.5372C19.3418 19.5466 17.7468 20.1575 16.1138 20.2694C14.3309 20.403 12.5114 19.9375 11.0104 18.9669C9.43336 17.9591 8.21066 16.4059 7.60938 14.6319C7.01407 12.9019 7.01482 10.9735 7.60864 9.24276C8.19873 7.50084 9.38786 5.97303 10.9231 4.96294C12.0153 4.24006 13.2805 3.77903 14.583 3.63505ZM15.0799 4.78987C13.3178 4.88983 11.6095 5.6791 10.3853 6.9488C9.1648 8.19239 8.427 9.89552 8.36285 11.6374C8.29496 13.1518 8.7269 14.6834 9.58032 15.9359C10.5613 17.3943 12.0944 18.4768 13.8049 18.8878C15.4394 19.2996 17.2179 19.0997 18.7226 18.3395C20.3138 17.5443 21.588 16.1358 22.2139 14.4693C22.7741 13.0011 22.8271 11.3472 22.3653 9.84553C21.8416 8.11331 20.6294 6.60489 19.0553 5.71342C17.858 5.0256 16.457 4.70333 15.0799 4.78987Z" fill="#9FFE00"/>
<path d="M11.9669 7.80301C12.3063 7.72095 12.6696 7.759 12.9889 7.89999C15.0971 8.77879 17.2076 9.65236 19.3143 10.5349C19.8365 10.7288 20.2319 11.2264 20.2811 11.7844C20.3579 12.4253 19.964 13.078 19.3665 13.316C17.4142 14.1366 15.4567 14.9445 13.5029 15.7614C13.1396 15.8986 12.789 16.1068 12.3899 16.1135C11.7289 16.1456 11.0821 15.7159 10.8509 15.0974C10.7181 14.7819 10.7434 14.4335 10.7427 14.1C10.7434 12.5088 10.7412 10.9168 10.7442 9.32561C10.7412 8.6169 11.2761 7.95594 11.9669 7.80301ZM12.1825 8.98394C12.0221 9.0466 11.9214 9.22117 11.9363 9.39125C11.9363 11.0869 11.9363 12.7826 11.9363 14.4783C11.902 14.7684 12.2392 15.0139 12.5033 14.8826C14.6279 14.003 16.7495 13.1146 18.8726 12.232C19.1337 12.1671 19.177 11.7673 18.9211 11.6666C16.7831 10.7691 14.6421 9.8784 12.501 8.98991C12.4011 8.94365 12.2839 8.93992 12.1825 8.98394Z" fill="#9FFE00"/>
<path d="M0.000861411 21.486C1.59209 21.486 3.18331 21.4853 4.77379 21.4868C4.77528 26.2604 4.77379 31.0349 4.77528 35.8085C5.17216 35.8093 5.56978 35.8093 5.9674 35.8085C5.96889 31.8301 5.9674 27.8524 5.96814 23.874C7.55937 23.8725 9.15134 23.8725 10.7426 23.874C10.7433 27.8524 10.7418 31.8309 10.7433 35.8085C11.1409 35.8093 11.5378 35.8093 11.9354 35.8085C11.9369 33.4221 11.9354 31.0349 11.9369 28.6484C13.5274 28.6469 15.1186 28.6477 16.7098 28.6484C16.7121 31.0349 16.7098 33.4221 16.7113 35.8085C17.1082 35.8093 17.5058 35.8093 17.9035 35.8085C17.9057 32.6261 17.9035 29.4436 17.9049 26.2612C19.4962 26.2597 21.0867 26.2597 22.6779 26.2612C22.6786 29.8413 22.6794 33.4221 22.6779 37.0022C15.1186 37.0029 7.55937 37.0036 0.000861411 37.0022C0.000115407 31.8301 -0.000630596 26.6581 0.000861411 21.486ZM1.19447 22.6804C1.19298 27.0564 1.19298 31.4325 1.19447 35.8085C1.98971 35.8093 2.78495 35.81 3.58019 35.8085C3.58093 31.4325 3.58093 27.0564 3.58093 22.6804C2.78495 22.6789 1.98971 22.6796 1.19447 22.6804ZM7.16175 25.0676C7.16175 28.6477 7.161 32.2285 7.1625 35.8085C7.95774 35.8093 8.75298 35.8093 9.54821 35.8085C9.54896 32.2285 9.54971 28.6477 9.54821 25.0676C8.75298 25.0668 7.95774 25.0661 7.16175 25.0676ZM19.0986 27.4548C19.0978 30.2396 19.0971 33.0245 19.0986 35.8085C19.8938 35.8093 20.689 35.8093 21.4843 35.8085C21.4858 33.0245 21.485 30.2396 21.4843 27.4548C20.689 27.4533 19.8938 27.4533 19.0986 27.4548ZM13.1298 29.842C13.1298 31.8309 13.129 33.8197 13.1305 35.8093C13.9258 35.8093 14.721 35.81 15.5162 35.8085C15.517 33.8197 15.517 31.8309 15.5162 29.842C14.721 29.8413 13.9258 29.8405 13.1298 29.842Z" fill="#9FFE00"/>
</svg>
