<svg width="39" height="37" viewBox="0 0 39 37" fill="none" xmlns="http://www.w3.org/2000/svg">
<path d="M4.60016 0.830566H15.9651C16.5523 0.904134 17.1032 1.22797 17.3831 1.71957C17.5919 2.05234 17.6222 2.44562 17.6096 2.82171C17.6037 5.02118 17.6163 7.22133 17.6037 9.4208C17.5874 10.272 16.7826 11.0228 15.8666 11.0469C14.8174 11.0606 13.7668 11.0469 12.7168 11.053C12.7094 11.4044 12.7331 11.7564 12.7042 12.1071C12.6472 12.666 12.1741 13.1569 11.5862 13.2828C11.0982 13.3969 10.5577 13.2518 10.2023 12.9232C9.52629 12.3023 8.86063 11.6725 8.18461 11.0517C7.02509 11.0489 5.86556 11.0579 4.70604 11.0482C3.75532 11.0393 2.91862 10.2445 2.93565 9.3603C2.93343 7.06595 2.92973 4.77091 2.93714 2.47587C2.94454 1.63775 3.71015 0.907572 4.60016 0.830566ZM4.15812 2.55081C4.15441 4.79772 4.15738 7.04463 4.15664 9.29154C4.12109 9.61744 4.42467 9.9289 4.78082 9.91377C6.08399 9.91859 7.38716 9.91308 8.69033 9.91584C9.48408 10.6474 10.2689 11.3879 11.0664 12.1167C11.2012 12.2508 11.4847 12.1442 11.4892 11.9634C11.501 11.2813 11.4892 10.5979 11.4944 9.91584C12.9093 9.91446 14.3243 9.91721 15.7386 9.91446C16.071 9.93577 16.385 9.67176 16.3827 9.36098C16.3901 7.11407 16.3827 4.86717 16.3864 2.61957C16.402 2.40712 16.3131 2.1816 16.114 2.06334C15.9177 1.93339 15.6653 1.97327 15.4402 1.9664C12.0356 1.96846 8.6311 1.96708 5.22657 1.96708C5.02961 1.96983 4.83265 1.95608 4.63718 1.98084C4.35655 2.03171 4.14479 2.28611 4.15812 2.55081Z" fill="#9FFE00"/>
<path d="M5.37911 3.10221C8.64074 3.10084 11.9016 3.10084 15.1625 3.10153C15.1529 3.48037 15.1884 3.85852 15.1692 4.23667C11.9053 4.23736 8.64148 4.23804 5.37763 4.23598C5.36875 3.85783 5.38281 3.48037 5.37911 3.10221Z" fill="#9FFE00"/>
<path d="M20.7358 4.44903C21.146 4.28745 21.594 4.23107 22.0367 4.23589C26.3054 4.23657 30.574 4.23657 34.8426 4.23589C35.3787 4.22626 35.931 4.23589 36.436 4.42634C37.5607 4.81411 38.3604 5.86263 38.3982 6.97439V32.2693C38.3189 33.0126 37.9435 33.731 37.3245 34.2144C36.7648 34.6647 36.0251 34.9068 35.2854 34.8964C30.8442 34.8964 26.4031 34.8958 21.9619 34.8964C21.5281 34.8992 21.0912 34.8304 20.6928 34.6682C19.6059 34.2481 18.8388 33.2058 18.8343 32.1091C18.8269 30.01 18.8343 27.9109 18.8306 25.8119C18.0125 25.8119 17.195 25.8098 16.3768 25.8125C16.4353 27.0708 16.0696 28.3235 15.4306 29.4277C15.9792 29.7302 16.3783 30.2782 16.3828 30.8818C16.3902 32.5986 16.3835 34.3161 16.3857 36.033H5.37986C5.37912 34.475 5.37986 32.917 5.37912 31.359C5.38134 31.042 5.35765 30.7161 5.46797 30.4109C5.61236 29.9818 5.95444 29.6202 6.38463 29.4167C6.13881 28.7724 5.82634 28.1509 5.58644 27.5046C5.38578 26.9608 5.36949 26.3805 5.37838 25.8119C4.31807 25.8064 3.25777 25.8201 2.1982 25.8057C1.32819 25.772 0.591454 25.0872 0.487793 24.2944V21.6611C0.58479 20.8663 1.32227 20.1774 2.19302 20.1423C3.25481 20.1286 4.31659 20.1416 5.37912 20.1361C5.39763 19.4754 5.31618 18.8002 5.51166 18.1553C5.89891 16.7637 7.30426 15.6843 8.85251 15.6052C10.5888 15.5488 12.3333 15.8871 13.9201 16.5409C14.7264 16.871 15.5313 17.2065 16.3376 17.5372C16.9944 17.7978 17.4838 18.3856 17.5837 19.0436C17.6526 19.4142 17.5682 19.7924 17.4186 20.1375C17.8895 20.1361 18.3605 20.1375 18.8314 20.1361C18.8329 15.786 18.8299 11.4352 18.8329 7.08509C18.8129 5.9527 19.6051 4.86568 20.7358 4.44903ZM20.0612 6.95239C20.0457 7.56087 20.0583 8.17004 20.0553 8.77852C22.0974 8.77921 24.1388 8.77783 26.181 8.77921C25.8093 8.30961 25.5731 7.74238 25.5605 7.15591C25.5531 6.56255 25.559 5.96851 25.5583 5.37447C24.3084 5.37378 23.0585 5.36828 21.8087 5.37653C20.9076 5.39372 20.1049 6.11633 20.0612 6.95239ZM26.7807 5.37309C26.7859 5.99051 26.7689 6.60862 26.7896 7.22604C26.8488 8.08203 27.7011 8.8019 28.6244 8.77852C29.544 8.79227 30.3844 8.07103 30.4407 7.21847C30.4607 6.6038 30.4429 5.98914 30.4496 5.37378C29.2264 5.37172 28.0039 5.37309 26.7807 5.37309ZM31.672 5.37309C31.6691 5.96576 31.6772 6.55843 31.6691 7.15109C31.6572 7.73826 31.4196 8.30686 31.0493 8.77852C33.0915 8.77715 35.1336 8.78058 37.1757 8.77715C37.169 8.16729 37.1861 7.55812 37.1676 6.94895C37.1217 6.12183 36.3346 5.40197 35.4416 5.3779C34.1851 5.3669 32.9286 5.37584 31.672 5.37309ZM20.0546 9.91573C20.0546 13.3225 20.0538 16.7293 20.0546 20.1368C20.3522 20.1547 20.6647 20.088 20.949 20.1932C22.3647 20.691 23.7849 21.1771 25.1999 21.6769C25.7411 21.8626 26.1358 22.3597 26.1639 22.8953C26.2076 23.4797 25.8026 24.0586 25.2139 24.2649C23.796 24.7668 22.3729 25.2543 20.9535 25.7527C20.6684 25.8614 20.3537 25.7926 20.0553 25.8112C20.0538 26.19 20.0546 26.5688 20.0546 26.9477C25.7611 26.9491 31.4677 26.9477 37.1742 26.9484C37.1757 21.2706 37.1764 15.5928 37.1742 9.91504C31.4677 9.91641 25.7611 9.91435 20.0546 9.91573ZM6.79854 18.1636C6.50458 18.7858 6.62824 19.4788 6.60306 20.1368C7.43235 20.1368 8.2609 20.1368 9.08945 20.1368C9.27604 18.9068 10.4741 17.8899 11.8187 17.8672C12.5325 17.8239 13.2507 18.2041 13.5647 18.8023C13.792 19.2423 14.0023 19.6899 14.2199 20.1348C14.6524 20.1368 15.084 20.141 15.5164 20.1334C15.8963 20.1348 16.2561 19.8831 16.3517 19.5407C16.4731 19.1708 16.2561 18.7445 15.8748 18.5919C15.0707 18.2543 14.2614 17.9264 13.4551 17.5915C12.0593 17.0119 10.5274 16.708 8.9969 16.7335C8.04914 16.7685 7.15691 17.3481 6.79854 18.1636ZM10.3015 20.2475C10.2401 20.6594 10.2453 21.1021 10.4563 21.4789C10.9576 22.4119 11.4596 23.3449 11.9631 24.2772C12.0305 24.4065 12.1267 24.5344 12.1067 24.6863C12.1038 25.4399 12.1067 26.1941 12.1053 26.9477C11.6973 26.9477 11.29 26.9491 10.882 26.947C10.8843 26.5709 10.8783 26.1941 10.8865 25.818C9.45819 25.8043 8.02914 25.8119 6.60084 25.8146C6.59566 26.2931 6.5927 26.7854 6.77929 27.2399C7.05029 27.9027 7.35016 28.5552 7.62338 29.2173C9.80619 29.2262 11.9897 29.22 14.1726 29.2207C14.388 28.813 14.6242 28.4129 14.7893 27.9845C15.2543 26.8026 15.2854 25.4763 14.8626 24.28C14.736 23.9073 14.5517 23.5546 14.3784 23.1992C13.7549 21.9245 13.1308 20.6504 12.5073 19.3757C12.4273 19.1894 12.2496 19.0388 12.0327 19.0086C11.2271 18.9329 10.4393 19.5112 10.3015 20.2475ZM1.71544 21.8062C1.70433 22.5597 1.71248 23.314 1.711 24.0682C1.68138 24.39 1.9857 24.6891 2.3337 24.6767C2.9416 24.6829 3.54876 24.6781 4.15666 24.6781C4.15592 23.5423 4.15666 22.4057 4.15666 21.2699C3.55098 21.2699 2.94604 21.2665 2.34111 21.2706C2.02272 21.2582 1.71988 21.5057 1.71544 21.8062ZM5.3806 21.2685C5.37912 21.6474 5.37912 22.0269 5.3806 22.4057C6.78299 22.4044 8.18538 22.4078 9.58776 22.4044C9.38711 22.0434 9.17756 21.6776 9.10352 21.2727C7.86255 21.2644 6.62157 21.272 5.3806 21.2685ZM14.7782 21.2692C14.9611 21.6481 15.1492 22.0248 15.3313 22.4037C16.9055 22.4078 18.4797 22.4051 20.0538 22.4057C20.0546 22.0269 20.0553 21.6481 20.0538 21.2692C18.2953 21.2685 16.5368 21.2692 14.7782 21.2692ZM21.2785 21.5209C21.2763 22.4889 21.2763 23.4563 21.2785 24.4244C22.4351 24.0215 23.5939 23.6234 24.749 23.2157C25.0044 23.1572 25.0029 22.7894 24.7475 22.7316C23.5939 22.3205 22.4329 21.9293 21.2785 21.5209ZM5.3806 23.5423C5.37838 23.9211 5.37912 24.2999 5.37986 24.6795C7.19023 24.6788 9.0006 24.6802 10.811 24.6788C10.6007 24.2992 10.4104 23.9094 10.186 23.5374C8.58447 23.5491 6.98217 23.5395 5.3806 23.5423ZM15.8748 23.5429C16.0162 23.9156 16.1503 24.2917 16.2376 24.6795C17.5097 24.6795 18.7818 24.6795 20.0538 24.6788C20.0583 24.3041 20.0472 23.9287 20.0605 23.5539C18.6663 23.5278 17.2698 23.5491 15.8748 23.5429ZM20.0553 28.0849C20.0561 29.4297 20.0501 30.7746 20.0575 32.1187C20.0657 33.0071 20.9335 33.7785 21.8864 33.762C26.329 33.7668 30.7717 33.7627 35.2143 33.764C35.6201 33.773 36.0354 33.6857 36.3701 33.4657C36.8706 33.1542 37.1831 32.6028 37.175 32.0431C37.1764 30.7237 37.1742 29.405 37.1757 28.0863C31.4692 28.0828 25.7619 28.0856 20.0553 28.0849ZM6.6038 30.9451C6.60084 32.2618 6.60306 33.5784 6.60306 34.8958C9.45597 34.8964 12.3089 34.8964 15.1625 34.8958C15.1625 33.5798 15.1647 32.2638 15.1618 30.9485C15.1869 30.6082 14.8419 30.3201 14.4828 30.3545C12.0616 30.3552 9.64034 30.3511 7.21985 30.3559C6.88221 30.3456 6.58233 30.6309 6.6038 30.9451Z" fill="#9FFE00"/>
<path d="M5.3776 5.37534C7.41676 5.37053 9.45519 5.37328 11.4943 5.37396C11.4936 5.75212 11.4951 6.13027 11.4936 6.50842C9.45519 6.50842 7.41602 6.50979 5.3776 6.50773C5.37316 6.13027 5.37316 5.7528 5.3776 5.37534Z" fill="#9FFE00"/>
<path d="M12.7168 5.37335C13.5305 5.37198 14.345 5.37266 15.1588 5.37335C15.1662 5.78382 15.1625 6.19429 15.1632 6.60475L15.1188 6.50918C14.3184 6.50781 13.5179 6.50918 12.7175 6.50918C12.7153 6.13034 12.7168 5.75219 12.7168 5.37335Z" fill="#9FFE00"/>
<path d="M28.3551 6.56217C28.6638 6.41847 29.0763 6.57524 29.1866 6.87844C29.3176 7.17753 29.1096 7.54743 28.7734 7.62237C28.4824 7.70282 28.15 7.5433 28.0463 7.28066C27.9256 7.0132 28.0722 6.68043 28.3551 6.56217Z" fill="#9FFE00"/>
<path d="M5.37764 7.64591C8.64075 7.64247 11.9046 7.64178 15.1684 7.64591C15.1825 8.02475 15.1662 8.40496 15.1514 8.7838C11.895 8.77349 8.63779 8.78174 5.3806 8.77968C5.38209 8.40152 5.3695 8.02337 5.37764 7.64591Z" fill="#9FFE00"/>
<path d="M21.278 11.0508C24.1309 11.0501 26.9846 11.0501 29.8375 11.0508C29.8382 13.6999 29.8382 16.3497 29.8375 18.9989C26.9846 18.9996 24.1309 18.9996 21.278 18.9989C21.2773 16.3497 21.2773 13.6999 21.278 11.0508ZM22.5005 12.1866C22.5005 14.0788 22.5005 15.9709 22.5005 17.8637C24.5389 17.8644 26.5766 17.8637 28.6143 17.8637C28.6158 15.9716 28.615 14.0788 28.615 12.186C26.5766 12.186 24.5389 12.1853 22.5005 12.1866Z" fill="#9FFE00"/>
<path d="M31.0612 11.0511C32.6917 11.0497 34.3221 11.0504 35.9526 11.0511C35.9511 11.4292 35.957 11.8074 35.9533 12.1862C34.3214 12.1869 32.6894 12.1862 31.0583 12.1862C31.0449 11.8081 31.0664 11.4299 31.0612 11.0511Z" fill="#9FFE00"/>
<path d="M31.0576 13.3221C32.6895 13.3221 34.3215 13.3214 35.9534 13.3221C35.9556 13.7002 35.9556 14.0791 35.9534 14.4572C34.3215 14.4579 32.6895 14.4572 31.0583 14.4579C31.0509 14.0791 31.0517 13.7002 31.0576 13.3221Z" fill="#9FFE00"/>
<path d="M31.0582 15.5929C32.6894 15.5929 34.3213 15.5923 35.9532 15.5936C35.9554 15.9718 35.9554 16.3499 35.9532 16.7281C34.3213 16.7288 32.6894 16.7288 31.0575 16.7288C31.0515 16.3499 31.0515 15.9711 31.0582 15.5929Z" fill="#9FFE00"/>
<path d="M31.0583 17.8639C32.6894 17.8639 34.3214 17.8633 35.9533 17.8646C35.957 18.2428 35.9511 18.6209 35.9526 18.9991C34.3221 18.9998 32.6917 18.9998 31.0612 18.9991C31.0664 18.6209 31.0449 18.2421 31.0583 17.8639Z" fill="#9FFE00"/>
<path d="M27.3894 20.6779C27.3901 20.495 27.3857 20.3121 27.4035 20.1299C30.2527 20.1416 33.1026 20.1313 35.9526 20.1354C35.9511 20.5135 35.957 20.8917 35.9533 21.2705C33.1011 21.2719 30.2482 21.2691 27.3961 21.2712C27.3916 21.0732 27.3901 20.8752 27.3894 20.6779Z" fill="#9FFE00"/>
<path d="M27.396 22.4048C30.2482 22.4075 33.1011 22.4048 35.9532 22.4062C35.9554 22.7843 35.9554 23.1625 35.9532 23.5413C33.1003 23.5427 30.2482 23.5406 27.3953 23.542C27.3893 23.1631 27.3886 22.7836 27.396 22.4048Z" fill="#9FFE00"/>
<path d="M27.3961 24.6763C30.249 24.679 33.1011 24.6763 35.9533 24.6776C35.9577 25.0558 35.9511 25.4339 35.9526 25.8128C33.1011 25.8155 30.2497 25.8093 27.3983 25.8162C27.3909 25.632 27.3894 25.4477 27.3894 25.2634C27.3901 25.0675 27.3916 24.8722 27.3961 24.6763Z" fill="#9FFE00"/>
<path d="M25.8418 29.2611C25.9743 29.226 26.1135 29.2212 26.2512 29.2212C27.8565 29.2239 29.4618 29.2212 31.067 29.2226C31.5468 29.2157 32.0081 29.5058 32.1873 29.917C32.3287 30.2188 32.2725 30.5557 32.2836 30.8747C32.2673 31.2391 32.3435 31.6269 32.1688 31.9686C31.9778 32.3605 31.5298 32.628 31.0663 32.6259C29.4388 32.6294 27.8106 32.628 26.1824 32.6266C25.7144 32.6342 25.2598 32.3702 25.0636 31.9755C24.891 31.6537 24.9592 31.2866 24.9466 30.9414C24.9614 30.608 24.8955 30.2587 25.031 29.9404C25.168 29.6131 25.4767 29.3539 25.8418 29.2611ZM26.1787 30.3508C26.1572 30.7304 26.1735 31.1106 26.1698 31.4908C27.8002 31.4915 29.4299 31.4908 31.0611 31.4908C31.0604 31.1119 31.0618 30.7324 31.0589 30.3536C29.4321 30.3522 27.8054 30.3591 26.1787 30.3508Z" fill="#9FFE00"/>
<path d="M5.37756 4.23584C8.64141 4.2379 11.9053 4.23722 15.1691 4.23653C15.1521 5.00108 15.1728 5.76701 15.1898 6.53019C15.138 6.8994 15.1684 7.27412 15.1684 7.64608C11.9045 7.64196 8.64067 7.64264 5.37756 7.64608C5.38053 7.26655 5.38053 6.88703 5.37756 6.5075C7.41599 6.50956 9.45515 6.50819 11.4936 6.50819C11.4951 6.13004 11.4936 5.75189 11.4943 5.37373C9.45515 5.37305 7.41673 5.3703 5.37756 5.37511C5.38053 4.99558 5.38053 4.61537 5.37756 4.23584ZM12.7168 5.37305C12.7168 5.75188 12.7153 6.13004 12.7175 6.50888C13.5179 6.50888 14.3183 6.5075 15.1188 6.50888L15.1632 6.60445C15.1624 6.19398 15.1661 5.78351 15.1587 5.37305C14.345 5.37236 13.5305 5.37167 12.7168 5.37305Z" fill="white"/>
<path d="M31.0581 12.1865C32.6893 12.1865 34.3212 12.1872 35.9531 12.1865C35.9517 12.5647 35.9517 12.9435 35.9531 13.3224C34.3212 13.3217 32.6893 13.3224 31.0574 13.3224C31.0618 12.9435 31.0618 12.5654 31.0581 12.1865Z" fill="white"/>
<path d="M31.0582 14.4577C32.6894 14.457 34.3213 14.4577 35.9533 14.457C35.9518 14.8359 35.9518 15.2147 35.9533 15.5935C34.3213 15.5922 32.6894 15.5929 31.0582 15.5929C31.0619 15.214 31.0619 14.8359 31.0582 14.4577Z" fill="white"/>
<path d="M31.0574 16.7287C32.6893 16.7287 34.3212 16.7287 35.9531 16.728C35.9517 17.1069 35.9517 17.4857 35.9531 17.8645C34.3212 17.8632 32.6893 17.8639 31.0581 17.8639C31.0618 17.4857 31.0626 17.1069 31.0574 16.7287Z" fill="white"/>
<path d="M27.3893 20.6782C27.39 20.8755 27.3915 21.0736 27.396 21.2716C30.2481 21.2695 33.101 21.2723 35.9532 21.2709C35.9517 21.649 35.9517 22.0279 35.9532 22.4067C33.101 22.4053 30.2481 22.4081 27.396 22.4053C27.3886 22.7842 27.3893 23.1637 27.3952 23.5425C30.2481 23.5412 33.1003 23.5432 35.9532 23.5419C35.9517 23.9207 35.9517 24.2989 35.9532 24.6777C33.101 24.6763 30.2489 24.6791 27.396 24.6763C27.3915 24.8723 27.39 25.0675 27.3893 25.2635C27.3545 24.7306 27.4159 24.195 27.3893 23.6608C27.3456 22.9739 27.4026 22.2864 27.3923 21.5995C27.3982 21.2922 27.3471 20.9842 27.3893 20.6782Z" fill="white"/>
</svg>
