<svg width="42" height="42" viewBox="0 0 42 42" fill="none" xmlns="http://www.w3.org/2000/svg">
<path d="M4.06547 0H37.9345C37.9345 3.16148 37.9345 6.32297 37.9345 9.48363C38.6728 9.46969 39.4455 9.49512 40.1141 9.84785C41.2396 10.3876 41.9738 11.5902 42 12.8313V34.5811C41.9697 35.4096 41.6637 36.2316 41.0927 36.8394C40.6145 37.3562 39.973 37.7171 39.2848 37.8591C38.7737 37.9526 38.2528 37.9345 37.7368 37.9345C35.093 37.9345 32.4499 37.9345 29.8061 37.9345C29.8061 38.8377 29.8036 39.7409 29.8069 40.644C30.71 40.644 31.6124 40.6424 32.5155 40.6448C32.5155 41.0968 32.5155 41.548 32.5155 42H9.48445C9.48445 41.548 9.48445 41.0968 9.48445 40.6457C10.3876 40.6416 11.29 40.644 12.1923 40.644C12.1964 39.7409 12.1939 38.8377 12.1939 37.9345C9.38684 37.9354 6.57973 37.9329 3.7718 37.9362C3.12785 37.946 2.46422 37.8763 1.8859 37.5711C0.758789 37.0297 0.0237891 35.8247 0 34.5811V12.8321C0.02625 11.591 0.759609 10.3893 1.88508 9.84867C2.55363 9.49512 3.32637 9.46969 4.06547 9.48445C4.06629 6.32297 4.06547 3.16148 4.06547 0ZM5.41898 1.3568C5.41898 2.9359 5.41898 4.51582 5.4198 6.09574C5.41898 12.1923 5.41898 18.2889 5.4198 24.3854C7.48617 24.3862 9.55254 24.3871 11.6189 24.3854C10.7674 22.908 10.2638 21.2321 10.1793 19.5284C10.1054 17.7663 10.4393 15.983 11.1989 14.3883C11.9109 12.8609 12.9847 11.4983 14.3153 10.4606C17.1454 8.15062 21.2002 7.5157 24.6241 8.76012C26.647 9.47379 28.4452 10.8076 29.7175 12.5352C30.9405 14.1988 31.6928 16.2159 31.8068 18.2823C31.961 20.3987 31.4409 22.5496 30.3811 24.3854C32.4475 24.3871 34.5138 24.3862 36.5802 24.3854C36.581 18.2889 36.581 12.1923 36.5802 6.09574C36.581 4.51582 36.581 2.9359 36.581 1.35598C26.1934 1.35598 15.8066 1.35598 5.41898 1.3568ZM15.2283 11.4614C13.1119 13.0815 11.7272 15.6278 11.5566 18.2905C11.2695 21.4799 12.7993 24.7357 15.3858 26.6077C15.7672 26.8587 16.1306 27.1409 16.5391 27.3492C18.3012 28.3057 20.3766 28.6453 22.356 28.3492C23.8596 28.1228 25.296 27.5354 26.5379 26.6585C27.6855 25.8333 28.6437 24.7488 29.3237 23.5102C30.1924 21.9278 30.5919 20.0895 30.45 18.2905C30.3909 17.3636 30.1875 16.4464 29.852 15.581C29.222 13.9191 28.108 12.4466 26.6831 11.3851C24.9728 10.0948 22.8129 9.41309 20.6711 9.49512C18.7105 9.55336 16.7688 10.2457 15.2283 11.4614ZM2.51016 11.0455C1.78664 11.3802 1.32727 12.1677 1.3568 12.9601C1.35598 19.0271 1.35598 25.0942 1.3568 31.1612C14.4523 31.162 27.5477 31.1612 40.6432 31.162C40.6448 25.2582 40.6424 19.3553 40.644 13.4515C40.6432 13.1201 40.658 12.7854 40.5956 12.4581C40.4857 11.9077 40.1297 11.4146 39.6473 11.13C39.1371 10.8052 38.5137 10.8289 37.9337 10.8396C37.9345 15.8074 37.9354 20.7752 37.9337 25.743C35.1053 25.7422 32.2777 25.743 29.45 25.743C28.0875 27.4452 26.1975 28.7134 24.109 29.3336C22.0615 29.9636 19.8245 29.9496 17.7819 29.3065C15.7279 28.6871 13.915 27.3935 12.5573 25.743C9.72727 25.743 6.89719 25.7422 4.06629 25.743C4.06465 20.7752 4.06547 15.8074 4.06629 10.8396C3.54375 10.8371 2.99004 10.7994 2.51016 11.0455ZM1.35598 32.5164C1.36172 33.2145 1.34613 33.9134 1.36336 34.6114C1.37813 35.2095 1.67508 35.7911 2.15168 36.1528C2.53805 36.4629 3.0409 36.5909 3.53063 36.581C15.0413 36.581 26.5527 36.5802 38.0633 36.581C38.544 36.5851 39.051 36.6007 39.4915 36.3743C40.1592 36.0585 40.6219 35.3546 40.6366 34.6139C40.6539 33.915 40.6383 33.2153 40.644 32.5164C27.5477 32.5147 14.4523 32.5139 1.35598 32.5164ZM13.5491 37.9337C13.5466 38.8369 13.5483 39.74 13.5483 40.6432C18.5161 40.644 23.4839 40.644 28.4525 40.6432C28.4509 39.74 28.4534 38.8369 28.4509 37.9337C23.4839 37.9345 18.5161 37.9345 13.5491 37.9337Z" fill="#9FFE00"/>
<path d="M6.77584 2.70898C7.22702 2.70898 7.67737 2.70898 8.12854 2.70898C8.12936 3.16098 8.13018 3.61297 8.12772 4.06578C7.67737 4.06496 7.2262 4.0666 6.77502 4.06414C6.77584 3.61297 6.7742 3.16098 6.77584 2.70898Z" fill="#9FFE00"/>
<path d="M9.48544 2.70898C9.93579 2.70898 10.387 2.70898 10.8381 2.70898C10.8357 3.16262 10.8472 3.61543 10.8308 4.06906C10.382 4.06168 9.93333 4.06742 9.48462 4.06414C9.48544 3.61215 9.48462 3.16098 9.48544 2.70898Z" fill="#9FFE00"/>
<path d="M12.1948 2.70898C12.6451 2.70898 13.0963 2.70898 13.5475 2.70898C13.5467 3.1618 13.5532 3.61461 13.5434 4.06824C13.0939 4.0625 12.6435 4.06742 12.194 4.06414C12.1948 3.61215 12.194 3.16098 12.1948 2.70898Z" fill="#9FFE00"/>
<path d="M32.5148 33.8735C32.9668 33.8678 33.4188 33.8711 33.8707 33.8711C33.8716 34.3222 33.8716 34.7726 33.8716 35.2237C33.4196 35.2254 32.9676 35.2237 32.5164 35.2246C32.5131 34.7742 32.5156 34.3239 32.5148 33.8735Z" fill="#9FFE00"/>
<path d="M35.2241 33.8735C35.6761 33.8678 36.1281 33.8711 36.5809 33.8711C36.5809 34.3222 36.5809 34.7726 36.5809 35.2237C36.1289 35.2246 35.6769 35.2237 35.2258 35.2246C35.2225 34.7742 35.2249 34.3239 35.2241 33.8735Z" fill="#9FFE00"/>
<path d="M37.9338 33.8735C38.3858 33.8678 38.8378 33.8711 39.2906 33.8711C39.2915 34.3222 39.2906 34.7726 39.2906 35.2237C38.8386 35.2246 38.3875 35.2237 37.9355 35.2246C37.9322 34.7742 37.9347 34.3239 37.9338 33.8735Z" fill="#9FFE00"/>
<path d="M5.25012 1.75082C15.6377 1.75 26.0245 1.75 36.4121 1.75C36.4121 3.32992 36.4121 4.90984 36.4113 6.48977C26.0245 6.48977 15.6377 6.48977 5.25094 6.48977C5.25012 4.90984 5.25012 3.32992 5.25012 1.75082ZM6.60692 3.10352C6.60528 3.55551 6.60692 4.0075 6.6061 4.45867C7.05727 4.46113 7.50844 4.45949 7.95879 4.46031C7.96125 4.0075 7.96043 3.55551 7.95961 3.10352C7.50844 3.10352 7.05809 3.10352 6.60692 3.10352ZM9.31641 3.10352C9.31559 3.55551 9.31641 4.00668 9.31559 4.45867C9.7643 4.46195 10.213 4.45621 10.6617 4.46359C10.6781 4.00996 10.6666 3.55715 10.6691 3.10352C10.2179 3.10352 9.76676 3.10352 9.31641 3.10352ZM12.0259 3.10352C12.0251 3.55551 12.0259 4.00668 12.0251 4.45867C12.4746 4.46195 12.925 4.45703 13.3745 4.46277C13.3843 4.00914 13.3778 3.55633 13.3786 3.10352C12.9274 3.10352 12.4763 3.10352 12.0259 3.10352Z" fill="white"/>
<path d="M15.0596 11.8562C16.6001 10.6405 18.5418 9.94818 20.5023 9.88993C22.6442 9.8079 24.8041 10.4896 26.5144 11.7799C27.9393 12.8414 29.0533 14.3139 29.6833 15.9758C28.799 15.9455 27.8548 16.1005 27.0337 15.6863C26.2962 15.3319 25.8582 14.6125 25.3512 14.0063C24.9607 13.5174 24.5785 12.9612 23.9616 12.7438C23.1027 12.3919 22.033 12.6847 21.4834 13.4353C21.2037 13.7758 21.1315 14.2245 20.924 14.6043C20.6664 15.0259 20.1824 15.3056 19.6853 15.2974C19.1652 15.295 18.6443 15.3171 18.1251 15.2786C17.0029 15.1883 15.9644 14.432 15.5419 13.3869C15.3442 12.889 15.2187 12.3665 15.0596 11.8562Z" fill="white"/>
<path d="M11.3878 18.6848C11.9136 18.6913 12.4419 18.6634 12.9661 18.7159C14.1416 18.8406 15.2342 19.5395 15.8495 20.5485C16.258 21.2228 16.8535 21.7855 17.5721 22.1161C18.1152 22.3868 18.7394 22.4197 19.2874 22.678C20.0117 22.9996 20.6286 23.5492 21.0371 24.2284C21.4055 24.8535 21.8443 25.4556 22.0371 26.1652C22.2709 27.0044 22.1626 27.8838 22.1872 28.7434C20.2078 29.0396 18.1324 28.7 16.3704 27.7435C15.9619 27.5351 15.5985 27.2529 15.217 27.0019C12.6306 25.13 11.1007 21.8741 11.3878 18.6848Z" fill="white"/>
<path d="M22.3447 19.6202C22.6318 19.0263 23.2938 18.6719 23.9435 18.6867C26.0566 18.6826 28.1689 18.6859 30.2812 18.685C30.4231 20.484 30.0236 22.3223 29.1549 23.9047C28.4749 25.1434 27.5167 26.2278 26.3691 27.0531C26.1197 26.5354 25.8211 26.0359 25.6727 25.4756C25.5521 24.9686 25.6021 24.4346 25.452 23.9334C25.2313 23.1566 24.676 22.4806 23.9517 22.1213C23.5423 21.9031 23.0583 21.8121 22.7105 21.4872C22.2019 21.032 22.0362 20.2338 22.3447 19.6202Z" fill="white"/>
</svg>
