<svg width="466" height="434" viewBox="0 0 466 434" fill="none" xmlns="http://www.w3.org/2000/svg">
<path d="M201.504 428C309.478 428 397.008 333.532 397.008 217C397.008 100.468 309.478 6 201.504 6C93.5301 6 6 100.468 6 217C6 333.532 93.5301 428 201.504 428Z" fill="#222222" stroke="#9FFE00" stroke-width="10.5766" stroke-miterlimit="10"/>
<path d="M84.3822 163.748V246.967C64.0898 246.967 47.6099 230.487 47.6099 210.195V200.52C47.6099 180.228 64.0898 163.748 84.3822 163.748Z" fill="#FEFEFE"/>
<path d="M120.17 143.452C120.17 174.444 139.069 195.105 159.279 208.306C180.228 221.998 204.906 228.926 229.954 228.926H272.466L274.393 296.69C274.721 326.043 287.306 335.103 292.061 337.972C296.817 340.842 320.389 358.182 353.103 347.852C365.36 343.998 374.666 334.774 381.471 324.772C392.293 308.907 397.418 289.803 396.68 270.618L395.04 228.926C395.04 228.926 460.837 239.585 464.075 177.641C467.56 110.533 409.552 97.9479 409.552 97.9479L353.103 87.6172L193.715 66.6279C193.715 66.6279 120.17 59.5357 120.17 143.411V143.452Z" fill="#222222" stroke="#9BFF00" stroke-width="3.52555" stroke-miterlimit="10"/>
<path d="M374.912 207.782L375.65 272.923C375.773 282.721 374.092 292.477 370.362 301.537C364.786 315.107 353.513 330.398 331.212 331.135C326.497 331.299 321.783 330.725 317.273 329.373C293.906 322.322 287.962 300.594 287.962 293.502C287.962 285.754 285.379 205.405 285.379 205.405H225.24C210.359 205.405 195.56 202.33 182.155 195.935C165.06 187.818 146.489 172.814 140.34 145.47C139.151 140.182 138.536 134.771 138.946 129.4C140.791 103.779 160.673 92.7101 178.629 87.9547C191.87 84.4292 205.809 84.06 219.296 86.4377L401.149 118.045C412.053 119.931 422.343 124.85 430.296 132.598C431.157 133.459 432.018 134.32 432.879 135.263C440.34 143.626 445.464 156.375 445.464 170.272C445.464 170.272 445.054 207.823 416.645 207.823H374.953L374.912 207.782Z" fill="#FEFEFE"/>
<path d="M418.858 148.496C418.858 148.496 410.167 131.77 382.209 141.158C360.359 148.496 361.055 175.84 361.055 175.84C361.055 175.84 375.158 186.826 401.107 177.234C420.826 168.502 418.858 148.455 418.858 148.455V148.496Z" fill="#222222"/>
<path d="M273.081 159.158C273.081 159.158 255.248 144.481 215.729 144.481C176.21 144.481 203.636 159.157 220.197 164.856C236.759 170.554 283.944 169.324 273.081 159.117V159.158Z" fill="#222222"/>
<path d="M332.851 251.633C356.587 246.919 357.776 279.633 337.443 280.207C320.553 280.658 317.519 254.708 332.851 251.633Z" fill="#222222"/>
<path d="M329.859 214.339L320.922 228.933" stroke="#222222" stroke-width="8.85487" stroke-miterlimit="10" stroke-linecap="round"/>
<path d="M353.718 226.921L347.24 216.345" stroke="#222222" stroke-width="7.58403" stroke-miterlimit="10" stroke-linecap="round"/>
</svg>
