<svg width="97" height="47" viewBox="0 0 97 47" fill="none" xmlns="http://www.w3.org/2000/svg">
<path d="M22.4815 0.19134C27.0164 -0.0794045 31.6275 0.979882 35.555 3.27275C39.8057 5.7399 43.2526 9.58108 45.1986 14.0957C46.4914 17.0485 47.1395 20.2755 47.1226 23.4973C47.104 28.3555 45.5201 33.1984 42.6265 37.1039C39.7583 41.0111 35.6498 44.0028 31.0234 45.4699C25.7439 47.1671 19.8502 46.9032 14.7551 44.7084C10.7582 43.0011 7.26903 40.1363 4.80187 36.5607C2.73576 33.5893 1.39219 30.1221 0.913311 26.5347C0.241527 21.5226 1.18067 16.2803 3.72228 11.8909C5.30783 9.08867 7.50593 6.6452 10.0797 4.71615C13.6569 2.03917 18.0243 0.463776 22.4815 0.19134ZM22.517 1.2777C18.4068 1.50614 14.3744 2.93432 11.0273 5.3304C6.48726 8.53195 3.22817 13.5001 2.13504 18.9505C1.27205 23.0878 1.6477 27.4654 3.17572 31.4048C4.73419 35.4388 7.50255 38.9974 11.0374 41.49C14.8194 44.1923 19.4762 45.651 24.1245 45.5681C29.0081 45.5478 33.8493 43.7998 37.6617 40.7522C41.3608 37.8079 44.0953 33.6621 45.2917 29.0848C46.3831 24.9864 46.2579 20.575 44.9431 16.5443C43.4032 11.7843 40.1915 7.58773 35.9967 4.85998C32.0472 2.25746 27.2398 0.96296 22.517 1.2777Z" fill="white"/>
<path d="M21.3901 2.5045C25.9301 1.94609 30.6478 2.91569 34.5821 5.25425C37.386 6.91255 39.8108 9.21726 41.5605 11.9687C29.7205 15.7862 17.8433 19.492 6.00334 23.3129C5.99827 27.5788 7.56351 31.8312 10.3708 35.0463C12.6958 37.7605 15.8601 39.7403 19.3155 40.6574C23.1431 41.7032 27.3109 41.3766 30.9524 39.808C33.626 38.6793 35.9832 36.8501 37.8242 34.6131C38.6263 35.2764 39.4216 35.9482 40.1763 36.6639C37.056 40.5271 32.5041 43.2007 27.6121 44.057C23.3005 44.793 18.7435 44.2448 14.8042 42.3107C10.4605 40.2395 6.87988 36.62 4.85776 32.2542C2.97609 28.2878 2.4769 23.7224 3.26375 19.4192C4.16398 14.5797 6.8545 10.1073 10.6889 7.02593C13.7331 4.54693 17.4914 2.95631 21.3901 2.5045ZM12.9293 9.24772C9.56532 11.8452 7.18954 15.688 6.36885 19.8592C16.317 16.7592 26.2296 13.5441 36.1727 10.4272C35.9883 10.219 35.7987 10.0126 35.5923 9.82474C32.3941 7.06146 28.1908 5.45223 23.9537 5.48607C19.9907 5.43192 16.0513 6.82118 12.9293 9.24772Z" fill="white"/>
<path d="M62.2182 12.7234C62.5414 12.7302 62.8646 12.7302 63.1895 12.7234C63.2013 13.001 63.2098 13.2768 63.22 13.5543C62.8748 13.5577 62.5313 13.5577 62.1877 13.5543C62.1962 13.2768 62.2047 13.001 62.2182 12.7234Z" fill="white"/>
<path d="M68.4928 12.7302C68.8211 12.7335 69.1476 12.7318 69.4776 12.7251C69.5741 13.9434 69.4928 15.1685 69.5233 16.3886C69.5098 17.0079 69.6181 17.7575 69.102 18.2178C68.5639 18.7221 67.7685 18.5444 67.1018 18.5748C62.1929 18.6138 57.2823 18.5545 52.3734 18.5732C51.6237 18.6358 50.891 18.0114 50.9401 17.2364C50.9266 15.7422 50.9215 14.2463 50.9486 12.7522C51.2599 12.8198 51.7676 12.5711 51.9571 12.8791C52.0282 14.3275 51.9063 15.7845 52.0079 17.2313C52.0265 17.5816 52.392 17.7829 52.7152 17.744C55.3295 17.7355 57.9456 17.788 60.5617 17.7508C60.2757 16.7846 60.1725 15.6491 60.7224 14.7574C61.2199 14.1126 62.1201 14.0754 62.8664 14.0839C63.5466 14.0957 64.3707 14.2176 64.748 14.8589C65.1897 15.7574 65.1525 16.837 64.7904 17.7558C65.8919 17.7626 66.9952 17.7694 68.0985 17.7508C68.2474 17.5393 68.4792 17.3497 68.4623 17.0654C68.5063 15.622 68.4403 14.1753 68.4928 12.7302ZM62.2657 14.9418C61.3688 15.0772 61.3079 16.1601 61.4314 16.8692C61.5634 17.8811 62.9561 18.0029 63.6448 17.4936C64.1287 16.9368 64.0966 16.0806 63.8529 15.4258C63.528 14.8843 62.8224 14.8487 62.2657 14.9418Z" fill="white"/>
<path d="M71.1596 12.7251C71.4862 12.7319 71.8145 12.7336 72.1428 12.7302C72.1885 14.6829 72.1479 16.6357 72.1648 18.5867C71.8179 18.5884 71.471 18.5884 71.1258 18.5918C71.1326 16.6357 71.0666 14.6778 71.1596 12.7251Z" fill="white"/>
<path d="M93.694 12.7234C94.0155 12.7302 94.3387 12.7302 94.6619 12.7234C94.6755 13.001 94.6839 13.2768 94.6958 13.5543C94.3489 13.5577 94.0054 13.5577 93.6619 13.5543C93.6686 13.2768 93.6788 13.001 93.694 12.7234Z" fill="white"/>
<path d="M95.0172 12.7234C95.3438 12.7319 95.6721 12.7336 96.0004 12.7302C96.0122 13.0027 96.0207 13.2751 96.0325 13.5475C95.6772 13.556 95.3235 13.5577 94.9698 13.5526C94.98 13.2768 94.9952 12.9993 95.0172 12.7234Z" fill="white"/>
<path d="M86.4821 12.7521C86.7918 12.7437 87.1048 12.7301 87.4179 12.7471C87.6243 13.3038 87.4568 13.9485 87.5194 14.539C88.5753 13.9552 89.814 14.1803 90.9646 14.1448C91.6415 14.0923 92.364 14.4274 92.5975 15.0991C92.8717 15.9537 92.7769 16.8844 92.606 17.7507C93.2338 17.7507 93.8667 17.81 94.4927 17.722C94.8515 17.6289 94.9242 17.2076 94.9564 16.8928C95.0105 15.9808 94.9513 15.0653 94.9852 14.1498C95.305 14.1465 95.6265 14.1465 95.948 14.1465C95.9548 15.2853 96.0191 16.4309 95.9226 17.568C95.8025 18.2821 95.0241 18.6493 94.3574 18.5765C91.3369 18.6171 88.3147 18.5545 85.2942 18.6137C85.2485 19.1975 84.905 19.7509 84.3145 19.9048C83.3601 20.1502 82.36 20.0081 81.387 20.0419C81.382 19.7847 81.3769 19.5258 81.3718 19.2686C82.157 19.1485 82.9607 19.2991 83.7442 19.1637C84.0386 19.1282 84.1639 18.8439 84.2722 18.607C83.3736 18.4834 82.289 18.8574 81.5427 18.1975C80.9792 17.5037 81.0994 16.5392 81.1112 15.7066C81.1163 14.9452 81.7001 14.1803 82.5005 14.1668C83.2755 14.1329 84.064 14.0889 84.8356 14.2057C85.235 14.2666 85.3061 14.6981 85.3044 15.0348C85.3128 15.9317 85.3128 16.8285 85.2841 17.7254C85.6851 17.7592 86.0861 17.7592 86.4889 17.7254C86.4533 16.0687 86.4601 14.4087 86.4821 12.7521ZM82.5563 15.0704C82.1485 15.3699 82.1417 15.9317 82.14 16.3903C82.1434 16.8421 82.1502 17.3988 82.558 17.6898C83.1333 17.832 83.7357 17.7474 84.3212 17.7372C84.2722 16.8217 84.4143 15.8894 84.2231 14.9858C83.6681 14.9841 83.091 14.8876 82.5563 15.0704ZM87.6294 15.7709C87.428 16.4122 87.5211 17.0959 87.5228 17.7558C88.7157 17.7389 89.9155 17.8167 91.1051 17.7203C91.6855 17.5731 91.6922 16.8725 91.7092 16.3903C91.6872 15.8978 91.6973 15.1837 91.1051 15.0264C90.3318 14.9062 89.5398 14.9722 88.7597 14.9756C88.2606 14.9722 87.7851 15.2937 87.6294 15.7709Z" fill="white"/>
<path d="M75.06 14.1448C75.39 14.1465 75.7217 14.1499 76.055 14.155C76.0584 15.3547 76.0483 16.5562 76.0601 17.7559C76.7319 17.7491 77.4088 17.8083 78.0805 17.7254C78.4647 17.6679 78.5865 17.233 78.6 16.9013C78.6322 15.9842 78.5966 15.0654 78.6119 14.1465C78.9486 14.1465 79.2854 14.1465 79.6238 14.1482C79.6102 15.2329 79.6627 16.3209 79.6001 17.4056C79.5476 18.0165 79.0281 18.5089 78.424 18.558C77.6524 18.5952 76.8808 18.5597 76.1109 18.5986C75.9704 18.9979 75.8672 19.4599 75.5034 19.7222C74.9907 20.0826 74.3358 20.042 73.7402 20.0589C73.7283 19.8085 73.7182 19.558 73.7097 19.3093C74.2021 19.2416 74.9061 19.1756 74.9991 18.5613C75.1328 17.0959 75.0161 15.617 75.06 14.1448Z" fill="white"/>
<path d="M77.1549 19.1672C77.5035 19.1672 77.8537 19.1672 78.204 19.1672C78.2057 19.4261 78.2108 19.6867 78.2192 19.9473C77.8605 19.9963 77.4967 19.9963 77.1396 19.9473C77.1464 19.6867 77.1515 19.4261 77.1549 19.1672Z" fill="white"/>
<path d="M78.4799 19.162C78.8065 19.1637 79.1348 19.162 79.463 19.1536C79.4834 19.4311 79.4969 19.7069 79.5087 19.9844C79.1551 19.9878 78.8014 19.9844 78.4478 19.9759C78.4562 19.7035 78.4664 19.4328 78.4799 19.162Z" fill="white"/>
<path d="M53.6966 22.103C53.947 22.1013 54.1991 22.1013 54.4513 22.103C54.4614 23.4737 54.4716 24.8426 54.4513 26.2133C54.4665 26.6515 54.2584 27.1609 53.793 27.2725C53.1822 27.4214 52.5425 27.3944 51.9215 27.3453C51.4494 27.3165 50.979 26.9713 50.9519 26.4721C50.8876 25.6582 50.9536 24.8409 50.9147 24.027C51.177 24.0151 51.4376 24.005 51.7015 23.9965C51.7286 24.7749 51.6525 25.5584 51.7421 26.3334C51.9232 26.8867 52.6187 26.6887 53.0586 26.7124C53.4461 26.7717 53.6949 26.3774 53.6797 26.0305C53.7118 24.7225 53.6661 23.4127 53.6966 22.103Z" fill="white"/>
<path d="M55.7831 22.1064C56.0538 22.1047 56.3228 22.1047 56.5953 22.1064C56.6037 23.1369 56.5818 24.1674 56.5987 25.1979C56.5919 25.4602 56.6528 25.8173 56.976 25.8477C57.4126 25.8782 58.0641 25.9949 58.2739 25.4873C58.3788 24.8358 58.2536 24.0879 58.6902 23.5362C59.0489 23.1081 59.6564 23.1166 60.1657 23.1047C60.7021 23.103 61.3587 23.1673 61.6599 23.6818C62.0288 24.3502 61.9137 25.1607 61.7327 25.8697C62.0288 25.868 62.3266 25.868 62.6244 25.8697C62.5297 25.0406 62.2809 23.9339 63.0644 23.3569C63.7666 22.9812 64.6127 23.2063 65.3759 23.1893C65.3572 23.3772 65.3386 23.565 65.3217 23.7545C64.8005 23.7714 64.2709 23.7224 63.7615 23.8493C63.1507 24.1319 63.3639 24.9492 63.4011 25.4839C63.858 26.1354 64.7548 25.7766 65.4215 25.8714C65.4097 26.0762 65.3979 26.2826 65.386 26.4873C63.6431 26.4637 61.8985 26.4501 60.1556 26.5313C59.6852 26.572 59.2435 26.401 58.8019 26.2758C58.1047 26.4975 57.3703 26.5263 56.6461 26.4569C56.1841 26.418 55.7915 25.9882 55.7898 25.5262C55.7661 24.3874 55.7915 23.2469 55.7831 22.1064ZM59.7427 23.7698C59.1352 23.9305 59.0878 24.6751 59.1707 25.1895C59.2537 26.0491 60.6006 26.1472 60.9898 25.4738C61.1235 25.0219 61.1404 24.5109 60.961 24.071C60.6835 23.7173 60.1539 23.6496 59.7427 23.7698Z" fill="white"/>
<path d="M66.8446 22.0962C67.0967 22.0979 67.3488 22.103 67.6027 22.1098C67.9191 23.367 68.1645 24.6395 68.4843 25.8951C68.7973 25.868 69.2339 25.7564 69.1899 25.3502C69.2271 24.2791 69.2001 23.208 69.1916 22.1368C69.4522 22.1165 69.7128 22.1013 69.9751 22.0878C69.9784 23.235 69.9903 24.384 69.9768 25.5313C70.014 26.022 69.5825 26.4518 69.1002 26.4603C68.3218 26.5043 67.5417 26.4535 66.7651 26.484C66.7431 26.2826 66.7244 26.0812 66.7075 25.8816C67.0189 25.8697 67.3319 25.8613 67.645 25.8494C67.4081 24.5922 67.0459 23.3603 66.8446 22.0962Z" fill="white"/>
<path d="M71.3525 22.1064C71.6216 22.1047 71.8906 22.1047 72.1614 22.1064C72.1647 23.5532 72.1597 24.9999 72.1647 26.4467C71.8923 26.4535 71.6199 26.4535 71.3491 26.4467C71.3542 24.9999 71.3491 23.5532 71.3525 22.1064Z" fill="white"/>
<path d="M75.4492 22.1402C75.7115 22.1182 75.9738 22.1013 76.2395 22.0861C76.2395 22.2417 76.2395 22.5531 76.2395 22.7105C75.9738 22.6935 75.7115 22.6766 75.4492 22.6546C75.4492 22.526 75.4492 22.2688 75.4492 22.1402Z" fill="white"/>
<path d="M76.4255 22.1047C76.6963 22.103 76.9687 22.1047 77.2412 22.1064C77.2412 22.2519 77.2412 22.543 77.2412 22.6902C76.9687 22.6902 76.6963 22.6902 76.4255 22.6902C76.4255 22.5447 76.4255 22.2502 76.4255 22.1047Z" fill="white"/>
<path d="M79.8132 22.1064C80.0822 22.1047 80.3513 22.1047 80.622 22.1064C80.6322 23.1369 80.6085 24.1674 80.6271 25.1979C80.622 25.4602 80.6796 25.819 81.0078 25.8477C81.4173 25.8663 81.9656 25.9882 82.2533 25.6091C82.5291 24.9238 82.2245 24.0337 82.7998 23.4601C83.3176 23.0167 84.0706 23.1014 84.7052 23.1352C85.3499 23.1386 85.8897 23.7004 85.91 24.3383C85.9709 25.0236 85.9912 25.9171 85.3178 26.3215C84.5326 26.6769 83.6256 26.5584 82.8371 26.2809C82.1382 26.506 81.4004 26.5212 80.6762 26.4569C80.1432 26.4129 79.781 25.868 79.8132 25.3587C79.8013 24.2757 79.8166 23.191 79.8132 22.1064ZM83.7711 23.7698C83.1467 23.9542 83.1061 24.7749 83.2432 25.3012C83.4158 26.0829 84.6494 26.0965 85.0233 25.4754C85.1502 25.0203 85.1739 24.5109 84.9996 24.0659C84.7137 23.719 84.184 23.6462 83.7711 23.7698Z" fill="white"/>
<path d="M91.5195 22.1487C91.7869 22.1199 92.0559 22.103 92.3267 22.0895C92.3132 22.3179 92.2996 22.5464 92.2861 22.7748C92.0373 22.7613 91.7886 22.7528 91.5415 22.7443C91.5331 22.5464 91.5263 22.3467 91.5195 22.1487Z" fill="white"/>
<path d="M95.1543 22.103C95.4048 22.1013 95.6569 22.1013 95.909 22.103C95.9209 23.1911 95.926 24.2791 95.9158 25.3672C95.931 25.7428 95.7821 26.1236 95.4691 26.3419C95.1154 26.4975 94.7211 26.4671 94.3472 26.4738C91.9511 26.4552 89.555 26.4874 87.1589 26.4569C87.1589 26.308 87.1572 26.0085 87.1572 25.8596C87.7867 25.8004 88.5312 26.0525 89.0778 25.6498C89.3689 25.1083 89.4027 24.2724 88.8832 23.8561C88.357 23.7072 87.8036 23.7732 87.2655 23.7799C87.252 23.5752 87.2401 23.3704 87.23 23.1657C87.9965 23.2232 88.8545 22.9694 89.555 23.3738C90.2572 23.9813 90.127 25.0491 89.951 25.8647C90.9121 25.8681 91.8732 25.8697 92.8344 25.863C92.8479 25.1861 92.8547 24.5076 92.8056 23.8307C92.1525 23.7444 91.4925 23.7579 90.836 23.7732C90.8207 23.5735 90.8055 23.3738 90.7937 23.1725C91.4705 23.1589 92.1508 23.1403 92.8293 23.164C93.2811 23.1268 93.6415 23.5786 93.6551 24.0033C93.6923 24.6243 93.6635 25.247 93.6703 25.8697C94.1458 25.8156 94.9259 26.0728 95.1069 25.4535C95.2085 24.3417 95.1053 23.2181 95.1543 22.103Z" fill="white"/>
<path d="M77.7268 23.1505C78.0009 23.1589 78.2767 23.1674 78.5542 23.1809C78.4663 24.0896 78.7167 25.0643 78.336 25.9239C77.8723 26.731 76.8299 26.4078 76.0719 26.4721C75.4018 26.4214 74.5066 26.682 74.07 26.0068C73.669 25.3655 73.8585 24.5583 73.8433 23.8442C74.1123 23.851 74.3848 23.8612 74.6555 23.873C74.6877 24.4889 74.5049 25.1776 74.84 25.7361C75.3832 25.9797 76.0093 25.8291 76.588 25.8731C76.9704 25.868 77.5745 25.9273 77.6642 25.4247C77.786 24.6751 77.6794 23.9068 77.7268 23.1505Z" fill="white"/>
<path d="M8.94596 23.5786C19.4271 20.2772 29.8897 16.9132 40.3709 13.6068C40.8312 14.2684 41.2187 14.9808 41.5063 15.7338C35.4535 17.7068 29.3787 19.6139 23.3089 21.5328C24.1178 24.1658 25.1128 26.7378 25.8793 29.3844C25.991 29.9309 26.5342 30.1814 26.9268 30.5046C27.4699 30.8768 28.0013 31.376 28.6934 31.4166C29.4447 31.4776 30.1791 30.9411 30.3787 30.2186C30.6156 29.6348 30.3331 29.0324 30.2281 28.4554C30.3567 28.4249 30.6139 28.3623 30.7426 28.3318C31.306 29.2355 31.8069 30.359 31.416 31.4268C31.1385 32.371 30.1638 32.9937 29.1959 32.9446C28.0588 32.9362 27.2077 32.0817 26.2837 31.5385C26.4563 33.2729 26.0638 35.114 24.8945 36.4508C23.8521 37.615 22.4781 38.5034 20.9738 38.9366C19.0667 39.4713 17.0209 38.7267 15.547 37.4932C14.1781 36.2968 13.1526 34.625 12.9428 32.7974C12.755 30.931 13.3642 28.9546 14.7094 27.6194C15.7586 26.5754 17.2053 25.8461 18.7131 25.9138C20.1108 25.9138 21.3562 26.6329 22.5796 27.2218C22.0551 25.577 21.4865 23.9458 20.9027 22.3196C17.0006 23.5312 13.1171 24.7969 9.2167 26.017C9.05595 25.2149 8.93919 24.3993 8.94596 23.5786ZM17.2544 27.1609C16.1545 27.4773 15.2221 28.4249 15.0969 29.5874C14.8549 31.3168 15.7789 32.9176 16.7045 34.3001C17.4626 35.3763 18.29 36.488 19.4914 37.0972C20.6421 37.6861 22.1447 37.5778 23.1414 36.7317C23.886 36.1073 24.2312 35.1174 24.2312 34.1647C24.2481 32.5419 23.754 30.9682 23.2768 29.4334C23.1228 28.6974 22.363 28.4029 21.8063 28.0188C20.4729 27.1727 18.8095 26.6651 17.2544 27.1609Z" fill="white"/>
<path d="M39.6923 19.4616C40.2811 19.3803 40.8649 19.3025 41.3404 18.9116C41.4352 19.1384 41.5249 19.3685 41.6145 19.5969C41.3235 19.7475 40.8362 19.8575 40.8869 20.2823C40.9546 20.8238 41.1746 21.3297 41.3353 21.8492C41.0646 21.9456 40.7939 22.0387 40.5231 22.1335C40.227 21.2485 39.9004 20.3719 39.6923 19.4616Z" fill="white"/>
<path d="M37.0763 21.1283C37.0865 20.1875 38.2811 19.5817 39.0646 20.064C39.4724 20.3077 39.6027 20.7967 39.6941 21.2299C39.1475 21.3957 38.5772 21.5125 38.073 21.79C38.386 22.4804 39.222 21.8577 39.7161 21.7121C39.9817 22.5413 38.9461 22.7579 38.3386 22.8154C37.4875 22.8137 36.9832 21.8966 37.0763 21.1283ZM38.227 20.5242C37.919 20.5801 37.9004 20.9422 37.8141 21.1791C38.1644 21.1182 38.5079 21.0251 38.8429 20.9117C38.6602 20.7628 38.5112 20.4261 38.227 20.5242Z" fill="white"/>
<path d="M34.5787 21.262C34.9645 20.8187 35.66 20.6545 36.193 20.91C36.6414 21.1453 36.7785 21.6647 36.9409 22.103C36.4198 22.2688 35.8884 22.4059 35.3723 22.587C35.1303 22.8273 35.4519 22.9254 35.6549 22.9829C36.0932 23.0574 36.457 22.7511 36.8073 22.5379C36.8682 22.7443 36.9308 22.9508 36.9934 23.1589C36.4265 23.5227 35.6989 23.9035 35.0271 23.587C34.2437 23.1555 33.9746 21.9473 34.5787 21.262ZM35.0322 22.0861C35.3672 22.0133 35.6989 21.9169 36.0255 21.8052C35.8766 21.6309 35.7514 21.3686 35.4772 21.4025C35.1303 21.438 35.0728 21.812 35.0322 22.0861Z" fill="white"/>
<path d="M32.961 21.6613C33.208 21.5852 33.4551 21.5124 33.7055 21.4464C33.7614 22.3974 33.8155 23.3518 33.7732 24.3061C33.4906 24.3755 33.2114 24.45 32.9322 24.5278C32.6141 24.0134 32.2892 23.5007 31.9626 22.9913C31.9998 23.6056 32.0151 24.2215 32.0625 24.8358C31.7782 24.9136 31.4956 24.9949 31.2147 25.0795C30.685 24.2858 30.108 23.5176 29.6647 22.6715C29.949 22.6021 30.2349 22.5328 30.5209 22.4668C30.8339 22.9863 31.0302 23.5954 31.4837 24.0151C31.4211 23.3907 31.3754 22.7629 31.3568 22.1351C31.6276 22.0928 31.9068 21.9118 32.1809 22.0014C32.5075 22.4515 32.7393 22.9643 33.1014 23.3907C33.0828 22.812 33.0185 22.2366 32.961 21.6613Z" fill="white"/>
<path d="M28.0994 22.5566C28.2652 22.3856 28.475 22.2689 28.6696 22.1369C28.7458 22.3586 28.8202 22.5802 28.893 22.8036C29.1096 22.8171 29.3279 22.8307 29.5461 22.8442C29.5935 22.9948 29.6409 23.1471 29.69 23.2977C29.536 23.4348 29.2348 23.4635 29.2043 23.7004C29.272 24.0863 29.4226 24.4518 29.5529 24.819C29.7729 24.8342 29.9929 24.8494 30.2129 24.8646C30.2416 24.9966 30.2991 25.2589 30.3279 25.3909C29.9133 25.577 29.3059 25.8529 28.9353 25.4501C28.6002 24.9882 28.5072 24.401 28.3295 23.8697C28.162 23.8849 27.9961 23.9001 27.8303 23.917C27.678 23.4399 27.9843 23.0067 28.0994 22.5566Z" fill="white"/>
<path d="M25.2566 24.2064C25.8472 23.8595 26.6712 23.3603 27.3058 23.8781C27.7897 24.5042 27.893 25.3283 28.1265 26.066C27.8287 26.1473 27.497 26.374 27.2026 26.1591C26.986 26.4316 26.7 26.7023 26.3226 26.6651C25.6492 26.7429 25.2634 25.8308 25.6204 25.3266C25.9267 24.9425 26.4682 24.8663 26.7914 24.5059C26.3954 24.0033 25.815 24.6125 25.4461 24.8579C25.3801 24.6413 25.3175 24.4247 25.2566 24.2064ZM26.3413 25.4146C26.167 25.6532 26.3683 25.8579 26.4986 26.0525C26.9335 25.9188 27.1433 25.5584 27.057 25.1066C26.81 25.1861 26.5494 25.2521 26.3413 25.4146Z" fill="white"/>
<path d="M54.5494 29.0527C55.8422 29.0527 57.1367 29.0019 58.4278 29.0831C58.4244 29.3623 58.4244 29.6432 58.4278 29.9241C57.9557 29.9664 57.4836 29.9715 57.0098 29.9766C57.0284 31.2778 57.0318 32.5825 57.0098 33.8837C56.6409 33.8871 56.272 33.8871 55.9048 33.8821C55.8879 32.5774 55.9014 31.2728 55.898 29.9698C55.4479 29.9664 54.9978 29.963 54.5494 29.9546C54.5477 29.6534 54.5477 29.3539 54.5494 29.0527Z" fill="white"/>
<path d="M62.9172 29.6432C63.259 29.5688 63.5974 29.4859 63.9376 29.403C63.9494 29.7363 63.9545 30.0697 63.9545 30.403C64.2269 30.4216 64.4993 30.4386 64.7752 30.4572C64.7633 30.7076 64.7532 30.9614 64.7379 31.2136C64.474 31.2322 64.2117 31.2525 63.9494 31.2796C63.9697 31.8024 63.9122 32.3321 64.0137 32.8482C64.0865 33.1984 64.5163 33.0918 64.7735 33.1798C64.7616 33.4354 64.7481 33.6909 64.7278 33.9464C64.1525 33.9938 63.3673 34.1139 63.0289 33.5132C62.7649 32.7974 62.9036 32.0123 62.8715 31.266C62.7446 31.2525 62.4891 31.2271 62.3605 31.2136C62.3452 30.9631 62.3334 30.7144 62.3232 30.4639C62.4569 30.4521 62.726 30.425 62.8597 30.4132C62.8749 30.156 62.8935 29.8988 62.9172 29.6432Z" fill="white"/>
<path d="M51.8132 30.5553C52.5205 30.1966 53.5849 30.2626 54.0266 31.0054C54.3108 31.4488 54.2821 31.9903 54.2838 32.4945C53.5257 32.5097 52.7676 32.4979 52.0095 32.5114C52.2007 33.4421 53.3209 33.2357 53.9826 32.9988C53.9538 33.3017 54.0909 33.8093 53.6627 33.8787C52.8387 34.0885 51.7472 34.0868 51.2125 33.3118C50.7235 32.4285 50.8572 31.0731 51.8132 30.5553ZM51.9977 31.777C52.4207 31.7872 52.8454 31.7872 53.2702 31.7838C53.2211 31.5824 53.1737 31.3828 53.1263 31.1831C52.6187 30.9851 52.0975 31.222 51.9977 31.777Z" fill="white"/>
<path d="M59.0657 30.557C59.6901 30.403 60.3518 30.2592 60.9897 30.4267C61.4415 30.5536 61.7766 30.9868 61.7884 31.4556C61.829 32.2746 61.7918 33.0953 61.7985 33.9159C61.499 33.9058 61.2012 33.9024 60.9017 33.9041C60.8763 33.8144 60.8256 33.6317 60.8002 33.542C60.2705 34.0716 59.2434 34.2171 58.8018 33.5098C58.5885 33.0123 58.619 32.2644 59.1537 31.9784C59.6766 31.7094 60.2841 31.728 60.8459 31.5943C60.587 30.7702 59.5751 31.1831 59.0133 31.42C59.0302 31.1324 59.0471 30.8447 59.0657 30.557ZM59.6969 32.6688C59.5818 33.0394 59.9863 33.3085 60.3162 33.1816C60.7223 33.0969 60.7765 32.6367 60.856 32.305C60.4719 32.3642 59.8915 32.2306 59.6969 32.6688Z" fill="white"/>
<path d="M64.9342 30.4369C65.3099 30.4369 65.6855 30.4402 66.0629 30.4487C66.2152 31.2372 66.3844 32.0241 66.5401 32.8126C66.8413 32.0546 67.0071 31.2542 67.1882 30.4605C67.5486 30.4419 67.909 30.4352 68.2711 30.4335C68.4894 31.178 68.53 31.9835 68.8888 32.6806C69.0597 31.9429 69.195 31.1949 69.3253 30.4487C69.6655 30.4402 70.0073 30.4369 70.3491 30.4352C70.0343 31.5977 69.7145 32.7602 69.3372 33.9041C68.9717 33.8364 68.4826 34.0276 68.1967 33.7653C67.9632 33.1155 67.8667 32.4285 67.6789 31.7652C67.3692 32.4082 67.3032 33.1308 67.0562 33.7958C66.7211 34.0022 66.2828 33.8482 65.9072 33.877C65.5789 32.7314 65.2557 31.5841 64.9342 30.4369Z" fill="white"/>
<path d="M71.0987 33.547C70.2814 32.6536 70.5115 30.909 71.7045 30.4538C72.3424 30.2592 73.1614 30.2964 73.6183 30.848C74.0058 31.3066 73.95 31.9378 73.9364 32.4979C73.1766 32.508 72.4169 32.4894 71.6588 32.5283C71.9414 33.4184 72.977 33.234 73.6708 33.0089C73.6572 33.2678 73.6471 33.5267 73.6403 33.7856C72.8179 34.0445 71.7975 34.1613 71.0987 33.547ZM71.7163 31.7838C72.1309 31.7906 72.5472 31.7906 72.9634 31.7872C72.9161 31.464 72.7756 31.0037 72.3492 31.1086C71.9465 31.0816 71.8145 31.4724 71.7163 31.7838Z" fill="white"/>
<path d="M75.2275 33.811C73.9076 33.1477 74.1242 30.7922 75.5727 30.4132C76.1785 30.2795 76.9315 30.3201 77.3461 30.8514C77.7234 31.2998 77.698 31.9141 77.7336 32.4657C76.9535 32.5334 76.1683 32.4793 75.3866 32.53C75.6827 33.4269 76.7437 33.2391 77.4375 32.9768C77.4222 33.2492 77.407 33.5216 77.3884 33.7941C76.6878 33.9734 75.9128 34.1291 75.2275 33.811ZM75.3883 31.7618C75.8198 31.7855 76.2529 31.7923 76.6878 31.7923C76.6371 31.5215 76.5812 31.0951 76.2157 31.1103C75.7707 31.0054 75.5778 31.4589 75.3883 31.7618Z" fill="white"/>
<path d="M78.3157 30.4521C78.6372 30.4419 78.9587 30.4351 79.2819 30.425C79.3343 30.4994 79.4359 30.65 79.4866 30.7262C79.8031 30.4741 80.1838 30.2981 80.5967 30.3996C80.5882 30.7211 80.5882 31.046 80.5933 31.3692C80.2126 31.3218 79.7015 31.2457 79.5171 31.6856C79.2853 32.3997 79.4426 33.173 79.4003 33.9125C79.0416 33.9023 78.6846 33.9007 78.3275 33.9108C78.3207 32.7585 78.3377 31.6044 78.3157 30.4521Z" fill="white"/>
<path d="M83.6274 30.5688C84.2247 30.2507 84.9236 30.3607 85.5666 30.4301C85.575 30.7533 85.5818 31.0765 85.592 31.3997C85.2078 31.2795 84.7882 31.0799 84.3905 31.2575C83.6494 31.5384 83.6358 32.8499 84.4142 33.0901C84.8017 33.212 85.2011 33.0461 85.5852 32.9802C85.5818 33.261 85.5801 33.5436 85.5784 33.8245C84.8914 34.0242 84.0978 34.1088 83.4632 33.7129C82.3718 33.0275 82.4953 31.1526 83.6274 30.5688Z" fill="white"/>
<path d="M87.125 30.4724C87.719 30.2914 88.4111 30.2846 88.9746 30.5739C90.1303 31.2254 90.0812 33.2086 88.8798 33.7873C88.2436 34.0767 87.4567 34.075 86.8374 33.7383C85.6376 33.0529 85.7747 30.9039 87.125 30.4724ZM87.4787 31.3202C87.098 31.6095 87.0912 32.1883 87.2012 32.6164C87.3112 33.146 88.0456 33.3068 88.4263 32.9734C88.7597 32.5758 88.758 31.9734 88.5532 31.5165C88.3434 31.1476 87.8137 31.0934 87.4787 31.3202Z" fill="white"/>
<path d="M90.4569 30.4318C90.8106 30.4352 91.1642 30.4385 91.5213 30.4436C91.5196 30.5553 91.5162 30.7787 91.5145 30.8903C92.078 30.2642 93.1051 30.1339 93.6872 30.8125C94.1441 30.447 94.755 30.2101 95.332 30.4284C95.7703 30.5722 95.9259 31.068 95.9581 31.4826C96.0173 32.2914 95.9716 33.102 95.9818 33.9108C95.6129 33.9007 95.2457 33.9024 94.8785 33.9159C94.8108 33.1104 94.9225 32.2931 94.804 31.4944C94.6399 30.9953 93.9174 31.134 93.8226 31.6078C93.6534 32.3524 93.782 33.1274 93.7312 33.8838C93.3708 33.8871 93.012 33.8871 92.655 33.8821C92.6245 33.0884 92.7261 32.283 92.5992 31.4961C92.4536 31.0054 91.7277 31.1272 91.616 31.579C91.4502 32.3321 91.5889 33.1172 91.5297 33.8838C91.171 33.8871 90.8122 33.8871 90.4552 33.8821C90.4552 32.7314 90.4518 31.5824 90.4569 30.4318Z" fill="white"/>
<path d="M81.238 32.9006C81.524 32.8024 81.8641 32.8464 82.0993 33.0444C82.326 33.4184 82.1382 34.0055 81.6475 33.9835C80.9943 34.1781 80.6203 33.1578 81.238 32.9006Z" fill="white"/>
</svg>
