<svg width="131" height="29" viewBox="0 0 131 29" fill="none" xmlns="http://www.w3.org/2000/svg">
<path d="M124.568 0.521058C126.621 0.516124 128.673 0.511188 130.731 0.535861C130.672 7.68592 130.785 14.836 130.677 21.9811C130.568 25.1885 127.667 27.5817 124.583 27.7693C124.553 22.8792 124.578 17.9842 124.573 13.0892C120.65 13.0596 116.727 13.1533 112.804 13.03C112.103 15.7637 112.898 18.8527 115.113 20.6784C116.465 21.9515 118.321 22.3611 120.112 22.5979C118.785 24.4138 117.669 26.4024 116.145 28.0653C112.488 28.0801 109.093 25.2329 108.486 21.6258C107.904 18.6799 109.138 15.4429 111.664 13.7751C113.376 12.7684 113.618 10.5084 115.242 9.39324C117.803 7.13325 121.415 7.77475 124.548 7.7254C124.583 5.32231 124.573 2.91922 124.568 0.521058Z" fill="white"/>
<path d="M51.1921 7.70068C53.2202 7.72536 55.2531 7.71055 57.2861 7.66614C57.3059 11.2535 57.4638 14.8606 57.2269 18.4431C56.8717 21.4827 54.1182 23.5848 51.2019 23.9105C51.1674 18.5072 51.1822 13.1039 51.1921 7.70068Z" fill="white"/>
<path d="M92.7551 10.1137C94.4427 8.32249 96.8952 7.18755 99.392 7.46882C103.374 7.73035 106.813 11.3128 106.804 15.3245C106.118 16.9924 104.835 18.3197 103.838 19.8001C99.6042 19.6373 95.3013 20.0962 91.1169 19.578C91.4623 18.1421 92.8242 17.1157 93.5348 15.813C95.9675 15.7982 98.4051 15.818 100.848 15.7982C100.196 13.9823 99.0466 12.2602 97.2307 11.4509C95.5727 10.543 93.6433 10.7404 91.8521 11.0019C90.1991 13.6912 89.8734 17.0269 90.658 20.0567C91.7633 21.7048 93.1401 23.2986 95.0546 24.0191C97.9808 25.2576 101.233 24.7148 104.203 23.9302C101.519 27.5176 96.6781 28.7019 92.4196 28.0259C88.9704 27.4091 85.9357 24.6803 85.1709 21.2311C84.4109 18.2852 85.536 15.0235 87.9045 13.1287C89.3355 11.8309 91.4228 11.5496 92.7551 10.1137Z" fill="white"/>
<path d="M26.0214 7.70563C28.0741 7.70563 30.1219 7.70562 32.1796 7.71549C32.8211 12.1368 33.5218 16.5531 34.4149 20.93C34.7505 22.2278 35.0712 23.792 36.3542 24.4927C37.4792 25.0701 38.7079 24.3595 39.8428 24.2016C39.0583 25.2625 38.3773 26.4863 37.2128 27.187C35.2044 28.4403 32.3572 28.391 30.5364 26.8169C28.8784 25.4254 28.1383 23.269 27.8471 21.1916C27.1662 16.7061 26.5444 12.2108 26.0214 7.70563Z" fill="white"/>
<path d="M37.3759 7.71049C39.4286 7.70555 41.4764 7.70555 43.5291 7.71049C44.1854 12.1268 44.8763 16.5383 45.7694 20.9151C46.105 22.1981 46.4158 23.7525 47.6692 24.468C48.7992 25.0848 50.0575 24.3643 51.2072 24.1966C50.0426 26.2246 48.1182 28.1195 45.6214 28.0603C42.4633 28.307 40.0306 25.4845 39.4779 22.6027C38.5897 17.6683 37.9976 12.6844 37.3759 7.71049Z" fill="white"/>
<path d="M64.1553 13.0695C65.0385 10.1779 67.6736 7.85376 70.7576 7.7452C74.5078 7.63664 78.2679 7.74521 82.023 7.71067C81.9836 12.5267 82.102 17.3477 81.9737 22.1638C81.7714 25.2725 78.8995 27.641 75.8648 27.7101C75.8747 22.8398 75.8698 17.9645 75.8698 13.0892C71.9616 13.0794 68.0584 13.109 64.1553 13.0695Z" fill="white"/>
<path d="M0.954231 16.5383C1.6796 15.0086 3.06125 13.9724 4.37382 12.9756C4.19618 15.0135 4.1567 17.2094 5.35084 18.9759C6.69795 21.2655 9.29843 22.4153 11.8693 22.6225C10.5469 24.4532 9.24415 26.3036 7.94638 28.1491C6.17984 27.9172 4.34915 27.4928 2.9823 26.274C0.1351 24.0288 -0.738295 19.7358 0.954231 16.5383Z" fill="white"/>
<path d="M60.6025 16.4741C61.3427 14.9395 62.749 13.923 64.0616 12.9213C63.7803 14.9741 63.7458 17.2143 64.9794 18.9957C66.3166 21.2803 68.9072 22.3857 71.4534 22.6324C70.1606 24.4581 68.8579 26.274 67.6045 28.1245C65.9416 27.9468 64.2392 27.5866 62.9069 26.5257C59.8081 24.3298 58.7916 19.795 60.6025 16.4741Z" fill="white"/>
<path d="M4.49219 13.0795C5.44454 10.252 7.96113 7.88843 11.0353 7.75027C14.8299 7.64171 18.6295 7.74533 22.429 7.70586C22.3846 12.5367 22.5178 17.3676 22.3698 22.1935C22.1527 25.3121 19.271 27.5819 16.2708 27.7744C16.2412 22.8794 16.2757 17.9844 16.2511 13.0844C12.3331 13.0943 8.41017 13.1091 4.49219 13.0795Z" fill="white"/>
</svg>
