<svg width="17" height="16" viewBox="0 0 17 16" fill="none" xmlns="http://www.w3.org/2000/svg">
<path d="M11.2968 0.0318604V0.889346C10.7965 0.97437 10.3215 1.16979 9.90624 1.46141L9.27685 0.86983L8.43827 1.76635L9.04814 2.3378C8.76983 2.74478 8.58127 3.2063 8.49498 3.69173H7.6375V4.91148H8.49498C8.58403 5.41768 8.78407 5.87874 9.06705 6.2837L8.41875 6.91187L9.29697 7.7901L9.92514 7.14119C10.3301 7.42417 10.7912 7.62421 11.2974 7.71325V8.57013H12.5171V7.71264C13.0025 7.62654 13.464 7.43819 13.871 7.16009L14.4419 7.76997L15.3384 6.93078L14.7468 6.30261C15.0335 5.89399 15.2286 5.42134 15.3189 4.91087H16.1758V3.69112H15.3183C15.2307 3.19725 15.0354 2.72875 14.7462 2.3189L15.3183 1.74683L14.4602 0.889346L13.8887 1.46141C13.4789 1.17227 13.0104 0.976958 12.5165 0.889346V0.0318604H11.2968ZM11.9066 2.05238C12.2025 2.05044 12.4958 2.10727 12.7695 2.21957C13.0433 2.33188 13.292 2.49743 13.5012 2.70661C13.7104 2.9158 13.876 3.16445 13.9884 3.43815C14.1008 3.71184 14.1577 4.00513 14.1559 4.30099C14.1559 5.55429 13.1599 6.55022 11.9066 6.55022C10.6533 6.55022 9.65741 5.55429 9.65741 4.30099C9.65741 3.0477 10.6533 2.05177 11.9066 2.05177V2.05238ZM3.99654 5.6537L2.87315 6.11111L3.31104 7.21498C2.72818 7.56387 2.23785 8.04792 1.88149 8.62624L0.795908 8.18713L0.338501 9.31235L1.42408 9.75024C1.33843 10.0801 1.29377 10.4194 1.29113 10.7602C1.29113 11.1078 1.34297 11.4469 1.42408 11.7701L0.338501 12.2093L0.795908 13.3333L1.88149 12.8942C2.23468 13.48 2.72536 13.9709 3.31104 14.3243L2.87193 15.4099L3.99715 15.8673L4.43626 14.7817C4.76617 14.8674 5.10538 14.912 5.44621 14.9147C5.79384 14.9147 6.13415 14.8628 6.45617 14.7817L6.89528 15.8673L8.01928 15.4099L7.58017 14.3243C8.15909 13.9687 8.64331 13.4782 8.99142 12.8948L10.0953 13.3327L10.5527 12.2086L9.44883 11.7695C9.52811 11.4463 9.58178 11.1066 9.58178 10.7596C9.58178 10.412 9.52873 10.0716 9.44761 9.74902L10.5533 9.31113L10.0959 8.18591L8.99203 8.62502C8.64159 8.04824 8.15756 7.56421 7.58078 7.21376L8.01989 6.10989L6.89467 5.65248L6.45739 6.75636C6.12703 6.67205 5.78775 6.62762 5.44682 6.62401C5.09919 6.62401 4.7601 6.67646 4.43687 6.75697L3.99776 5.65309L3.99654 5.6537ZM5.4456 7.84438C7.0697 7.84438 8.36081 9.13731 8.36081 10.7608C8.36203 12.3849 7.0697 13.6955 5.4456 13.6955C5.06008 13.696 4.67824 13.6204 4.32196 13.4731C3.96569 13.3258 3.64198 13.1097 3.36937 12.837C3.09676 12.5644 2.8806 12.2407 2.73329 11.8844C2.58598 11.5282 2.5104 11.1463 2.51088 10.7608C2.51088 9.1367 3.82211 7.84438 5.4456 7.84438Z" fill="white"/>
</svg>
