<svg width="16" height="16" viewBox="0 0 16 16" fill="none" xmlns="http://www.w3.org/2000/svg">
<path fill-rule="evenodd" clip-rule="evenodd" d="M6.64619 0.618247C6.82973 0.618247 6.9785 0.767018 6.9785 0.950556V7.26444C6.9785 7.44796 6.82973 7.59675 6.64619 7.59675H0.33231C0.148771 7.59675 0 7.44796 0 7.26444V0.950556C0 0.767018 0.148771 0.618247 0.33231 0.618247H6.64619ZM5.56619 2.03056H1.41232V6.18443H5.56619V2.03056ZM15.8124 3.85174C15.9422 3.98151 15.9422 4.19193 15.8124 4.32169L12.0527 8.08136C11.923 8.21113 11.7126 8.21113 11.5828 8.08136L7.82313 4.32169C7.69336 4.19193 7.69336 3.98151 7.82313 3.85174L11.5828 0.0920762C11.7126 -0.0376908 11.923 -0.0376908 12.0527 0.0920762L15.8124 3.85174ZM14.05 4.08671L11.8178 1.85444L9.58547 4.08673L11.8178 6.31902L14.05 4.08671ZM6.64619 8.92599C6.82973 8.92599 6.9785 9.07478 6.9785 9.2583V15.5722C6.9785 15.7557 6.82973 15.9045 6.64619 15.9045H0.33231C0.148771 15.9045 0 15.7557 0 15.5722V9.2583C0 9.07478 0.148771 8.92599 0.33231 8.92599H6.64619ZM5.56619 10.3383H1.41232V14.4922H5.56619V10.3383ZM14.9539 8.92599C15.1375 8.92599 15.2862 9.07478 15.2862 9.2583V15.5722C15.2862 15.7557 15.1375 15.9045 14.9539 15.9045H8.64005C8.45651 15.9045 8.30774 15.7557 8.30774 15.5722V9.2583C8.30774 9.07478 8.45651 8.92599 8.64005 8.92599H14.9539ZM13.8739 10.3383H9.72005V14.4922H13.8739V10.3383Z" fill="#F6F6F6"/>
</svg>
