<svg width="122" height="49" viewBox="0 0 122 49" fill="none" xmlns="http://www.w3.org/2000/svg">
<mask id="mask0_493_849" style="mask-type:luminance" maskUnits="userSpaceOnUse" x="0" y="0" width="122" height="49">
<path d="M0.471313 -1.86369e-05H121.449V48.7239H0.471313V-1.86369e-05Z" fill="white"/>
</mask>
<g mask="url(#mask0_493_849)">
<path d="M46.5365 25.4854C46.7334 25.4854 46.9021 25.3305 46.9021 25.1193C46.9021 24.9154 46.7334 24.7537 46.5365 24.7537C46.3465 24.7537 46.1779 24.9154 46.1779 25.1193C46.1779 25.3305 46.3465 25.4854 46.5365 25.4854Z" fill="white"/>
<path d="M48.0628 26.2308V27.5813C48.0628 29.2054 47.3385 29.6556 46.6282 29.6556C45.9178 29.6556 45.193 29.2054 45.193 27.5813V26.0834L44.0681 26.1324V26.3718C44.4683 26.3718 44.5742 26.4277 44.5742 26.5964V27.5813C44.5742 28.7132 45.2633 29.895 46.6282 29.895C47.9851 29.895 48.6811 28.7132 48.6811 27.5813V25.745L47.7531 25.9211C48.0553 26.0196 48.0628 26.0691 48.0628 26.2308Z" fill="white"/>
<path d="M65.1749 26.329C65.1749 26.5264 65.3228 26.6813 65.5761 26.6813C65.8289 26.6813 65.9843 26.4838 65.9843 26.2657C65.9843 25.7947 65.4984 25.4712 64.9711 25.4712C64.0995 25.4712 63.3327 26.1459 63.3327 27.0814C63.3327 27.6652 63.5998 28.1435 64.0223 28.4245H62.9102H62.7841H61.9322H61.806H60.9541H60.828H59.9755H59.8505H58.9986H58.8719H58.0205H57.8939H57.0425H56.9158H56.0644H55.9383H55.0864H54.9597H54.1078H53.9822H53.1356H53.0042H52.861C52.3694 28.4245 52.0666 27.7849 52.0666 27.3416V24.1771L51.1455 24.3527C51.427 24.4517 51.4552 24.4793 51.4552 24.6342V27.7711C51.4552 28.1792 51.3003 28.4245 50.9273 28.4245H50.4979V24.838L49.5699 25.0141C49.8721 25.1195 49.879 25.1759 49.879 25.3307V28.4245H49.4858L49.316 28.6852H51.054C51.4967 28.6852 51.9261 28.5586 52.0948 28.1361C52.3124 28.4676 52.6216 28.6852 52.9739 28.6852H53.0042H53.1356H53.9822H54.1078H54.9597H55.0864H55.9383H56.0644H56.9158H57.0425H57.8939H58.0205H58.8719H58.9986H59.8505H59.9755H60.828H60.9541H61.806H61.9322H62.7841H62.9102H64.9078C65.3436 28.6852 65.6682 28.5448 65.9279 28.2915L65.7517 28.1717C65.5692 28.334 65.3372 28.4245 65.0344 28.4245C64.3384 28.4245 64.0362 27.82 64.0362 27.0043C64.0362 26.1396 64.3661 25.6963 64.9924 25.6963C65.3511 25.6963 65.5479 25.8437 65.6464 26.0337C65.5974 26.0268 65.5554 26.0193 65.5059 26.0193C65.2952 26.0193 65.1749 26.1321 65.1749 26.329Z" fill="white"/>
<path d="M68.658 24.6622V27.7501C68.658 28.1572 68.5106 28.4249 68.1371 28.4249H67.7018V24.824L66.7589 24.9996C67.0829 25.098 67.0898 25.1544 67.0898 25.3093V28.4249H66.6955L66.5269 28.6851H68.3137C68.9251 28.6851 69.2769 28.3615 69.2769 27.7709V24.1769L68.3488 24.3525C68.6511 24.4515 68.658 24.5004 68.658 24.6622Z" fill="white"/>
<path d="M66.977 29.7473C66.977 29.5925 67.0472 29.4376 67.1738 29.4376C67.2233 29.4376 67.2866 29.4589 67.3148 29.5079C67.2515 29.5435 67.2164 29.6063 67.2164 29.6632C67.2164 29.7611 67.3148 29.8176 67.4202 29.8176C67.5469 29.8176 67.6309 29.7686 67.6309 29.6276C67.6309 29.4238 67.4415 29.262 67.1877 29.262C66.8434 29.262 66.6327 29.5153 66.6327 29.8176C66.6327 30.0219 66.7662 30.1906 66.9067 30.289H66.5832L66.5129 30.4859H67.7225V30.289H67.4133C67.1249 30.289 66.977 29.9511 66.977 29.7473Z" fill="white"/>
<path d="M70.2139 24.6762V28.6852H70.8333V24.1909L69.9116 24.3665C70.2064 24.4655 70.2139 24.5145 70.2139 24.6762Z" fill="white"/>
<path d="M75.0399 27.4125C75.0399 27.959 74.7185 28.4629 74.2981 28.4661C73.899 28.449 73.6825 27.9595 73.6825 27.5455C73.6825 26.4977 74.3434 25.7948 74.9622 25.7948H75.0399V27.4125ZM73.071 27.5881C73.071 28.2633 73.6761 28.6715 74.1465 28.6853H74.1821C74.6956 28.6853 74.9063 28.4176 75.0537 28.1862C74.9202 29.5005 74.1326 29.7825 73.542 29.9161L73.3733 29.9438C73.6266 29.9656 73.8517 29.9794 73.9501 29.9794C74.7025 29.9794 75.6588 29.6841 75.6588 27.2997V25.5766H75.1245C73.9288 25.5766 73.071 26.3647 73.071 27.5881Z" fill="white"/>
<path d="M78.6292 24.9436C78.8335 24.9436 78.9883 24.7818 78.9883 24.585C78.9883 24.3881 78.8335 24.2258 78.6292 24.2258C78.4115 24.2258 78.2705 24.3881 78.2705 24.585C78.2705 24.7818 78.4115 24.9436 78.6292 24.9436Z" fill="white"/>
<path d="M79.6419 24.9436C79.8526 24.9436 80.0005 24.7818 80.0005 24.585C80.0005 24.3881 79.8526 24.2258 79.6419 24.2258C79.4311 24.2258 79.2832 24.3881 79.2832 24.585C79.2832 24.7818 79.4311 24.9436 79.6419 24.9436Z" fill="white"/>
<path d="M79.7266 27.8128C79.6138 28.1859 79.3115 28.4455 78.9667 28.4455C78.6719 28.4455 78.2217 28.1295 78.2217 27.0955C78.2217 26.3719 78.474 25.6961 79.0231 25.6961C79.7266 25.6961 79.8037 26.3644 79.8037 26.9625C79.8037 27.335 79.7894 27.6021 79.7266 27.8128ZM84.4763 26.0403V27.7501C84.4763 28.1571 84.3215 28.4179 83.9495 28.4248H83.5121H83.3865H82.5346H82.4085H81.5555H81.4299H80.7674C80.4364 28.3966 80.4018 28.0523 80.4018 27.8623V26.0403C80.4018 25.8929 80.4082 25.7099 80.4503 25.5274H80.0991C80.0496 25.5763 80.0639 25.6045 80.0496 25.6327C80.0219 25.7173 79.9863 25.8089 79.9724 25.8089C79.9724 25.8089 79.9304 25.7807 79.8527 25.7312C79.6909 25.6258 79.4243 25.4497 79.0231 25.4497C78.1371 25.4497 77.5811 26.2447 77.5811 27.0535C77.5811 27.9257 78.1371 28.685 78.8752 28.685C79.4733 28.685 79.7894 28.2561 79.8953 27.9539C79.8953 28.5935 80.289 28.6781 80.7674 28.685H80.9574H81.4299H81.5555H82.4085H82.5346H83.3865H83.5121H84.0682C84.6657 28.685 85.0883 28.3615 85.0883 27.7708V25.5487L84.1597 25.7243C84.4694 25.8227 84.4763 25.8717 84.4763 26.0403Z" fill="white"/>
<path d="M83.5548 29.3321C83.3366 29.3321 83.1962 29.4869 83.1962 29.6844C83.1962 29.8807 83.3366 30.0425 83.5548 30.0425C83.7586 30.0425 83.9135 29.8807 83.9135 29.6844C83.9135 29.4869 83.7586 29.3321 83.5548 29.3321Z" fill="white"/>
<path d="M84.5678 29.3321C84.357 29.3321 84.2091 29.4869 84.2091 29.6844C84.2091 29.8807 84.357 30.0425 84.5678 30.0425C84.7785 30.0425 84.9264 29.8807 84.9264 29.6844C84.9264 29.4869 84.7785 29.3321 84.5678 29.3321Z" fill="white"/>
<path d="M101.672 26.329C101.672 26.5264 101.819 26.6813 102.073 26.6813C102.326 26.6813 102.481 26.4838 102.481 26.2657C102.481 25.7947 101.995 25.4712 101.468 25.4712C100.596 25.4712 99.8293 26.1459 99.8293 27.0814C99.8293 27.6652 100.097 28.1435 100.519 28.4245H99.4068H99.2807H98.4288H98.3032H97.4507H97.3252H96.4727H96.3466H95.4952H95.3685H94.5171H94.3905H93.5391H93.413H92.5611H92.4349H91.583H91.4569H90.605H90.4789H89.6269H89.5003H88.6484H88.5228H87.6708H87.5447H87.3186C87.0238 28.4037 86.8546 28.2069 86.8546 27.8338V24.2048L85.7291 24.2542V24.4863C86.1303 24.4863 86.2352 24.5496 86.2352 24.7188V27.8056C86.2352 28.4745 86.6784 28.6852 87.276 28.6852H87.5447H87.6708H88.5228H88.6484H89.5003H89.6269H90.4789H90.605H91.4569H91.583H92.4349H92.5611H93.413H93.5391H94.3905H94.5171H95.3685H95.4952H96.3466H96.4727H97.3252H97.4507H98.3032H98.4288H99.2807H99.4068H101.404C101.841 28.6852 102.165 28.5448 102.425 28.2915L102.249 28.1717C102.066 28.334 101.834 28.4245 101.531 28.4245C100.836 28.4245 100.533 27.82 100.533 27.0043C100.533 26.1396 100.863 25.6963 101.489 25.6963C101.848 25.6963 102.045 25.8437 102.144 26.0337C102.094 26.0268 102.052 26.0193 102.003 26.0193C101.792 26.0193 101.672 26.1321 101.672 26.329Z" fill="white"/>
<path d="M109.146 24.3668C109.455 24.4657 109.455 24.5142 109.455 24.6765V27.75C109.455 28.1651 109.293 28.4247 108.899 28.4247H108.877H108.744H108.602C108.118 28.4247 107.808 27.7851 107.808 27.3419V24.1768L106.887 24.3529C107.168 24.4514 107.196 24.479 107.196 24.6339V27.7707C107.196 28.1789 107.042 28.4247 106.669 28.4247H106.399H106.274H105.739C105.732 27.2365 105.542 25.5694 104.698 25.5555H104.684C104.402 25.5555 104.191 25.7311 104.044 25.8998C103.741 26.2446 103.614 26.2867 103.439 26.2941L103.566 26.8427C103.98 26.2446 104.345 25.7806 104.599 25.7806C104.958 25.7806 105.049 26.35 105.049 27.56V28.4247H103.003L103.22 28.6849H106.274H106.399H106.795C107.239 28.6849 107.667 28.5583 107.836 28.1363C108.054 28.4673 108.364 28.6849 108.723 28.6849H108.744H108.877H109.046C109.644 28.6849 110.074 28.3614 110.074 27.7707V24.1906L109.146 24.3668Z" fill="white"/>
<path d="M71.0433 13.3338V20.2998H72.1597V12.344L71.0433 13.3338Z" fill="white"/>
<path d="M68.5458 17.636C68.5458 18.4709 67.8695 19.1477 67.034 19.1477H62.0975V20.237H67.2522C68.5405 20.237 69.5856 19.1924 69.5856 17.9036V12.452L68.5458 13.4913V17.636Z" fill="white"/>
<path d="M64.5347 20.2368H65.6511V12.2805L64.5347 13.2708V20.2368Z" fill="white"/>
<path d="M50.5623 20.2368H51.6781V12.2805L50.5623 13.2708V20.2368Z" fill="white"/>
<path d="M65.4596 10.7217H65.8635V10.0406H65.2004C64.8844 10.0406 64.6284 10.2966 64.6284 10.6121V11.5705H64.2522V12.1398H65.8635V11.5705H65.1669V11.0139C65.1669 10.6962 65.4596 10.7217 65.4596 10.7217Z" fill="white"/>
<path d="M57.1862 17.7168C57.1862 18.4724 56.5737 19.0849 55.8181 19.0849H54.2159V16.1146H57.1862V17.7168ZM60.5386 17.5726C60.5386 18.4081 59.8617 19.0849 59.0268 19.0849H58.3111V14.9807H53.0463V20.1651H56.0698C56.0698 20.1651 57.2037 20.2189 57.2037 19.6516V20.1603C57.2037 20.9633 56.5535 21.6136 55.7505 21.6136H54.1983L53.1314 22.6805H55.7143C57.0989 22.6805 58.2212 21.5582 58.2212 20.1736H59.245C60.5332 20.1736 61.5783 19.1291 61.5783 17.8403V12.3887L60.5386 13.4279V17.5726Z" fill="white"/>
<path d="M48.0418 20.1648C48.0418 20.9401 47.4134 21.5686 46.6381 21.5686H45.2344V16.5469L44.0908 17.6899V22.6844H46.5476C48.0589 22.6844 49.2838 21.46 49.2838 19.9488V14.9809L48.0418 16.2229V20.1648Z" fill="white"/>
<path d="M47.2068 12.9563L46.3565 12.1065L45.5072 12.9563L46.3565 13.8061L47.2068 12.9563Z" fill="white"/>
</g>
<path d="M104.953 14.9809V17.7517C104.863 18.5009 104.233 19.0852 103.459 19.0852H101.592V20.1739H103.677C104.149 20.1739 104.586 20.0313 104.953 19.7913V20.1015H107.481C108.914 20.1015 110.074 18.941 110.074 17.5101V14.9809H104.953ZM106.011 17.8405V16.6821V16.0382H109.016V17.4829C109.016 18.345 108.317 19.0442 107.455 19.0442H106.011V17.8405Z" fill="white"/>
<mask id="mask1_493_849" style="mask-type:luminance" maskUnits="userSpaceOnUse" x="0" y="0" width="122" height="49">
<path d="M0.471313 -1.86369e-05H121.449V48.7239H0.471313V-1.86369e-05Z" fill="white"/>
</mask>
<g mask="url(#mask1_493_849)">
<path d="M89.4681 17.4827C89.4681 18.3453 88.7694 19.0445 87.9068 19.0445H86.4626V16.0386H89.4681V17.4827ZM101.542 16.104V17.5727C101.542 18.4081 100.865 19.085 100.03 19.085H99.5694C99.7982 18.7242 99.9355 18.2995 99.9355 17.8403V14.9807L98.8962 16.104V17.5727C98.8962 18.4081 98.2188 19.085 97.3839 19.085H96.8843C97.1509 18.7242 97.2892 18.2995 97.2892 17.8403V14.9807L96.25 16.104V17.5727C96.25 18.4081 95.5731 19.085 94.7377 19.085H93.5393C93.7681 18.7242 93.9054 18.2995 93.9054 17.8403V14.9807L92.8662 16.104V17.5727C92.8662 18.4081 92.1888 19.085 91.3539 19.085H89.9794C90.3173 18.647 90.5254 18.1053 90.5254 17.5099V14.9807H85.4048V19.085H83.4104C83.6775 18.7242 83.8164 18.2995 83.8164 17.8403V14.9807L82.7771 16.104V17.5727C82.7771 18.4081 82.0997 19.085 81.2648 19.085H80.4906V12.3887L79.4514 13.428V20.1242C79.4514 20.9596 78.774 21.6365 77.9391 21.6365H76.5311V16.6819L75.4147 17.735V22.6848H76.0713V22.7252H78.1572C79.446 22.7252 80.4906 21.6807 80.4906 20.3919V20.1737H80.6369C81.6517 20.1737 82.4116 19.9326 82.9384 19.5468V20.1652H85.6926V20.1019H87.9334C88.5964 20.1019 89.1945 19.8454 89.6527 19.4367V20.1737H91.5721C92.1047 20.1737 92.59 19.988 92.9827 19.6879V20.1737H94.1103C95.1623 20.1737 95.9472 19.9183 96.4751 19.5064V20.1737H97.6021C98.1853 20.1737 98.7116 19.9523 99.1208 19.5985V20.1737H100.248C101.537 20.1737 102.582 19.1291 102.582 17.8403V14.9807L101.542 16.104Z" fill="white"/>
<path d="M93.1311 12.9602L93.9777 13.8063L94.8275 12.9565L93.9777 12.1067L93.1311 12.9522L92.285 12.1067L91.4352 12.9565L92.285 13.8063L93.1311 12.9602Z" fill="white"/>
<path d="M82.0391 21.8348L82.8894 22.6846L83.7392 21.8348L82.8894 20.985L82.0391 21.8348Z" fill="white"/>
<path d="M87.9653 12.9602L88.8114 13.8063L89.6617 12.9565L88.8114 12.1067L87.9653 12.9522L87.1193 12.1067L86.2689 12.9565L87.1193 13.8063L87.9653 12.9602Z" fill="white"/>
</g>
<path d="M25.8276 9.93899V13.2461H22.1559V20.4149H18.6056V23.7226H22.1559V27.5837H18.6056V30.8908L22.1559 30.8914H25.8276H40.6781V9.93899H25.8276ZM25.9622 16.6618H33.3875V23.7231H25.9622V16.6618Z" fill="white"/>
<path d="M18.6056 13.2462H22.1565V9.939H18.6056V13.2462Z" fill="white"/>
<path d="M10.9111 13.2462H14.6493V9.50799H10.9111V13.2462Z" fill="white"/>
<path d="M10.9111 17.1078V20.8465H14.6498V17.1078H14.6493H10.9111Z" fill="white"/>
<path d="M14.6498 23.7227V27.5837H18.6051L18.6056 27.5832V23.7227H14.6498Z" fill="white"/>
<path d="M14.6498 13.2462V17.1072H18.6051L18.6056 17.1067V13.2462H14.6498Z" fill="white"/>
<mask id="mask2_493_849" style="mask-type:luminance" maskUnits="userSpaceOnUse" x="0" y="0" width="122" height="49">
<path d="M0.471313 -2.00868e-05H121.449V48.7239H0.471313V-2.00868e-05Z" fill="white"/>
</mask>
<g mask="url(#mask2_493_849)">
<path d="M18.1 32.7213H20.5137V33.0006H18.4219V34.8061H20.3354V35.086H18.4219V37.314H18.1V32.7213Z" fill="white"/>
<path d="M26.136 32.7213V35.3718C26.136 36.6191 26.7362 37.1161 27.4753 37.1161C28.2991 37.1161 28.886 36.5845 28.886 35.3718V32.7213H29.2095V35.3452C29.2095 36.8234 28.3986 37.396 27.4551 37.396C26.5904 37.396 25.813 36.8782 25.813 35.3787V32.7213H26.136Z" fill="white"/>
<path d="M35.6622 33.0006H34.0073V32.7212H37.6412V33.0006H35.9852V37.314H35.6622V33.0006Z" fill="white"/>
<path d="M42.7555 32.7213V35.3718C42.7555 36.6191 43.3557 37.1161 44.0943 37.1161C44.9186 37.1161 45.5055 36.5845 45.5055 35.3718V32.7213H45.829V35.3452C45.829 36.8234 45.0176 37.396 44.0746 37.396C43.2099 37.396 42.4325 36.8782 42.4325 35.3787V32.7213H42.7555Z" fill="white"/>
<path d="M51.6618 34.9358H52.5185C53.2507 34.9358 53.7126 34.5404 53.7126 33.9482C53.7126 33.2117 53.1257 32.9531 52.4137 32.9531C52.0508 32.9531 51.7868 32.9941 51.6618 33.0281V34.9358ZM51.3383 32.7828C51.6416 32.7211 52.0774 32.6801 52.4201 32.6801C53.0528 32.6801 53.4487 32.8169 53.719 33.0893C53.9111 33.2729 54.0356 33.5799 54.0356 33.8934C54.0356 34.4995 53.6599 34.915 53.1193 35.0864V35.0997C53.4822 35.229 53.719 35.577 53.8249 36.0336C53.9898 36.7551 54.0824 37.1164 54.1878 37.3144H53.8446C53.7722 37.1851 53.6727 36.7828 53.5482 36.2102C53.4024 35.5493 53.1124 35.2423 52.5057 35.2088H51.6618V37.3144H51.3383V32.7828Z" fill="white"/>
<path d="M61.6105 35.0311H59.6315V37.0351H61.8351V37.3145H59.3091V32.7212H61.7228V33.0005H59.6315V34.7517H61.6105V35.0311Z" fill="white"/>
<path d="M76.3713 37.1303C76.1207 37.2596 75.6194 37.3964 74.9798 37.3964C73.7793 37.3964 72.6321 36.6397 72.6321 35.038C72.6321 33.8386 73.4893 32.6402 75.1575 32.6402C75.8301 32.6402 76.2064 32.7962 76.358 32.8712L76.2521 33.1505C75.9887 33.0149 75.5928 32.9191 75.1778 32.9191C73.7336 32.9191 72.9684 33.8253 72.9684 35.0657C72.9684 36.197 73.7001 37.1095 75.0979 37.1095C75.5338 37.1095 75.969 37.0207 76.2723 36.8642L76.3713 37.1303Z" fill="white"/>
<path d="M81.3999 35.0657C81.3999 36.1486 82.1188 37.1234 83.2863 37.1234C84.4596 37.1234 85.1918 36.2039 85.1918 34.9838C85.1918 33.9887 84.565 32.9122 83.3054 32.9122C82.039 32.9122 81.3999 33.9344 81.3999 35.0657ZM85.5281 34.9561C85.5281 36.5445 84.433 37.3959 83.273 37.3959C82.0065 37.3959 81.0636 36.4216 81.0636 35.079C81.0636 33.6343 82.0528 32.6398 83.3187 32.6398C84.6246 32.6398 85.5281 33.6343 85.5281 34.9561Z" fill="white"/>
<path d="M90.7079 32.7213H91.0309V37.0347H93.2339V37.314H90.7079V32.7213Z" fill="white"/>
<path d="M98.0392 35.0657C98.0392 36.1486 98.7581 37.1234 99.9256 37.1234C101.099 37.1234 101.831 36.2039 101.831 34.9838C101.831 33.9887 101.205 32.9122 99.9447 32.9122C98.6783 32.9122 98.0392 33.9344 98.0392 35.0657ZM102.167 34.9561C102.167 36.5445 101.072 37.3959 99.9123 37.3959C98.6458 37.3959 97.7029 36.4216 97.7029 35.079C97.7029 33.6343 98.6921 32.6398 99.958 32.6398C101.264 32.6398 102.167 33.6343 102.167 34.9561Z" fill="white"/>
<path d="M107.67 34.9358H108.528C109.26 34.9358 109.721 34.5404 109.721 33.9482C109.721 33.2117 109.134 32.9531 108.422 32.9531C108.059 32.9531 107.795 32.9941 107.67 33.0281V34.9358ZM107.347 32.7828C107.651 32.7211 108.085 32.6801 108.429 32.6801C109.062 32.6801 109.458 32.8169 109.728 33.0893C109.92 33.2729 110.045 33.5799 110.045 33.8934C110.045 34.4995 109.669 34.915 109.128 35.0864V35.0997C109.491 35.229 109.728 35.577 109.833 36.0336C109.998 36.7551 110.091 37.1164 110.196 37.3144H109.854C109.781 37.1851 109.682 36.7828 109.556 36.2102C109.411 35.5493 109.122 35.2423 108.514 35.2088H107.67V37.3144H107.347V32.7828Z" fill="white"/>
</g>
</svg>
