<svg width="317" height="295" viewBox="0 0 317 295" fill="none" xmlns="http://www.w3.org/2000/svg">
<path d="M180.311 290.826C107.028 290.826 47.6214 226.71 47.6214 147.62C47.6214 68.5289 107.028 4.41309 180.311 4.41309C253.593 4.41309 313 68.5289 313 147.62C313 226.71 253.593 290.826 180.311 290.826Z" fill="#9FFE00" stroke="black" stroke-width="7.17841" stroke-miterlimit="10"/>
<path d="M259.802 111.477V167.959C273.574 167.959 284.759 156.773 284.759 143.001V136.435C284.759 122.662 273.574 111.477 259.802 111.477Z" fill="black"/>
<path d="M235.512 97.7047C235.512 118.739 222.686 132.762 208.969 141.721C194.751 151.014 178.001 155.716 161.001 155.716H132.149L130.841 201.708C130.618 221.63 122.077 227.779 118.849 229.726C115.622 231.674 99.6232 243.443 77.4202 236.432C69.101 233.816 62.7852 227.556 58.1665 220.767C50.8212 209.999 47.3432 197.034 47.844 184.013L48.957 155.716C48.957 155.716 4.30057 162.95 2.10252 120.909C-0.262466 75.3625 39.1076 66.8209 39.1076 66.8209L77.4202 59.8094L185.597 45.5639C185.597 45.5639 235.512 40.7504 235.512 97.6768V97.7047Z" fill="#9FFE00" stroke="#0B0C0A" stroke-width="2.3928" stroke-miterlimit="10"/>
<path d="M62.618 141.359L62.1172 185.571C62.0337 192.22 63.1745 198.842 65.7064 204.991C69.4904 214.201 77.1418 224.579 92.2776 225.08C95.4773 225.191 98.677 224.801 101.738 223.883C117.597 219.098 121.631 204.351 121.631 199.538C121.631 194.279 123.384 139.746 123.384 139.746H164.201C174.301 139.746 184.345 137.659 193.443 133.318C205.046 127.809 217.649 117.626 221.823 99.068C222.63 95.4787 223.047 91.8061 222.769 88.1613C221.517 70.7717 208.023 63.2595 195.836 60.032C186.849 57.6392 177.389 57.3886 168.235 59.0023L44.8111 80.4542C37.4101 81.734 30.4265 85.0728 25.0288 90.3314C24.4445 90.9157 23.8602 91.5 23.2759 92.14C18.2121 97.8159 14.7341 106.469 14.7341 115.901C14.7341 115.901 15.0124 141.387 34.2939 141.387H62.5902L62.618 141.359Z" fill="black"/>
<path d="M32.7914 101.127C32.7914 101.127 38.6899 89.7749 57.6654 96.1465C72.4952 101.127 72.0222 119.685 72.0222 119.685C72.0222 119.685 62.451 127.142 44.8389 120.631C31.4559 114.705 32.7914 101.099 32.7914 101.099V101.127Z" fill="#9FFE00"/>
<path d="M131.731 108.361C131.731 108.361 143.834 98.4001 170.656 98.4001C197.477 98.4001 178.864 108.361 167.623 112.228C156.382 116.096 124.358 115.261 131.731 108.333V108.361Z" fill="#9FFE00"/>
<path d="M91.1649 171.131C75.0552 167.931 74.2483 190.134 88.0487 190.523C99.5119 190.829 101.571 173.217 91.1649 171.131Z" fill="#9FFE00"/>
<path d="M93.1958 145.811L99.2612 155.716" stroke="#9FFE00" stroke-width="6.00983" stroke-miterlimit="10" stroke-linecap="round"/>
<path d="M77.0029 154.353L81.3989 147.174" stroke="#9FFE00" stroke-width="5.14731" stroke-miterlimit="10" stroke-linecap="round"/>
</svg>
