<svg width="317" height="294" viewBox="0 0 317 294" fill="none" xmlns="http://www.w3.org/2000/svg">
<path d="M180.311 290.413C107.028 290.413 47.6214 226.297 47.6214 147.207C47.6214 68.1158 107.028 4 180.311 4C253.593 4 313 68.1158 313 147.207C313 226.297 253.593 290.413 180.311 290.413Z" fill="#222222" stroke="#9FFE00" stroke-width="7.17841" stroke-miterlimit="10"/>
<path d="M259.802 111.064V167.545C273.574 167.545 284.759 156.36 284.759 142.588V136.022C284.759 122.249 273.574 111.064 259.802 111.064Z" fill="#FEFEFE"/>
<path d="M235.512 97.2916C235.512 118.326 222.686 132.349 208.969 141.308C194.751 150.601 178.001 155.303 161.001 155.303H132.149L130.841 201.295C130.618 221.217 122.077 227.366 118.849 229.313C115.622 231.261 99.6232 243.03 77.4202 236.019C69.101 233.403 62.7852 227.143 58.1665 220.354C50.8212 209.586 47.3432 196.621 47.844 183.6L48.957 155.303C48.957 155.303 4.30057 162.537 2.10252 120.496C-0.262466 74.9494 39.1076 66.4078 39.1076 66.4078L77.4202 59.3963L185.597 45.1508C185.597 45.1508 235.512 40.3373 235.512 97.2637V97.2916Z" fill="#222222" stroke="#9BFF00" stroke-width="2.3928" stroke-miterlimit="10"/>
<path d="M62.618 140.946L62.1172 185.158C62.0337 191.807 63.1745 198.429 65.7064 204.578C69.4904 213.788 77.1418 224.166 92.2776 224.667C95.4773 224.778 98.677 224.388 101.738 223.47C117.597 218.685 121.631 203.938 121.631 199.125C121.631 193.866 123.384 139.333 123.384 139.333H164.201C174.301 139.333 184.345 137.246 193.443 132.905C205.046 127.396 217.649 117.213 221.823 98.6549C222.63 95.0657 223.047 91.393 222.769 87.7482C221.517 70.3586 208.023 62.8464 195.836 59.6189C186.849 57.2261 177.389 56.9755 168.235 58.5893L44.8111 80.0411C37.4101 81.3209 30.4265 84.6597 25.0288 89.9183C24.4445 90.5026 23.8602 91.087 23.2759 91.7269C18.2121 97.4028 14.7341 106.056 14.7341 115.488C14.7341 115.488 15.0124 140.974 34.2939 140.974H62.5902L62.618 140.946Z" fill="#FEFEFE"/>
<path d="M32.7914 100.714C32.7914 100.714 38.6899 89.3619 57.6654 95.7334C72.4952 100.714 72.0222 119.272 72.0222 119.272C72.0222 119.272 62.451 126.729 44.8389 120.218C31.4559 114.291 32.7914 100.686 32.7914 100.686V100.714Z" fill="#222222"/>
<path d="M131.731 107.948C131.731 107.948 143.834 97.9871 170.656 97.9871C197.477 97.9871 178.864 107.948 167.623 111.815C156.382 115.683 124.358 114.848 131.731 107.92V107.948Z" fill="#222222"/>
<path d="M91.1649 170.717C75.0552 167.518 74.2483 189.721 88.0487 190.11C99.5119 190.416 101.571 172.804 91.1649 170.717Z" fill="#222222"/>
<path d="M93.1958 145.398L99.2612 155.303" stroke="#222222" stroke-width="6.00983" stroke-miterlimit="10" stroke-linecap="round"/>
<path d="M77.0029 153.94L81.3989 146.761" stroke="#222222" stroke-width="5.14731" stroke-miterlimit="10" stroke-linecap="round"/>
</svg>
