<svg width="521" height="487" viewBox="0 0 521 487" fill="none" xmlns="http://www.w3.org/2000/svg">
<g filter="url(#filter0_f_490_645)">
<path d="M213.667 175.667L239.411 254.899H322.721L255.322 303.868L281.066 383.101L213.667 334.132L146.267 383.101L172.011 303.868L104.612 254.899H187.922L213.667 175.667Z" fill="#9FFE00"/>
</g>
<g filter="url(#filter1_f_490_645)">
<rect x="137.222" y="119.164" width="254.676" height="254.676" fill="#9FFE00"/>
</g>
<g filter="url(#filter2_f_490_645)">
<circle cx="289.28" cy="230.923" r="126.923" fill="#9FFE00"/>
</g>
<path d="M284.693 425.221C185.362 425.221 104.838 338.315 104.838 231.111C104.838 123.906 185.362 37 284.693 37C384.024 37 464.547 123.906 464.547 231.111C464.547 338.315 384.024 425.221 284.693 425.221Z" fill="#222222" stroke="#9FFE00" stroke-width="9.73003" stroke-miterlimit="10"/>
<path d="M392.44 182.121V258.679C411.108 258.679 426.268 243.518 426.268 224.85V215.95C426.268 197.282 411.108 182.121 392.44 182.121Z" fill="#FEFEFE"/>
<path d="M359.516 163.453C359.516 191.964 342.13 210.972 323.537 223.115C304.266 235.712 281.562 242.085 258.52 242.085H219.411L217.638 304.425C217.337 331.428 205.759 339.763 201.384 342.403C197.009 345.043 175.324 360.995 145.229 351.491C133.952 347.946 125.392 339.461 119.131 330.259C109.175 315.664 104.461 298.089 105.139 280.44L106.648 242.085C106.648 242.085 46.1181 251.89 43.1388 194.906C39.9332 133.169 93.2976 121.591 93.2976 121.591L145.229 112.087L291.858 92.7781C291.858 92.7781 359.516 86.2537 359.516 163.415V163.453Z" fill="#222222" stroke="#9BFF00" stroke-width="3.24334" stroke-miterlimit="10"/>
<path d="M125.165 222.625L124.486 282.551C124.373 291.565 125.92 300.54 129.351 308.875C134.48 321.358 144.852 335.425 165.368 336.104C169.705 336.255 174.042 335.727 178.19 334.482C199.687 327.996 205.155 308.008 205.155 301.483C205.155 294.355 207.531 220.437 207.531 220.437H262.857C276.546 220.437 290.161 217.609 302.493 211.726C318.22 204.258 335.304 190.455 340.961 165.301C342.054 160.436 342.62 155.457 342.243 150.517C340.546 126.946 322.255 116.764 305.737 112.389C293.555 109.146 280.733 108.806 268.325 110.993L101.029 140.07C90.997 141.805 81.531 146.331 74.2146 153.459C73.4226 154.25 72.6306 155.043 71.8387 155.91C64.9749 163.603 60.2607 175.332 60.2607 188.117C60.2607 188.117 60.6378 222.663 86.7731 222.663H125.128L125.165 222.625Z" fill="#FEFEFE"/>
<path d="M84.7367 168.091C84.7367 168.091 92.7319 152.704 118.452 161.341C138.554 168.092 137.912 193.246 137.912 193.246C137.912 193.246 124.939 203.353 101.067 194.529C82.9265 186.496 84.7367 168.054 84.7367 168.054V168.091Z" fill="#222222"/>
<path d="M218.845 177.897C218.845 177.897 235.251 164.396 271.606 164.396C307.962 164.396 282.732 177.897 267.495 183.139C252.259 188.381 208.851 187.25 218.845 177.859V177.897Z" fill="#222222"/>
<path d="M163.859 262.979C142.023 258.642 140.929 288.737 159.635 289.265C175.173 289.68 177.964 265.807 163.859 262.979Z" fill="#222222"/>
<path d="M166.612 228.659L174.834 242.085" stroke="#222222" stroke-width="8.14608" stroke-miterlimit="10" stroke-linecap="round"/>
<path d="M144.663 240.237L150.622 230.507" stroke="#222222" stroke-width="6.97696" stroke-miterlimit="10" stroke-linecap="round"/>
<defs>
<filter id="filter0_f_490_645" x="0.74733" y="71.802" width="425.838" height="415.163" filterUnits="userSpaceOnUse" color-interpolation-filters="sRGB">
<feFlood flood-opacity="0" result="BackgroundImageFix"/>
<feBlend mode="normal" in="SourceGraphic" in2="BackgroundImageFix" result="shape"/>
<feGaussianBlur stdDeviation="51.9324" result="effect1_foregroundBlur_490_645"/>
</filter>
<filter id="filter1_f_490_645" x="33.3571" y="15.2995" width="462.406" height="462.406" filterUnits="userSpaceOnUse" color-interpolation-filters="sRGB">
<feFlood flood-opacity="0" result="BackgroundImageFix"/>
<feBlend mode="normal" in="SourceGraphic" in2="BackgroundImageFix" result="shape"/>
<feGaussianBlur stdDeviation="51.9324" result="effect1_foregroundBlur_490_645"/>
</filter>
<filter id="filter2_f_490_645" x="58.4927" y="0.135269" width="461.575" height="461.575" filterUnits="userSpaceOnUse" color-interpolation-filters="sRGB">
<feFlood flood-opacity="0" result="BackgroundImageFix"/>
<feBlend mode="normal" in="SourceGraphic" in2="BackgroundImageFix" result="shape"/>
<feGaussianBlur stdDeviation="51.9324" result="effect1_foregroundBlur_490_645"/>
</filter>
</defs>
</svg>
