<svg width="317" height="294" viewBox="0 0 317 294" fill="none" xmlns="http://www.w3.org/2000/svg">
<path d="M180.311 290.239C107.028 290.239 47.6214 226.123 47.6214 147.033C47.6214 67.9419 107.028 3.82605 180.311 3.82605C253.593 3.82605 313 67.9419 313 147.033C313 226.123 253.593 290.239 180.311 290.239Z" fill="white" stroke="black" stroke-width="7.17841" stroke-miterlimit="10"/>
<path d="M259.802 110.89V167.372C273.574 167.372 284.759 156.187 284.759 142.414V135.848C284.759 122.075 273.574 110.89 259.802 110.89Z" fill="black"/>
<path d="M235.512 97.1175C235.512 118.152 222.686 132.175 208.969 141.134C194.751 150.427 178.001 155.129 161.001 155.129H132.149L130.841 201.121C130.618 221.042 122.077 227.191 118.849 229.139C115.622 231.087 99.6232 242.856 77.4202 235.844C69.101 233.229 62.7852 226.969 58.1665 220.18C50.8212 209.412 47.3432 196.447 47.844 183.425L48.957 155.129C48.957 155.129 4.30057 162.363 2.10252 120.322C-0.262466 74.7753 39.1076 66.2337 39.1076 66.2337L77.4202 59.2222L185.597 44.9767C185.597 44.9767 235.512 40.1632 235.512 97.0897V97.1175Z" fill="white" stroke="#0B0C0A" stroke-width="2.3928" stroke-miterlimit="10"/>
<path d="M62.618 140.772L62.1172 184.984C62.0337 191.633 63.1745 198.255 65.7064 204.404C69.4904 213.614 77.1418 223.992 92.2776 224.493C95.4773 224.604 98.677 224.214 101.738 223.296C117.597 218.511 121.631 203.764 121.631 198.951C121.631 193.692 123.384 139.159 123.384 139.159H164.201C174.301 139.159 184.345 137.072 193.443 132.731C205.046 127.222 217.649 117.039 221.823 98.4809C222.63 94.8917 223.047 91.2191 222.769 87.5742C221.517 70.1847 208.023 62.6724 195.836 59.4449C186.849 57.0521 177.389 56.8015 168.235 58.4153L44.8111 79.8671C37.4101 81.147 30.4265 84.4858 25.0288 89.7444C24.4445 90.3286 23.8602 90.913 23.2759 91.5529C18.2121 97.2289 14.7341 105.882 14.7341 115.314C14.7341 115.314 15.0124 140.8 34.2939 140.8H62.5902L62.618 140.772Z" fill="black"/>
<path d="M32.7914 100.54C32.7914 100.54 38.6899 89.188 57.6654 95.5596C72.4952 100.54 72.0222 119.098 72.0222 119.098C72.0222 119.098 62.451 126.555 44.8389 120.044C31.4559 114.118 32.7914 100.512 32.7914 100.512V100.54Z" fill="white"/>
<path d="M131.731 107.774C131.731 107.774 143.834 97.8132 170.656 97.8132C197.477 97.8132 178.864 107.774 167.623 111.641C156.382 115.509 124.358 114.674 131.731 107.746V107.774Z" fill="white"/>
<path d="M91.1649 170.544C75.0552 167.344 74.2483 189.547 88.0487 189.936C99.5119 190.242 101.571 172.63 91.1649 170.544Z" fill="white"/>
<path d="M93.1958 145.224L99.2612 155.129" stroke="white" stroke-width="6.00983" stroke-miterlimit="10" stroke-linecap="round"/>
<path d="M77.0029 153.766L81.3989 146.587" stroke="white" stroke-width="5.14731" stroke-miterlimit="10" stroke-linecap="round"/>
</svg>
