<svg width="64" height="25" viewBox="0 0 64 25" fill="none" xmlns="http://www.w3.org/2000/svg">
<path d="M0.342478 0.424194C5.00075 0.440769 9.65903 0.426037 14.3173 0.432483C14.4702 0.434324 14.6258 0.447215 14.7731 0.492333C17.0649 0.900243 19.0695 2.56964 19.9157 4.73349C19.9608 4.84767 20.0041 4.96277 20.0474 5.07879C20.0741 5.17271 20.1036 5.26663 20.1349 5.35963C20.3034 5.89921 20.3485 6.46181 20.4111 7.01889C20.4185 7.17819 20.4175 7.33841 20.412 7.49955C20.3448 8.11095 20.319 8.73709 20.1008 9.32179C20.0879 9.37335 20.063 9.47556 20.0501 9.5262C19.7896 10.2555 19.4259 10.9479 18.9498 11.5611C18.5944 12.005 18.1865 12.4074 17.7463 12.7665C17.2123 13.1863 16.6147 13.516 15.9858 13.771C15.2759 14.0436 14.5236 14.1909 13.7658 14.2324C11.2161 14.2324 8.66734 14.2314 6.11767 14.2324C5.46207 14.2296 4.96669 14.8106 4.80831 15.4036C4.78345 18.363 4.80371 21.3224 4.79818 24.2828C3.31663 24.2791 1.83416 24.2699 0.352607 24.2874L0.360895 24.2073L0.287231 24.2045C0.301964 21.2893 0.295518 18.3732 0.289994 15.4579L0.340637 15.446C0.326826 14.9994 0.387597 14.5537 0.520191 14.1283C0.532161 14.0758 0.556102 13.9699 0.567151 13.9165C0.61227 13.8024 0.653705 13.6863 0.695141 13.5722C0.767883 13.3806 0.851675 13.1937 0.935467 13.0077C1.51833 11.854 2.47503 10.9009 3.62878 10.3199C3.81754 10.238 4.00262 10.1496 4.19598 10.0787C4.28622 10.0465 4.3783 10.0133 4.46946 9.98107C4.71163 9.90557 4.95748 9.84296 5.20701 9.79876C5.41695 9.75088 5.63242 9.7297 5.84696 9.7297C8.27048 9.73154 10.6931 9.7297 13.1166 9.73062C13.4582 9.72785 13.8109 9.761 14.1414 9.65051C15.0217 9.41387 15.6985 8.64869 15.8974 7.76841C15.937 7.45627 15.937 7.14136 15.9038 6.83013C15.8431 6.64413 15.7869 6.45721 15.7252 6.27213C15.4084 5.63586 14.8366 5.07603 14.1239 4.93607C9.53288 4.92962 4.93998 4.9287 0.348924 4.93699C0.340637 3.43241 0.353527 1.92877 0.342478 0.424194Z" fill="white"/>
<path d="M30.4395 0.589985C31.5223 0.37452 32.6503 0.377283 33.7341 0.587223C34.4311 0.724421 35.1134 0.943569 35.7543 1.24835C35.8537 1.29255 35.9532 1.33859 36.0544 1.38371C36.8288 1.77688 37.5406 2.28332 38.1934 2.85421C39.2155 3.76947 40.0378 4.89284 40.6833 6.10091C40.7505 6.26297 40.837 6.41675 40.9043 6.57973C41.0138 6.7869 41.1013 7.00329 41.1934 7.21783C41.2247 7.31544 41.2532 7.41488 41.2827 7.51433C39.6428 7.51341 38.0019 7.49683 36.3629 7.52261C36.1686 7.3495 36.037 7.12391 35.8694 6.9287C35.3639 6.2556 34.6797 5.73904 33.9422 5.3431C32.9367 4.86429 31.7378 4.77958 30.689 5.16539C29.6642 5.54844 28.7885 6.25653 28.1476 7.1368C27.887 7.47565 27.667 7.84121 27.4708 8.21965C27.3696 8.47471 27.2241 8.71043 27.1412 8.97286C27.0952 9.08611 27.0491 9.19937 27.0022 9.31263C26.9745 9.40655 26.9469 9.50139 26.9175 9.59531C26.8871 9.68831 26.8558 9.78131 26.8244 9.87431C26.7968 9.9977 26.7683 10.122 26.7361 10.2454C26.7084 10.3982 26.6799 10.5511 26.6357 10.7003C26.6071 10.9157 26.597 11.1349 26.5455 11.3467C26.4626 12.3964 26.5224 13.4543 26.7379 14.4847C26.772 14.6062 26.7987 14.7306 26.8272 14.8549C26.8687 14.9736 26.9073 15.0933 26.9497 15.213C27.0353 15.4626 27.1219 15.7112 27.2314 15.9515C27.3429 16.2443 27.4929 16.5197 27.6412 16.7959C27.8125 17.0638 27.957 17.3511 28.1532 17.6025C28.2406 17.725 28.3336 17.8437 28.4358 17.9552C29.1218 18.7452 29.9993 19.41 31.0242 19.6789C31.642 19.8557 32.2939 19.8188 32.9256 19.7581C33.2709 19.6522 33.6116 19.5334 33.944 19.3925C34.0619 19.3244 34.1825 19.2599 34.304 19.1991C35.1106 18.6964 35.8086 18.0123 36.3077 17.2029C37.9688 17.1992 39.6308 17.2093 41.2919 17.1983C41.2661 17.2775 41.2146 17.4368 41.1888 17.5159C41.0921 17.7719 40.9669 18.0141 40.8628 18.2664C40.7855 18.4137 40.7164 18.5647 40.6326 18.7084C40.3803 19.201 40.0838 19.6715 39.7606 20.1199C39.6676 20.2442 39.5728 20.3667 39.4816 20.4919C39.3122 20.7212 39.1041 20.9183 38.9319 21.1457C38.7275 21.3722 38.512 21.5886 38.2846 21.7921C37.6087 22.4017 36.8638 22.9348 36.0517 23.3482C35.6944 23.5158 35.3344 23.6788 34.9624 23.8123C34.8685 23.8409 34.7755 23.8703 34.6834 23.9016C34.5867 23.9292 34.4919 23.9578 34.397 23.9891C33.9679 24.0996 33.5352 24.2027 33.0923 24.2349C32.4302 24.3298 31.7461 24.3233 31.084 24.2368C30.6153 24.1852 30.1467 24.1051 29.7001 23.9541C29.6485 23.9412 29.5445 23.9173 29.4929 23.9044C29.4008 23.8722 29.3097 23.8409 29.2185 23.8114C28.8465 23.6733 28.4782 23.5232 28.1228 23.3464C27.5675 23.0609 27.0399 22.7239 26.5482 22.34C25.3005 21.3667 24.2794 20.1098 23.5492 18.7074C23.5022 18.62 23.4544 18.5334 23.4065 18.4478C23.2776 18.1771 23.156 17.9027 23.0317 17.6301C22.9848 17.4975 22.936 17.3668 22.8862 17.2369C22.8558 17.1458 22.8273 17.0546 22.7997 16.9644C22.7555 16.8475 22.7113 16.7305 22.6671 16.6154C22.6551 16.5648 22.6312 16.4635 22.6201 16.4128C22.3945 15.725 22.2398 15.0132 22.1496 14.295C22.0115 13.2969 21.947 12.2739 22.063 11.2721C22.0824 10.7767 22.1478 10.2859 22.2454 9.80157C22.2914 9.51889 22.3522 9.23896 22.4277 8.96365C22.4553 8.84303 22.4838 8.72332 22.5179 8.60454C22.6118 8.2528 22.7371 7.91211 22.8494 7.56589C22.9157 7.41488 22.9783 7.26203 23.0299 7.1055C23.1284 6.89463 23.2269 6.68377 23.3153 6.46923C23.3917 6.32098 23.4691 6.17366 23.5464 6.02633C23.8816 5.37625 24.2877 4.763 24.7407 4.18935C24.9718 3.90022 25.2186 3.62307 25.47 3.35051C25.7978 3.00246 26.1735 2.7032 26.539 2.39473C26.8208 2.18848 27.0961 1.97117 27.4009 1.79898C27.6283 1.64061 27.8806 1.52459 28.12 1.38739C28.6504 1.12404 29.2028 0.910421 29.771 0.744679C29.9929 0.68851 30.2148 0.636025 30.4395 0.589985Z" fill="white"/>
<path d="M52.5089 0.558613C53.2354 0.400237 53.996 0.373534 54.7299 0.499683C54.8827 0.524544 55.0356 0.551247 55.1866 0.591762C55.3477 0.638722 55.5098 0.687523 55.6727 0.735404C55.8238 0.808147 55.9794 0.873523 56.1451 0.909434C56.2188 1.00243 56.2657 1.11201 56.298 1.22711C56.3256 1.32103 56.3541 1.41495 56.3836 1.50887C56.4499 1.69211 56.5125 1.87718 56.5668 2.06503C56.5972 2.15618 56.6267 2.24734 56.6562 2.34034C56.6884 2.43242 56.7206 2.52542 56.7538 2.61842C56.7814 2.70958 56.8081 2.80258 56.8357 2.89558C56.937 3.17089 57.0272 3.45081 57.1147 3.73166C57.2142 4.00697 57.3035 4.28597 57.3919 4.56497C57.6561 5.34948 57.9038 6.1386 58.1745 6.92127C58.1865 6.97007 58.2104 7.06676 58.2224 7.11556C58.2703 7.2325 58.3108 7.3522 58.3532 7.4719C58.3817 7.5649 58.413 7.6579 58.4462 7.74998C58.46 7.79971 58.4885 7.89915 58.5033 7.94887C58.5346 8.04187 58.5668 8.13487 58.5999 8.22971C58.6294 8.32087 58.6589 8.41295 58.6883 8.50503C58.7196 8.59711 58.751 8.68919 58.7841 8.78219C58.8117 8.87427 58.8403 8.96635 58.8688 9.05935C58.9416 9.24166 58.9977 9.42858 59.0539 9.61734C59.1202 9.79874 59.1782 9.98474 59.238 10.1707C59.2675 10.2591 59.297 10.3494 59.3264 10.4396C59.3568 10.5326 59.3872 10.6275 59.4185 10.7223C59.8642 12.062 60.2988 13.4055 60.7472 14.7443C60.7748 14.8373 60.8043 14.9312 60.8356 15.0251C60.866 15.1163 60.8992 15.2084 60.9341 15.2995C60.9461 15.3502 60.9701 15.4515 60.982 15.5021C61.0281 15.6191 61.0713 15.7369 61.1183 15.8557C61.1312 15.9054 61.157 16.0058 61.1699 16.0564C61.2021 16.1476 61.2343 16.2397 61.2665 16.3327C61.2969 16.4257 61.3282 16.5187 61.3595 16.6117C61.6395 17.4956 61.924 18.3787 62.2223 19.2571C62.3126 19.5352 62.3973 19.8142 62.4995 20.0886C62.5133 20.1383 62.5391 20.2387 62.552 20.2884C62.5851 20.3805 62.6183 20.4735 62.6505 20.5665C62.68 20.6576 62.7094 20.7497 62.7398 20.8418C62.772 20.9339 62.8033 21.0259 62.8337 21.1199C62.8632 21.2119 62.8917 21.3049 62.9221 21.3979C62.9525 21.4882 62.9838 21.5793 63.0151 21.6723C63.0455 21.7635 63.0759 21.8556 63.1072 21.9486C63.1367 22.0416 63.1661 22.1346 63.1947 22.2294C63.2619 22.4126 63.3236 22.5996 63.3752 22.7892C63.4065 22.8795 63.4387 22.9697 63.4718 23.0618C63.5013 23.1539 63.5298 23.2478 63.5593 23.3417C63.6606 23.6493 63.7923 23.9494 63.8402 24.2717C62.401 24.2643 60.9608 24.2671 59.5217 24.2699C59.4047 24.28 59.2979 24.2533 59.2012 24.1907C59.1635 23.9504 59.0622 23.7275 58.994 23.4964C58.9222 23.3141 58.8614 23.1281 58.8053 22.9412C58.7307 22.7625 58.6708 22.5784 58.6156 22.3942C58.5824 22.3031 58.5502 22.2119 58.5198 22.1217C58.4876 22.0296 58.4563 21.9384 58.4259 21.8473C58.3955 21.7543 58.3661 21.6622 58.3384 21.5701C58.2924 21.455 58.25 21.3372 58.2095 21.2211C57.9554 20.4422 57.6736 19.6724 57.4269 18.8915C57.3081 18.596 57.2197 18.2893 57.1138 17.9901C57.0806 17.898 57.0484 17.8068 57.0153 17.7166C57.0024 17.6678 56.9757 17.5693 56.9628 17.5196C56.8836 17.3382 56.8237 17.1503 56.7777 16.9588C56.3035 15.6154 55.8505 14.2627 55.3965 12.9119C55.3182 12.7066 55.2519 12.4967 55.1728 12.2922C54.9177 11.5114 54.6433 10.737 54.3855 9.95803C54.3164 9.77664 54.2557 9.59248 54.1958 9.40924C54.1627 9.31809 54.1313 9.22693 54.1019 9.13577C53.9988 8.81626 53.8588 8.50595 53.8155 8.17078C53.7851 8.40835 53.7115 8.63855 53.6185 8.85861C53.5559 9.07224 53.5034 9.2877 53.4389 9.5004C53.3441 9.77664 53.2566 10.0556 53.1544 10.33C53.1249 10.4221 53.0955 10.5133 53.066 10.6054C53.0347 10.6974 53.0034 10.7904 52.9721 10.8825C52.9417 10.9746 52.9122 11.0657 52.8818 11.1569C52.8505 11.249 52.8192 11.3411 52.787 11.4331C52.3717 12.6698 51.9528 13.9055 51.5402 15.1439C51.4344 15.4423 51.3469 15.748 51.229 16.0426C51.1986 16.1365 51.1673 16.2305 51.1369 16.3244C51.1222 16.3741 51.0918 16.4745 51.0771 16.5242C51.043 16.6153 51.0108 16.7065 50.9813 16.7986C50.9399 16.9155 50.8994 17.0334 50.857 17.1512C50.7125 17.6871 50.5117 18.2065 50.3386 18.7341C50.3055 18.8252 50.2742 18.9182 50.2456 19.0112C50.2134 19.1015 50.1839 19.1926 50.1563 19.2847C50.113 19.4017 50.0716 19.5186 50.0292 19.6355C49.9758 19.8225 49.9132 20.0066 49.8441 20.188C49.8147 20.2792 49.7843 20.3703 49.7548 20.4615C49.6977 20.6466 49.6351 20.8298 49.567 21.0112C49.5145 21.1981 49.4501 21.3823 49.381 21.5646C49.3506 21.6567 49.3202 21.7478 49.2898 21.8399C49.2594 21.9301 49.2281 22.0213 49.1978 22.1125C49.1407 22.2975 49.079 22.4817 49.0108 22.6631C48.9547 22.85 48.8939 23.0351 48.8267 23.2174C48.7171 23.5719 48.5725 23.9163 48.4841 24.2772C46.9216 24.28 45.3581 24.2662 43.7946 24.2726C43.8332 23.9485 43.976 23.6511 44.0699 23.3417C44.2236 22.8804 44.3747 22.4172 44.533 21.9578C44.6785 21.4937 44.8406 21.0351 44.998 20.5757C45.0818 20.2976 45.1785 20.0241 45.2724 19.7497C45.568 18.8243 45.8986 17.91 46.1849 16.9809C46.242 16.7949 46.3019 16.6098 46.37 16.4275C46.3986 16.3363 46.428 16.2461 46.4593 16.1559C46.5201 15.9717 46.5781 15.7857 46.6481 15.6052C46.7024 15.4174 46.765 15.2314 46.8341 15.0491C46.8617 14.9552 46.8912 14.8622 46.9225 14.7701C46.9519 14.6789 46.9823 14.5878 47.0146 14.4975C47.1683 14.0353 47.323 13.5731 47.4777 13.1117C47.5063 13.0206 47.5367 12.9313 47.5689 12.842C47.5974 12.748 47.6269 12.656 47.6591 12.563C47.753 12.2876 47.8341 12.0086 47.939 11.737C48.0274 11.4589 48.1158 11.1808 48.2125 10.9065C48.242 10.8153 48.2733 10.7241 48.3046 10.6339C48.3635 10.4451 48.4261 10.2582 48.4933 10.0731C48.521 9.98198 48.5514 9.89082 48.5827 9.80058C48.6112 9.70942 48.6416 9.61919 48.6729 9.52895C48.8009 9.15695 48.9151 8.78035 49.0513 8.41203C49.1038 8.22971 49.1618 8.04924 49.2281 7.87153C49.2567 7.77853 49.2862 7.68553 49.3184 7.59253C49.5412 6.95166 49.7419 6.30342 49.9657 5.66255C50.497 4.06038 51.0403 2.46189 51.566 0.856949C51.6452 0.833009 51.7262 0.809989 51.8082 0.786048C51.8966 0.751979 51.9859 0.71791 52.0771 0.685682C52.2198 0.642405 52.3643 0.602811 52.5089 0.558613Z" fill="white"/>
<path d="M53.2124 16.5721C53.9766 16.3447 54.856 16.5537 55.4435 17.0914C56.3734 17.9118 56.5613 19.4376 55.7814 20.421C55.0153 21.49 53.3422 21.7037 52.3404 20.8446C51.3284 20.0729 51.1342 18.4735 51.9279 17.48C52.2281 17.0334 52.694 16.7139 53.2124 16.5721Z" fill="white"/>
</svg>
