<svg width="17" height="16" viewBox="0 0 17 16" fill="none" xmlns="http://www.w3.org/2000/svg">
<path d="M9.36458 15.8642L8.06556 12.8592C9.31763 12.4054 10.468 11.8028 11.5322 11.0829L9.35676 15.8642M3.48765 8.28134L0.482666 6.99014L5.26403 4.81465C4.54409 5.87892 3.94153 7.03709 3.48765 8.28134ZM14.7172 1.62968C12.4009 1.45752 10.648 2.2792 8.80897 4.21992C6.96216 6.15281 6.17961 7.74138 5.71791 8.94651L7.41604 10.5899C9.20807 9.90904 10.8045 8.8839 12.1348 7.54575C14.7172 4.97116 14.8502 2.72525 14.7172 1.62968ZM7.67428 3.11653C9.73238 0.925391 13.1521 -0.655356 16.0162 0.33848C16.0162 0.33848 17.6752 4.21992 13.2382 8.67262C11.5166 10.3707 9.65413 11.4115 7.97947 12.0689C7.79166 12.1393 7.07954 12.3741 6.31265 11.7089L4.64582 10.0421C4.20759 9.60385 4.06674 8.96216 4.27802 8.37525C4.93536 6.71625 5.64748 5.29983 7.67428 3.11653ZM3.95718 15.7155H2.85379L6.05441 12.5071C6.28917 12.6714 6.54741 12.7888 6.81348 12.8592L3.95718 15.7155ZM0.63135 15.7155V14.6122L4.3641 10.8716L5.48315 11.9828L1.73474 15.7155H0.63135ZM0.63135 13.5009V12.3897L3.48765 9.53342C3.55808 9.80731 3.67546 10.0655 3.8398 10.2925L0.63135 13.5009ZM11.587 3.19478C12.0021 3.19478 12.4002 3.35967 12.6937 3.65319C12.9872 3.9467 13.1521 4.34479 13.1521 4.75988C13.1521 5.6285 12.4556 6.32497 11.587 6.32497C11.1719 6.32497 10.7738 6.16008 10.4803 5.86657C10.1868 5.57305 10.0219 5.17496 10.0219 4.75988C10.0219 4.34479 10.1868 3.9467 10.4803 3.65319C10.7738 3.35967 11.1719 3.19478 11.587 3.19478Z" fill="white"/>
</svg>
