<svg width="100" height="33" viewBox="0 0 100 33" fill="none" xmlns="http://www.w3.org/2000/svg">
<path d="M78.517 -0.00714111H78.6305C78.9263 0.0602526 79.1503 0.278034 79.4106 0.42031C82.5512 2.23308 85.69 4.05021 88.8326 5.86048C88.9018 5.89855 88.9773 5.94972 88.9636 6.04332C88.9649 7.9734 88.963 9.90411 88.9642 11.8348C92.2615 13.7393 95.5576 15.6463 98.8543 17.5514C99.0246 17.6669 99.3054 17.7212 99.1894 18.0288L99.19 17.748V23.8028L99.1894 23.4896L99.1507 23.8141C98.2134 24.3956 97.2418 24.9229 96.2914 25.4833C92.1317 27.8851 87.9733 30.2895 83.8136 32.6919C83.6645 32.8043 83.516 32.6451 83.3855 32.5821C78.3778 29.686 73.3682 26.7925 68.3592 23.8995C68.2875 23.859 68.2101 23.8028 68.2251 23.7092C68.2194 19.8191 68.2269 15.929 68.2213 12.0389C68.2269 11.9503 68.2001 11.8317 68.3043 11.7905C69.9742 10.8133 71.6615 9.86355 73.3258 8.87635C73.3258 6.95314 73.3264 5.03054 73.3258 3.10795C73.3102 3.01497 73.3801 2.9482 73.4568 2.91201C75.146 1.94353 76.8277 0.958836 78.517 -0.00714111ZM73.8194 3.07862C77.1104 4.98624 80.404 6.89136 83.7019 8.78774C85.2888 7.86358 86.8825 6.95189 88.4706 6.02959C85.179 4.12634 81.8854 2.22621 78.5937 0.322963C77.0006 1.23902 75.4119 2.16194 73.8194 3.07862ZM73.6509 3.36567C73.6571 5.19903 73.6365 7.03239 73.6621 8.86512C75.2321 9.82236 76.8415 10.7141 78.429 11.642C78.4277 9.80239 78.4296 7.96342 78.4277 6.12382C76.8346 5.20589 75.244 4.28359 73.6509 3.36567ZM78.7541 6.31414C78.751 10.1157 78.7603 13.9165 78.7622 17.7174C80.336 18.664 81.9391 19.5645 83.5278 20.488C83.5222 16.6778 83.5428 12.8663 83.5172 9.05669C81.9222 8.15499 80.3435 7.22521 78.7541 6.31414ZM86.8313 7.35687C85.8491 7.94095 84.8351 8.47324 83.8779 9.09726C83.8748 9.06106 83.8685 8.98868 83.8654 8.95186C83.8473 12.7983 83.8623 16.6454 83.8579 20.4918C85.4454 19.5639 87.0554 18.6709 88.6266 17.7162C88.6435 13.9153 88.636 10.1144 88.6385 6.31352C88.0357 6.6611 87.4335 7.0093 86.8313 7.35687ZM68.7224 11.9203C69.0893 12.1674 69.4868 12.3677 69.8662 12.5967C71.0718 13.2931 72.278 13.9908 73.4843 14.6872C75.078 13.7686 76.6705 12.8476 78.263 11.9272C76.6711 11.0067 75.0799 10.0863 73.4874 9.16839C71.8993 10.0857 70.3118 11.0055 68.7224 11.9203ZM68.5483 12.2148C68.5502 16.0182 68.5439 19.821 68.5514 23.6244C70.1321 24.561 71.7327 25.4658 73.3214 26.39C73.3208 22.5904 73.322 18.7907 73.3208 14.9905C71.7451 14.0401 70.1377 13.1428 68.5483 12.2148ZM73.6721 14.973C73.6278 16.8126 73.6602 18.6541 73.6521 20.4943C75.2378 19.5695 76.8427 18.6759 78.4128 17.7255C78.4471 15.8884 78.4234 14.0501 78.4284 12.2123C76.844 13.1334 75.2459 14.0332 73.6721 14.973ZM88.9642 12.213C88.9636 13.9902 88.963 15.768 88.9649 17.5458C90.5037 16.6591 92.04 15.7667 93.5782 14.8788C92.0419 13.9877 90.5037 13.0991 88.9642 12.213ZM84.0214 20.7776C85.6083 21.7005 87.2045 22.6066 88.7864 23.537C90.1024 22.8 91.4004 22.03 92.7096 21.2799C94.6952 20.1218 96.6939 18.986 98.6752 17.821C97.0821 16.9087 95.4977 15.9827 93.9064 15.0672C90.6148 16.9767 87.315 18.8712 84.0214 20.7776ZM74.8752 20.1686C74.5339 20.3838 74.1551 20.5473 73.8381 20.7957C77.1273 22.6871 80.409 24.5916 83.6963 26.4873C85.2875 25.5663 86.8806 24.649 88.4719 23.7279C85.1777 21.8291 81.8898 19.9183 78.5956 18.0188C77.355 18.7352 76.1151 19.4522 74.8752 20.1686ZM94.088 20.8699C94.0431 22.7102 94.0768 24.5523 94.0668 26.3931C95.6512 25.4739 97.2431 24.5679 98.8206 23.6387C98.8736 21.7966 98.8324 19.9533 98.8449 18.1105C97.2605 19.0328 95.6649 19.9358 94.088 20.8699ZM73.6515 21.064C73.6571 22.8974 73.6372 24.7307 73.6621 26.5628C75.2321 27.5207 76.8409 28.4131 78.429 29.3403C78.4308 27.502 78.4296 25.6636 78.4296 23.8253C76.8377 22.9036 75.2446 21.9838 73.6515 21.064ZM88.9842 23.8197C88.9474 25.658 88.9755 27.4982 88.968 29.3372C90.5511 28.4168 92.148 27.5188 93.7192 26.5784C93.7635 24.742 93.7305 22.9036 93.7398 21.0665C92.1536 21.9826 90.5636 22.8911 88.9842 23.8197ZM83.8779 26.7775C83.8342 28.614 83.8685 30.4523 83.8573 32.2894C85.4442 31.369 87.041 30.4661 88.6185 29.53C88.6622 27.6911 88.6279 25.8515 88.6391 24.0125C87.0535 24.9367 85.451 25.8321 83.8779 26.7775ZM78.7591 24.0169C78.7634 25.8483 78.7516 27.6798 78.7653 29.5113C80.3328 30.4686 81.9409 31.3597 83.5272 32.2863C83.5278 30.4517 83.5309 28.6177 83.5259 26.7837C81.9484 25.8434 80.3491 24.9373 78.7591 24.0169Z" fill="white"/>
<path d="M73.8193 3.07859C75.4118 2.16191 77.0006 1.23899 78.5937 0.322937C81.8854 2.22619 85.1789 4.12632 88.4706 6.02956C86.8825 6.95186 85.2888 7.86355 83.7019 8.78772C80.404 6.89133 77.1104 4.98621 73.8193 3.07859Z" fill="#CACACA"/>
<path d="M73.6726 14.9729C75.2464 14.0332 76.8445 13.1333 78.4288 12.2123C78.4239 14.05 78.4476 15.8884 78.4132 17.7255C76.8432 18.6758 75.2382 19.5694 73.6526 20.4942C73.6607 18.654 73.6283 16.8125 73.6726 14.9729Z" fill="#CACACA"/>
<path d="M88.9646 12.2131C90.5041 13.0992 92.0423 13.9878 93.5786 14.8789C92.0404 15.7668 90.5041 16.6592 88.9652 17.5459C88.9634 15.7681 88.964 13.9903 88.9646 12.2131Z" fill="#CACACA"/>
<path d="M88.9848 23.8197C90.5642 22.8912 92.1542 21.9826 93.7405 21.0666C93.7311 22.9037 93.7642 24.742 93.7199 26.5785C92.1486 27.5189 90.5517 28.4169 88.9686 29.3373C88.9761 27.4983 88.948 25.6581 88.9848 23.8197Z" fill="#CACACA"/>
<path d="M78.7595 24.017C80.3495 24.9375 81.9489 25.8435 83.5264 26.7839C83.5314 28.6179 83.5283 30.4519 83.5277 32.2865C81.9414 31.3598 80.3333 30.4687 78.7658 29.5115C78.7521 27.68 78.7639 25.8485 78.7595 24.017Z" fill="#CACACA"/>
<path d="M73.651 3.36566C75.2441 4.28359 76.8348 5.20589 78.4279 6.12381C78.4297 7.96341 78.4279 9.80239 78.4291 11.642C76.8416 10.7141 75.2323 9.82236 73.6623 8.86512C73.6367 7.03238 73.6573 5.19902 73.651 3.36566Z" fill="white"/>
<path d="M50.8243 6.93445C51.4546 6.29671 52.0842 5.65709 52.7145 5.01935C53.3373 5.65522 53.955 6.29671 54.579 6.93196C53.9631 7.57719 53.336 8.21181 52.7151 8.85268C52.0842 8.21369 51.4527 7.57532 50.8243 6.93445Z" fill="white"/>
<path d="M35.5354 6.23876C35.9503 6.12145 36.3647 6.00476 36.7797 5.89056C36.95 6.54266 37.1266 7.19413 37.2945 7.84748C37.4742 8.62875 37.013 9.47117 36.2898 9.79254C35.6227 10.0983 34.7847 9.94729 34.2449 9.45619C34.0434 9.86617 33.7064 10.2106 33.2889 10.3997C32.6967 10.678 31.9535 10.61 31.43 10.2162C31.0368 9.92545 30.7897 9.46118 30.7342 8.97882C30.6599 8.38912 30.5863 7.7988 30.5139 7.20849C30.9264 7.1492 31.3401 7.09616 31.752 7.03251C31.8605 7.6403 31.9348 8.25434 32.0409 8.86275C32.0777 9.10113 32.3017 9.28521 32.5432 9.27648C32.8683 9.28958 33.1298 8.97695 33.1223 8.66307C33.1279 8.07088 33.1217 7.47744 33.1248 6.88525C33.5054 6.80163 33.8861 6.71988 34.2667 6.63564C34.5014 7.19351 34.7204 7.75762 34.9582 8.31424C35.1217 8.70113 35.6939 8.76728 35.9691 8.469C36.0951 8.32547 36.0702 8.12142 36.0127 7.95481C35.8511 7.38321 35.6939 6.81099 35.5354 6.23876Z" fill="white"/>
<path d="M86.8312 7.35683C87.4334 7.00925 88.0356 6.66105 88.6384 6.31348C88.6359 10.1144 88.6434 13.9152 88.6265 17.7161C87.0552 18.6709 85.4453 19.5638 83.8578 20.4917C83.8622 16.6453 83.8472 12.7983 83.8653 8.95182C83.8684 8.98863 83.8746 9.06102 83.8778 9.09721C84.835 8.4732 85.849 7.94091 86.8312 7.35683Z" fill="white"/>
<path d="M24.6451 6.61254C25.9549 6.61067 27.2653 6.61192 28.5751 6.61192C28.5764 9.45556 28.5751 12.2998 28.5757 15.1435C29.9748 13.838 31.8761 13.0842 33.7925 13.1054C34.6262 13.1229 35.4717 13.0418 36.2942 13.2234C37.3282 13.4399 38.2935 13.9697 39.0349 14.7223C39.8193 15.5123 40.3522 16.5488 40.5338 17.6483C40.6467 18.2885 40.5986 18.9406 40.6086 19.5877C40.618 19.886 40.5649 20.203 40.6991 20.4825C40.8557 20.8226 41.222 21.046 41.5952 21.0423C42.3434 21.046 43.0922 21.0398 43.8404 21.0448C44.0445 21.046 44.2585 21.0417 44.4438 20.9443C44.7895 20.7815 45.0186 20.407 45.0067 20.0245C45.0067 18.2823 45.0054 16.54 45.0073 14.7978C45.9933 14.7978 46.9798 14.7971 47.9658 14.7984C47.9677 16.5425 47.9658 18.2866 47.967 20.0314C47.9539 20.4489 48.2347 20.8501 48.6291 20.9861C48.9349 21.0853 49.2625 21.0292 49.5782 21.0429C49.9508 21.0273 50.3302 21.081 50.6977 21.0055C51.1233 20.89 51.4372 20.4676 51.421 20.0264C51.4216 18.4414 51.4191 16.8564 51.4222 15.2708C52.4082 15.2708 53.3941 15.2701 54.3807 15.2714C54.3819 16.8551 54.38 18.4395 54.3813 20.0233C54.3694 20.3952 54.5754 20.7683 54.9105 20.9375C55.1682 21.0785 55.4721 21.0385 55.7554 21.0435C56.1516 21.0367 56.5491 21.0554 56.9454 21.0354C57.419 21.0005 57.8034 20.5612 57.8078 20.0919C57.814 18.7341 57.809 17.3762 57.8103 16.019C57.5694 16.019 57.3291 16.0177 57.0889 16.0183C57.0889 15.0305 57.0889 14.0433 57.0895 13.0561C58.3163 13.0561 59.5438 13.0543 60.7712 13.0568C60.7706 15.1091 60.7706 17.1615 60.7706 19.2133C60.7662 19.8429 60.8112 20.4857 60.6308 21.0978C60.277 22.4388 59.1656 23.5458 57.819 23.8822C57.2299 24.0476 56.6153 23.9995 56.0118 24.0057C55.5931 24.0008 55.1719 24.0276 54.7576 23.9602C54.0755 23.8591 53.4278 23.5677 52.8893 23.1396C52.4019 23.5271 51.8272 23.8079 51.2144 23.9284C50.6971 24.0388 50.1654 23.9983 49.6413 24.0057C49.2038 24.0001 48.7633 24.0288 48.3302 23.9558C47.6606 23.8535 47.0273 23.5614 46.5 23.1396C45.8129 23.6719 44.9605 23.9976 44.0875 24.0045C43.2332 24.007 42.379 24.007 41.5253 24.0045C40.4551 23.992 39.4111 23.5047 38.6935 22.7153C37.8723 23.4004 36.8533 23.8491 35.7894 23.9696C35.3968 24.0188 35.0006 24.0039 34.6062 24.0057C30.1326 24.0051 25.6597 24.007 21.1861 24.0045C20.1434 24.0008 19.1287 23.5359 18.4061 22.7908C17.4882 23.5789 16.282 24.0132 15.0733 24.0057C12.639 24.0045 10.2047 24.0082 7.77041 24.0039C5.71552 23.9795 3.69621 23.0666 2.31027 21.5515C1.09593 20.2504 0.380807 18.5144 0.282837 16.7403V14.3753C1.26941 14.3759 2.25535 14.3741 3.2413 14.3759C3.24192 15.0311 3.24067 15.6857 3.24192 16.341C3.22507 17.7294 3.86968 19.1047 4.94673 19.9808C5.76919 20.6623 6.83189 21.0442 7.89958 21.0429C10.2902 21.0435 12.6802 21.0429 15.0708 21.0429C15.6954 21.0479 16.3163 20.7783 16.7356 20.3141C17.1013 19.9172 17.3116 19.3818 17.3122 18.8414C17.3147 17.9004 17.3129 16.9594 17.3129 16.019C17.0645 16.019 16.8161 16.0177 16.5678 16.0183C16.5665 15.0305 16.5659 14.0433 16.5678 13.0561C17.8002 13.0518 19.0333 13.063 20.2657 13.0499C20.2819 15.3943 20.2651 17.7388 20.2744 20.0832C20.2738 20.5967 20.73 21.0629 21.2498 21.0423C22.7131 21.0435 24.1764 21.0435 25.6391 21.0423C25.6404 17.2202 25.6404 13.3975 25.6397 9.57475C25.3084 9.5735 24.977 9.57475 24.6457 9.57412C24.6444 8.58693 24.6463 7.59974 24.6451 6.61254ZM32.0322 16.2055C30.8247 16.5294 29.7676 17.3618 29.1636 18.4545C28.7193 19.237 28.5364 20.1481 28.5764 21.0429C30.7311 21.0435 32.8858 21.0423 35.0405 21.0435C36.0464 21.0991 37.0499 20.4963 37.4549 19.5709C37.785 18.8514 37.7357 17.9765 37.3363 17.2945C36.9968 16.701 36.4034 16.2605 35.7363 16.1094C35.3039 16.0059 34.8564 16.0539 34.4165 16.0433C33.6209 16.057 32.8072 15.9784 32.0322 16.2055Z" fill="white"/>
<path d="M49.0852 10.0725C49.7217 9.44726 50.3607 8.82512 51.0016 8.20485C51.5719 8.77645 52.1435 9.34742 52.7145 9.91902C53.2892 9.34992 53.8564 8.77333 54.4318 8.20422C55.0695 8.82762 55.7098 9.44789 56.3463 10.0719C55.7073 10.709 55.0695 11.348 54.4324 11.9864C53.8564 11.4017 53.2892 10.8082 52.7151 10.2217C52.136 10.8057 51.58 11.4135 50.9878 11.9833C50.3613 11.3387 49.7192 10.7096 49.0852 10.0725Z" fill="white"/>
<path d="M68.5478 12.2148C70.1372 13.1428 71.7446 14.0401 73.3203 14.9905C73.3215 18.7907 73.3203 22.5904 73.3209 26.39C71.7321 25.4658 70.1315 24.561 68.5509 23.6244C68.5434 19.821 68.5497 16.0182 68.5478 12.2148Z" fill="white"/>
<path d="M74.8748 20.1685C76.1147 19.4522 77.3546 18.7352 78.5951 18.0188C81.8893 19.9183 85.1773 21.829 88.4714 23.7279C86.8802 24.649 85.2871 25.5663 83.6959 26.4873C80.4085 24.5916 77.1268 22.6871 73.8376 20.7957C74.1546 20.5473 74.5334 20.3838 74.8748 20.1685Z" fill="white"/>
<path d="M94.0871 20.8701C95.6639 19.9359 97.2596 19.033 98.8439 18.1107C98.8314 19.9534 98.8726 21.7967 98.8196 23.6388C97.2421 24.568 95.6502 25.474 94.0658 26.3932C94.0758 24.5524 94.0421 22.7103 94.0871 20.8701Z" fill="white"/>
<path d="M9.15808 28.0855C9.79645 27.4471 10.4342 26.8075 11.0732 26.1691C11.6966 26.8038 12.3281 27.4315 12.9446 28.0724L12.9421 28.103C12.325 28.7332 11.696 29.3522 11.0732 29.9775C10.4342 29.3472 9.79583 28.717 9.15808 28.0855Z" fill="white"/>
<path d="M78.7545 6.31415C80.3439 7.22521 81.9227 8.155 83.5176 9.0567C83.5432 12.8663 83.5226 16.6778 83.5283 20.488C81.9395 19.5645 80.3364 18.6641 78.7627 17.7174C78.7608 13.9165 78.7514 10.1157 78.7545 6.31415Z" fill="#D5D5D5"/>
<path d="M68.7228 11.9202C70.3121 11.0054 71.8996 10.0856 73.4878 9.16833C75.0803 10.0863 76.6715 11.0067 78.2634 11.9271C76.6709 12.8475 75.0784 13.7686 73.4846 14.6871C72.2784 13.9907 71.0722 13.2931 69.8666 12.5967C69.4872 12.3677 69.0897 12.1674 68.7228 11.9202Z" fill="#D5D5D5"/>
<path d="M84.0221 20.7776C87.3157 18.8713 90.6154 16.9767 93.9071 15.0673C95.4984 15.9827 97.0827 16.9087 98.6759 17.821C96.6946 18.9861 94.6959 20.1218 92.7103 21.28C91.4011 22.03 90.1031 22.8001 88.7871 23.537C87.2052 22.6066 85.609 21.7005 84.0221 20.7776Z" fill="#D5D5D5"/>
<path d="M73.6518 21.0639C75.2449 21.9837 76.8381 22.9035 78.4299 23.8252C78.4299 25.6635 78.4312 27.5019 78.4293 29.3402C76.8412 28.4129 75.2325 27.5206 73.6624 26.5627C73.6375 24.7306 73.6574 22.8973 73.6518 21.0639Z" fill="#D5D5D5"/>
<path d="M83.8781 26.7775C85.4513 25.8321 87.0538 24.9366 88.6394 24.0125C88.6282 25.8514 88.6625 27.691 88.6188 29.53C87.0413 30.466 85.4444 31.369 83.8575 32.2894C83.8688 30.4523 83.8345 28.6139 83.8781 26.7775Z" fill="#D5D5D5"/>
</svg>
