<svg width="126" height="27" viewBox="0 0 126 27" fill="none" xmlns="http://www.w3.org/2000/svg">
<path d="M119.48 0.0515886C121.435 0.0452452 123.389 0.0642747 125.344 0.0410156C125.365 6.20467 125.347 12.3683 125.353 18.532C125.334 19.5554 125.435 20.601 125.16 21.6011C124.736 23.2673 123.531 24.7104 121.968 25.4251C121.191 25.7909 120.334 25.9601 119.48 25.9738C119.479 21.3294 119.477 16.685 119.481 12.0406C115.746 12.0332 112.009 12.0416 108.274 12.0364C108.931 9.67556 110.907 7.74717 113.281 7.14455C114.411 6.82421 115.594 6.93628 116.753 6.91725C117.661 6.91619 118.571 6.9183 119.479 6.91619C119.479 4.62728 119.478 2.33944 119.48 0.0515886Z" fill="#000814"/>
<path d="M92.6895 6.95513C94.5344 6.40008 96.5801 6.64007 98.2865 7.51334C100.85 8.79577 102.626 11.6122 102.473 14.4995C101.583 15.8369 100.616 17.1257 99.7053 18.4515C95.526 18.461 91.3479 18.4504 87.1686 18.4567C87.8506 20.1547 89.208 21.5502 90.8647 22.3178C93.7298 23.6499 97.0929 23.3612 99.9981 22.3082C99.0107 23.7577 97.5538 24.8498 95.9394 25.5116C94.1992 26.2306 92.2994 26.4959 90.4249 26.4843C87.6402 26.4832 84.8818 25.1162 83.2389 22.8612C82.0115 21.2077 81.431 19.0816 81.6848 17.0348C81.8666 15.5409 82.5295 14.1168 83.5275 12.994C84.6588 11.7106 86.1812 10.8151 87.7966 10.2833C88.0134 10.2019 88.2798 10.1776 88.4183 9.96612C89.4935 8.56317 90.9863 7.45837 92.6895 6.95513ZM88.2999 10.1268C87.5249 11.1608 87.0206 12.3882 86.8388 13.6685C86.6221 15.2533 86.5512 16.9269 87.1644 18.4377C88.0631 17.1817 88.949 15.9173 89.8413 14.6571C92.1461 14.6539 94.4508 14.6581 96.7567 14.6549C96.4797 13.5565 95.9109 12.532 95.1063 11.7328C93.8662 10.4768 92.0974 9.77476 90.335 9.80859C89.6468 9.83714 88.9712 9.98198 88.2999 10.1268Z" fill="#000814"/>
<path d="M25.3121 6.91746C27.2691 6.91746 29.226 6.9164 31.1829 6.91746C31.5308 9.38187 31.9219 11.8399 32.3438 14.2916C32.7117 16.294 33.0067 18.3134 33.5067 20.2883C33.788 21.2694 34.1495 22.3795 35.0968 22.9091C36.2154 23.4631 37.6469 23.1227 38.5032 22.2452C38.1998 21.4206 38.0179 20.56 37.9038 19.6909C37.2578 15.443 36.6647 11.1855 36.1678 6.91746C38.1247 6.91746 40.0806 6.91746 42.0365 6.91746C42.397 9.45059 42.7977 11.9784 43.2354 14.4989C43.5927 16.4368 43.8761 18.3916 44.3656 20.302C44.6415 21.2599 44.9914 22.3329 45.8954 22.8774C47.015 23.4769 48.4951 23.1417 49.3567 22.2389C48.8472 23.6376 47.9326 24.9401 46.6027 25.6622C45.0073 26.5344 42.9552 26.62 41.3419 25.7457C39.9802 25.0141 39.0625 23.6756 38.5053 22.2663C38.1025 23.2485 37.576 24.2053 36.7757 24.921C35.5356 26.0787 33.7436 26.5502 32.0816 26.288C30.8658 26.102 29.7525 25.4327 28.9606 24.4992C27.9372 23.3045 27.3737 21.7768 27.1316 20.2365C26.4529 15.8067 25.8312 11.3684 25.3121 6.91746Z" fill="#000814"/>
<path d="M49.3505 6.91813C51.3063 6.91496 53.2622 6.91813 55.2181 6.91602C55.2192 9.9767 55.2192 13.0374 55.2181 16.097C55.2181 17.8298 54.5098 19.5764 53.2094 20.7383C52.1659 21.6898 50.7598 22.2141 49.3505 22.2141C49.3526 17.1151 49.3526 12.0172 49.3505 6.91813Z" fill="#000814"/>
<path d="M62.0181 11.3489C62.9992 8.79571 65.5905 6.97304 68.3277 6.92018C71.825 6.91172 75.3234 6.91912 78.8207 6.91701C78.8218 11.3489 78.8228 15.7819 78.8207 20.2138C78.8048 21.9117 77.9908 23.5737 76.6745 24.6415C75.6374 25.501 74.2979 25.9651 72.9541 25.9736C72.9467 21.326 72.9657 16.6774 72.9446 12.0298C69.6133 12.0488 66.2809 12.0308 62.9495 12.0393C62.6007 12.0488 62.2412 11.9854 61.9039 12.1038C61.8479 12.0594 61.794 12.015 61.7422 11.9685C61.8574 11.7729 61.9409 11.5614 62.0181 11.3489Z" fill="#000814"/>
<path d="M4.68979 12.0361C4.7363 12.0858 4.78176 12.1387 4.82617 12.1915C4.51006 12.8005 4.50477 13.5237 4.49843 14.1971C4.54706 16.2524 5.56835 18.2505 7.18908 19.5129C8.49053 20.5511 10.1567 21.0807 11.8145 21.0786C10.5659 22.8379 9.32151 24.6013 8.0761 26.3627C6.55685 26.3521 5.04079 25.8954 3.7922 25.0253C2.23807 23.9596 1.11106 22.2892 0.712483 20.4453C0.370997 18.8828 0.525353 17.2092 1.17344 15.7438C1.81729 14.2827 2.94747 13.0363 4.35253 12.274C4.472 12.2042 4.58406 12.1249 4.68979 12.0361Z" fill="#000814"/>
<path d="M58.3104 15.3849C59.0071 13.9809 60.187 12.8581 61.5603 12.1191C61.6132 12.1836 61.6661 12.2492 61.72 12.3158C61.3489 13.4333 61.407 14.6575 61.6978 15.7867C62.1735 17.6051 63.4189 19.1973 65.0555 20.1171C66.1825 20.7652 67.485 21.0739 68.7812 21.0771C67.5326 22.8373 66.2893 24.5998 65.0439 26.3611C63.5796 26.3516 62.1175 25.9287 60.8964 25.1167C59.5262 24.2191 58.4648 22.8627 57.9266 21.3149C57.2521 19.3939 57.3843 17.2002 58.3104 15.3849Z" fill="#000814"/>
<path d="M105.558 14.1964C106.274 13.266 107.225 12.5355 108.276 12.0195C107.624 14.1456 108.101 16.5625 109.478 18.3016C110.841 20.0767 113.068 21.0969 115.296 21.0768C114.049 22.8361 112.803 24.5974 111.56 26.3598C109.869 26.3535 108.182 25.7826 106.859 24.7264C105.36 23.5518 104.338 21.7883 104.076 19.9012C103.78 17.9041 104.307 15.7886 105.558 14.1964Z" fill="#000814"/>
<path d="M4.98475 11.5211C5.9278 8.85267 8.61951 6.93168 11.4518 6.91794C14.9206 6.91371 18.3883 6.91794 21.856 6.91688C21.8571 11.3128 21.856 15.7088 21.8571 20.1048C21.8677 21.7699 21.1192 23.4181 19.8632 24.5103C18.8059 25.4491 17.4009 25.9671 15.9895 25.9735C15.9884 21.328 15.9895 16.6825 15.9884 12.0381C12.471 12.036 8.95254 12.0413 5.43408 12.0349C5.27549 12.0349 5.11797 12.0455 4.9615 12.0635C4.89595 12.0275 4.8304 11.9916 4.76379 11.9556C4.90546 11.8563 4.92026 11.6681 4.98475 11.5211Z" fill="#1ED760"/>
</svg>
