<svg width="46" height="34" viewBox="0 0 46 34" fill="none" xmlns="http://www.w3.org/2000/svg">
<path d="M25.3682 30.4729V11.2298C25.3711 8.44694 26.4778 5.77885 28.4456 3.81106C30.4134 1.84325 33.0815 0.736477 35.8644 0.733582C36.3284 0.733582 36.7733 0.917889 37.1014 1.24596C37.4295 1.57403 37.6138 2.01899 37.6138 2.48296C37.6138 2.94692 37.4295 3.39188 37.1014 3.71995C36.7733 4.04802 36.3284 4.23233 35.8644 4.23233C34.0086 4.23233 32.2287 4.96956 30.9164 6.28185C29.6041 7.59413 28.8669 9.37397 28.8669 11.2298V12.9792H41.9872C42.9151 12.9792 43.8051 13.3478 44.4612 14.004C45.1173 14.6601 45.486 15.55 45.486 16.4779V30.4729C45.486 31.4009 45.1173 32.2908 44.4612 32.9469C43.8051 33.6031 42.9151 33.9717 41.9872 33.9717H28.8669C27.939 33.9717 27.0491 33.6031 26.3929 32.9469C25.7368 32.2908 25.3682 31.4009 25.3682 30.4729ZM3.50099 33.9717H16.6213C17.5492 33.9717 18.4391 33.6031 19.0953 32.9469C19.7514 32.2908 20.12 31.4009 20.12 30.4729V16.4779C20.12 15.55 19.7514 14.6601 19.0953 14.004C18.4391 13.3478 17.5492 12.9792 16.6213 12.9792H3.50099V11.2298C3.50099 9.37397 4.23823 7.59413 5.55051 6.28185C6.8628 4.96956 8.64264 4.23233 10.4985 4.23233C10.9625 4.23233 11.4074 4.04802 11.7355 3.71995C12.0636 3.39188 12.2479 2.94692 12.2479 2.48296C12.2479 2.01899 12.0636 1.57403 11.7355 1.24596C11.4074 0.917889 10.9625 0.733582 10.4985 0.733582C7.7156 0.736477 5.04752 1.84325 3.07972 3.81106C1.11192 5.77885 0.00514221 8.44694 0.00224686 11.2298V30.4729C0.00224686 31.4009 0.370865 32.2908 1.02701 32.9469C1.68315 33.6031 2.57307 33.9717 3.50099 33.9717Z" fill="#9FFE00"/>
</svg>
