<svg width="79" height="79" viewBox="0 0 79 79" fill="none" xmlns="http://www.w3.org/2000/svg">
<path d="M44.8939 18.5236V8.54009C44.8939 7.05756 44.305 5.63575 43.2567 4.58744C42.2084 3.53913 40.7865 2.9502 39.304 2.9502H8.95647C7.47394 2.9502 6.05213 3.53913 5.00382 4.58744C3.95551 5.63575 3.36658 7.05756 3.36658 8.54009V38.8876C3.36658 40.3702 3.95551 41.792 5.00382 42.8403C6.05213 43.8886 7.47394 44.4775 8.95647 44.4775H18.94M40.0978 34.0915H70.4453C70.4453 34.0915 76.0352 34.0915 76.0352 39.6814V70.0289C76.0352 70.0289 76.0352 75.6188 70.4453 75.6188H40.0978C40.0978 75.6188 34.5079 75.6188 34.5079 70.0289V39.6814C34.5079 39.6814 34.5079 34.0915 40.0978 34.0915Z" fill="#1D1D1D"/>
<path d="M44.8939 18.5236V8.54009C44.8939 7.05756 44.305 5.63575 43.2567 4.58744C42.2084 3.53913 40.7865 2.9502 39.304 2.9502H8.95647C7.47394 2.9502 6.05213 3.53913 5.00382 4.58744C3.95551 5.63575 3.36658 7.05756 3.36658 8.54009V38.8876C3.36658 40.3702 3.95551 41.792 5.00382 42.8403C6.05213 43.8886 7.47394 44.4775 8.95647 44.4775H18.94M40.0978 34.0915H70.4453C70.4453 34.0915 76.0352 34.0915 76.0352 39.6814V70.0289C76.0352 70.0289 76.0352 75.6188 70.4453 75.6188H40.0978C40.0978 75.6188 34.5079 75.6188 34.5079 70.0289V39.6814C34.5079 39.6814 34.5079 34.0915 40.0978 34.0915Z" stroke="#E5E5E5" stroke-width="5.19062" stroke-linecap="round" stroke-linejoin="round"/>
<path d="M48.9467 62.5708C48.5761 62.5708 48.2206 62.4235 47.9585 62.1615C47.6964 61.8994 47.5492 61.5439 47.5492 61.1733C47.5492 60.8027 47.6964 60.4472 47.9585 60.1851C48.2206 59.9231 48.5761 59.7758 48.9467 59.7758M48.9467 62.5708C49.3173 62.5708 49.6728 62.4235 49.9349 62.1615C50.1969 61.8994 50.3442 61.5439 50.3442 61.1733C50.3442 60.8027 50.1969 60.4472 49.9349 60.1851C49.6728 59.9231 49.3173 59.7758 48.9467 59.7758M18.5768 19.7466C18.2062 19.7466 17.8507 19.5994 17.5886 19.3373C17.3266 19.0752 17.1793 18.7198 17.1793 18.3491C17.1793 17.9785 17.3266 17.623 17.5886 17.361C17.8507 17.0989 18.2062 16.9517 18.5768 16.9517" fill="#1D1D1D"/>
<path d="M18.5768 19.7466C18.2062 19.7466 17.8507 19.5994 17.5886 19.3373C17.3266 19.0752 17.1793 18.7198 17.1793 18.3491C17.1793 17.9785 17.3266 17.623 17.5886 17.361C17.8507 17.0989 18.2062 16.9517 18.5768 16.9517M48.9467 62.5708C48.5761 62.5708 48.2206 62.4235 47.9585 62.1615C47.6964 61.8994 47.5492 61.5439 47.5492 61.1733C47.5492 60.8027 47.6964 60.4472 47.9585 60.1851C48.2206 59.9231 48.5761 59.7758 48.9467 59.7758C49.3173 59.7758 49.6728 59.9231 49.9349 60.1851C50.1969 60.4472 50.3442 60.8027 50.3442 61.1733C50.3442 61.5439 50.1969 61.8994 49.9349 62.1615C49.6728 62.4235 49.3173 62.5708 48.9467 62.5708Z" stroke="#E5E5E5" stroke-width="5.19062" stroke-linecap="round" stroke-linejoin="round"/>
<path d="M18.5709 19.7466C18.9416 19.7466 19.297 19.5994 19.5591 19.3373C19.8212 19.0752 19.9684 18.7198 19.9684 18.3491C19.9684 17.9785 19.8212 17.623 19.5591 17.361C19.297 17.0989 18.9416 16.9517 18.5709 16.9517M61.6075 51.05C61.2369 51.05 60.8814 50.9028 60.6194 50.6407C60.3573 50.3786 60.21 50.0232 60.21 49.6525C60.21 49.2819 60.3573 48.9265 60.6194 48.6644C60.8814 48.4023 61.2369 48.2551 61.6075 48.2551" fill="#1D1D1D"/>
<path d="M18.5709 19.7466C18.9416 19.7466 19.297 19.5994 19.5591 19.3373C19.8212 19.0752 19.9684 18.7198 19.9684 18.3491C19.9684 17.9785 19.8212 17.623 19.5591 17.361C19.297 17.0989 18.9416 16.9517 18.5709 16.9517M61.6075 51.05C61.2369 51.05 60.8814 50.9028 60.6194 50.6407C60.3573 50.3786 60.21 50.0232 60.21 49.6525C60.21 49.2819 60.3573 48.9265 60.6194 48.6644C60.8814 48.4023 61.2369 48.2551 61.6075 48.2551" stroke="#E5E5E5" stroke-width="5.19062" stroke-linecap="round" stroke-linejoin="round"/>
<path d="M61.6023 51.0537C61.9729 51.0537 62.3284 50.9065 62.5905 50.6444C62.8525 50.3823 62.9998 50.0269 62.9998 49.6563C62.9998 49.2856 62.8525 48.9302 62.5905 48.6681C62.3284 48.406 61.9729 48.2588 61.6023 48.2588" fill="#1D1D1D"/>
<path d="M61.6023 51.0537C61.9729 51.0537 62.3284 50.9065 62.5905 50.6444C62.8525 50.3823 62.9998 50.0269 62.9998 49.6563C62.9998 49.2856 62.8525 48.9302 62.5905 48.6681C62.3284 48.406 61.9729 48.2588 61.6023 48.2588" stroke="#E5E5E5" stroke-width="5.19062" stroke-linecap="round" stroke-linejoin="round"/>
</svg>
