<svg width="64" height="64" viewBox="0 0 64 64" fill="none" xmlns="http://www.w3.org/2000/svg">
<path d="M0.175904 6.05121C0.175904 4.46887 0.767514 2.95133 1.82058 1.83244C2.87366 0.713553 4.30193 0.0849676 5.79119 0.0849676H54.457C55.7831 0.0828685 57.0672 0.579493 58.0817 1.48688C59.0962 2.39427 59.7757 3.65386 59.9999 5.04257C60.2241 6.43127 59.9784 7.85947 59.3065 9.0742C58.6346 10.2889 57.5798 11.2118 56.3288 11.6794V35.8824H52.5853V12.0175H7.66296V51.7924H11.4065V37.8712C11.4065 37.3437 11.6037 36.8379 11.9547 36.4649C12.3057 36.092 12.7818 35.8824 13.2782 35.8824H28.2524C28.6126 35.8821 28.9653 35.9923 29.2681 36.1997C29.5709 36.4072 29.811 36.703 29.9594 37.0518C28.8661 37.7628 27.9628 38.7601 27.3362 39.9482C26.7096 41.1363 26.3805 42.4755 26.3806 43.8374V39.8599H15.15V51.7924H26.3806V55.7699H5.79119C5.29477 55.7699 4.81868 55.5604 4.46766 55.1874C4.11663 54.8145 3.91943 54.3086 3.91943 53.7812V11.6794C2.82416 11.2679 1.87595 10.5057 1.20548 9.49768C0.535012 8.48967 0.175295 7.28553 0.175904 6.05121ZM5.79119 4.06246C5.29477 4.06246 4.81868 4.27199 4.46766 4.64496C4.11663 5.01792 3.91943 5.52376 3.91943 6.05121C3.91943 6.57866 4.11663 7.08451 4.46766 7.45747C4.81868 7.83043 5.29477 8.03996 5.79119 8.03996H54.457C54.9535 8.03996 55.4296 7.83043 55.7806 7.45747C56.1316 7.08451 56.3288 6.57866 56.3288 6.05121C56.3288 5.52376 56.1316 5.01792 55.7806 4.64496C55.4296 4.27199 54.9535 4.06246 54.457 4.06246H5.79119ZM13.2782 15.995C12.7818 15.995 12.3057 16.2045 11.9547 16.5774C11.6037 16.9504 11.4065 17.4563 11.4065 17.9837V29.9162C11.4065 30.4436 11.6037 30.9495 11.9547 31.3225C12.3057 31.6954 12.7818 31.9049 13.2782 31.9049H46.97C47.4664 31.9049 47.9425 31.6954 48.2935 31.3225C48.6446 30.9495 48.8418 30.4436 48.8418 29.9162V17.9837C48.8418 17.4563 48.6446 16.9504 48.2935 16.5774C47.9425 16.2045 47.4664 15.995 46.97 15.995H13.2782ZM15.15 27.9274V19.9725H45.0982V27.9274H15.15ZM63.8159 45.8262V57.7587C63.8159 59.341 63.2243 60.8586 62.1712 61.9775C61.1181 63.0963 59.6898 63.7249 58.2006 63.7249H35.7394C34.2501 63.7249 32.8219 63.0963 31.7688 61.9775C30.7157 60.8586 30.1241 59.341 30.1241 57.7587V45.8262C30.1241 44.2438 30.7157 42.7263 31.7688 41.6074C32.8219 40.4885 34.2501 39.8599 35.7394 39.8599H58.2006C59.6898 39.8599 61.1181 40.4885 62.1712 41.6074C63.2243 42.7263 63.8159 44.2438 63.8159 45.8262ZM58.2006 59.7474C58.2006 59.22 58.3978 58.7141 58.7488 58.3412C59.0998 57.9682 59.5759 57.7587 60.0723 57.7587V53.7812C58.5831 53.7812 57.1548 54.4098 56.1017 55.5287C55.0487 56.6475 54.457 58.1651 54.457 59.7474H58.2006ZM60.0723 45.8262C59.5759 45.8262 59.0998 45.6167 58.7488 45.2437C58.3978 44.8707 58.2006 44.3649 58.2006 43.8374H54.457C54.457 45.4198 55.0487 46.9373 56.1017 48.0562C57.1548 49.1751 58.5831 49.8037 60.0723 49.8037V45.8262ZM35.7394 43.8374C35.7394 44.3649 35.5422 44.8707 35.1912 45.2437C34.8402 45.6167 34.3641 45.8262 33.8676 45.8262V49.8037C35.3569 49.8037 36.7852 49.1751 37.8383 48.0562C38.8913 46.9373 39.4829 45.4198 39.4829 43.8374H35.7394ZM33.8676 57.7587C34.3641 57.7587 34.8402 57.9682 35.1912 58.3412C35.5422 58.7141 35.7394 59.22 35.7394 59.7474H39.4829C39.4829 58.1651 38.8913 56.6475 37.8383 55.5287C36.7852 54.4098 35.3569 53.7812 33.8676 53.7812V57.7587ZM46.97 45.8262C45.4807 45.8262 44.0525 46.4548 42.9994 47.5737C41.9463 48.6925 41.3547 50.2101 41.3547 51.7924C41.3547 53.3748 41.9463 54.8923 42.9994 56.0112C44.0525 57.1301 45.4807 57.7587 46.97 57.7587C48.4593 57.7587 49.8875 57.1301 50.9406 56.0112C51.9937 54.8923 52.5853 53.3748 52.5853 51.7924C52.5853 50.2101 51.9937 48.6925 50.9406 47.5737C49.8875 46.4548 48.4593 45.8262 46.97 45.8262Z" fill="white"/>
</svg>
