<svg width="232" height="39" viewBox="0 0 232 39" fill="none" xmlns="http://www.w3.org/2000/svg">
<path d="M17.8279 1.57077C18.0607 1.09925 18.4207 0.702268 18.8674 0.424687C19.314 0.147105 19.8293 0 20.3552 0C20.8811 0 21.3964 0.147105 21.843 0.424687C22.2897 0.702268 22.6497 1.09925 22.8825 1.57077L27.6459 11.2228L38.2969 12.7699C38.8176 12.845 39.3069 13.0643 39.7094 13.403C40.1119 13.7418 40.4116 14.1864 40.5745 14.6866C40.7375 15.1868 40.7572 15.7226 40.6314 16.2335C40.5056 16.7443 40.2393 17.2097 39.8628 17.5771L32.1525 25.0932L33.972 35.7004C34.0604 36.2187 34.0022 36.7513 33.8038 37.2382C33.6054 37.725 33.2748 38.1467 32.8493 38.4555C32.4239 38.7644 31.9205 38.948 31.3961 38.9858C30.8718 39.0236 30.3473 38.914 29.8819 38.6693L20.3552 33.6648L10.8285 38.6756C10.3626 38.9208 9.83741 39.0306 9.31234 38.9927C8.78727 38.9547 8.28334 38.7704 7.85762 38.4608C7.4319 38.1511 7.10141 37.7284 6.9036 37.2405C6.70579 36.7527 6.64857 36.2191 6.73841 35.7004L8.55481 25.0932L0.850742 17.5802C0.474235 17.213 0.207957 16.7479 0.0820165 16.2373C-0.0439245 15.7267 -0.0245054 15.191 0.138078 14.6909C0.300661 14.1908 0.599924 13.7461 1.00203 13.4072C1.40413 13.0682 1.89304 12.8486 2.41348 12.773L13.0614 11.2259L17.8279 1.57077Z" fill="url(#paint0_linear_475_1380)"/>
<path d="M65.5826 1.57077C65.8154 1.09925 66.1755 0.702268 66.6221 0.424687C67.0687 0.147105 67.5841 0 68.11 0C68.6358 0 69.1512 0.147105 69.5978 0.424687C70.0444 0.702268 70.4045 1.09925 70.6373 1.57077L75.4006 11.2228L86.0517 12.7699C86.5724 12.845 87.0617 13.0643 87.4642 13.403C87.8667 13.7418 88.1664 14.1864 88.3293 14.6866C88.4922 15.1868 88.5119 15.7226 88.3861 16.2335C88.2603 16.7443 87.9941 17.2097 87.6175 17.5771L79.9072 25.0932L81.7267 35.7004C81.8152 36.2187 81.7569 36.7513 81.5585 37.2382C81.3601 37.725 81.0295 38.1467 80.6041 38.4555C80.1786 38.7644 79.6753 38.948 79.1509 38.9858C78.6265 39.0236 78.102 38.914 77.6367 38.6693L68.11 33.6648L58.5832 38.6756C58.1174 38.9208 57.5922 39.0306 57.0671 38.9927C56.542 38.9547 56.0381 38.7704 55.6124 38.4608C55.1867 38.1511 54.8562 37.7284 54.6584 37.2405C54.4606 36.7527 54.4033 36.2191 54.4932 35.7004L56.3096 25.0932L48.6055 17.5802C48.229 17.213 47.9627 16.7479 47.8368 16.2373C47.7108 15.7267 47.7303 15.191 47.8928 14.6909C48.0554 14.1908 48.3547 13.7461 48.7568 13.4072C49.1589 13.0682 49.6478 12.8486 50.1682 12.773L60.8161 11.2259L65.5826 1.57077Z" fill="url(#paint1_linear_475_1380)"/>
<path d="M113.338 1.57077C113.57 1.09925 113.93 0.702268 114.377 0.424687C114.824 0.147105 115.339 0 115.865 0C116.391 0 116.906 0.147105 117.353 0.424687C117.799 0.702268 118.159 1.09925 118.392 1.57077L123.156 11.2228L133.807 12.7699C134.327 12.845 134.817 13.0643 135.219 13.403C135.622 13.7418 135.921 14.1864 136.084 14.6866C136.247 15.1868 136.267 15.7226 136.141 16.2335C136.015 16.7443 135.749 17.2097 135.372 17.5771L127.662 25.0932L129.482 35.7004C129.57 36.2187 129.512 36.7513 129.313 37.2382C129.115 37.725 128.784 38.1467 128.359 38.4555C127.933 38.7644 127.43 38.948 126.906 38.9858C126.381 39.0236 125.857 38.914 125.392 38.6693L115.865 33.6648L106.338 38.6756C105.872 38.9208 105.347 39.0306 104.822 38.9927C104.297 38.9547 103.793 38.7704 103.367 38.4608C102.942 38.1511 102.611 37.7284 102.413 37.2405C102.215 36.7527 102.158 36.2191 102.248 35.7004L104.064 25.0932L96.3604 17.5802C95.9839 17.213 95.7176 16.7479 95.5917 16.2373C95.4657 15.7267 95.4851 15.191 95.6477 14.6909C95.8103 14.1908 96.1096 13.7461 96.5117 13.4072C96.9138 13.0682 97.4027 12.8486 97.9231 12.773L108.571 11.2259L113.338 1.57077Z" fill="url(#paint2_linear_475_1380)"/>
<path d="M161.092 1.57077C161.325 1.09925 161.685 0.702268 162.132 0.424687C162.578 0.147105 163.094 0 163.62 0C164.145 0 164.661 0.147105 165.107 0.424687C165.554 0.702268 165.914 1.09925 166.147 1.57077L170.91 11.2228L181.561 12.7699C182.082 12.845 182.571 13.0643 182.974 13.403C183.376 13.7418 183.676 14.1864 183.839 14.6866C184.002 15.1868 184.022 15.7226 183.896 16.2335C183.77 16.7443 183.504 17.2097 183.127 17.5771L175.417 25.0932L177.236 35.7004C177.325 36.2187 177.267 36.7513 177.068 37.2382C176.87 37.725 176.539 38.1467 176.114 38.4555C175.688 38.7644 175.185 38.948 174.661 38.9858C174.136 39.0236 173.612 38.914 173.146 38.6693L163.62 33.6648L154.093 38.6756C153.627 38.9208 153.102 39.0306 152.577 38.9927C152.052 38.9547 151.548 38.7704 151.122 38.4608C150.696 38.1511 150.366 37.7284 150.168 37.2405C149.97 36.7527 149.913 36.2191 150.003 35.7004L151.819 25.0932L144.115 17.5802C143.739 17.213 143.472 16.7479 143.346 16.2373C143.22 15.7267 143.24 15.191 143.402 14.6909C143.565 14.1908 143.864 13.7461 144.266 13.4072C144.669 13.0682 145.157 12.8486 145.678 12.773L156.326 11.2259L161.092 1.57077Z" fill="url(#paint3_linear_475_1380)"/>
<path d="M208.847 1.57077C209.08 1.09925 209.44 0.702268 209.887 0.424687C210.333 0.147105 210.849 0 211.374 0C211.9 0 212.416 0.147105 212.862 0.424687C213.309 0.702268 213.669 1.09925 213.902 1.57077L218.665 11.2228L229.316 12.7699C229.837 12.845 230.326 13.0643 230.729 13.403C231.131 13.7418 231.431 14.1864 231.594 14.6866C231.757 15.1868 231.776 15.7226 231.651 16.2335C231.525 16.7443 231.259 17.2097 230.882 17.5771L223.172 25.0932L224.991 35.7004C225.08 36.2187 225.021 36.7513 224.823 37.2382C224.625 37.725 224.294 38.1467 223.869 38.4555C223.443 38.7644 222.94 38.948 222.415 38.9858C221.891 39.0236 221.367 38.914 220.901 38.6693L211.374 33.6648L201.848 38.6756C201.382 38.9208 200.857 39.0306 200.332 38.9927C199.807 38.9547 199.303 38.7704 198.877 38.4608C198.451 38.1511 198.121 37.7284 197.923 37.2405C197.725 36.7527 197.668 36.2191 197.758 35.7004L199.574 25.0932L191.87 17.5802C191.494 17.213 191.227 16.7479 191.101 16.2373C190.975 15.7267 190.995 15.191 191.157 14.6909C191.32 14.1908 191.619 13.7461 192.021 13.4072C192.423 13.0682 192.912 12.8486 193.433 12.773L204.081 11.2259L208.847 1.57077Z" fill="url(#paint4_linear_475_1380)"/>
<defs>
<linearGradient id="paint0_linear_475_1380" x1="40.7084" y1="39.8719" x2="-1.17862" y2="0.374445" gradientUnits="userSpaceOnUse">
<stop stop-color="#D8FE00"/>
<stop offset="1" stop-color="#FFCD0F"/>
</linearGradient>
<linearGradient id="paint1_linear_475_1380" x1="88.4631" y1="39.8719" x2="46.5761" y2="0.374445" gradientUnits="userSpaceOnUse">
<stop stop-color="#D8FE00"/>
<stop offset="1" stop-color="#FFCD0F"/>
</linearGradient>
<linearGradient id="paint2_linear_475_1380" x1="136.218" y1="39.8719" x2="94.331" y2="0.374445" gradientUnits="userSpaceOnUse">
<stop stop-color="#D8FE00"/>
<stop offset="1" stop-color="#FFCD0F"/>
</linearGradient>
<linearGradient id="paint3_linear_475_1380" x1="183.973" y1="39.8719" x2="142.086" y2="0.374445" gradientUnits="userSpaceOnUse">
<stop stop-color="#D8FE00"/>
<stop offset="1" stop-color="#FFCD0F"/>
</linearGradient>
<linearGradient id="paint4_linear_475_1380" x1="231.728" y1="39.8719" x2="189.841" y2="0.374445" gradientUnits="userSpaceOnUse">
<stop stop-color="#D8FE00"/>
<stop offset="1" stop-color="#FFCD0F"/>
</linearGradient>
</defs>
</svg>
