<svg width="99" height="111" viewBox="0 0 99 111" fill="none" xmlns="http://www.w3.org/2000/svg">
<g filter="url(#filter0_di_475_1009)">
<path d="M71.0218 4.6965C71.0218 3.49598 71.4987 2.34462 72.3476 1.49573C73.1965 0.646827 74.3479 0.169922 75.5484 0.169922H90.637C91.8375 0.169922 92.9889 0.646827 93.8378 1.49573C94.6867 2.34462 95.1636 3.49598 95.1636 4.6965V19.7851C95.1636 20.9856 94.6867 22.137 93.8378 22.9859C92.9889 23.8348 91.8375 24.3117 90.637 24.3117C89.4365 24.3117 88.2851 23.8348 87.4362 22.9859C86.5873 22.137 86.1104 20.9856 86.1104 19.7851V15.6206L59.132 42.5991C58.2832 43.4467 57.1327 43.9229 55.9332 43.9229C54.7336 43.9229 53.5831 43.4467 52.7344 42.5991L37.8269 27.6915L12.3573 53.1611C11.9429 53.6058 11.4432 53.9625 10.8879 54.2099C10.3327 54.4573 9.73326 54.5904 9.12548 54.6011C8.51769 54.6118 7.91397 54.5 7.35033 54.2723C6.7867 54.0447 6.27468 53.7058 5.84485 53.276C5.41501 52.8461 5.07615 52.3341 4.84849 51.7705C4.62083 51.2069 4.50902 50.6031 4.51975 49.9954C4.53047 49.3876 4.6635 48.7882 4.91091 48.2329C5.15831 47.6777 5.51502 47.1779 5.95975 46.7635L34.6281 18.0952C35.4768 17.2475 36.6273 16.7714 37.8269 16.7714C39.0264 16.7714 40.1769 17.2475 41.0257 18.0952L55.9332 33.0027L79.7128 9.22308H75.5484C74.3479 9.22308 73.1965 8.74617 72.3476 7.89728C71.4987 7.04838 71.0218 5.89702 71.0218 4.6965ZM9.15854 72.5952C10.3591 72.5952 11.5104 73.0721 12.3593 73.921C13.2082 74.7699 13.6851 75.9212 13.6851 77.1218V92.2104C13.6851 93.4109 13.2082 94.5622 12.3593 95.4111C11.5104 96.26 10.3591 96.7369 9.15854 96.7369C7.95801 96.7369 6.80666 96.26 5.95776 95.4111C5.10886 94.5622 4.63196 93.4109 4.63196 92.2104V77.1218C4.63196 75.9212 5.10886 74.7699 5.95776 73.921C6.80666 73.0721 7.95801 72.5952 9.15854 72.5952ZM37.8269 59.0155C37.8269 57.8149 37.35 56.6636 36.5011 55.8147C35.6522 54.9658 34.5008 54.4889 33.3003 54.4889C32.0998 54.4889 30.9484 54.9658 30.0995 55.8147C29.2506 56.6636 28.7737 57.8149 28.7737 59.0155V92.2104C28.7737 93.4109 29.2506 94.5622 30.0995 95.4111C30.9484 96.26 32.0998 96.7369 33.3003 96.7369C34.5008 96.7369 35.6522 96.26 36.5011 95.4111C37.35 94.5622 37.8269 93.4109 37.8269 92.2104V59.0155ZM57.4421 66.5598C58.6426 66.5598 59.7939 67.0367 60.6428 67.8856C61.4917 68.7345 61.9686 69.8858 61.9686 71.0863V92.2104C61.9686 93.4109 61.4917 94.5622 60.6428 95.4111C59.7939 96.26 58.6426 96.7369 57.4421 96.7369C56.2415 96.7369 55.0902 96.26 54.2413 95.4111C53.3924 94.5622 52.9155 93.4109 52.9155 92.2104V71.0863C52.9155 69.8858 53.3924 68.7345 54.2413 67.8856C55.0902 67.0367 56.2415 66.5598 57.4421 66.5598ZM86.1104 46.9446C86.1104 45.744 85.6335 44.5927 84.7846 43.7438C83.9357 42.8949 82.7843 42.418 81.5838 42.418C80.3833 42.418 79.2319 42.8949 78.383 43.7438C77.5341 44.5927 77.0572 45.744 77.0572 46.9446V92.2104C77.0572 93.4109 77.5341 94.5622 78.383 95.4111C79.2319 96.26 80.3833 96.7369 81.5838 96.7369C82.7843 96.7369 83.9357 96.26 84.7846 95.4111C85.6335 94.5622 86.1104 93.4109 86.1104 92.2104V46.9446Z" fill="url(#paint0_linear_475_1009)"/>
</g>
<defs>
<filter id="filter0_di_475_1009" x="0.864276" y="0.169922" width="97.9541" height="110.062" filterUnits="userSpaceOnUse" color-interpolation-filters="sRGB">
<feFlood flood-opacity="0" result="BackgroundImageFix"/>
<feColorMatrix in="SourceAlpha" type="matrix" values="0 0 0 0 0 0 0 0 0 0 0 0 0 0 0 0 0 0 127 0" result="hardAlpha"/>
<feOffset dy="9.83976"/>
<feGaussianBlur stdDeviation="1.82738"/>
<feComposite in2="hardAlpha" operator="out"/>
<feColorMatrix type="matrix" values="0 0 0 0 0 0 0 0 0 0 0 0 0 0 0 0 0 0 0.25 0"/>
<feBlend mode="normal" in2="BackgroundImageFix" result="effect1_dropShadow_475_1009"/>
<feBlend mode="normal" in="SourceGraphic" in2="effect1_dropShadow_475_1009" result="shape"/>
<feColorMatrix in="SourceAlpha" type="matrix" values="0 0 0 0 0 0 0 0 0 0 0 0 0 0 0 0 0 0 127 0" result="hardAlpha"/>
<feOffset dy="10.5426"/>
<feGaussianBlur stdDeviation="2.49508"/>
<feComposite in2="hardAlpha" operator="arithmetic" k2="-1" k3="1"/>
<feColorMatrix type="matrix" values="0 0 0 0 0.538462 0 0 0 0 0.538462 0 0 0 0 0.538462 0 0 0 0.22 0"/>
<feBlend mode="normal" in2="shape" result="effect2_innerShadow_475_1009"/>
</filter>
<linearGradient id="paint0_linear_475_1009" x1="49.8413" y1="0.169922" x2="49.8413" y2="96.7369" gradientUnits="userSpaceOnUse">
<stop stop-color="#C5C5C5"/>
<stop offset="1" stop-color="white"/>
</linearGradient>
</defs>
</svg>
