<svg width="59" height="59" viewBox="0 0 59 59" fill="none" xmlns="http://www.w3.org/2000/svg">
<path d="M16.8185 0.00292969H20.7326C21.405 0.0970394 21.9934 0.665099 22.0309 1.35675C22.0603 2.16519 22.0388 2.97476 22.0388 3.78319C23.6103 4.16644 25.1274 4.77418 26.4971 5.63704C27.0447 5.0996 27.5788 4.54854 28.1276 4.01223C28.5142 3.61538 29.1276 3.46912 29.6515 3.65167C30.0211 3.76845 30.2864 4.06666 30.554 4.33084C31.2842 5.07465 32.036 5.79805 32.7594 6.54752C33.2787 7.0827 33.2798 8.01019 32.7639 8.54764C32.2196 9.12137 31.6448 9.66562 31.0926 10.2314C31.9464 11.6 32.5666 13.1091 32.934 14.6784C33.1041 14.6829 33.2753 14.6863 33.4453 14.6909C33.7798 14.379 34.1857 14.0967 34.662 14.0967C36.1677 14.0899 37.6735 14.0888 39.1792 14.0978C40.0035 14.1035 40.7281 14.8303 40.7462 15.6512C40.7598 16.6808 40.7451 17.7103 40.7508 18.7398C42.7747 19.1945 44.7306 19.9825 46.4722 21.1153C47.2421 20.41 47.9439 19.6322 48.7059 18.9179C49.3125 18.3475 50.3522 18.3849 50.9282 18.9836C51.9385 19.9814 52.9363 20.9905 53.9431 21.9929C54.6325 22.587 54.6869 23.7435 54.0225 24.3774C53.3184 25.0962 52.5984 25.8003 51.8897 26.5158C53.0088 28.2721 53.8139 30.2235 54.2663 32.2565C55.3106 32.2667 56.3548 32.2417 57.3991 32.2667C58.1622 32.2973 58.7801 32.93 58.9185 33.6602V38.402C58.8391 39.1696 58.1917 39.8352 57.4127 39.8816C56.3639 39.9077 55.3139 39.8828 54.2651 39.893C53.8139 41.926 53.0054 43.8751 51.8909 45.6348C52.6165 46.3639 53.3547 47.0816 54.0701 47.8209C54.6631 48.432 54.6257 49.4967 54.0123 50.0806C52.9941 51.1068 51.9702 52.1284 50.9441 53.1477C50.3636 53.7657 49.3 53.8019 48.6866 53.2123C47.9462 52.4969 47.2273 51.7588 46.4982 51.0308C44.7362 52.1431 42.7872 52.955 40.7519 53.4051C40.7439 54.429 40.7598 55.4517 40.7462 56.4756C40.7406 57.2613 40.0977 57.9246 39.3402 58.0562H34.5849C33.8218 57.9655 33.1573 57.3124 33.1279 56.5323C33.1029 55.4903 33.1279 54.4471 33.1165 53.4051C31.0869 52.9504 29.1322 52.1522 27.3804 51.0274C26.64 51.7519 25.9245 52.5014 25.1762 53.2169C24.582 53.7883 23.5525 53.7679 22.9697 53.1885C22.015 52.2542 21.0818 51.2984 20.1317 50.3596C19.8822 50.1113 19.6146 49.8595 19.4854 49.5228C19.245 48.9411 19.3856 48.2291 19.8334 47.7846C20.5421 47.0635 21.2598 46.3514 21.9753 45.6393C20.8687 43.8739 20.05 41.9282 19.6021 39.8918C18.5726 39.8862 17.5442 39.9021 16.5158 39.8862C15.6938 39.868 14.9681 39.1446 14.9579 38.3203C14.9431 36.8452 14.9533 35.3689 14.9533 33.8926C14.9352 33.3869 15.2085 32.9379 15.5532 32.5898C15.5509 32.4164 15.5486 32.244 15.5452 32.0717C13.9748 31.6998 12.4634 31.083 11.0926 30.2292C10.5279 30.7836 9.98141 31.3585 9.40768 31.9039C8.87136 32.4152 7.94841 32.4152 7.41663 31.8982C6.57078 31.0761 5.74533 30.2348 4.91082 29.4014C4.21804 28.788 4.33029 27.6315 5.04915 27.085C5.53444 26.6031 6.01859 26.1201 6.50048 25.6337C5.64329 24.2651 5.02647 22.7525 4.65457 21.1822C3.85293 21.1754 3.0513 21.2003 2.25194 21.172C1.55121 21.1436 0.97862 20.5631 0.865234 19.8884V15.9868C0.970683 15.3009 1.55915 14.7124 2.26781 14.692C3.06377 14.667 3.85974 14.6897 4.65684 14.6829C5.02307 13.1103 5.64442 11.5988 6.50048 10.2303C5.94149 9.65768 5.35869 9.1089 4.81217 8.5261C4.29174 7.97618 4.32575 7.03055 4.86887 6.50897C5.69771 5.67106 6.53223 4.83768 7.36901 4.0077C7.88945 3.46231 8.83735 3.42603 9.3884 3.94533C9.97233 4.49298 10.5211 5.07805 11.0937 5.63704C12.4645 4.78325 13.9748 4.1585 15.5475 3.79453C15.5588 2.98496 15.5293 2.17426 15.56 1.36582C15.5894 0.678706 16.1654 0.132189 16.8185 0.00292969ZM17.2471 1.70824C17.2449 2.49514 17.2619 3.28316 17.2403 4.07006C17.2108 4.71635 16.7006 5.28781 16.0725 5.41821C14.5826 5.74703 13.1517 6.33776 11.8659 7.1598C11.3194 7.51697 10.5438 7.45801 10.0676 7.00787C9.50859 6.46815 8.96888 5.90917 8.41556 5.36265C7.68422 6.09172 6.95402 6.81965 6.22722 7.55212C6.77487 8.1043 7.335 8.64515 7.87358 9.20527C8.32258 9.68489 8.37927 10.4627 8.01984 11.0092C7.19893 12.2905 6.61046 13.7157 6.28278 15.2022C6.14899 15.8678 5.5197 16.3939 4.83598 16.3814C4.08311 16.3848 3.33136 16.3882 2.57849 16.3769C2.55127 17.411 2.57282 18.4473 2.56715 19.4825C3.35858 19.4882 4.15 19.4712 4.9403 19.4904C5.58206 19.5188 6.14785 20.0256 6.28051 20.6492C6.60593 22.1301 7.18759 23.5542 8.00624 24.8298C8.37701 25.3774 8.33165 26.1654 7.87924 26.6519C7.34066 27.2177 6.77374 27.7562 6.22722 28.3141C6.95289 29.0443 7.68536 29.7688 8.40875 30.5013C8.83962 30.084 9.25914 29.6566 9.68434 29.2325C9.93265 28.9876 10.1696 28.7075 10.5041 28.5794C10.9679 28.3844 11.5155 28.4615 11.9282 28.7404C13.2106 29.5579 14.6404 30.1316 16.1235 30.4593C16.9228 30.6351 17.3537 31.4855 17.2539 32.2576C18.0363 32.2565 18.8198 32.2576 19.6021 32.2565C20.0534 30.2258 20.8562 28.2733 21.9776 26.5192C21.2485 25.7731 20.5002 25.0475 19.7722 24.3014C18.3345 24.5055 16.8287 24.239 15.5724 23.5032C14.2402 22.7401 13.2015 21.4815 12.7106 20.0256C12.1108 18.2965 12.2831 16.3066 13.214 14.7271C13.4487 14.3439 14.0111 14.2294 14.3796 14.4856C14.7515 14.7147 14.8762 15.2442 14.6517 15.6183C13.6041 17.4506 13.9805 19.9508 15.5418 21.376C16.5714 22.367 18.0658 22.8364 19.4774 22.6221C19.5931 22.3954 19.7325 22.1799 19.9174 22.0031C20.8981 21.0211 21.8801 20.0392 22.862 19.0573C23.04 18.8736 23.2554 18.733 23.4811 18.6162C23.7418 16.9109 22.989 15.0945 21.5784 14.0944C20.3323 13.1794 18.6316 12.9413 17.1802 13.472C16.7936 13.6409 16.3015 13.489 16.0997 13.1148C15.8582 12.7213 16.0203 12.1465 16.4387 11.9469C18.923 10.9083 22.0025 11.7009 23.7124 13.7713C24.9131 15.1682 25.4358 17.0935 25.1648 18.9099C25.9098 19.6401 26.6332 20.393 27.386 21.1153C29.1367 19.9927 31.0881 19.1922 33.1177 18.741C33.1188 17.9563 33.1188 17.1717 33.1177 16.3882C32.3761 16.4835 31.5495 16.0923 31.3455 15.3326C31.0382 13.9901 30.5665 12.6783 29.8624 11.4889C29.673 11.1532 29.4145 10.838 29.3555 10.4468C29.275 9.98877 29.4258 9.50008 29.7535 9.17013C30.2853 8.62588 30.8295 8.09183 31.3659 7.55325C30.6391 6.82078 29.9089 6.09172 29.1775 5.36378C28.6174 5.9137 28.0743 6.48403 27.504 7.02488C27.0187 7.46935 26.2374 7.51017 25.6955 7.14166C24.4187 6.32416 22.9969 5.74136 21.5172 5.41821C20.8528 5.27988 20.3323 4.64946 20.3459 3.96688C20.338 3.21287 20.3471 2.45885 20.3437 1.70484C19.3119 1.70484 18.2789 1.69917 17.2471 1.70824ZM34.8184 15.7952C34.8139 16.8032 34.8252 17.8112 34.8139 18.8203C34.8173 19.5619 34.2492 20.2388 33.5281 20.3919C31.6731 20.7989 29.8896 21.528 28.2897 22.553C27.6695 22.9759 26.7692 22.909 26.234 22.375C25.514 21.6674 24.8077 20.9452 24.0888 20.2354C23.0899 21.232 22.0932 22.2298 21.0977 23.2276C21.8052 23.9431 22.5241 24.6483 23.2305 25.3661C23.7679 25.8978 23.8393 26.7993 23.4176 27.4229C22.447 28.9445 21.7258 30.6283 21.3222 32.388C21.2292 33.1715 20.6135 33.9006 19.7949 33.9459C18.7484 33.9754 17.7007 33.9493 16.653 33.9584C16.6496 35.3689 16.6519 36.7794 16.6519 38.1911C17.6621 38.1945 18.6735 38.1854 19.6838 38.1945C20.4265 38.1877 21.1022 38.7603 21.253 39.4803C21.659 41.3273 22.3835 43.1029 23.4017 44.6971C23.8359 45.3196 23.777 46.229 23.2384 46.7709C22.532 47.4921 21.8132 48.2019 21.0977 48.915C22.0887 49.9185 23.0933 50.9095 24.0888 51.9107C24.8133 51.1975 25.522 50.4684 26.2499 49.7586C26.7738 49.2405 27.6502 49.1736 28.2625 49.5761C29.8023 50.5569 31.5053 51.2871 33.2877 51.693C33.5791 51.7633 33.8819 51.8381 34.1279 52.0218C34.5713 52.3302 34.832 52.8677 34.8173 53.4074C34.8196 54.3882 34.8184 55.3701 34.8162 56.3508C36.2278 56.3599 37.6395 56.3543 39.0511 56.3543C39.0545 55.3361 39.0432 54.319 39.0556 53.3008C39.0625 52.5751 39.6192 51.9095 40.3267 51.7587C42.1885 51.3506 43.9788 50.6204 45.5832 49.5908C46.1921 49.1747 47.0742 49.2337 47.6094 49.7473C48.3419 50.4594 49.0517 51.1964 49.7842 51.9107C50.7797 50.9129 51.7775 49.9162 52.773 48.9196C52.0564 48.1939 51.3262 47.4819 50.6141 46.7528C50.0948 46.2187 50.0347 45.3309 50.4531 44.7198C51.4044 43.2242 52.1165 41.5745 52.5258 39.8476C52.595 39.5619 52.6505 39.266 52.8002 39.0074C53.0746 38.529 53.6052 38.2035 54.1597 38.1956C55.179 38.1831 56.1972 38.1945 57.2166 38.1911C57.2166 36.7794 57.2211 35.3678 57.2143 33.9561C56.1972 33.955 55.1802 33.9652 54.1642 33.9527C53.4261 33.9448 52.7571 33.3733 52.612 32.6545C52.2038 30.7972 51.4702 29.0148 50.4452 27.4138C50.0336 26.8027 50.0971 25.9194 50.6164 25.391C51.3273 24.6631 52.0564 23.951 52.7719 23.2276C51.7741 22.2298 50.7797 21.2275 49.7762 20.2354C49.0608 20.9508 48.351 21.672 47.6287 22.3795C47.0901 22.9135 46.1864 22.9748 45.5662 22.545C43.9686 21.5223 42.1862 20.7966 40.3346 20.3896C39.6158 20.2377 39.0511 19.5585 39.0545 18.8203C39.0432 17.8123 39.0556 16.8032 39.05 15.7941C37.6395 15.7941 36.229 15.793 34.8184 15.7952Z" fill="white"/>
<path d="M35.5118 25.2615C38.0063 24.9327 40.6119 25.4849 42.7378 26.8353C44.84 28.1506 46.4705 30.204 47.2585 32.5567C48.1361 35.1204 48.0091 38.0083 46.9104 40.4846C45.8117 42.995 43.7243 45.0518 41.2003 46.1176C38.8963 47.0995 36.2488 47.2503 33.8473 46.5383C32.1307 46.0348 30.5365 45.1005 29.2756 43.8318C28.8969 43.4417 29.0534 42.7263 29.5466 42.5108C29.8958 42.3305 30.3244 42.4564 30.5807 42.7376C32.0717 44.1719 34.0605 45.0767 36.1241 45.2468C38.2058 45.4339 40.3477 44.8919 42.0768 43.715C43.7436 42.5925 45.0316 40.9144 45.662 39.005C46.3401 36.9924 46.2925 34.7473 45.5294 32.7665C44.8604 31.009 43.6302 29.4749 42.07 28.4272C40.308 27.2333 38.1185 26.697 36.0028 26.9147C33.8314 27.1245 31.7485 28.1438 30.2564 29.7368C29.016 31.034 28.1667 32.7007 27.8594 34.4696C27.5522 36.1794 27.7562 37.972 28.4184 39.5764C28.5579 39.8758 28.5636 40.2533 28.3481 40.5209C28.0885 40.8815 27.5351 40.9654 27.1803 40.6978C26.9127 40.5164 26.8367 40.1842 26.721 39.903C25.8752 37.6727 25.789 35.1623 26.4954 32.8833C27.2415 30.433 28.8878 28.2742 31.0422 26.8909C32.3892 26.0303 33.9267 25.4668 35.5118 25.2615Z" fill="white"/>
<path d="M35.7218 29.5649C37.2604 29.2791 38.9022 29.549 40.2549 30.3427C41.7301 31.1817 42.8435 32.6229 43.2993 34.2567C43.7381 35.7795 43.602 37.4576 42.9263 38.8908C42.297 40.2491 41.1881 41.3807 39.8365 42.027C38.3194 42.772 36.5121 42.899 34.9054 42.3763C33.3838 41.8932 32.0458 40.8422 31.2419 39.46C30.4924 38.2094 30.1829 36.7059 30.3643 35.2602C30.5503 33.7 31.3168 32.2169 32.4835 31.1647C33.3872 30.3449 34.5244 29.7905 35.7218 29.5649ZM35.8522 31.2713C34.1559 31.6364 32.7171 32.971 32.225 34.6343C31.7272 36.2262 32.1116 38.0585 33.2216 39.3069C34.1117 40.341 35.4485 40.9691 36.8125 40.9941C38.2775 41.0394 39.7447 40.3863 40.6858 39.2616C41.6212 38.1742 42.0328 36.6639 41.7868 35.2523C41.5827 34.005 40.8729 32.8542 39.8535 32.1092C38.7253 31.2656 37.223 30.9595 35.8522 31.2713Z" fill="white"/>
</svg>
