<svg width="64" height="58" viewBox="0 0 64 58" fill="none" xmlns="http://www.w3.org/2000/svg">
<mask id="path-1-outside-1_475_909" maskUnits="userSpaceOnUse" x="0.0316162" y="2.05664" width="64" height="51" fill="black">
<rect fill="white" x="0.0316162" y="2.05664" width="64" height="51"/>
<path d="M12.0613 37.0804L4.23042 28.5552L12.0613 20.03H20.355L12.4856 28.5552L20.355 37.0804H12.0613ZM40.3673 5.40985L30.029 49.2703H23.6641L34.0023 5.40985H40.3673ZM43.1881 20.03H51.4819L59.3127 28.5552L51.4819 37.0804H43.1881L51.0575 28.5552L43.1881 20.03Z"/>
</mask>
<path d="M12.0613 37.0804L9.99496 38.9784L10.8287 39.8861H12.0613V37.0804ZM4.23042 28.5552L2.16412 26.6572L0.420692 28.5552L2.16412 30.4532L4.23042 28.5552ZM12.0613 20.03V17.2243H10.8287L9.99496 18.132L12.0613 20.03ZM20.355 20.03L22.4167 21.9331L26.7632 17.2243H20.355V20.03ZM12.4856 28.5552L10.4239 26.6521L8.66726 28.5552L10.4239 30.4583L12.4856 28.5552ZM20.355 37.0804V39.8861H26.7632L22.4167 35.1773L20.355 37.0804ZM12.0613 37.0804L14.1276 35.1824L6.29673 26.6572L4.23042 28.5552L2.16412 30.4532L9.99496 38.9784L12.0613 37.0804ZM4.23042 28.5552L6.29673 30.4532L14.1276 21.928L12.0613 20.03L9.99496 18.132L2.16412 26.6572L4.23042 28.5552ZM12.0613 20.03V22.8357H20.355V20.03V17.2243H12.0613V20.03ZM20.355 20.03L18.2934 18.1269L10.4239 26.6521L12.4856 28.5552L14.5473 30.4583L22.4167 21.9331L20.355 20.03ZM12.4856 28.5552L10.4239 30.4583L18.2934 38.9835L20.355 37.0804L22.4167 35.1773L14.5473 26.6521L12.4856 28.5552ZM20.355 37.0804V34.2747H12.0613V37.0804V39.8861H20.355V37.0804ZM40.3673 5.40985L43.0982 6.05354L43.9112 2.60413H40.3673V5.40985ZM30.029 49.2703V52.076H32.2503L32.7599 49.914L30.029 49.2703ZM23.6641 49.2703L20.9332 48.6266L20.1201 52.076H23.6641V49.2703ZM34.0023 5.40985V2.60413H31.781L31.2714 4.76616L34.0023 5.40985ZM40.3673 5.40985L37.6364 4.76616L27.2982 48.6266L30.029 49.2703L32.7599 49.914L43.0982 6.05354L40.3673 5.40985ZM30.029 49.2703V46.4646H23.6641V49.2703V52.076H30.029V49.2703ZM23.6641 49.2703L26.395 49.914L36.7332 6.05354L34.0023 5.40985L31.2714 4.76616L20.9332 48.6266L23.6641 49.2703ZM34.0023 5.40985V8.21557H40.3673V5.40985V2.60413H34.0023V5.40985ZM43.1881 20.03V17.2243H36.7799L41.1265 21.9331L43.1881 20.03ZM51.4819 20.03L53.5482 18.132L52.7144 17.2243H51.4819V20.03ZM59.3127 28.5552L61.379 30.4532L63.1224 28.5552L61.379 26.6572L59.3127 28.5552ZM51.4819 37.0804V39.8861H52.7144L53.5482 38.9784L51.4819 37.0804ZM43.1881 37.0804L41.1265 35.1773L36.7799 39.8861H43.1881V37.0804ZM51.0575 28.5552L53.1192 30.4583L54.8759 28.5552L53.1192 26.6521L51.0575 28.5552ZM43.1881 20.03V22.8357H51.4819V20.03V17.2243H43.1881V20.03ZM51.4819 20.03L49.4156 21.928L57.2464 30.4532L59.3127 28.5552L61.379 26.6572L53.5482 18.132L51.4819 20.03ZM59.3127 28.5552L57.2464 26.6572L49.4156 35.1824L51.4819 37.0804L53.5482 38.9784L61.379 30.4532L59.3127 28.5552ZM51.4819 37.0804V34.2747H43.1881V37.0804V39.8861H51.4819V37.0804ZM43.1881 37.0804L45.2498 38.9835L53.1192 30.4583L51.0575 28.5552L48.9959 26.6521L41.1265 35.1773L43.1881 37.0804ZM51.0575 28.5552L53.1192 26.6521L45.2498 18.1269L43.1881 20.03L41.1265 21.9331L48.9959 30.4583L51.0575 28.5552Z" fill="white" mask="url(#path-1-outside-1_475_909)"/>
</svg>
