<svg width="116" height="121" viewBox="0 0 116 121" fill="none" xmlns="http://www.w3.org/2000/svg">
<g filter="url(#filter0_di_475_976)">
<path d="M58.0089 89.4184H107.909M58.0089 89.4184C58.0089 90.8228 57.7323 92.2134 57.1948 93.5108C56.6574 94.8083 55.8697 95.9872 54.8767 96.9802C53.8837 97.9732 52.7048 98.7609 51.4074 99.2983C50.1099 99.8357 48.7193 100.112 47.315 100.112C45.9106 100.112 44.52 99.8357 43.2226 99.2983C41.9252 98.7609 40.7463 97.9732 39.7533 96.9802C38.7602 95.9872 37.9725 94.8083 37.4351 93.5108C36.8977 92.2134 36.6211 90.8228 36.6211 89.4184C36.6211 88.0141 36.8977 86.6235 37.4351 85.3261C37.9725 84.0286 38.7602 82.8497 39.7533 81.8567C40.7463 80.8637 41.9252 80.076 43.2226 79.5386C44.52 79.0012 45.9106 78.7246 47.315 78.7246C48.7193 78.7246 50.1099 79.0012 51.4074 79.5386C52.7048 80.076 53.8837 80.8637 54.8767 81.8567C55.8697 82.8497 56.6574 84.0286 57.1948 85.3261C57.7323 86.6235 58.0089 88.0141 58.0089 89.4184ZM107.909 89.4184L93.6526 75.1625M107.909 89.4184L93.6526 103.674M29.4969 14.5689C29.4969 17.4051 30.6236 20.1251 32.6291 22.1306C34.6346 24.1361 37.3546 25.2628 40.1908 25.2628C43.027 25.2628 45.7471 24.1361 47.7526 22.1306C49.7581 20.1251 50.8847 17.4051 50.8847 14.5689C50.8847 11.7327 49.7581 9.01266 47.7526 7.00717C45.7471 5.00167 43.027 3.875 40.1908 3.875C37.3546 3.875 34.6346 5.00167 32.6291 7.00717C30.6236 9.01266 29.4969 11.7327 29.4969 14.5689ZM58.0089 50.2126C58.0089 53.0488 59.1355 55.7689 61.141 57.7744C63.1465 59.7799 65.8666 60.9065 68.7028 60.9065C71.539 60.9065 74.259 59.7799 76.2645 57.7744C78.27 55.7689 79.3966 53.0488 79.3966 50.2126C79.3966 47.3764 78.27 44.6564 76.2645 42.6509C74.259 40.6454 71.539 39.5187 68.7028 39.5187C65.8666 39.5187 63.1465 40.6454 61.141 42.6509C59.1355 44.6564 58.0089 47.3764 58.0089 50.2126Z" stroke="url(#paint0_linear_475_976)" stroke-width="7.67688" stroke-linecap="round" stroke-linejoin="round"/>
<path d="M58.0081 50.2121H27.7151C22.5833 50.3137 17.6959 52.4236 14.1025 56.0888C10.5092 59.754 8.49635 64.6822 8.49635 69.815C8.49635 74.9479 10.5092 79.876 14.1025 83.5412C17.6959 87.2064 22.5833 89.3164 27.7151 89.4179H36.6203M79.3959 50.2121H90.0898C94.8164 50.2121 99.3495 48.3344 102.692 44.9922C106.034 41.6499 107.912 37.1169 107.912 32.3902C107.912 27.6636 106.034 23.1305 102.692 19.7883C99.3495 16.446 94.8164 14.5684 90.0898 14.5684H50.8686M29.4962 14.5684H8.1084" stroke="url(#paint1_linear_475_976)" stroke-width="7.67688" stroke-linecap="round" stroke-linejoin="round"/>
</g>
<defs>
<filter id="filter0_di_475_976" x="0.615252" y="0.0361328" width="114.79" height="120.971" filterUnits="userSpaceOnUse" color-interpolation-filters="sRGB">
<feFlood flood-opacity="0" result="BackgroundImageFix"/>
<feColorMatrix in="SourceAlpha" type="matrix" values="0 0 0 0 0 0 0 0 0 0 0 0 0 0 0 0 0 0 127 0" result="hardAlpha"/>
<feOffset dy="9.83976"/>
<feGaussianBlur stdDeviation="1.82738"/>
<feComposite in2="hardAlpha" operator="out"/>
<feColorMatrix type="matrix" values="0 0 0 0 0 0 0 0 0 0 0 0 0 0 0 0 0 0 0.25 0"/>
<feBlend mode="normal" in2="BackgroundImageFix" result="effect1_dropShadow_475_976"/>
<feBlend mode="normal" in="SourceGraphic" in2="effect1_dropShadow_475_976" result="shape"/>
<feColorMatrix in="SourceAlpha" type="matrix" values="0 0 0 0 0 0 0 0 0 0 0 0 0 0 0 0 0 0 127 0" result="hardAlpha"/>
<feOffset dy="10.5426"/>
<feGaussianBlur stdDeviation="2.49508"/>
<feComposite in2="hardAlpha" operator="arithmetic" k2="-1" k3="1"/>
<feColorMatrix type="matrix" values="0 0 0 0 0.538462 0 0 0 0 0.538462 0 0 0 0 0.538462 0 0 0 0.22 0"/>
<feBlend mode="normal" in2="shape" result="effect2_innerShadow_475_976"/>
</filter>
<linearGradient id="paint0_linear_475_976" x1="68.7028" y1="3.875" x2="68.7028" y2="103.674" gradientUnits="userSpaceOnUse">
<stop stop-color="#C3C3C3"/>
<stop offset="1" stop-color="white"/>
</linearGradient>
<linearGradient id="paint1_linear_475_976" x1="58.01" y1="14.5684" x2="58.01" y2="89.4179" gradientUnits="userSpaceOnUse">
<stop stop-color="#C3C3C3"/>
<stop offset="1" stop-color="white"/>
</linearGradient>
</defs>
</svg>
