<svg width="117" height="129" viewBox="0 0 117 129" fill="none" xmlns="http://www.w3.org/2000/svg">
<g filter="url(#filter0_di_475_991)">
<path d="M58.6417 5.93359L72.3022 15.8987L89.2133 15.8675L94.4065 31.9595L108.106 41.8726L102.85 57.9437L108.106 74.0149L94.4065 83.928L89.2133 100.02L72.3022 99.9887L58.6417 109.954L44.9813 99.9887L28.0702 100.02L22.877 83.928L9.17749 74.0149L14.4331 57.9437L9.17749 41.8726L22.877 31.9595L28.0702 15.8675L44.9813 15.8987L58.6417 5.93359Z" stroke="url(#paint0_linear_475_991)" stroke-width="10.402" stroke-linecap="round" stroke-linejoin="round"/>
<path d="M40.438 57.942L53.4405 70.9445L79.4456 44.9395" stroke="url(#paint1_linear_475_991)" stroke-width="10.402" stroke-linecap="round" stroke-linejoin="round"/>
</g>
<defs>
<filter id="filter0_di_475_991" x="0.321307" y="0.732422" width="116.641" height="127.917" filterUnits="userSpaceOnUse" color-interpolation-filters="sRGB">
<feFlood flood-opacity="0" result="BackgroundImageFix"/>
<feColorMatrix in="SourceAlpha" type="matrix" values="0 0 0 0 0 0 0 0 0 0 0 0 0 0 0 0 0 0 127 0" result="hardAlpha"/>
<feOffset dy="9.83976"/>
<feGaussianBlur stdDeviation="1.82738"/>
<feComposite in2="hardAlpha" operator="out"/>
<feColorMatrix type="matrix" values="0 0 0 0 0 0 0 0 0 0 0 0 0 0 0 0 0 0 0.25 0"/>
<feBlend mode="normal" in2="BackgroundImageFix" result="effect1_dropShadow_475_991"/>
<feBlend mode="normal" in="SourceGraphic" in2="effect1_dropShadow_475_991" result="shape"/>
<feColorMatrix in="SourceAlpha" type="matrix" values="0 0 0 0 0 0 0 0 0 0 0 0 0 0 0 0 0 0 127 0" result="hardAlpha"/>
<feOffset dy="10.5426"/>
<feGaussianBlur stdDeviation="2.49508"/>
<feComposite in2="hardAlpha" operator="arithmetic" k2="-1" k3="1"/>
<feColorMatrix type="matrix" values="0 0 0 0 0.538462 0 0 0 0 0.538462 0 0 0 0 0.538462 0 0 0 0.22 0"/>
<feBlend mode="normal" in2="shape" result="effect2_innerShadow_475_991"/>
</filter>
<linearGradient id="paint0_linear_475_991" x1="58.6417" y1="5.93359" x2="58.6417" y2="109.954" gradientUnits="userSpaceOnUse">
<stop stop-color="#C3C3C3"/>
<stop offset="1" stop-color="white"/>
</linearGradient>
<linearGradient id="paint1_linear_475_991" x1="59.9418" y1="44.9395" x2="59.9418" y2="70.9445" gradientUnits="userSpaceOnUse">
<stop stop-color="#C3C3C3"/>
<stop offset="1" stop-color="white"/>
</linearGradient>
</defs>
</svg>
