<svg width="53" height="53" viewBox="0 0 53 53" fill="none" xmlns="http://www.w3.org/2000/svg">
<path d="M52.9313 1.95596L52.8805 0.415114L51.3395 0.364328C46.1931 0.192875 40.7821 1.20778 35.6962 3.30017C30.3849 5.48529 25.5565 8.72858 21.3451 12.9402C20.2256 14.0593 19.1644 15.2354 18.1659 16.4637C10.0463 16.052 3.01978 20.404 2.7107 20.5987L0.962036 21.698L10.3566 31.0925C10.1125 31.9099 9.89421 32.7337 9.7019 33.5639L9.49734 34.4531L18.8415 43.7977L19.7307 43.5932C20.5519 43.4044 21.3669 43.1889 22.1759 42.9466L31.5798 52.3501L32.6794 50.6017C32.8738 50.2925 37.2273 43.264 36.8142 35.1424C38.0488 34.1399 39.2306 33.0742 40.355 31.9496C44.5663 27.7382 47.8096 22.9097 49.9942 17.5987C52.0869 12.5136 53.1023 7.10414 52.9313 1.95596ZM6.32555 22.4008C8.35221 21.4314 11.8268 20.0598 15.7139 19.7829C14.0591 22.2486 12.6674 24.881 11.5616 27.6369L6.32555 22.4008ZM30.8771 46.9871L25.6335 41.743C28.392 40.6384 31.027 39.2473 33.4952 37.5925C33.2192 41.4819 31.8467 44.9595 30.8771 46.9871ZM38.0248 29.62C32.8281 34.8162 26.5674 38.4507 19.8719 40.1675L13.1275 33.4231C14.845 26.7265 18.479 20.4667 23.6752 15.2703C30.9691 7.97685 40.3544 3.79482 49.6508 3.64419C49.4997 12.941 45.3177 22.3264 38.0248 29.6195V29.62Z" fill="white"/>
<path d="M34.2288 26.8222C36.023 26.8209 37.7612 26.1977 39.1474 25.0585C40.5335 23.9194 41.4819 22.3349 41.8308 20.575C42.1797 18.8151 41.9076 16.9886 41.0608 15.4068C40.2141 13.825 38.8451 12.5857 37.1871 11.9001C35.5291 11.2145 33.6847 11.1249 31.9681 11.6467C30.2514 12.1685 28.7688 13.2694 27.7728 14.7617C26.7769 16.254 26.3291 18.0455 26.5059 19.831C26.6827 21.6164 27.473 23.2853 28.7423 24.5534C29.4624 25.2742 30.3177 25.8457 31.2593 26.235C32.2008 26.6244 33.21 26.8239 34.2288 26.8222ZM31.0727 15.9107C31.6969 15.2865 32.4922 14.8613 33.358 14.6891C34.2239 14.5169 35.1213 14.6052 35.9369 14.9431C36.7526 15.2809 37.4497 15.853 37.9401 16.587C38.4306 17.321 38.6924 18.184 38.6924 19.0668C38.6924 19.9496 38.4306 20.8126 37.9401 21.5466C37.4497 22.2806 36.7526 22.8527 35.9369 23.1905C35.1213 23.5284 34.2239 23.6167 33.358 23.4445C32.4922 23.2723 31.6969 22.8471 31.0727 22.2229C30.6565 21.8094 30.3262 21.3177 30.1008 20.776C29.8754 20.2344 29.7593 19.6535 29.7593 19.0668C29.7593 18.4801 29.8754 17.8992 30.1008 17.3576C30.3262 16.8159 30.6565 16.3242 31.0727 15.9107Z" fill="white"/>
<path d="M2.73511 43.7783L8.55456 37.9589L10.8846 40.2889L5.0651 46.1083L2.73511 43.7783Z" fill="#D3D3D3"/>
<path d="M7.17859 48.2207L12.998 42.4012L15.328 44.7312L9.50858 50.5507L7.17859 48.2207Z" fill="#D3D3D3"/>
</svg>
