<svg width="51" height="51" viewBox="0 0 51 51" fill="none" xmlns="http://www.w3.org/2000/svg">
<path d="M24.3427 2.87949C24.5629 2.21029 25.2996 1.77353 25.9932 1.89819C26.5471 1.98254 27.0242 2.40055 27.1863 2.93573C27.7834 4.7615 28.3729 6.58915 28.9681 8.41493C30.8997 8.41868 32.8314 8.41305 34.7622 8.41774C35.3873 8.41024 35.9815 8.84138 36.1699 9.43654C36.3892 10.0476 36.1418 10.7721 35.6123 11.1423C34.063 12.2764 32.5015 13.3955 30.9541 14.5333C31.5539 16.3657 32.1491 18.1999 32.7405 20.0341C33.0058 20.7961 32.5315 21.7108 31.7508 21.9199C31.2193 22.0961 30.6411 21.9077 30.2268 21.5543C28.7365 20.4709 27.2482 19.3846 25.7551 18.3058C24.1946 19.4389 22.6359 20.5758 21.0717 21.7043C20.5796 22.067 19.8654 22.0839 19.3621 21.7343C18.8148 21.3837 18.5598 20.6536 18.767 20.0369C19.3565 18.1971 19.962 16.3629 20.5524 14.523C19.0013 13.3964 17.4501 12.2699 15.8999 11.1433C15.39 10.7918 15.137 10.1114 15.3132 9.51433C15.4762 8.88356 16.0948 8.40931 16.7472 8.41774C18.6788 8.41212 20.6105 8.41962 22.5413 8.41399C23.1421 6.56947 23.7344 4.72214 24.3427 2.87949Z" stroke="white" stroke-width="2.15764"/>
<path d="M7.84248 11.035C8.03555 10.4417 8.63352 10.0134 9.25773 10.0237C9.88195 10.0115 10.4799 10.4389 10.673 11.0331C10.9495 11.8279 11.1819 12.6377 11.464 13.4297C11.6684 13.978 12.226 14.366 12.8099 14.3726C13.6253 14.3894 14.4408 14.3669 15.2562 14.381C15.8401 14.3754 16.4053 14.7418 16.6302 15.2817C16.8992 15.8769 16.7164 16.6342 16.2019 17.0372C15.5289 17.5564 14.8222 18.0325 14.1446 18.5462C13.6647 18.9126 13.4595 19.5856 13.645 20.1601C13.8728 20.8865 14.1155 21.6082 14.3498 22.3327C14.4389 22.612 14.5026 22.9119 14.4361 23.2043C14.2946 23.9363 13.5504 24.4781 12.8118 24.4115C12.525 24.3956 12.2588 24.2662 12.0283 24.1013C11.3909 23.6448 10.7648 23.1725 10.1238 22.7216C9.64295 22.373 8.95031 22.3496 8.45544 22.6832C7.97276 23.0131 7.50881 23.3702 7.03081 23.7086C6.66247 23.9598 6.32412 24.2962 5.8733 24.3909C5.11787 24.553 4.30621 24.0329 4.10564 23.2943C4.01941 23.0075 4.05221 22.701 4.14125 22.4198C4.37838 21.6672 4.63519 20.9212 4.8695 20.1686C5.0682 19.5659 4.83295 18.8648 4.31652 18.4993C3.72417 18.0607 3.12433 17.6314 2.5273 17.1993C2.12615 16.9444 1.83841 16.5348 1.76062 16.0634V15.7335C1.82623 15.2423 2.11678 14.7793 2.56291 14.5525C2.97718 14.3238 3.46643 14.3847 3.92006 14.3772C4.54333 14.3707 5.16755 14.3932 5.79082 14.3669C6.37567 14.3332 6.90335 13.9096 7.08236 13.3547C7.34573 12.5852 7.57817 11.8045 7.84248 11.035Z" stroke="white" stroke-width="2.15764"/>
<path d="M40.833 11.0359C41.0252 10.4417 41.6241 10.0124 42.2492 10.0237C42.8463 10.0143 43.4264 10.4032 43.6364 10.9647C43.9297 11.7773 44.1612 12.6105 44.4527 13.424C44.6552 13.9761 45.2156 14.366 45.8024 14.3735C46.6506 14.3931 47.4988 14.3585 48.347 14.3866C49.0612 14.4119 49.6554 15.0155 49.7473 15.7119V16.0249C49.6873 16.4354 49.483 16.8263 49.1465 17.0746C48.4848 17.5751 47.8006 18.0456 47.138 18.5443C46.6525 18.9126 46.4481 19.5912 46.6384 20.1695C46.8774 20.9418 47.1455 21.7047 47.3826 22.4779C47.5288 22.9231 47.4407 23.4339 47.1501 23.8023C46.7171 24.3946 45.8211 24.6233 45.1894 24.2128C44.4621 23.7235 43.777 23.1734 43.0515 22.6813C42.5763 22.3673 41.9174 22.3654 41.4451 22.6841C40.9455 23.0253 40.4656 23.3946 39.9726 23.7451C39.579 24.0197 39.1975 24.3871 38.6923 24.4134C37.7663 24.5033 36.8675 23.5904 37.0728 22.6588C37.3015 21.7956 37.6295 20.9605 37.8769 20.102C38.0372 19.5406 37.8244 18.9013 37.3633 18.5443C36.9012 18.189 36.4214 17.8591 35.9537 17.5133C35.5019 17.1852 34.9536 16.8741 34.8112 16.2892C34.5403 15.4485 35.1795 14.4747 36.0596 14.396C36.9659 14.3444 37.876 14.4053 38.7833 14.3669C39.3672 14.3322 39.8948 13.9086 40.0729 13.3537C40.3363 12.5852 40.5687 11.8054 40.833 11.0359Z" stroke="white" stroke-width="2.15764"/>
<path d="M19.2743 28.6256C19.8629 26.9422 21.5312 25.7079 23.3157 25.6582C24.8781 25.6404 26.4405 25.6526 28.0029 25.6516C29.0958 25.6479 30.183 26.0622 30.9956 26.7942C31.9422 27.6311 32.5027 28.8796 32.5008 30.1439C32.5055 35.1123 32.5018 40.0807 32.5027 45.05C32.5196 46.1729 32.1128 47.2985 31.3583 48.1345C30.5701 49.0343 29.4088 49.5751 28.2185 49.6435H23.3082C21.3925 49.5695 19.622 48.157 19.1581 46.2919C18.9678 45.6152 19.009 44.9066 19.0062 44.2131C19.0062 39.5558 19.0062 34.8986 19.0062 30.2423C19.0053 29.6931 19.085 29.142 19.2743 28.6256Z" stroke="white" stroke-width="2.15764"/>
<path d="M2.77098 33.3131C3.58827 32.2999 4.86013 31.6701 6.16291 31.6513C7.63347 31.6401 9.10309 31.6504 10.5736 31.6457C11.1932 31.641 11.8211 31.7216 12.3975 31.9587C13.69 32.4564 14.7163 33.5896 15.0837 34.9252C15.2281 35.4125 15.2618 35.9252 15.258 36.4323C15.2543 39.3368 15.2609 42.2414 15.2552 45.1459C15.2543 46.2603 14.825 47.3654 14.0677 48.1836C13.2804 49.0543 12.1407 49.5745 10.9729 49.642H6.05981C4.9501 49.5782 3.86663 49.1133 3.08309 48.3204C2.29298 47.5434 1.8281 46.4656 1.76062 45.3624V35.9365C1.81967 34.9851 2.16177 34.0498 2.77098 33.3131Z" stroke="white" stroke-width="2.15764"/>
<path d="M36.4738 34.7594C37.0099 33.0442 38.6623 31.7527 40.459 31.6618C41.6165 31.6299 42.7749 31.6562 43.9334 31.6477C44.9006 31.6599 45.9082 31.5615 46.8258 31.9355C48.5053 32.5419 49.7031 34.2252 49.7481 36.0078V45.3457C49.6844 46.4536 49.2204 47.5361 48.4294 48.3196C47.6505 49.1116 46.5689 49.5774 45.463 49.643H40.5527C39.5986 49.5849 38.6594 49.2428 37.919 48.6327C36.8768 47.7976 36.2469 46.4798 36.2535 45.1433C36.2488 42.4262 36.2526 39.7091 36.2516 36.992C36.2469 36.244 36.2235 35.4764 36.4738 34.7594Z" stroke="white" stroke-width="2.15764"/>
</svg>
