<svg width="865" height="179" viewBox="0 0 865 179" fill="none" xmlns="http://www.w3.org/2000/svg">
<path d="M173.016 11.0051C177.927 11.0051 182.838 11.0154 187.753 11C182.838 22.6962 177.963 34.4129 173.098 46.1348C172.903 34.4283 173.068 22.7167 173.016 11.0051Z" fill="white"/>
<path d="M197.954 11.0096C202.844 11.0199 207.734 10.9839 212.624 11.0301C212.583 22.6493 212.707 34.2684 212.563 45.8875C207.549 34.3249 202.819 22.639 197.954 11.0096Z" fill="white"/>
<path d="M254.048 17.5901C255.435 17.585 256.827 17.585 258.219 17.585C258.337 24.3859 258.018 31.1971 258.399 37.9878C255.152 39.5134 251.115 40.0014 247.832 38.3422C243.492 35.9742 243.117 29.2452 246.702 26.0296C248.629 24.1034 251.454 23.7284 254.053 23.713C254.027 21.6737 254.038 19.6294 254.048 17.5901ZM250.565 27.8634C248.192 29.2092 248.028 32.8665 249.79 34.7671C250.904 35.892 252.563 35.7585 254.017 35.7636C254.053 32.9282 254.048 30.0979 254.022 27.2676C252.856 27.3549 251.567 27.1392 250.565 27.8634Z" fill="white"/>
<path d="M277.952 17.5908C279.333 17.5856 280.715 17.5856 282.107 17.5908C282.123 19.7379 282.123 21.885 282.117 24.0321C284.398 23.6109 286.946 23.6007 288.923 24.9927C293.166 27.9257 292.632 35.2455 288.281 37.8498C285.215 39.8479 281.342 39.55 277.952 38.687C277.931 31.655 277.931 24.6229 277.952 17.5908ZM282.128 27.4275C282.225 30.2115 281.891 33.047 282.282 35.7951C283.396 35.8259 284.634 35.9133 285.615 35.2609C287.773 33.9459 288.096 30.7098 286.833 28.686C285.77 27.1244 283.782 27.2169 282.128 27.4275Z" fill="white"/>
<path d="M231.882 19.1777C233.587 19.1315 235.303 19.1469 237.014 19.2856C239.212 25.8965 241.667 32.4252 243.933 39.0155C242.448 39.0207 240.964 39.0207 239.489 39.0155C238.96 37.454 238.431 35.8976 237.928 34.336C235.606 34.3258 233.295 34.3258 230.978 34.336C230.48 35.9027 229.976 37.4694 229.432 39.0207C228.071 39.0207 226.714 39.0155 225.364 38.995C227.29 33.4422 229.19 27.8844 231.132 22.3368C231.497 21.3146 231.692 20.2462 231.882 19.1777ZM234.419 23.0148C233.634 25.5369 232.868 28.0693 232.077 30.5914C233.623 30.5965 235.175 30.6017 236.726 30.5965C236.068 28.0385 235.211 25.5369 234.419 23.0148Z" fill="white"/>
<path d="M265.665 24.1141C268.259 23.3487 271.372 23.77 273.324 25.763C275.939 28.4906 276.149 33.0262 274.197 36.1853C271.649 40.31 264.766 40.4744 262.049 36.4627C259.198 32.4458 260.636 25.5935 265.665 24.1141ZM266.698 27.5557C263.97 29.3484 264.145 34.9371 267.555 35.7846C270.637 36.3907 271.726 32.415 271.043 30.0983C270.833 28.0642 268.583 26.5283 266.698 27.5557Z" fill="white"/>
<path d="M294.986 26.6069C297.323 23.1293 303.22 22.6568 305.794 26.0932C307.222 27.9013 307.175 30.295 307.047 32.4729C303.914 32.8171 300.76 32.5757 297.621 32.6835C297.996 33.7725 298.474 34.9385 299.655 35.37C301.654 36.1508 303.939 35.8015 305.912 35.0618C305.896 36.2176 305.891 37.3682 305.886 38.5239C302.758 39.5975 298.957 39.9262 296.142 37.9075C292.854 35.2416 292.68 29.956 294.986 26.6069ZM297.575 29.694C299.481 29.7454 301.386 29.7454 303.297 29.6837C303.056 28.266 302.008 26.8585 300.405 27.1359C298.859 27.0178 298.063 28.4817 297.575 29.694Z" fill="white"/>
<path d="M192.817 23.9678C195.992 31.2413 198.961 38.597 202.094 45.8859C200.07 45.9013 198.052 45.8911 196.033 45.9167C195.047 43.6155 194.148 41.2835 193.259 38.9463C191.004 38.9411 188.749 38.936 186.494 38.9566C188.549 33.938 190.686 28.9503 192.817 23.9678Z" fill="white"/>
<path d="M342.751 15.0048C343.039 13.9877 343.131 12.2259 344.595 12.3286C348.216 12.2618 351.848 12.2978 355.474 12.3183C358.089 12.3902 361.109 13.0477 362.614 15.4209C363.688 16.9156 363.472 18.8522 363.426 20.5883L363.277 20.5164C360.38 19.7048 357.354 19.9771 354.391 19.9206C352.865 19.936 351.319 19.8178 349.829 20.1671C349.007 20.1774 348.966 20.989 348.838 21.5951C348.288 24.5128 347.96 27.4663 347.543 30.4045C346.907 33.8255 346.357 37.262 345.828 40.6984C343.573 40.796 341.292 41.0015 339.058 40.647C338.873 39.7584 339.032 38.8543 339.135 37.9708C340.362 30.3172 341.626 22.6738 342.751 15.0048Z" fill="white"/>
<path d="M381.151 19.6231C384.402 19.5718 387.664 19.5358 390.916 19.6129C393.345 19.5769 395.641 21.6727 395.616 24.1485C395.729 27.2151 394.537 30.7183 391.65 32.1926C389.39 33.4973 386.714 32.7576 384.259 33.0401C383.236 34.9253 383.462 37.2984 382.856 39.3531C381.408 40.0979 379.62 39.5585 378.048 39.6715C378.377 35.1667 379.384 30.7389 379.98 26.2649C380.375 24.051 380.565 21.796 381.151 19.6231ZM385.44 23.4243C385.106 25.2735 384.818 27.1278 384.587 28.9873C386.139 28.828 388.065 29.4496 389.323 28.2476C390.238 27.061 390.834 25.1348 389.621 23.9277C388.373 23.1366 386.822 23.4962 385.44 23.4243Z" fill="white"/>
<path d="M400.627 26.1203C402.908 25.2316 405.779 25.8172 407.063 28.0311C407.12 27.6048 407.233 26.7572 407.284 26.336C408.697 26.3155 410.109 26.3155 411.532 26.3257C411.126 30.8203 410.222 35.2533 409.503 39.7068C408.106 39.7222 406.714 39.7222 405.332 39.7119C405.343 39.2701 405.363 38.3866 405.373 37.9449C404.151 38.9722 402.826 40.015 401.172 40.1023C398.567 40.5697 395.814 39.0647 394.915 36.5631C393.59 32.3305 396.215 27.1528 400.627 26.1203ZM401.367 29.9882C399.62 30.9847 398.182 33.5736 399.749 35.3303C401.834 38.0579 406.776 35.695 406.462 32.4024C406.55 29.8495 403.298 28.8119 401.367 29.9882Z" fill="white"/>
<path d="M413.697 26.4667C415.094 26.1534 416.563 26.2356 417.991 26.3743C418.659 26.7184 418.633 27.6019 418.906 28.2132C419.455 30.1395 420.056 32.0503 420.652 33.9611C422.434 31.4493 424.032 28.7936 425.979 26.4051C427.494 26.1585 429.045 26.3075 430.581 26.364C428.902 29.821 426.292 32.7232 424.217 35.9387C422.167 38.7023 420.39 41.6867 418.202 44.3423C416.687 44.7892 415.048 44.481 413.497 44.4399C414.457 42.2055 416.116 40.3871 417.498 38.4043C416.332 34.4029 414.411 30.5504 413.697 26.4667Z" fill="white"/>
<path d="M433.51 19.6172C436.766 19.5864 440.028 19.5247 443.29 19.6172C445.504 19.6121 447.677 21.3534 447.887 23.6135C448.195 26.9164 446.983 30.8562 443.742 32.3099C441.472 33.5786 438.749 32.5359 436.386 33.2037C435.816 35.3302 435.57 37.5236 435.133 39.681C433.515 39.7067 431.902 39.7067 430.294 39.6759C430.839 34.9655 431.758 30.3117 432.426 25.6168C432.765 23.6135 432.919 21.5691 433.51 19.6172ZM437.814 23.4183C437.465 25.2675 437.136 27.1219 436.91 28.9916C438.487 28.8272 440.47 29.4745 441.713 28.1851C442.781 26.9626 442.9 25.1956 442.093 23.8036C440.691 23.4286 439.247 23.3618 437.814 23.4183Z" fill="white"/>
<path d="M467.768 19.6273C469.216 19.5965 470.67 19.5965 472.124 19.6067C471.312 26.3409 470.002 33.0083 469.062 39.7219C467.537 39.7527 466.016 39.7476 464.506 39.7065C465.682 33.0288 466.607 26.3049 467.768 19.6273Z" fill="white"/>
<path d="M363.276 20.5156L363.425 20.5875C365.639 21.62 366.487 24.3322 366.03 26.6026C365.68 29.3969 364.484 32.258 362.069 33.8658C359.778 35.4633 356.856 35.4171 354.195 35.2887C352.577 38.0368 353.239 41.504 352.109 44.4525C349.937 44.7042 347.743 44.5141 345.565 44.5706C345.432 43.271 345.596 41.9766 345.827 40.6976C346.356 37.2611 346.906 33.8247 347.543 30.4037C350.959 30.0236 354.626 30.7222 357.821 29.1247C361.057 27.5272 362.963 24.0291 363.276 20.5156Z" fill="white"/>
<path d="M452.977 26.1147C455.216 25.2518 458.026 25.7911 459.356 27.9177C459.433 27.517 459.582 26.7209 459.659 26.3202C461.051 26.3151 462.449 26.3202 463.856 26.3459C463.476 30.8302 462.526 35.2426 461.842 39.6909C460.44 39.7166 459.053 39.7218 457.666 39.7064C457.692 39.2492 457.738 38.3297 457.764 37.8674C456.439 39.0591 454.887 40.1584 453.028 40.1481C450.023 40.5128 447.028 38.0472 446.941 35.0063C446.576 31.1333 449.104 27.0342 452.977 26.1147ZM453.752 29.9672C451.605 30.9894 450.542 34.2872 452.617 35.9155C455.268 37.7801 459.459 35.0885 458.709 31.8575C458.421 29.5769 455.499 28.9913 453.752 29.9672Z" fill="white"/>
<path d="M348.84 21.595C348.969 20.9888 349.01 20.1772 349.832 20.167C351.321 19.8177 352.867 19.9358 354.393 19.9204C357.357 19.9769 360.382 19.7047 363.279 20.5163C362.966 24.0297 361.06 27.5278 357.824 29.1253C354.629 30.7228 350.962 30.0242 347.546 30.4043C347.962 27.4662 348.291 24.5126 348.84 21.595Z" fill="white"/>
<path d="M548.081 10.3751C550.366 9.92751 552.622 9.37378 554.92 9C554.902 10.7628 555.003 12.5301 554.888 14.2929C552.71 15.1327 550.329 15.3496 548.068 15.9218C548.063 14.0714 548.058 12.2209 548.081 10.3751Z" fill="white"/>
<path d="M520.602 13.4308C522.799 13.0801 524.954 12.5264 527.146 12.1572C527.146 14.0907 527.146 16.0196 527.146 17.9531C528.867 17.9531 530.588 17.9531 532.314 17.9623C532.314 19.8681 532.314 21.7785 532.31 23.6889C530.593 23.6936 528.872 23.6982 527.155 23.6889C527.15 26.8545 527.127 30.0201 527.146 33.1903C527.104 34.3485 527.635 35.7052 528.835 36.0836C529.97 36.425 531.165 36.0882 532.31 35.9544C532.273 37.7586 532.443 39.5768 532.208 41.3764C529.435 42.4608 526.034 42.6916 523.477 40.9334C521.396 39.5537 520.436 36.9696 520.533 34.5423C520.584 27.5052 520.51 20.468 520.602 13.4308Z" fill="white"/>
<path d="M502.591 22.1052C503.611 19.6365 506.149 18.1552 508.692 17.7122C511.806 17.2923 515.027 17.583 517.953 18.7551C517.935 20.8639 517.939 22.9728 517.944 25.077C515.3 23.8403 512.296 23.0051 509.388 23.7065C508.581 24.3664 508.789 25.6861 509.73 26.1106C512.157 27.4073 515.106 27.7211 517.196 29.6362C520.311 32.4233 519.771 38.0992 516.31 40.3834C512.148 43.1244 506.777 42.3769 502.347 40.7203C502.282 38.556 502.314 36.3918 502.291 34.2276C505.065 35.5243 508.147 36.8025 511.262 36.1426C512.476 35.8704 512.655 34.0523 511.626 33.4431C509.172 31.925 506.08 31.6204 503.888 29.6408C501.751 27.8226 501.594 24.5602 502.591 22.1052Z" fill="white"/>
<path d="M563.72 19.6079C565.248 18.3896 567.08 17.4067 569.096 17.5405C572.562 17.3975 575.584 19.9216 576.987 22.9396C578.819 26.9773 578.815 31.7118 577.389 35.8787C576.383 38.772 574.025 41.3054 570.947 41.9514C568.635 42.6528 566.24 41.7853 564.288 40.5486C564.293 43.0589 564.279 45.5738 564.274 48.0888C562.022 48.6102 559.757 49.0532 557.505 49.5608C557.495 39.0166 557.5 28.4724 557.5 17.9236C559.498 17.9097 561.496 17.9097 563.494 17.9328C563.55 18.3527 563.665 19.1879 563.72 19.6079ZM564.27 25.759C564.26 28.8692 564.316 31.984 564.279 35.0989C565.432 35.8003 566.757 36.4601 568.15 36.1325C569.996 35.7403 571.002 33.8898 571.422 32.2009C571.907 29.8937 571.768 27.3141 570.462 25.2883C569.775 24.2224 568.584 23.3733 567.264 23.5256C565.995 23.5256 564.007 24.1393 564.27 25.759Z" fill="white"/>
<path d="M583.056 20.3383C586.614 16.5452 593.545 16.4852 596.881 20.606C599.627 23.8315 599.95 28.3168 599.728 32.3684C595.266 32.4238 590.804 32.2761 586.346 32.4515C586.706 33.9789 587.5 35.594 589.129 36.0739C592.216 36.9183 595.515 36.2492 598.413 35.0356C598.399 36.8445 598.404 38.6534 598.39 40.4669C594.426 42.3035 589.655 42.9172 585.58 41.0714C582.313 39.6132 580.223 36.2169 579.83 32.733C579.189 28.4276 579.904 23.5546 583.056 20.3383ZM586.309 27.3386C588.681 27.3524 591.058 27.3524 593.43 27.3339C593.462 25.2666 592.161 22.9548 589.881 22.9225C587.615 23.0424 586.314 25.2482 586.309 27.3386Z" fill="white"/>
<path d="M534.548 17.9556C536.491 17.951 538.433 17.951 540.381 17.9602C540.51 18.5878 540.634 19.22 540.764 19.8522C542.042 18.0064 544.275 17.2819 546.435 17.8218C546.43 19.9122 546.426 22.0072 546.44 24.0976C544.608 23.8299 542.706 24.0837 541.308 25.3896C541.257 30.8209 541.35 36.2568 541.257 41.6928C539.019 41.6558 536.786 41.6651 534.548 41.6651C534.557 33.7604 534.479 25.8603 534.548 17.9556Z" fill="white"/>
<path d="M548.063 17.9614C550.347 17.9475 552.636 17.9521 554.925 17.9568C554.93 25.8568 554.93 33.7615 554.925 41.6662C552.641 41.6708 550.357 41.6662 548.073 41.6709C548.049 33.7662 548.073 25.8615 548.063 17.9614Z" fill="white"/>
<path fill-rule="evenodd" clip-rule="evenodd" d="M687.219 12.8671C687.239 12.9429 687.25 13.0211 687.25 13.0996V25.3081C687.25 25.4648 687.208 25.6187 687.13 25.7543C687.051 25.8899 686.938 26.0023 686.802 26.0803L676.556 31.9798V43.6731C676.556 43.9913 676.386 44.2851 676.111 44.4453L654.721 56.7584C654.672 56.7862 654.619 56.804 654.565 56.8229C654.545 56.8296 654.527 56.8419 654.505 56.8474C654.356 56.8868 654.199 56.8868 654.049 56.8474C654.025 56.8407 654.002 56.8274 653.979 56.8185C653.93 56.8007 653.879 56.7851 653.832 56.7584L632.447 44.4453C632.311 44.3673 632.199 44.2548 632.12 44.1192C632.042 43.9837 632 43.8298 632 43.6731V7.04766C632 6.96755 632.011 6.88966 632.031 6.814C632.038 6.78841 632.053 6.76504 632.062 6.73945C632.079 6.69271 632.095 6.64487 632.119 6.60147C632.136 6.57254 632.16 6.54918 632.18 6.52247C632.206 6.48687 632.229 6.45015 632.259 6.41899C632.285 6.3934 632.318 6.37448 632.347 6.35223C632.379 6.32553 632.408 6.2966 632.445 6.27545L643.139 0.118915C643.275 0.0410048 643.428 0 643.584 0C643.74 0 643.894 0.0410048 644.029 0.118915L654.722 6.27545H654.725C654.76 6.29771 654.79 6.32553 654.822 6.35112C654.851 6.37337 654.884 6.3934 654.909 6.41788C654.94 6.45015 654.963 6.48687 654.989 6.52247C655.008 6.54918 655.034 6.57254 655.049 6.60147C655.075 6.64598 655.09 6.69271 655.107 6.73945C655.116 6.76504 655.132 6.78841 655.138 6.81511C655.159 6.89094 655.169 6.96912 655.17 7.04766V29.9236L664.08 24.7929V13.0985C664.08 13.0206 664.091 12.9416 664.111 12.8671C664.119 12.8404 664.134 12.817 664.142 12.7914C664.16 12.7447 664.176 12.6968 664.2 12.6534C664.217 12.6245 664.241 12.6011 664.26 12.5744C664.287 12.5388 664.309 12.5021 664.34 12.4709C664.366 12.4453 664.398 12.4264 664.427 12.4042C664.461 12.3775 664.49 12.3485 664.525 12.3274L675.22 6.17086C675.356 6.09284 675.509 6.05177 675.665 6.05177C675.822 6.05177 675.975 6.09284 676.111 6.17086L686.804 12.3274C686.841 12.3497 686.87 12.3775 686.904 12.4031C686.931 12.4253 686.964 12.4453 686.989 12.4698C687.021 12.5021 687.043 12.5388 687.069 12.5744C687.09 12.6011 687.114 12.6245 687.13 12.6534C687.155 12.6968 687.17 12.7447 687.187 12.7914C687.197 12.817 687.212 12.8404 687.219 12.8671ZM685.467 24.7929V14.6407L681.725 16.7949L676.556 19.7713V29.9236L685.468 24.7929H685.467ZM674.774 43.1579V32.999L669.689 35.9032L655.169 44.1905V54.4451L674.774 43.1579ZM633.783 8.58875V43.1579L653.386 54.444V44.1916L643.145 38.3956L643.141 38.3934L643.137 38.3912C643.102 38.3711 643.074 38.3422 643.041 38.3177C643.013 38.2955 642.981 38.2777 642.957 38.2532L642.954 38.2498C642.926 38.222 642.906 38.1875 642.881 38.1564C642.859 38.1263 642.832 38.1007 642.814 38.0696L642.813 38.0662C642.793 38.0329 642.781 37.9928 642.766 37.955C642.752 37.9216 642.733 37.8904 642.724 37.8548C642.713 37.8126 642.711 37.7669 642.706 37.7235C642.702 37.6902 642.693 37.6568 642.693 37.6234V13.7194L637.525 10.7418L633.783 8.58875ZM643.585 1.91925L634.676 7.04766L643.583 12.1761L652.491 7.04655L643.583 1.91925H643.585ZM648.219 33.9248L653.387 30.9495V8.58875L649.645 10.7429L644.476 13.7194V36.0801L648.219 33.9248ZM675.665 7.9712L666.757 13.0996L675.665 18.228L684.573 13.0985L675.665 7.9712ZM674.774 19.7713L669.605 16.7949L665.863 14.6407V24.7929L671.031 27.7683L674.774 29.9236V19.7713ZM654.276 42.6494L667.343 35.1899L673.874 31.4624L664.972 26.3373L654.723 32.238L645.382 37.6156L654.276 42.6494Z" fill="white"/>
<path d="M773.973 30.038C773.973 26.4626 769.495 23.0741 762.63 20.9729C764.215 13.976 763.51 8.4093 760.408 6.62708C759.693 6.20903 758.857 6.011 757.944 6.011V8.46431C758.45 8.46431 758.857 8.56332 759.198 8.75034C760.694 9.60845 761.343 12.8759 760.837 17.0784C760.716 18.1125 760.518 19.2017 760.276 20.3128C758.12 19.7847 755.765 19.3777 753.29 19.1136C751.805 17.0784 750.265 15.2302 748.714 13.613C752.3 10.2795 755.666 8.45331 757.955 8.45331V6C754.929 6 750.969 8.15627 746.964 11.8967C742.96 8.17827 738.999 6.04401 735.974 6.04401V8.49731C738.251 8.49731 741.629 10.3125 745.215 13.624C743.675 15.2412 742.135 17.0784 740.672 19.1136C738.185 19.3777 735.831 19.7847 733.675 20.3238C733.422 19.2237 733.235 18.1565 733.103 17.1334C732.586 12.9309 733.224 9.66346 734.709 8.79435C735.039 8.59633 735.468 8.50831 735.974 8.50831V6.05501C735.05 6.05501 734.214 6.25303 733.488 6.67108C730.396 8.45331 729.703 14.009 731.298 20.9839C724.456 23.0961 720 26.4736 720 30.038C720 33.6135 724.478 37.0019 731.342 39.1031C729.758 46.1 730.462 51.6667 733.565 53.4489C734.28 53.867 735.116 54.065 736.04 54.065C739.065 54.065 743.026 51.9088 747.03 48.1683C751.035 51.8867 754.995 54.021 758.021 54.021C758.945 54.021 759.781 53.823 760.507 53.4049C763.598 51.6227 764.292 46.067 762.696 39.0921C769.517 36.9909 773.973 33.6025 773.973 30.038ZM759.649 22.7001C759.242 24.1193 758.736 25.5825 758.164 27.0456C757.713 26.1655 757.24 25.2854 756.723 24.4053C756.217 23.5252 755.677 22.6671 755.138 21.831C756.701 22.062 758.208 22.348 759.649 22.7001ZM754.61 34.4166C753.752 35.9017 752.872 37.3099 751.959 38.6191C750.32 38.7621 748.659 38.8391 746.986 38.8391C745.325 38.8391 743.664 38.7621 742.036 38.6301C741.123 37.3209 740.232 35.9238 739.373 34.4496C738.537 33.0084 737.778 31.5452 737.085 30.071C737.767 28.5968 738.537 27.1226 739.362 25.6815C740.221 24.1963 741.101 22.7881 742.014 21.4789C743.653 21.3359 745.314 21.2589 746.986 21.2589C748.648 21.2589 750.309 21.3359 751.937 21.4679C752.85 22.7771 753.741 24.1743 754.599 25.6485C755.435 27.0896 756.195 28.5528 756.888 30.027C756.195 31.5012 755.435 32.9754 754.61 34.4166ZM758.164 32.9864C758.758 34.4606 759.264 35.9348 759.682 37.3649C758.241 37.717 756.723 38.014 755.149 38.245C755.688 37.3979 756.228 36.5288 756.734 35.6377C757.24 34.7576 757.713 33.8665 758.164 32.9864ZM747.008 44.7249C745.985 43.6687 744.962 42.4916 743.95 41.2044C744.94 41.2484 745.952 41.2814 746.975 41.2814C748.01 41.2814 749.033 41.2594 750.034 41.2044C749.044 42.4916 748.021 43.6687 747.008 44.7249ZM738.823 38.245C737.261 38.014 735.754 37.728 734.313 37.3759C734.72 35.9568 735.226 34.4936 735.798 33.0304C736.249 33.9105 736.722 34.7906 737.239 35.6707C737.756 36.5508 738.284 37.4089 738.823 38.245ZM746.953 15.3512C747.977 16.4073 749 17.5845 750.012 18.8716C749.022 18.8276 748.01 18.7946 746.986 18.7946C745.952 18.7946 744.929 18.8166 743.928 18.8716C744.918 17.5845 745.941 16.4073 746.953 15.3512ZM738.812 21.831C738.273 22.6781 737.734 23.5472 737.228 24.4383C736.722 25.3184 736.249 26.1985 735.798 27.0786C735.204 25.6045 734.698 24.1303 734.28 22.7001C735.721 22.3591 737.239 22.062 738.812 21.831ZM728.856 35.6047C724.962 33.9435 722.442 31.7652 722.442 30.038C722.442 28.3108 724.962 26.1215 728.856 24.4713C729.802 24.0643 730.836 23.7012 731.903 23.3602C732.531 25.5164 733.356 27.7607 734.379 30.06C733.367 32.3483 732.553 34.5816 731.936 36.7269C730.847 36.3858 729.813 36.0118 728.856 35.6047ZM734.775 51.3257C733.279 50.4676 732.63 47.2002 733.136 42.9976C733.257 41.9635 733.455 40.8744 733.697 39.7632C735.853 40.2913 738.207 40.6983 740.683 40.9624C742.168 42.9976 743.708 44.8459 745.259 46.4631C741.673 49.7965 738.306 51.6227 736.018 51.6227C735.523 51.6117 735.105 51.5127 734.775 51.3257ZM760.87 42.9426C761.387 47.1452 760.749 50.4126 759.264 51.2817C758.934 51.4797 758.505 51.5677 757.999 51.5677C755.721 51.5677 752.344 49.7525 748.758 46.4411C750.298 44.8239 751.838 42.9866 753.301 40.9514C755.787 40.6874 758.142 40.2803 760.298 39.7412C760.551 40.8524 760.749 41.9195 760.87 42.9426ZM765.106 35.6047C764.16 36.0118 763.125 36.3748 762.058 36.7159C761.431 34.5596 760.606 32.3153 759.583 30.016C760.595 27.7277 761.409 25.4944 762.025 23.3492C763.114 23.6902 764.149 24.0643 765.117 24.4713C769.011 26.1325 771.53 28.3108 771.53 30.038C771.519 31.7652 769 33.9545 765.106 35.6047Z" fill="white"/>
<path d="M746.975 35.065C749.752 35.065 752.003 32.8141 752.003 30.0374C752.003 27.2607 749.752 25.0098 746.975 25.0098C744.199 25.0098 741.948 27.2607 741.948 30.0374C741.948 32.8141 744.199 35.065 746.975 35.065Z" fill="white"/>
<path d="M57.0615 31.8479C57.0615 34.2274 56.4006 36.0465 55.0801 37.3044C53.7589 38.5632 51.8561 39.1923 49.3715 39.1923H45.3394V24.7794H49.7954C52.089 24.7794 53.8735 25.3972 55.1487 26.6334C56.4239 27.8683 57.0615 29.6068 57.0615 31.8479ZM54.5772 31.9268C54.5772 28.4763 52.9636 26.7514 49.7365 26.7514H47.6962V37.2112H49.3718C52.8418 37.2109 54.5772 35.4498 54.5772 31.9268ZM63.4609 39.3897C61.7649 39.3897 60.4387 38.8956 59.4826 37.9061C58.5268 36.9166 58.0478 35.5546 58.0478 33.8202C58.0478 32.0392 58.4916 30.6397 59.3788 29.62C60.2656 28.6016 61.4848 28.0924 63.036 28.0924C64.4756 28.0924 65.6129 28.5298 66.4475 29.4035C67.2819 30.2777 67.6998 31.4809 67.6998 33.012V34.2642H60.4337C60.4664 35.322 60.7528 36.1355 61.2919 36.7042C61.831 37.2729 62.5898 37.5568 63.5689 37.5568C64.2131 37.5568 64.8126 37.496 65.3684 37.3742C65.9242 37.2524 66.5203 37.0507 67.1582 36.7681V38.6507C66.613 38.9135 66.0365 39.1056 65.4427 39.2222C64.8642 39.334 64.2036 39.3897 63.4609 39.3897ZM63.037 29.8466C62.3009 29.8466 61.7111 30.0801 61.2677 30.5468C60.8239 31.0132 60.5596 31.6943 60.4743 32.5871H65.4238C65.4106 31.6867 65.194 31.0047 64.7733 30.5415C64.3516 30.0782 63.7731 29.8466 63.037 29.8466ZM71.6051 39.1927L67.4647 28.2891H69.91L72.1281 34.6284C72.5093 35.6933 72.739 36.5544 72.818 37.2115H72.8967C72.9558 36.7382 73.1859 35.8778 73.5865 34.6284L75.8053 28.2891H78.2692L74.1093 39.1927H71.6051ZM83.4761 39.3897C81.7801 39.3897 80.4542 38.8956 79.4978 37.9061C78.5417 36.9166 78.063 35.5546 78.063 33.8202C78.063 32.0392 78.5065 30.6397 79.3939 29.62C80.2811 28.6016 81.5003 28.0924 83.0516 28.0924C84.4907 28.0924 85.6284 28.5298 86.4627 29.4035C87.297 30.2777 87.715 31.4809 87.715 33.012V34.2642H80.4492C80.4819 35.322 80.7683 36.1355 81.3071 36.7042C81.8462 37.2729 82.6053 37.5568 83.5841 37.5568C84.2286 37.5568 84.8278 37.496 85.3836 37.3742C85.9391 37.2524 86.5354 37.0507 87.1737 36.7681V38.6507C86.6285 38.9135 86.052 39.1055 85.4582 39.2222C84.8794 39.334 84.2191 39.3897 83.4761 39.3897ZM83.0522 29.8466C82.3161 29.8466 81.7263 30.0801 81.2826 30.5468C80.8391 31.0132 80.5744 31.6943 80.4892 32.5871H85.4387C85.4254 31.6867 85.2089 31.0047 84.7885 30.5415C84.3667 30.0782 83.7883 29.8466 83.0522 29.8466ZM91.4528 39.1927H89.1366V23.8525H91.4528V39.1927ZM103.225 33.721C103.225 35.502 102.768 36.8921 101.855 37.8913C100.941 38.8902 99.6697 39.3897 98.0395 39.3897C97.0208 39.3897 96.1201 39.1599 95.3383 38.6998C94.5562 38.24 93.9548 37.5791 93.5347 36.7184C93.1139 35.8579 92.9037 34.8584 92.9037 33.7217C92.9037 31.9536 93.3566 30.5736 94.2639 29.581C95.1709 28.589 96.4486 28.0927 98.099 28.0927C99.677 28.0927 100.925 28.6003 101.845 29.6156C102.765 30.6305 103.225 31.9992 103.225 33.721ZM95.2892 33.721C95.2892 36.2384 96.2189 37.497 98.0792 37.497C99.9193 37.497 100.84 36.2384 100.84 33.721C100.84 31.2301 99.9136 29.9844 98.0593 29.9844C97.0865 29.9844 96.3822 30.3061 95.9448 30.9503C95.5076 31.5948 95.2892 32.5182 95.2892 33.721ZM110.206 39.3897C108.826 39.3897 107.755 38.8937 106.992 37.9014H106.855C106.947 38.8219 106.992 39.3802 106.992 39.5772V44.0427H104.676V28.2891H106.549C106.602 28.4924 106.71 28.9789 106.874 29.7484H106.992C107.715 28.6437 108.8 28.0917 110.246 28.0917C111.606 28.0917 112.666 28.5843 113.426 29.5706C114.185 30.5563 114.564 31.9397 114.564 33.721C114.564 35.502 114.177 36.8921 113.406 37.8913C112.633 38.8902 111.567 39.3897 110.206 39.3897ZM109.645 29.9847C108.724 29.9847 108.052 30.2538 107.629 30.7929C107.205 31.3317 106.992 32.1928 106.992 33.3761V33.7213C106.992 35.0491 107.203 36.0099 107.623 36.6051C108.044 37.2005 108.731 37.4973 109.684 37.4973C110.486 37.4973 111.104 37.1687 111.538 36.5113C111.971 35.8542 112.188 34.9179 112.188 33.7015C112.188 32.4789 111.972 31.5539 111.542 30.9267C111.112 30.2985 110.479 29.9847 109.645 29.9847ZM120.805 39.3897C119.11 39.3897 117.783 38.8956 116.827 37.9061C115.871 36.9166 115.392 35.5546 115.392 33.8202C115.392 32.0392 115.836 30.6397 116.723 29.62C117.61 28.6016 118.829 28.0924 120.381 28.0924C121.819 28.0924 122.957 28.5298 123.792 29.4035C124.626 30.2777 125.044 31.4809 125.044 33.012V34.2642H117.779C117.812 35.322 118.098 36.1355 118.637 36.7042C119.176 37.2729 119.935 37.5568 120.914 37.5568C121.558 37.5568 122.158 37.496 122.713 37.3742C123.269 37.2524 123.865 37.0507 124.504 36.7681V38.6507C123.958 38.9135 123.382 39.1056 122.788 39.2222C122.209 39.334 121.549 39.3897 120.805 39.3897ZM120.382 29.8466C119.645 29.8466 119.055 30.0801 118.612 30.5468C118.169 31.0135 117.904 31.6943 117.819 32.5871H122.768C122.755 31.6867 122.538 31.0047 122.118 30.5415C121.696 30.0782 121.118 29.8466 120.382 29.8466ZM131.996 28.0917C132.463 28.0917 132.847 28.1245 133.15 28.1899L132.923 30.3486C132.587 30.2689 132.243 30.2292 131.897 30.2302C130.971 30.2302 130.22 30.5327 129.645 31.1375C129.069 31.7424 128.782 32.5276 128.782 33.4935V39.1914H126.466V28.2891H128.28L128.586 30.2113H128.704C129.065 29.5608 129.537 29.0447 130.119 28.6636C130.7 28.2825 131.326 28.0917 131.996 28.0917ZM141.285 36.0871C141.285 37.1517 140.897 37.9687 140.121 38.5368C139.346 39.1058 138.235 39.3893 136.789 39.3893C135.337 39.3893 134.17 39.1697 133.289 38.7284V36.7278C134.571 37.3198 135.764 37.615 136.868 37.615C138.294 37.615 139.007 37.1845 139.007 36.3234C139.007 36.0474 138.928 35.8173 138.771 35.6332C138.613 35.4494 138.353 35.259 137.992 35.0617C137.63 34.8647 137.127 34.6413 136.483 34.3914C135.228 33.9051 134.379 33.4186 133.934 32.932C133.491 32.4458 133.269 31.8148 133.269 31.039C133.269 30.1059 133.645 29.3808 134.398 28.8653C135.151 28.3498 136.174 28.0914 137.469 28.0914C138.751 28.0914 139.964 28.3511 141.107 28.8707L140.358 30.6154C139.181 30.1292 138.192 29.8862 137.39 29.8862C136.167 29.8862 135.557 30.2343 135.557 30.9308C135.557 31.2726 135.716 31.5621 136.035 31.7988C136.354 32.0351 137.05 32.3605 138.121 32.7747C139.02 33.1231 139.675 33.4419 140.082 33.7311C140.489 34.0203 140.792 34.3539 140.989 34.7322C141.186 35.1092 141.285 35.5618 141.285 36.0871Z" fill="white"/>
<path d="M74.8024 19.4448C74.511 19.5981 74.0748 19.6566 73.7371 19.662C73.0495 19.6758 72.4965 19.2041 72.1393 18.6502C71.9019 18.2875 71.759 17.8712 71.7239 17.4392C71.6644 16.7641 71.8309 15.9849 72.5919 15.7935C73.1052 15.6648 73.5838 15.9487 73.773 16.4387C73.8573 16.6669 73.8057 16.7795 73.6005 16.862L71.7629 17.6337L72.3876 17.673C73.136 17.3624 73.9691 17.0728 74.7152 16.7635C74.8695 16.698 74.8833 16.6864 74.8232 16.5227C74.5009 15.6 73.2824 15.0999 72.24 15.5339C71.4221 15.8753 70.8285 16.7408 70.8285 17.7127C70.8285 19.02 71.7683 20.1813 73.0529 20.1813C73.6374 20.1813 74.0562 20.101 74.4289 19.8666C74.5088 19.7913 74.9563 19.4288 74.9642 19.352C74.9639 19.3331 74.8975 19.3891 74.8024 19.4448ZM69.9609 19.2406C69.9738 17.4058 69.9278 15.5616 70.004 13.7255C70.0175 13.5694 70.032 13.3901 70.0918 13.2975C70.1742 13.1701 70.2388 13.1185 70.4279 12.9941H69.0564C68.7832 13.1153 68.5393 13.3035 68.2759 13.4363C68.5531 13.4275 68.8046 13.4316 69.0787 13.4253C68.9604 15.2689 69.0343 17.1084 69.0252 19.0215C69.0397 19.5909 68.9245 19.7397 68.7048 19.9695C69.2921 19.9695 69.8504 19.9805 70.4395 19.9805C70.561 19.9081 70.7184 19.7473 70.8163 19.6623C70.1657 19.6815 69.9712 19.7416 69.9609 19.2406Z" fill="white"/>
<path d="M68.5457 15.5236C67.719 15.5164 66.8924 15.5138 66.0657 15.5158C65.2443 15.5158 64.5044 15.9151 64.1708 16.628C64.0188 16.9559 63.9574 17.3782 64.0531 17.7776C64.2482 18.5716 65.075 19.0956 65.8797 18.9742C65.9682 18.9619 65.9971 18.9348 65.9486 19.0141C65.7721 19.326 65.903 19.7918 66.2498 20.0174C65.9988 19.9996 65.7467 20.0039 65.4964 20.03C64.517 20.1462 63.429 20.6519 63.4863 21.7084C63.5282 22.5304 64.3593 23.1353 65.672 23.1359C66.7329 23.1353 67.7261 22.7976 68.1438 22.0514C68.5853 21.264 68.3266 20.4505 67.6632 19.9564C67.362 19.731 66.8377 19.4204 66.8701 18.9921C66.8811 18.8473 66.9891 18.6909 67.1914 18.5701C67.5559 18.3595 67.8026 18.0797 67.9254 17.7546C68.0522 17.4132 68.0339 17.0384 67.9081 16.7C67.7881 16.3847 67.5738 16.097 67.2906 15.9032H67.9568L68.5457 15.5236ZM66.8811 20.5049C67.4596 20.8697 67.6456 21.3147 67.5971 21.7279C67.5405 22.2261 67.0605 22.6154 66.2467 22.6639C65.3724 22.7183 64.2007 22.3737 64.4176 21.2272C64.5349 20.616 65.3463 20.3026 66.0122 20.2812C66.2023 20.2749 66.3874 20.2881 66.5718 20.2941C66.6722 20.3658 66.7779 20.4344 66.8811 20.5049ZM66.4383 18.6613C65.8501 18.824 65.2028 18.3649 64.9951 17.5501C64.7619 16.6513 64.9988 16.0813 65.5537 15.9095C66.2086 15.7027 66.9088 16.2966 67.0681 17.2646C67.1741 17.8985 67.0117 18.4999 66.4383 18.6613ZM63.5508 17.6646C63.4788 16.4369 62.6552 15.3896 61.0803 15.3896C59.7186 15.3896 58.6032 16.4514 58.6032 17.755C58.6032 19.248 59.8998 20.2692 61.3821 20.1096C62.6133 19.9794 63.6238 18.8864 63.5508 17.6646ZM61.5527 19.744C60.7247 19.9312 59.8463 19.2473 59.6308 18.0854C59.3887 16.8077 59.7856 15.9661 60.5651 15.7587C61.4907 15.5164 62.4323 16.4473 62.5674 17.8207C62.6596 18.7186 62.3574 19.5576 61.5527 19.744ZM55.6827 15.3892C54.3017 15.3892 53.1741 16.4511 53.1741 17.7546C53.1741 19.2476 54.4836 20.2689 55.9854 20.1093C57.2342 19.9794 58.2545 18.886 58.1777 17.6643C58.1022 16.4366 57.2723 15.3892 55.6827 15.3892ZM56.1573 19.744C55.3207 19.9312 54.4342 19.2473 54.2142 18.0854C53.9703 16.8077 54.3725 15.9661 55.1621 15.7587C56.0962 15.5164 57.0466 16.4473 57.1854 17.8207C57.2761 18.7186 56.9724 19.5576 56.1573 19.744ZM49.9221 18.2516L51.4356 18.2072V19.5148C51.4356 19.7034 51.4381 19.7298 51.1303 19.8292C50.6995 19.9444 50.2139 19.9677 49.7686 19.9299C48.2586 19.8019 47.1095 18.6085 46.8364 17.1233C46.5742 15.7093 47.2442 14.3734 48.3687 13.8248C48.9179 13.556 49.5785 13.4273 50.2938 13.659C50.7401 13.7984 51.1489 14.0599 51.5029 14.4155L51.255 14.8596L51.7204 14.7356L52.4351 14.0007C51.2194 12.9968 49.1328 12.8656 47.7497 13.563C46.5481 14.1729 45.6729 15.3792 45.632 16.7277C45.5829 18.143 46.4137 19.2687 47.2493 19.8299C48.6315 20.7627 51.0255 20.5575 52.4691 19.8264L52.4631 19.6923H52.4691V18.2072L52.803 17.8113H50.7023L49.9221 18.2516Z" fill="white"/>
<path d="M31.9911 32.8652C32.3666 33.4865 32.3747 34.4656 32.0506 35.1397L36.5265 27.6847C36.9265 27.0169 36.9265 25.9277 36.5265 25.263L29.2927 13.211C28.8912 12.547 27.9278 12 27.1511 12H20.8458C20.0704 12 19.7616 12.5467 20.1613 13.2113L24.6652 20.7091C24.6926 20.7469 24.7313 20.7812 24.7549 20.8161L31.9911 32.8652Z" fill="white"/>
<path d="M20.8468 40.942H27.1521C27.9291 40.942 28.8919 40.3994 29.2941 39.7304L32.0525 35.1384C32.3761 34.4646 32.3685 33.4855 31.9931 32.8639L27.4014 25.2607C27.8001 25.9254 27.8001 27.0146 27.4014 27.6825L22.923 35.133C22.8997 35.1831 22.889 35.2413 22.8638 35.2875L20.1154 39.8629C19.8341 40.4649 20.1236 40.942 20.8468 40.942Z" fill="white"/>
<path d="M4.83598 20.0775C4.4643 19.4556 4.45202 18.4762 4.7787 17.8027L0.300001 25.2593C-0.1 25.9271 -0.1 27.0163 0.300001 27.6819L7.53843 39.7311C7.9378 40.3961 8.90177 40.9427 9.67565 40.9427H15.9809C16.7592 40.9427 17.0683 40.3967 16.6683 39.7311L12.1625 32.234C12.1373 32.1952 12.0964 32.1619 12.0741 32.1263L4.83598 20.0775Z" fill="white"/>
<path d="M15.9809 12H9.67559C8.90171 12 7.93774 12.5435 7.53837 13.2113L4.77833 17.803C4.45165 18.4765 4.46393 19.4559 4.8356 20.0778L9.43012 27.6822C9.03012 27.0166 9.03012 25.927 9.43012 25.2595L13.9063 17.809C13.928 17.7593 13.9393 17.702 13.9686 17.6542L16.7157 13.0795C16.9965 12.4777 16.7041 12 15.9809 12Z" fill="white"/>
<path d="M4.83606 20.0772L9.43057 27.6816C9.03057 27.016 9.03057 25.9265 9.43057 25.2589L11.0479 22.5656L4.77909 17.8027C4.45242 18.4759 4.46469 19.4556 4.83606 20.0772Z" fill="white"/>
<path d="M846.886 0L819 27.8862L827.631 36.5175L864.149 0H846.886Z" fill="white"/>
<path d="M846.692 25.7158L831.761 40.6469L840.424 49.4401L849.04 40.8247L864.149 25.7158H846.692Z" fill="white"/>
<path d="M840.425 49.4406L846.983 55.9992H864.149L849.04 40.8252L840.425 49.4406Z" fill="#D1D1D1"/>
<path d="M831.664 40.7448L840.295 32.1133L849.04 40.8256L840.425 49.441L831.664 40.7448Z" fill="#FAFAFA"/>
<path d="M840.425 49.4403L847.598 47.0598L848.311 41.5537L840.425 49.4403Z" fill="url(#paint0_linear_475_1228)" fill-opacity="0.8"/>
<path d="M173.016 132.882C177.927 132.882 182.838 132.892 187.753 132.877C182.838 144.573 177.963 156.29 173.098 168.012C172.903 156.305 173.068 144.594 173.016 132.882Z" fill="white"/>
<path d="M197.954 132.887C202.844 132.897 207.734 132.861 212.624 132.907C212.583 144.526 212.707 156.145 212.563 167.764C207.549 156.202 202.819 144.516 197.954 132.887Z" fill="white"/>
<path d="M254.048 139.467C255.435 139.462 256.827 139.462 258.219 139.462C258.337 146.263 258.019 153.074 258.399 159.865C255.152 161.39 251.115 161.878 247.833 160.219C243.492 157.851 243.117 151.122 246.703 147.907C248.629 145.98 251.454 145.605 254.053 145.59C254.027 143.551 254.038 141.506 254.048 139.467ZM250.565 149.74C248.192 151.086 248.028 154.743 249.79 156.644C250.904 157.769 252.563 157.635 254.017 157.641C254.053 154.805 254.048 151.975 254.022 149.145C252.856 149.232 251.567 149.016 250.565 149.74Z" fill="white"/>
<path d="M277.952 139.468C279.333 139.463 280.715 139.463 282.107 139.468C282.123 141.615 282.123 143.762 282.117 145.909C284.398 145.488 286.946 145.478 288.923 146.87C293.166 149.803 292.632 157.122 288.281 159.727C285.215 161.725 281.342 161.427 277.952 160.564C277.931 153.532 277.931 146.5 277.952 139.468ZM282.128 149.304C282.225 152.089 281.891 154.924 282.282 157.672C283.396 157.703 284.634 157.79 285.615 157.138C287.773 155.823 288.096 152.587 286.833 150.563C285.77 149.001 283.782 149.094 282.128 149.304Z" fill="white"/>
<path d="M231.882 141.055C233.587 141.008 235.303 141.024 237.013 141.163C239.212 147.773 241.667 154.302 243.932 160.892C242.448 160.898 240.963 160.898 239.489 160.892C238.96 159.331 238.431 157.775 237.928 156.213C235.606 156.203 233.294 156.203 230.978 156.213C230.479 157.78 229.976 159.346 229.432 160.898C228.07 160.898 226.714 160.892 225.363 160.872C227.29 155.319 229.19 149.761 231.132 144.214C231.496 143.192 231.692 142.123 231.882 141.055ZM234.419 144.892C233.633 147.414 232.868 149.946 232.077 152.468C233.623 152.473 235.174 152.479 236.726 152.473C236.068 149.915 235.21 147.414 234.419 144.892Z" fill="white"/>
<path d="M265.665 145.991C268.259 145.226 271.372 145.647 273.324 147.64C275.939 150.368 276.149 154.903 274.197 158.062C271.649 162.187 264.766 162.351 262.049 158.34C259.198 154.323 260.636 147.47 265.665 145.991ZM266.698 149.433C263.97 151.225 264.145 156.814 267.555 157.662C270.637 158.268 271.726 154.292 271.043 151.975C270.833 149.941 268.583 148.405 266.698 149.433Z" fill="white"/>
<path d="M294.986 148.484C297.323 145.006 303.22 144.534 305.794 147.97C307.222 149.778 307.175 152.172 307.047 154.35C303.914 154.694 300.76 154.453 297.621 154.56C297.996 155.649 298.474 156.815 299.655 157.247C301.654 158.028 303.939 157.678 305.912 156.939C305.896 158.095 305.891 159.245 305.886 160.401C302.758 161.474 298.957 161.803 296.142 159.784C292.854 157.119 292.68 151.833 294.986 148.484ZM297.575 151.571C299.481 151.622 301.386 151.622 303.297 151.561C303.056 150.143 302.008 148.736 300.405 149.013C298.859 148.895 298.063 150.359 297.575 151.571Z" fill="white"/>
<path d="M192.817 145.845C195.992 153.118 198.961 160.474 202.094 167.763C200.07 167.778 198.052 167.768 196.033 167.794C195.047 165.492 194.148 163.16 193.259 160.823C191.004 160.818 188.749 160.813 186.494 160.834C188.549 155.815 190.686 150.827 192.817 145.845Z" fill="white"/>
<path d="M342.751 136.882C343.039 135.865 343.131 134.103 344.595 134.206C348.216 134.139 351.848 134.175 355.474 134.195C358.089 134.267 361.109 134.925 362.614 137.298C363.688 138.793 363.472 140.729 363.426 142.465L363.277 142.393C360.38 141.582 357.354 141.854 354.391 141.798C352.865 141.813 351.319 141.695 349.829 142.044C349.007 142.054 348.966 142.866 348.838 143.472C348.288 146.39 347.96 149.343 347.543 152.281C346.907 155.702 346.357 159.139 345.828 162.575C343.573 162.673 341.292 162.878 339.058 162.524C338.873 161.635 339.032 160.731 339.135 159.848C340.362 152.194 341.626 144.551 342.751 136.882Z" fill="white"/>
<path d="M381.151 141.5C384.402 141.449 387.664 141.413 390.916 141.49C393.345 141.454 395.641 143.55 395.616 146.026C395.729 149.092 394.537 152.595 391.65 154.07C389.39 155.374 386.714 154.635 384.259 154.917C383.236 156.802 383.462 159.175 382.856 161.23C381.408 161.975 379.62 161.435 378.048 161.548C378.377 157.044 379.384 152.616 379.98 148.142C380.375 145.928 380.565 143.673 381.151 141.5ZM385.44 145.301C385.106 147.15 384.818 149.005 384.587 150.864C386.139 150.705 388.065 151.327 389.323 150.125C390.238 148.938 390.834 147.012 389.621 145.805C388.373 145.014 386.822 145.373 385.44 145.301Z" fill="white"/>
<path d="M400.627 147.997C402.908 147.109 405.779 147.694 407.063 149.908C407.12 149.482 407.233 148.634 407.284 148.213C408.697 148.192 410.109 148.192 411.532 148.203C411.126 152.697 410.222 157.13 409.503 161.584C408.106 161.599 406.714 161.599 405.332 161.589C405.343 161.147 405.363 160.264 405.373 159.822C404.151 160.849 402.826 161.892 401.172 161.979C398.567 162.447 395.814 160.942 394.915 158.44C393.59 154.207 396.215 149.03 400.627 147.997ZM401.367 151.865C399.62 152.862 398.182 155.451 399.749 157.207C401.834 159.935 406.776 157.572 406.462 154.279C406.55 151.726 403.298 150.689 401.367 151.865Z" fill="white"/>
<path d="M413.697 148.344C415.094 148.03 416.563 148.113 417.991 148.251C418.659 148.595 418.633 149.479 418.906 150.09C419.455 152.016 420.056 153.927 420.652 155.838C422.434 153.326 424.032 150.671 425.979 148.282C427.494 148.035 429.045 148.184 430.581 148.241C428.901 151.698 426.292 154.6 424.217 157.816C422.167 160.579 420.39 163.564 418.202 166.219C416.686 166.666 415.048 166.358 413.497 166.317C414.457 164.082 416.116 162.264 417.498 160.281C416.332 156.28 414.411 152.427 413.697 148.344Z" fill="white"/>
<path d="M433.51 141.494C436.766 141.463 440.028 141.402 443.29 141.494C445.504 141.489 447.677 143.23 447.887 145.49C448.195 148.793 446.983 152.733 443.742 154.187C441.472 155.456 438.749 154.413 436.386 155.081C435.816 157.207 435.57 159.401 435.133 161.558C433.515 161.584 431.902 161.584 430.294 161.553C430.839 156.842 431.758 152.189 432.426 147.494C432.765 145.49 432.919 143.446 433.51 141.494ZM437.814 145.295C437.465 147.144 437.136 148.999 436.91 150.869C438.487 150.704 440.47 151.351 441.713 150.062C442.781 148.84 442.9 147.073 442.093 145.681C440.691 145.306 439.247 145.239 437.814 145.295Z" fill="white"/>
<path d="M467.768 141.504C469.216 141.473 470.67 141.473 472.124 141.484C471.312 148.218 470.002 154.885 469.062 161.599C467.537 161.63 466.016 161.625 464.506 161.583C465.682 154.906 466.607 148.182 467.768 141.504Z" fill="white"/>
<path d="M363.276 142.393L363.425 142.464C365.639 143.497 366.487 146.209 366.03 148.48C365.68 151.274 364.484 154.135 362.069 155.743C359.778 157.34 356.856 157.294 354.195 157.166C352.577 159.914 353.239 163.381 352.109 166.329C349.937 166.581 347.743 166.391 345.565 166.448C345.432 165.148 345.596 163.854 345.827 162.575C346.356 159.138 346.906 155.702 347.543 152.281C350.959 151.901 354.626 152.599 357.821 151.002C361.057 149.404 362.963 145.906 363.276 142.393Z" fill="white"/>
<path d="M452.976 147.992C455.216 147.129 458.026 147.668 459.356 149.795C459.433 149.394 459.582 148.598 459.659 148.197C461.051 148.192 462.448 148.197 463.856 148.223C463.476 152.707 462.525 157.12 461.842 161.568C460.44 161.594 459.053 161.599 457.666 161.583C457.692 161.126 457.738 160.207 457.764 159.744C456.438 160.936 454.887 162.035 453.028 162.025C450.023 162.39 447.028 159.924 446.941 156.883C446.576 153.01 449.103 148.911 452.976 147.992ZM453.752 151.844C451.605 152.866 450.541 156.164 452.617 157.792C455.267 159.657 459.459 156.965 458.709 153.734C458.421 151.454 455.498 150.868 453.752 151.844Z" fill="white"/>
<path d="M348.84 143.472C348.969 142.866 349.01 142.054 349.832 142.044C351.321 141.695 352.867 141.813 354.393 141.797C357.357 141.854 360.382 141.582 363.279 142.393C362.966 145.907 361.06 149.405 357.824 151.002C354.629 152.6 350.962 151.901 347.546 152.281C347.962 149.343 348.291 146.39 348.84 143.472Z" fill="white"/>
<path d="M548.081 132.252C550.366 131.804 552.622 131.251 554.92 130.877C554.902 132.64 555.003 134.407 554.888 136.17C552.71 137.01 550.329 137.227 548.068 137.799C548.063 135.948 548.058 134.098 548.081 132.252Z" fill="white"/>
<path d="M520.602 135.308C522.799 134.957 524.954 134.403 527.146 134.034C527.146 135.968 527.146 137.897 527.146 139.83C528.867 139.83 530.588 139.83 532.314 139.839C532.314 141.745 532.314 143.655 532.31 145.566C530.593 145.571 528.872 145.575 527.155 145.566C527.15 148.731 527.127 151.897 527.146 155.067C527.104 156.225 527.635 157.582 528.835 157.961C529.97 158.302 531.165 157.965 532.31 157.831C532.273 159.636 532.443 161.454 532.208 163.253C529.435 164.338 526.034 164.569 523.477 162.81C521.396 161.431 520.436 158.847 520.533 156.419C520.584 149.382 520.51 142.345 520.602 135.308Z" fill="white"/>
<path d="M502.591 143.982C503.611 141.513 506.149 140.032 508.692 139.589C511.806 139.169 515.027 139.46 517.953 140.632C517.935 142.741 517.939 144.85 517.944 146.954C515.3 145.717 512.296 144.882 509.388 145.583C508.581 146.243 508.789 147.563 509.73 147.988C512.157 149.284 515.106 149.598 517.196 151.513C520.311 154.3 519.771 159.976 516.31 162.26C512.148 165.001 506.777 164.254 502.347 162.597C502.282 160.433 502.314 158.269 502.291 156.105C505.065 157.401 508.147 158.679 511.262 158.02C512.476 157.747 512.655 155.929 511.626 155.32C509.172 153.802 506.08 153.497 503.888 151.518C501.751 149.7 501.594 146.437 502.591 143.982Z" fill="white"/>
<path d="M563.721 141.485C565.248 140.267 567.08 139.284 569.096 139.417C572.562 139.274 575.585 141.799 576.987 144.817C578.819 148.854 578.815 153.589 577.389 157.756C576.383 160.649 574.025 163.182 570.947 163.828C568.635 164.53 566.24 163.662 564.288 162.426C564.293 164.936 564.279 167.451 564.274 169.966C562.022 170.487 559.757 170.93 557.505 171.438C557.496 160.894 557.5 150.349 557.5 139.801C559.498 139.787 561.496 139.787 563.494 139.81C563.55 140.23 563.665 141.065 563.721 141.485ZM564.27 147.636C564.26 150.746 564.316 153.861 564.279 156.976C565.433 157.677 566.757 158.337 568.151 158.009C569.996 157.617 571.002 155.767 571.422 154.078C571.907 151.771 571.768 149.191 570.462 147.165C569.775 146.099 568.584 145.25 567.265 145.403C565.996 145.403 564.007 146.016 564.27 147.636Z" fill="white"/>
<path d="M583.056 142.215C586.614 138.422 593.545 138.362 596.881 142.483C599.627 145.708 599.95 150.194 599.728 154.245C595.266 154.301 590.804 154.153 586.346 154.328C586.706 155.856 587.5 157.471 589.129 157.951C592.216 158.795 595.515 158.126 598.413 156.913C598.399 158.721 598.404 160.53 598.39 162.344C594.426 164.18 589.655 164.794 585.58 162.948C582.313 161.49 580.223 158.094 579.83 154.61C579.189 150.305 579.904 145.432 583.056 142.215ZM586.309 149.216C588.681 149.229 591.058 149.229 593.43 149.211C593.462 147.144 592.161 144.832 589.881 144.799C587.615 144.919 586.314 147.125 586.309 149.216Z" fill="white"/>
<path d="M534.548 139.833C536.491 139.828 538.433 139.828 540.381 139.837C540.51 140.465 540.634 141.097 540.764 141.729C542.042 139.883 544.275 139.159 546.435 139.699C546.43 141.789 546.426 143.884 546.44 145.975C544.608 145.707 542.706 145.961 541.308 147.267C541.257 152.698 541.35 158.134 541.257 163.57C539.019 163.533 536.786 163.542 534.548 163.542C534.557 155.637 534.479 147.737 534.548 139.833Z" fill="white"/>
<path d="M548.063 139.838C550.347 139.824 552.636 139.829 554.925 139.834C554.93 147.734 554.93 155.638 554.925 163.543C552.641 163.548 550.357 163.543 548.073 163.548C548.049 155.643 548.073 147.738 548.063 139.838Z" fill="white"/>
<path fill-rule="evenodd" clip-rule="evenodd" d="M687.219 134.744C687.239 134.82 687.25 134.898 687.25 134.977V147.185C687.25 147.342 687.208 147.496 687.13 147.631C687.051 147.767 686.938 147.879 686.802 147.957L676.556 153.857V165.55C676.556 165.868 676.386 166.162 676.111 166.322L654.721 178.635C654.672 178.663 654.619 178.681 654.565 178.7C654.545 178.707 654.527 178.719 654.505 178.724C654.356 178.764 654.199 178.764 654.049 178.724C654.025 178.718 654.002 178.704 653.979 178.695C653.93 178.678 653.879 178.662 653.832 178.635L632.447 166.322C632.311 166.244 632.199 166.132 632.12 165.996C632.042 165.861 632 165.707 632 165.55V128.925C632 128.845 632.011 128.767 632.031 128.691C632.038 128.665 632.053 128.642 632.062 128.616C632.079 128.57 632.095 128.522 632.119 128.478C632.136 128.449 632.16 128.426 632.18 128.399C632.206 128.364 632.229 128.327 632.259 128.296C632.285 128.27 632.318 128.251 632.347 128.229C632.379 128.202 632.408 128.174 632.445 128.152L643.139 121.996C643.275 121.918 643.428 121.877 643.584 121.877C643.74 121.877 643.894 121.918 644.029 121.996L654.722 128.152H654.725C654.76 128.175 654.79 128.202 654.822 128.228C654.851 128.25 654.884 128.27 654.909 128.295C654.94 128.327 654.963 128.364 654.989 128.399C655.008 128.426 655.034 128.449 655.049 128.478C655.075 128.523 655.09 128.57 655.107 128.616C655.116 128.642 655.132 128.665 655.138 128.692C655.159 128.768 655.169 128.846 655.17 128.925V151.801L664.08 146.67V134.975C664.08 134.898 664.091 134.819 664.111 134.744C664.119 134.717 664.134 134.694 664.142 134.668C664.16 134.622 664.176 134.574 664.2 134.53C664.217 134.501 664.241 134.478 664.26 134.451C664.287 134.416 664.309 134.379 664.34 134.348C664.366 134.322 664.398 134.303 664.427 134.281C664.461 134.254 664.49 134.225 664.525 134.204L675.22 128.048C675.356 127.97 675.509 127.929 675.665 127.929C675.822 127.929 675.975 127.97 676.111 128.048L686.804 134.204C686.841 134.227 686.87 134.254 686.904 134.28C686.931 134.302 686.964 134.322 686.989 134.347C687.021 134.379 687.043 134.416 687.069 134.451C687.09 134.478 687.114 134.501 687.13 134.53C687.155 134.574 687.17 134.622 687.187 134.668C687.197 134.694 687.212 134.717 687.219 134.744ZM685.467 146.67V136.518L681.725 138.672L676.556 141.648V151.801L685.468 146.67H685.467ZM674.774 165.035V154.876L669.689 157.78L655.169 166.067V176.322L674.774 165.035ZM633.783 130.466V165.035L653.386 176.321V166.069L643.145 160.273L643.141 160.27L643.137 160.268C643.102 160.248 643.074 160.219 643.041 160.195C643.013 160.172 642.981 160.155 642.957 160.13L642.954 160.127C642.926 160.099 642.906 160.064 642.881 160.033C642.859 160.003 642.832 159.978 642.814 159.947L642.813 159.943C642.793 159.91 642.781 159.87 642.766 159.832C642.752 159.799 642.733 159.767 642.724 159.732C642.713 159.69 642.711 159.644 642.706 159.6C642.702 159.567 642.693 159.534 642.693 159.5V135.596L637.525 132.619L633.783 130.466ZM643.585 123.796L634.676 128.925L643.583 134.053L652.491 128.924L643.583 123.796H643.585ZM648.219 155.802L653.387 152.826V130.466L649.645 132.62L644.476 135.596V157.957L648.219 155.802ZM675.665 129.848L666.757 134.977L675.665 140.105L684.573 134.975L675.665 129.848ZM674.774 141.648L669.605 138.672L665.863 136.518V146.67L671.031 149.645L674.774 151.801V141.648ZM654.276 164.526L667.343 157.067L673.874 153.339L664.972 148.214L654.723 154.115L645.382 159.493L654.276 164.526Z" fill="white"/>
<path d="M773.973 151.915C773.973 148.34 769.495 144.951 762.63 142.85C764.215 135.853 763.51 130.286 760.408 128.504C759.693 128.086 758.857 127.888 757.944 127.888V130.341C758.45 130.341 758.857 130.44 759.198 130.627C760.694 131.485 761.343 134.753 760.837 138.955C760.716 139.989 760.518 141.079 760.276 142.19C758.12 141.662 755.765 141.255 753.29 140.991C751.805 138.955 750.265 137.107 748.714 135.49C752.3 132.156 755.666 130.33 757.955 130.33V127.877C754.929 127.877 750.969 130.033 746.964 133.774C742.96 130.055 738.999 127.921 735.974 127.921V130.374C738.251 130.374 741.629 132.189 745.215 135.501C743.675 137.118 742.135 138.955 740.672 140.991C738.185 141.255 735.831 141.662 733.675 142.201C733.422 141.101 733.235 140.033 733.103 139.01C732.586 134.808 733.224 131.54 734.709 130.671C735.039 130.473 735.468 130.385 735.974 130.385V127.932C735.05 127.932 734.214 128.13 733.488 128.548C730.396 130.33 729.703 135.886 731.298 142.861C724.456 144.973 720 148.351 720 151.915C720 155.49 724.478 158.879 731.342 160.98C729.758 167.977 730.462 173.544 733.565 175.326C734.28 175.744 735.116 175.942 736.04 175.942C739.065 175.942 743.026 173.786 747.03 170.045C751.035 173.764 754.995 175.898 758.021 175.898C758.945 175.898 759.781 175.7 760.507 175.282C763.598 173.5 764.292 167.944 762.696 160.969C769.517 158.868 773.973 155.479 773.973 151.915ZM759.649 144.577C759.242 145.996 758.736 147.459 758.164 148.923C757.713 148.042 757.24 147.162 756.723 146.282C756.217 145.402 755.677 144.544 755.138 143.708C756.701 143.939 758.208 144.225 759.649 144.577ZM754.61 156.294C753.752 157.779 752.872 159.187 751.959 160.496C750.32 160.639 748.659 160.716 746.986 160.716C745.325 160.716 743.664 160.639 742.036 160.507C741.123 159.198 740.232 157.801 739.373 156.327C738.537 154.885 737.778 153.422 737.085 151.948C737.767 150.474 738.537 149 739.362 147.558C740.221 146.073 741.101 144.665 742.014 143.356C743.653 143.213 745.314 143.136 746.986 143.136C748.648 143.136 750.309 143.213 751.937 143.345C752.85 144.654 753.741 146.051 754.599 147.525C755.435 148.967 756.195 150.43 756.888 151.904C756.195 153.378 755.435 154.852 754.61 156.294ZM758.164 154.863C758.758 156.338 759.264 157.812 759.682 159.242C758.241 159.594 756.723 159.891 755.149 160.122C755.688 159.275 756.228 158.406 756.734 157.515C757.24 156.635 757.713 155.743 758.164 154.863ZM747.008 166.602C745.985 165.546 744.962 164.369 743.95 163.081C744.94 163.125 745.952 163.158 746.975 163.158C748.01 163.158 749.033 163.136 750.034 163.081C749.044 164.369 748.021 165.546 747.008 166.602ZM738.823 160.122C737.261 159.891 735.754 159.605 734.313 159.253C734.72 157.834 735.226 156.371 735.798 154.907C736.249 155.787 736.722 156.668 737.239 157.548C737.756 158.428 738.284 159.286 738.823 160.122ZM746.953 137.228C747.977 138.284 749 139.461 750.012 140.749C749.022 140.705 748.01 140.672 746.986 140.672C745.952 140.672 744.929 140.694 743.928 140.749C744.918 139.461 745.941 138.284 746.953 137.228ZM738.812 143.708C738.273 144.555 737.734 145.424 737.228 146.315C736.722 147.195 736.249 148.075 735.798 148.956C735.204 147.481 734.698 146.007 734.28 144.577C735.721 144.236 737.239 143.939 738.812 143.708ZM728.856 157.482C724.962 155.82 722.442 153.642 722.442 151.915C722.442 150.188 724.962 147.998 728.856 146.348C729.802 145.941 730.836 145.578 731.903 145.237C732.531 147.393 733.356 149.638 734.379 151.937C733.367 154.225 732.553 156.459 731.936 158.604C730.847 158.263 729.813 157.889 728.856 157.482ZM734.775 173.203C733.279 172.345 732.63 169.077 733.136 164.875C733.257 163.84 733.455 162.751 733.697 161.64C735.853 162.168 738.207 162.575 740.683 162.839C742.168 164.875 743.708 166.723 745.259 168.34C741.673 171.673 738.306 173.5 736.018 173.5C735.523 173.489 735.105 173.39 734.775 173.203ZM760.87 164.82C761.387 169.022 760.749 172.29 759.264 173.159C758.934 173.357 758.505 173.445 757.999 173.445C755.721 173.445 752.344 171.629 748.758 168.318C750.298 166.701 751.838 164.864 753.301 162.828C755.787 162.564 758.142 162.157 760.298 161.618C760.551 162.729 760.749 163.796 760.87 164.82ZM765.106 157.482C764.16 157.889 763.125 158.252 762.058 158.593C761.431 156.437 760.606 154.192 759.583 151.893C760.595 149.605 761.409 147.371 762.025 145.226C763.114 145.567 764.149 145.941 765.117 146.348C769.011 148.009 771.53 150.188 771.53 151.915C771.519 153.642 769 155.831 765.106 157.482Z" fill="white"/>
<path d="M746.975 156.942C749.752 156.942 752.003 154.691 752.003 151.914C752.003 149.138 749.752 146.887 746.975 146.887C744.199 146.887 741.948 149.138 741.948 151.914C741.948 154.691 744.199 156.942 746.975 156.942Z" fill="white"/>
<path d="M57.0615 153.725C57.0615 156.104 56.4006 157.923 55.0801 159.181C53.7589 160.44 51.8561 161.069 49.3715 161.069H45.3394V146.656H49.7954C52.089 146.656 53.8735 147.274 55.1487 148.51C56.4239 149.745 57.0615 151.484 57.0615 153.725ZM54.5772 153.804C54.5772 150.353 52.9636 148.628 49.7365 148.628H47.6962V159.088H49.3718C52.8418 159.088 54.5772 157.327 54.5772 153.804ZM63.4609 161.267C61.7649 161.267 60.4387 160.773 59.4826 159.783C58.5268 158.794 58.0478 157.432 58.0478 155.697C58.0478 153.916 58.4916 152.517 59.3788 151.497C60.2656 150.479 61.4848 149.969 63.036 149.969C64.4756 149.969 65.6129 150.407 66.4475 151.28C67.2819 152.155 67.6998 153.358 67.6998 154.889V156.141H60.4337C60.4664 157.199 60.7528 158.012 61.2919 158.581C61.831 159.15 62.5898 159.434 63.5689 159.434C64.2131 159.434 64.8126 159.373 65.3684 159.251C65.9242 159.129 66.5203 158.928 67.1582 158.645V160.528C66.613 160.79 66.0365 160.983 65.4427 161.099C64.8642 161.211 64.2036 161.267 63.4609 161.267ZM63.037 151.724C62.3009 151.724 61.7111 151.957 61.2677 152.424C60.8239 152.89 60.5596 153.571 60.4743 154.464H65.4238C65.4106 153.564 65.194 152.882 64.7733 152.418C64.3516 151.955 63.7731 151.724 63.037 151.724ZM71.6051 161.07L67.4647 150.166H69.91L72.1281 156.505C72.5093 157.57 72.739 158.431 72.818 159.088H72.8967C72.9558 158.615 73.1859 157.755 73.5865 156.505L75.8053 150.166H78.2692L74.1093 161.07H71.6051ZM83.4761 161.267C81.7801 161.267 80.4542 160.773 79.4978 159.783C78.5417 158.794 78.063 157.432 78.063 155.697C78.063 153.916 78.5065 152.517 79.3939 151.497C80.2811 150.479 81.5003 149.969 83.0516 149.969C84.4907 149.969 85.6284 150.407 86.4627 151.28C87.297 152.155 87.715 153.358 87.715 154.889V156.141H80.4492C80.4819 157.199 80.7683 158.012 81.3071 158.581C81.8462 159.15 82.6053 159.434 83.5841 159.434C84.2286 159.434 84.8278 159.373 85.3836 159.251C85.9391 159.129 86.5354 158.928 87.1737 158.645V160.528C86.6285 160.79 86.052 160.982 85.4582 161.099C84.8794 161.211 84.2191 161.267 83.4761 161.267ZM83.0522 151.724C82.3161 151.724 81.7263 151.957 81.2826 152.424C80.8391 152.89 80.5744 153.571 80.4892 154.464H85.4387C85.4254 153.564 85.2089 152.882 84.7885 152.418C84.3667 151.955 83.7883 151.724 83.0522 151.724ZM91.4528 161.07H89.1366V145.729H91.4528V161.07ZM103.225 155.598C103.225 157.379 102.768 158.769 101.855 159.768C100.941 160.767 99.6697 161.267 98.0395 161.267C97.0208 161.267 96.1201 161.037 95.3383 160.577C94.5562 160.117 93.9548 159.456 93.5347 158.595C93.1139 157.735 92.9037 156.735 92.9037 155.599C92.9037 153.831 93.3566 152.451 94.2639 151.458C95.1709 150.466 96.4486 149.97 98.099 149.97C99.677 149.97 100.925 150.477 101.845 151.493C102.765 152.507 103.225 153.876 103.225 155.598ZM95.2892 155.598C95.2892 158.115 96.2189 159.374 98.0792 159.374C99.9193 159.374 100.84 158.115 100.84 155.598C100.84 153.107 99.9136 151.861 98.0593 151.861C97.0865 151.861 96.3822 152.183 95.9448 152.827C95.5076 153.472 95.2892 154.395 95.2892 155.598ZM110.206 161.267C108.826 161.267 107.755 160.771 106.992 159.778H106.855C106.947 160.699 106.992 161.257 106.992 161.454V165.92H104.676V150.166H106.549C106.602 150.369 106.71 150.856 106.874 151.625H106.992C107.715 150.521 108.8 149.969 110.246 149.969C111.606 149.969 112.666 150.461 113.426 151.448C114.185 152.433 114.564 153.817 114.564 155.598C114.564 157.379 114.177 158.769 113.406 159.768C112.633 160.767 111.567 161.267 110.206 161.267ZM109.645 151.862C108.724 151.862 108.052 152.131 107.629 152.67C107.205 153.209 106.992 154.07 106.992 155.253V155.598C106.992 156.926 107.203 157.887 107.623 158.482C108.044 159.077 108.731 159.374 109.684 159.374C110.486 159.374 111.104 159.046 111.538 158.388C111.971 157.731 112.188 156.795 112.188 155.578C112.188 154.356 111.972 153.431 111.542 152.804C111.112 152.175 110.479 151.862 109.645 151.862ZM120.805 161.267C119.11 161.267 117.783 160.773 116.827 159.783C115.871 158.794 115.392 157.432 115.392 155.697C115.392 153.916 115.836 152.517 116.723 151.497C117.61 150.479 118.829 149.969 120.381 149.969C121.819 149.969 122.957 150.407 123.792 151.28C124.626 152.155 125.044 153.358 125.044 154.889V156.141H117.779C117.812 157.199 118.098 158.012 118.637 158.581C119.176 159.15 119.935 159.434 120.914 159.434C121.558 159.434 122.158 159.373 122.713 159.251C123.269 159.129 123.865 158.928 124.504 158.645V160.528C123.958 160.79 123.382 160.983 122.788 161.099C122.209 161.211 121.549 161.267 120.805 161.267ZM120.382 151.724C119.645 151.724 119.055 151.957 118.612 152.424C118.169 152.89 117.904 153.571 117.819 154.464H122.768C122.755 153.564 122.538 152.882 122.118 152.418C121.696 151.955 121.118 151.724 120.382 151.724ZM131.996 149.969C132.463 149.969 132.847 150.001 133.15 150.067L132.923 152.226C132.587 152.146 132.243 152.106 131.897 152.107C130.971 152.107 130.22 152.41 129.645 153.014C129.069 153.619 128.782 154.405 128.782 155.37V161.068H126.466V150.166H128.28L128.586 152.088H128.704C129.065 151.438 129.537 150.922 130.119 150.541C130.7 150.159 131.326 149.969 131.996 149.969ZM141.285 157.964C141.285 159.029 140.897 159.846 140.121 160.414C139.346 160.983 138.235 161.266 136.789 161.266C135.337 161.266 134.17 161.047 133.289 160.605V158.605C134.571 159.197 135.764 159.492 136.868 159.492C138.294 159.492 139.007 159.061 139.007 158.2C139.007 157.924 138.928 157.694 138.771 157.51C138.613 157.326 138.353 157.136 137.992 156.939C137.63 156.742 137.127 156.518 136.483 156.268C135.228 155.782 134.379 155.296 133.934 154.809C133.491 154.323 133.269 153.692 133.269 152.916C133.269 151.983 133.645 151.258 134.398 150.742C135.151 150.227 136.174 149.968 137.469 149.968C138.751 149.968 139.964 150.228 141.107 150.748L140.358 152.492C139.181 152.006 138.192 151.763 137.39 151.763C136.167 151.763 135.557 152.111 135.557 152.808C135.557 153.15 135.716 153.439 136.035 153.676C136.354 153.912 137.05 154.237 138.121 154.652C139.02 155 139.675 155.319 140.082 155.608C140.489 155.897 140.792 156.231 140.989 156.609C141.186 156.986 141.285 157.439 141.285 157.964Z" fill="white"/>
<path d="M74.8024 141.322C74.511 141.475 74.0748 141.534 73.7371 141.539C73.0495 141.553 72.4965 141.081 72.1393 140.527C71.9019 140.164 71.759 139.748 71.7239 139.316C71.6644 138.641 71.8309 137.862 72.5919 137.67C73.1052 137.542 73.5838 137.826 73.773 138.316C73.8573 138.544 73.8057 138.656 73.6005 138.739L71.7629 139.511L72.3876 139.55C73.136 139.239 73.9691 138.95 74.7152 138.64C74.8695 138.575 74.8833 138.563 74.8232 138.4C74.5009 137.477 73.2824 136.977 72.24 137.411C71.4221 137.752 70.8285 138.618 70.8285 139.59C70.8285 140.897 71.7683 142.058 73.0529 142.058C73.6374 142.058 74.0562 141.978 74.4289 141.744C74.5088 141.668 74.9563 141.306 74.9642 141.229C74.9639 141.21 74.8975 141.266 74.8024 141.322ZM69.9609 141.118C69.9738 139.283 69.9278 137.439 70.004 135.602C70.0175 135.446 70.032 135.267 70.0918 135.174C70.1742 135.047 70.2388 134.995 70.4279 134.871H69.0564C68.7832 134.992 68.5393 135.18 68.2759 135.313C68.5531 135.304 68.8046 135.309 69.0787 135.302C68.9604 137.146 69.0343 138.985 69.0252 140.898C69.0397 141.468 68.9245 141.617 68.7048 141.846C69.2921 141.846 69.8504 141.857 70.4395 141.857C70.561 141.785 70.7184 141.624 70.8163 141.539C70.1657 141.558 69.9712 141.619 69.9609 141.118Z" fill="white"/>
<path d="M68.5457 137.401C67.719 137.393 66.8924 137.391 66.0657 137.393C65.2443 137.393 64.5044 137.792 64.1708 138.505C64.0188 138.833 63.9574 139.255 64.0531 139.655C64.2482 140.449 65.075 140.973 65.8797 140.851C65.9682 140.839 65.9971 140.812 65.9486 140.891C65.7721 141.203 65.903 141.669 66.2498 141.894C65.9988 141.877 65.7467 141.881 65.4964 141.907C64.517 142.023 63.429 142.529 63.4863 143.585C63.5282 144.407 64.3593 145.012 65.672 145.013C66.7329 145.012 67.7261 144.675 68.1438 143.928C68.5853 143.141 68.3266 142.327 67.6632 141.833C67.362 141.608 66.8377 141.297 66.8701 140.869C66.8811 140.724 66.9891 140.568 67.1914 140.447C67.5559 140.236 67.8026 139.957 67.9254 139.632C68.0522 139.29 68.0339 138.915 67.9081 138.577C67.7881 138.262 67.5738 137.974 67.2906 137.78H67.9568L68.5457 137.401ZM66.8811 142.382C67.4596 142.747 67.6456 143.192 67.5971 143.605C67.5405 144.103 67.0605 144.492 66.2467 144.541C65.3724 144.595 64.2007 144.251 64.4176 143.104C64.5349 142.493 65.3463 142.18 66.0122 142.158C66.2023 142.152 66.3874 142.165 66.5718 142.171C66.6722 142.243 66.7779 142.311 66.8811 142.382ZM66.4383 140.538C65.8501 140.701 65.2028 140.242 64.9951 139.427C64.7619 138.528 64.9988 137.958 65.5537 137.786C66.2086 137.58 66.9088 138.174 67.0681 139.142C67.1741 139.775 67.0117 140.377 66.4383 140.538ZM63.5508 139.542C63.4788 138.314 62.6552 137.267 61.0803 137.267C59.7186 137.267 58.6032 138.328 58.6032 139.632C58.6032 141.125 59.8998 142.146 61.3821 141.987C62.6133 141.856 63.6238 140.763 63.5508 139.542ZM61.5527 141.621C60.7247 141.808 59.8463 141.124 59.6308 139.962C59.3887 138.685 59.7856 137.843 60.5651 137.636C61.4907 137.393 62.4323 138.324 62.5674 139.698C62.6596 140.596 62.3574 141.435 61.5527 141.621ZM55.6827 137.266C54.3017 137.266 53.1741 138.328 53.1741 139.632C53.1741 141.125 54.4836 142.146 55.9854 141.986C57.2342 141.856 58.2545 140.763 58.1777 139.541C58.1022 138.314 57.2723 137.266 55.6827 137.266ZM56.1573 141.621C55.3207 141.808 54.4342 141.124 54.2142 139.962C53.9703 138.685 54.3725 137.843 55.1621 137.636C56.0962 137.393 57.0466 138.324 57.1854 139.698C57.2761 140.596 56.9724 141.435 56.1573 141.621ZM49.9221 140.129L51.4356 140.084V141.392C51.4356 141.58 51.4381 141.607 51.1303 141.706C50.6995 141.821 50.2139 141.845 49.7686 141.807C48.2586 141.679 47.1095 140.485 46.8364 139C46.5742 137.586 47.2442 136.25 48.3687 135.702C48.9179 135.433 49.5785 135.304 50.2938 135.536C50.7401 135.675 51.1489 135.937 51.5029 136.292L51.255 136.737L51.7204 136.613L52.4351 135.878C51.2194 134.874 49.1328 134.743 47.7497 135.44C46.5481 136.05 45.6729 137.256 45.632 138.605C45.5829 140.02 46.4137 141.146 47.2493 141.707C48.6315 142.64 51.0255 142.434 52.4691 141.703L52.4631 141.569H52.4691V140.084L52.803 139.688H50.7023L49.9221 140.129Z" fill="white"/>
<path d="M31.9911 154.742C32.3666 155.363 32.3747 156.343 32.0506 157.017L36.5265 149.562C36.9265 148.894 36.9265 147.805 36.5265 147.14L29.2927 135.088C28.8912 134.424 27.9278 133.877 27.1511 133.877H20.8458C20.0704 133.877 19.7616 134.424 20.1613 135.088L24.6652 142.586C24.6926 142.624 24.7313 142.658 24.7549 142.693L31.9911 154.742Z" fill="white"/>
<path d="M20.8468 162.819H27.1521C27.9291 162.819 28.8919 162.276 29.2941 161.607L32.0525 157.015C32.3761 156.342 32.3685 155.362 31.9931 154.741L27.4014 147.138C27.8001 147.802 27.8001 148.892 27.4014 149.559L22.923 157.01C22.8997 157.06 22.889 157.118 22.8638 157.164L20.1154 161.74C19.8341 162.342 20.1236 162.819 20.8468 162.819Z" fill="white"/>
<path d="M4.83598 141.954C4.4643 141.333 4.45202 140.353 4.7787 139.68L0.300001 147.136C-0.1 147.804 -0.1 148.893 0.300001 149.559L7.53843 161.608C7.9378 162.273 8.90177 162.82 9.67565 162.82H15.9809C16.7592 162.82 17.0683 162.274 16.6683 161.608L12.1625 154.111C12.1373 154.072 12.0964 154.039 12.0741 154.003L4.83598 141.954Z" fill="white"/>
<path d="M15.9809 133.877H9.67559C8.90171 133.877 7.93774 134.42 7.53837 135.088L4.77833 139.68C4.45165 140.353 4.46393 141.333 4.8356 141.955L9.43012 149.559C9.03012 148.894 9.03012 147.804 9.43012 147.136L13.9063 139.686C13.928 139.636 13.9393 139.579 13.9686 139.531L16.7157 134.956C16.9965 134.355 16.7041 133.877 15.9809 133.877Z" fill="white"/>
<path d="M4.8363 141.954L9.43081 149.559C9.03081 148.893 9.03081 147.803 9.43081 147.136L11.0481 144.443L4.77934 139.68C4.45266 140.353 4.46494 141.333 4.8363 141.954Z" fill="white"/>
<path d="M846.886 121.877L819 149.763L827.631 158.394L864.149 121.877H846.886Z" fill="white"/>
<path d="M846.692 147.593L831.761 162.524L840.424 171.317L849.04 162.702L864.149 147.593H846.692Z" fill="white"/>
<path d="M840.425 171.318L846.983 177.876H864.149L849.04 162.702L840.425 171.318Z" fill="#D1D1D1"/>
<path d="M831.664 162.622L840.295 153.99L849.04 162.703L840.424 171.318L831.664 162.622Z" fill="#FAFAFA"/>
<path d="M840.425 171.317L847.598 168.937L848.311 163.431L840.425 171.317Z" fill="url(#paint1_linear_475_1228)" fill-opacity="0.8"/>
<defs>
<linearGradient id="paint0_linear_475_1228" x1="871.589" y1="254.438" x2="1438.99" y2="458.9" gradientUnits="userSpaceOnUse">
<stop/>
<stop offset="1" stop-opacity="0"/>
</linearGradient>
<linearGradient id="paint1_linear_475_1228" x1="871.589" y1="376.315" x2="1438.99" y2="580.777" gradientUnits="userSpaceOnUse">
<stop/>
<stop offset="1" stop-opacity="0"/>
</linearGradient>
</defs>
</svg>
