<svg width="47" height="34" viewBox="0 0 47 34" fill="none" xmlns="http://www.w3.org/2000/svg">
<path d="M21.0951 3.90988V23.153C21.0922 25.9359 19.9854 28.604 18.0176 30.5718C16.0498 32.5396 13.3817 33.6463 10.5989 33.6492C10.1349 33.6492 9.68993 33.4649 9.36186 33.1369C9.03378 32.8088 8.84948 32.3638 8.84948 31.8999C8.84948 31.4359 9.03378 30.9909 9.36186 30.6629C9.68993 30.3348 10.1349 30.1505 10.5989 30.1505C12.4547 30.1505 14.2345 29.4132 15.5468 28.101C16.8591 26.7887 17.5963 25.0088 17.5963 23.153V21.4036H4.47604C3.54812 21.4036 2.6582 21.035 2.00205 20.3789C1.34591 19.7227 0.977295 18.8328 0.977295 17.9049V3.90988C0.977295 2.98195 1.34591 2.09203 2.00205 1.43589C2.6582 0.77975 3.54812 0.411133 4.47604 0.411133H17.5963C18.5243 0.411133 19.4142 0.77975 20.0703 1.43589C20.7265 2.09203 21.0951 2.98195 21.0951 3.90988ZM42.9623 0.411133H29.842C28.914 0.411133 28.0241 0.77975 27.368 1.43589C26.7118 2.09203 26.3432 2.98195 26.3432 3.90988V17.9049C26.3432 18.8328 26.7118 19.7227 27.368 20.3789C28.0241 21.035 28.914 21.4036 29.842 21.4036H42.9623V23.153C42.9623 25.0088 42.225 26.7887 40.9127 28.101C39.6005 29.4132 37.8206 30.1505 35.9648 30.1505C35.5008 30.1505 35.0558 30.3348 34.7278 30.6629C34.3997 30.9909 34.2154 31.4359 34.2154 31.8999C34.2154 32.3638 34.3997 32.8088 34.7278 33.1369C35.0558 33.4649 35.5008 33.6492 35.9648 33.6492C38.7477 33.6463 41.4157 32.5396 43.3835 30.5718C45.3513 28.604 46.4581 25.9359 46.461 23.153V3.90988C46.461 2.98195 46.0924 2.09203 45.4362 1.43589C44.7801 0.77975 43.8902 0.411133 42.9623 0.411133Z" fill="#9FFE00"/>
</svg>
