<svg width="34" height="37" viewBox="0 0 34 37" fill="none" xmlns="http://www.w3.org/2000/svg">
<path fill-rule="evenodd" clip-rule="evenodd" d="M22.1547 3.36025C19.8589 -0.552863 14.2014 -0.552865 11.9055 3.36025L11.8221 3.50237C10.7629 5.30761 8.83205 6.4224 6.73907 6.43706L6.5743 6.43821C2.03748 6.46998 -0.791234 11.3695 1.44965 15.3143L1.53104 15.4576C2.56484 17.2775 2.56484 19.5072 1.53104 21.327L1.44965 21.4702C-0.791234 25.4152 2.03748 30.3146 6.5743 30.3464L6.73907 30.3475C8.83203 30.3622 10.7629 31.4771 11.8221 33.2822L11.9055 33.4243C14.2014 37.3375 19.8589 37.3375 22.1547 33.4243L22.2381 33.2822C23.2974 31.4771 25.2281 30.3622 27.3211 30.3475L27.486 30.3464C32.0229 30.3146 34.8516 25.4152 32.6106 21.4702L32.5292 21.327C31.4953 19.5072 31.4953 17.2775 32.5292 15.4576L32.6106 15.3143C34.8516 11.3695 32.0229 6.46998 27.486 6.43821L27.3211 6.43706C25.2281 6.4224 23.2974 5.30761 22.2381 3.50237L22.1547 3.36025ZM17.0302 27.3046C21.9522 27.3046 25.9425 23.3145 25.9425 18.3923C25.9425 13.4701 21.9522 9.47992 17.0302 9.47992C12.108 9.47992 8.11774 13.4701 8.11774 18.3923C8.11774 23.3145 12.108 27.3046 17.0302 27.3046Z" fill="#9FFE00"/>
</svg>
