<svg width="95" height="95" viewBox="0 0 95 95" fill="none" xmlns="http://www.w3.org/2000/svg">
<circle cx="47.2045" cy="47.313" r="46.9158" fill="#9FFE00"/>
<path d="M32.5803 26.7487C32.8889 25.1989 33.6378 23.7709 34.7373 22.6358C35.8367 21.5007 37.2401 20.7066 38.7793 20.3486C40.3185 19.9907 41.9282 20.0841 43.4157 20.6175C44.9032 21.151 46.2053 22.102 47.1662 23.3566C48.127 22.102 49.4292 21.151 50.9166 20.6175C52.4041 20.0841 54.0139 19.9907 55.5531 20.3486C57.0923 20.7066 58.4956 21.5007 59.5951 22.6358C60.6945 23.7709 61.4434 25.1989 61.752 26.7487L62.176 28.8755L63.5532 29.1503C65.6275 29.5664 67.4938 30.6877 68.835 32.3239C70.1762 33.96 70.9096 36.0101 70.9106 38.1257V38.7973C70.9106 41.26 69.8591 43.4784 68.18 45.0285C70.2309 46.0448 71.9143 47.6745 72.9965 49.6914C74.0787 51.7083 74.5058 54.0121 74.2186 56.2829C73.9314 58.5537 72.9441 60.6786 71.3939 62.3625C69.8436 64.0465 67.8074 65.2058 65.5681 65.6794L65.4426 66.3069C65.0518 68.2624 64.09 70.0581 62.6788 71.467C61.2676 72.876 59.4704 73.8349 57.5144 74.2226C55.5583 74.6104 53.5312 74.4095 51.6893 73.6453C49.8474 72.8812 48.2733 71.5882 47.1662 69.9297C46.059 71.5882 44.485 72.8812 42.643 73.6453C40.8011 74.4095 38.774 74.6104 36.818 74.2226C34.8619 73.8349 33.0647 72.876 31.6535 71.467C30.2423 70.0581 29.2806 68.2624 28.8897 66.3069L28.7642 65.6794C26.5249 65.2058 24.4887 64.0465 22.9384 62.3625C21.3882 60.6786 20.4009 58.5537 20.1137 56.2829C19.8265 54.0121 20.2537 51.7083 21.3358 49.6914C22.418 47.6745 24.1015 46.0448 26.1523 45.0285C25.2917 44.2347 24.6047 43.2712 24.1348 42.1988C23.6648 41.1263 23.422 39.9682 23.4217 38.7973V38.1257C23.4227 36.0101 24.1561 33.96 25.4973 32.3239C26.8385 30.6877 28.7048 29.5664 30.7791 29.1503L32.1563 28.8789L32.5803 26.7487ZM60.7344 50.3812V52.3656C60.7344 53.715 60.1983 55.0092 59.2441 55.9634C58.2899 56.9176 56.9958 57.4537 55.6463 57.4537H48.8622V64.3294C48.865 65.9882 49.4837 67.5868 50.5984 68.8153C51.7131 70.0438 53.2443 70.8145 54.895 70.978C56.5458 71.1415 58.1984 70.6861 59.5324 69.7002C60.8665 68.7143 61.7868 67.2681 62.115 65.6421L62.4644 63.9054C62.5301 63.5773 62.6914 63.276 62.9281 63.0394C63.1647 62.8028 63.466 62.6414 63.7941 62.5757L64.7811 62.3755C66.5863 62.0096 68.1979 61.0027 69.3183 59.5408C70.4388 58.079 70.9922 56.261 70.8764 54.4228C70.7606 52.5846 69.9834 50.8505 68.6884 49.5408C67.3934 48.2311 65.6681 47.4343 63.8314 47.2978C63.5766 48.0096 63.1665 48.6556 62.6308 49.1889C62.0951 49.7223 61.4473 50.1296 60.7344 50.3812ZM57.3424 50.3812C56.5402 50.0969 55.8222 49.6159 55.2541 48.9823C54.6859 48.3487 54.2858 47.5827 54.0902 46.7545C53.8947 45.9262 53.91 45.0622 54.1349 44.2414C54.3597 43.4206 54.7868 42.6693 55.3771 42.0563C55.9673 41.4432 56.702 40.9881 57.5137 40.7324C58.3254 40.4767 59.1883 40.4288 60.0233 40.5929C60.8584 40.757 61.6389 41.1279 62.2935 41.6717C62.9481 42.2155 63.4559 42.9148 63.7703 43.7056C64.8469 43.4118 65.797 42.7721 66.4743 41.8852C67.1516 40.9983 67.5185 39.9133 67.5185 38.7973V38.1257C67.5185 35.3781 65.5817 33.0172 62.8884 32.4779L60.402 31.9793C60.0739 31.9135 59.7726 31.7522 59.536 31.5156C59.2994 31.279 59.1381 30.9777 59.0723 30.6496L58.4244 27.4136C58.1918 26.2363 57.529 25.1879 56.5653 24.4729C55.6016 23.7578 54.4061 23.4274 53.212 23.546C52.0179 23.6646 50.9107 24.2238 50.1065 25.1144C49.3023 26.0051 48.8587 27.1633 48.8622 28.3633V54.0616H55.6463C56.0961 54.0616 56.5275 53.8829 56.8456 53.5648C57.1637 53.2468 57.3424 52.8154 57.3424 52.3656V50.3812ZM45.4701 33.7092V28.3599C45.4728 27.1602 45.0286 26.0026 44.2241 25.1126C43.4196 24.2226 42.3125 23.664 41.1186 23.5459C39.9248 23.4277 38.7297 23.7584 37.7664 24.4734C36.803 25.1885 36.1405 26.2366 35.9079 27.4136L35.2634 30.6496C35.1974 30.9781 35.0356 31.2798 34.7983 31.5164C34.5611 31.7531 34.259 31.9141 33.9303 31.9793L31.444 32.4779C30.1389 32.7402 28.9648 33.446 28.1208 34.4754C27.2769 35.5048 26.8151 36.7945 26.8138 38.1257V38.7973C26.8138 40.1468 27.3499 41.4409 28.3041 42.3951C29.2583 43.3493 30.5524 43.8854 31.9019 43.8854H35.2939C36.6434 43.8854 37.9376 44.4215 38.8918 45.3757C39.846 46.3299 40.382 47.6241 40.382 48.9735V50.9579C41.5137 51.3579 42.4674 52.1452 43.0747 53.1805C43.682 54.2157 43.9038 55.4324 43.7008 56.6154C43.4979 57.7983 42.8832 58.8715 41.9656 59.6451C41.0479 60.4187 39.8863 60.843 38.686 60.843C37.4857 60.843 36.3241 60.4187 35.4065 59.6451C34.4888 58.8715 33.8742 57.7983 33.6712 56.6154C33.4682 55.4324 33.69 54.2157 34.2973 53.1805C34.9046 52.1452 35.8584 51.3579 36.99 50.9579V48.9735C36.99 48.5237 36.8113 48.0923 36.4932 47.7742C36.1752 47.4562 35.7438 47.2775 35.2939 47.2775H31.0471C29.1587 47.2829 27.3395 47.9889 25.9417 49.2587C24.544 50.5285 23.6671 52.2718 23.4809 54.151C23.2947 56.0302 23.8125 57.9116 24.9339 59.431C26.0553 60.9504 27.7006 61.9996 29.5512 62.3755L30.5383 62.5757C30.8664 62.6414 31.1677 62.8028 31.4043 63.0394C31.6409 63.276 31.8022 63.5773 31.868 63.9054L32.2173 65.6421C32.5455 67.2681 33.4659 68.7143 34.7999 69.7002C36.1339 70.6861 37.7866 71.1415 39.4373 70.978C41.088 70.8145 42.6192 70.0438 43.7339 68.8153C44.8486 67.5868 45.4673 65.9882 45.4701 64.3294V37.1013H43.4858C43.0857 38.2329 42.2984 39.1866 41.2632 39.794C40.2279 40.4013 39.0112 40.623 37.8283 40.4201C36.6453 40.2171 35.5722 39.6025 34.7985 38.6848C34.0249 37.7671 33.6006 36.6055 33.6006 35.4053C33.6006 34.205 34.0249 33.0434 34.7985 32.1257C35.5722 31.208 36.6453 30.5934 37.8283 30.3904C39.0112 30.1875 40.2279 30.4092 41.2632 31.0165C42.2984 31.6239 43.0857 32.5776 43.4858 33.7092H45.4701ZM40.382 35.4053C40.382 34.9554 40.2034 34.524 39.8853 34.206C39.5672 33.8879 39.1358 33.7092 38.686 33.7092C38.2362 33.7092 37.8048 33.8879 37.4867 34.206C37.1687 34.524 36.99 34.9554 36.99 35.4053C36.99 35.8551 37.1687 36.2865 37.4867 36.6045C37.8048 36.9226 38.2362 37.1013 38.686 37.1013C39.1358 37.1013 39.5672 36.9226 39.8853 36.6045C40.2034 36.2865 40.382 35.8551 40.382 35.4053ZM38.686 57.4537C39.1358 57.4537 39.5672 57.275 39.8853 56.9569C40.2034 56.6388 40.382 56.2074 40.382 55.7576C40.382 55.3078 40.2034 54.8764 39.8853 54.5583C39.5672 54.2403 39.1358 54.0616 38.686 54.0616C38.2362 54.0616 37.8048 54.2403 37.4867 54.5583C37.1687 54.8764 36.99 55.3078 36.99 55.7576C36.99 56.2074 37.1687 56.6388 37.4867 56.9569C37.8048 57.275 38.2362 57.4537 38.686 57.4537ZM59.0384 47.2775C59.4882 47.2775 59.9196 47.0988 60.2377 46.7807C60.5557 46.4626 60.7344 46.0313 60.7344 45.5814C60.7344 45.1316 60.5557 44.7002 60.2377 44.3822C59.9196 44.0641 59.4882 43.8854 59.0384 43.8854C58.5886 43.8854 58.1572 44.0641 57.8391 44.3822C57.521 44.7002 57.3424 45.1316 57.3424 45.5814C57.3424 46.0313 57.521 46.4626 57.8391 46.7807C58.1572 47.0988 58.5886 47.2775 59.0384 47.2775Z" fill="black"/>
</svg>
