<svg width="28" height="38" viewBox="0 0 28 38" fill="none" xmlns="http://www.w3.org/2000/svg">
<path d="M7.42254 29.8054H20.9093V32.5027H7.42254V29.8054ZM10.1199 35.2001H18.2119V37.8974H10.1199V35.2001ZM14.1659 0.134521C10.589 0.134521 7.1586 1.55544 4.62935 4.0847C2.10009 6.61396 0.679169 10.0444 0.679169 13.6213C0.587964 15.5814 0.963434 17.5351 1.77469 19.3217C2.58595 21.1084 3.80981 22.6769 5.34559 23.8982C6.69426 25.1524 7.42254 25.8672 7.42254 27.108H10.1199C10.1199 24.6265 8.62287 23.2373 7.1663 21.9021C5.90577 20.9368 4.90116 19.6772 4.24045 18.2335C3.57975 16.7899 3.28311 15.2062 3.37652 13.6213C3.37652 10.7597 4.51326 8.01542 6.53666 5.99201C8.56007 3.96861 11.3044 2.83187 14.1659 2.83187C17.0274 2.83187 19.7718 3.96861 21.7952 5.99201C23.8186 8.01542 24.9553 10.7597 24.9553 13.6213C25.0472 15.2074 24.7485 16.7918 24.0854 18.2355C23.4223 19.6793 22.4151 20.9383 21.1521 21.9021C19.709 23.2508 18.2119 24.5995 18.2119 27.108H20.9093C20.9093 25.8672 21.6241 25.1524 22.9863 23.8847C24.521 22.6655 25.7443 21.0993 26.5555 19.315C27.3668 17.5307 27.7428 15.5793 27.6527 13.6213C27.6527 11.8502 27.3038 10.0964 26.6261 8.46012C25.9483 6.82383 24.9549 5.33706 23.7025 4.0847C22.4501 2.83234 20.9634 1.83891 19.3271 1.16114C17.6908 0.483367 15.937 0.134521 14.1659 0.134521Z" fill="#9FFE00"/>
</svg>
