<svg width="34" height="34" viewBox="0 0 34 34" fill="none" xmlns="http://www.w3.org/2000/svg">
<mask id="mask0_493_745" style="mask-type:luminance" maskUnits="userSpaceOnUse" x="0" y="0" width="34" height="34">
<path d="M33.3945 0.696655H0.665771V33.4254H33.3945V0.696655Z" fill="white"/>
</mask>
<g mask="url(#mask0_493_745)">
<path fill-rule="evenodd" clip-rule="evenodd" d="M0.665771 8.71519H5.16597H5.24779V8.71426C7.15313 8.67078 8.68431 7.11263 8.68431 5.19686V0.696655H9.66617V5.27868C9.66617 7.17662 11.2048 8.71519 13.1027 8.71519C15.0006 8.71519 16.5392 7.17662 16.5392 5.27868V0.696655H17.5211V5.27868C17.5211 7.17662 19.0596 8.71519 20.9576 8.71519C22.8555 8.71519 24.3941 7.17662 24.3941 5.27868V0.696655H25.5396V5.27868C25.5396 7.17662 27.0782 8.71519 28.9761 8.71519H33.3945V9.69706H28.8125C26.9145 9.69706 25.376 11.2356 25.376 13.1336C25.376 15.0315 26.9145 16.5701 28.8125 16.5701H33.3945V17.552H28.8125C26.9145 17.552 25.376 19.0905 25.376 20.9885C25.376 22.8864 26.9145 24.425 28.8125 24.425H33.3945V25.4068H28.9761C27.0782 25.4068 25.5396 26.9454 25.5396 28.8434V29.007V33.4254H24.3941V28.8434C24.3941 26.9454 22.8555 25.4068 20.9576 25.4068C19.0596 25.4068 17.5211 26.9454 17.5211 28.8434V33.4254H16.5392V28.8434C16.5392 26.9454 15.0006 25.4068 13.1027 25.4068C11.2048 25.4068 9.66617 26.9454 9.66617 28.8434V33.4254H8.68431V28.9252C8.68431 27.0094 7.15313 25.4512 5.24779 25.4078V25.4068H5.16597H0.665771V24.425H5.24779C7.14573 24.425 8.68431 22.8864 8.68431 20.9885C8.68431 19.0905 7.14573 17.552 5.24779 17.552H0.665771V16.5701H5.24779C7.14573 16.5701 8.68431 15.0315 8.68431 13.1336C8.68431 11.2356 7.14573 9.69706 5.24779 9.69706H0.665771V8.71519ZM13.1027 16.5701C15.0006 16.5701 16.5392 15.0315 16.5392 13.1336C16.5392 11.2356 15.0006 9.69706 13.1027 9.69706C11.2048 9.69706 9.66617 11.2356 9.66617 13.1336C9.66617 15.0315 11.2048 16.5701 13.1027 16.5701ZM20.9576 16.5701C22.8555 16.5701 24.3941 15.0315 24.3941 13.1336C24.3941 11.2356 22.8555 9.69706 20.9576 9.69706C19.0596 9.69706 17.5211 11.2356 17.5211 13.1336C17.5211 15.0315 19.0596 16.5701 20.9576 16.5701ZM16.5392 20.9885C16.5392 22.8864 15.0006 24.425 13.1027 24.425C11.2048 24.425 9.66617 22.8864 9.66617 20.9885C9.66617 19.0905 11.2048 17.552 13.1027 17.552C15.0006 17.552 16.5392 19.0905 16.5392 20.9885ZM20.9576 24.425C22.8555 24.425 24.3941 22.8864 24.3941 20.9885C24.3941 19.0905 22.8555 17.552 20.9576 17.552C19.0596 17.552 17.5211 19.0905 17.5211 20.9885C17.5211 22.8864 19.0596 24.425 20.9576 24.425Z" fill="#9FFE00"/>
</g>
</svg>
