<svg width="95" height="95" viewBox="0 0 95 95" fill="none" xmlns="http://www.w3.org/2000/svg">
<circle cx="47.3717" cy="47.313" r="46.9158" fill="#9FFE00"/>
<path d="M55.9962 60.2686L62.2637 71.1244H58.0878L51.8203 60.2686H42.8679L36.6005 71.1244H32.4246L38.692 60.2686H27.4309C26.9511 60.2686 26.4909 60.078 26.1516 59.7387C25.8123 59.3993 25.6216 58.9391 25.6216 58.4593V27.7011H22.003C21.5232 27.7011 21.063 27.5105 20.7237 27.1712C20.3843 26.8319 20.1937 26.3717 20.1937 25.8918C20.1937 25.412 20.3843 24.9518 20.7237 24.6125C21.063 24.2731 21.5232 24.0825 22.003 24.0825H72.6635C73.1434 24.0825 73.6036 24.2731 73.9429 24.6125C74.2822 24.9518 74.4728 25.412 74.4728 25.8918C74.4728 26.3717 74.2822 26.8319 73.9429 27.1712C73.6036 27.5105 73.1434 27.7011 72.6635 27.7011H69.0449V58.4593C69.0449 58.9391 68.8543 59.3993 68.515 59.7387C68.1757 60.078 67.7155 60.2686 67.2356 60.2686H55.9962ZM65.4263 27.7011H29.2402V56.65H65.4263V27.7011ZM38.2868 42.1756C38.7666 42.1756 39.2268 42.3662 39.5661 42.7055C39.9054 43.0448 40.0961 43.505 40.0961 43.9849V47.6035C40.0961 48.0833 39.9054 48.5435 39.5661 48.8828C39.2268 49.2221 38.7666 49.4128 38.2868 49.4128C37.8069 49.4128 37.3467 49.2221 37.0074 48.8828C36.6681 48.5435 36.4775 48.0833 36.4775 47.6035V43.9849C36.4775 43.505 36.6681 43.0448 37.0074 42.7055C37.3467 42.3662 37.8069 42.1756 38.2868 42.1756ZM47.3333 38.5569C47.8131 38.5569 48.2733 38.7476 48.6126 39.0869C48.952 39.4262 49.1426 39.8864 49.1426 40.3663V47.6035C49.1426 48.0833 48.952 48.5435 48.6126 48.8828C48.2733 49.2221 47.8131 49.4128 47.3333 49.4128C46.8534 49.4128 46.3932 49.2221 46.0539 48.8828C45.7146 48.5435 45.524 48.0833 45.524 47.6035V40.3663C45.524 39.8864 45.7146 39.4262 46.0539 39.0869C46.3932 38.7476 46.8534 38.5569 47.3333 38.5569ZM56.3798 34.9383C56.8597 34.9383 57.3199 35.129 57.6592 35.4683C57.9985 35.8076 58.1891 36.2678 58.1891 36.7476V47.6035C58.1891 48.0833 57.9985 48.5435 57.6592 48.8828C57.3199 49.2221 56.8597 49.4128 56.3798 49.4128C55.8999 49.4128 55.4397 49.2221 55.1004 48.8828C54.7611 48.5435 54.5705 48.0833 54.5705 47.6035V36.7476C54.5705 36.2678 54.7611 35.8076 55.1004 35.4683C55.4397 35.129 55.8999 34.9383 56.3798 34.9383Z" fill="black"/>
</svg>
