<svg width="113" height="45" viewBox="0 0 113 45" fill="none" xmlns="http://www.w3.org/2000/svg">
<path d="M18.1413 41C27.6082 41 35.2827 32.7173 35.2827 22.5C35.2827 12.2827 27.6082 4 18.1413 4C8.67444 4 1 12.2827 1 22.5C1 32.7173 8.67444 41 18.1413 41Z" fill="#222222" stroke="#9FFE00" stroke-width="0.927336" stroke-miterlimit="10"/>
<path d="M7.8723 17.831V25.1275C6.09311 25.1275 4.64819 23.6825 4.64819 21.9033V21.0551C4.64819 19.2759 6.09311 17.831 7.8723 17.831Z" fill="#FEFEFE"/>
<path d="M11.0103 16.0518C11.0103 18.7691 12.6672 20.5806 14.4392 21.738C16.2759 22.9385 18.4397 23.5459 20.6359 23.5459H24.3632L24.5321 29.4874C24.5609 32.0609 25.6643 32.8553 26.0813 33.1069C26.4982 33.3585 28.5649 34.8789 31.4332 33.9731C32.5079 33.6352 33.3238 32.8265 33.9205 31.9495C34.8694 30.5585 35.3187 28.8835 35.254 27.2014L35.1102 23.5459C35.1102 23.5459 40.8791 24.4805 41.1631 19.0494C41.4686 13.1655 36.3826 12.0621 36.3826 12.0621L31.4332 11.1563L17.4585 9.31602C17.4585 9.31602 11.0103 8.69419 11.0103 16.0482V16.0518Z" fill="#222222" stroke="#9BFF00" stroke-width="0.309112" stroke-miterlimit="10"/>
<path d="M33.3453 21.6913L33.41 27.4027C33.4208 28.2617 33.2734 29.1172 32.9464 29.9115C32.4575 31.1012 31.4691 32.4419 29.5138 32.5066C29.1004 32.521 28.6871 32.4707 28.2917 32.352C26.2429 31.7338 25.7218 29.8288 25.7218 29.207C25.7218 28.5277 25.4953 21.4828 25.4953 21.4828H20.2224C18.9177 21.4828 17.6201 21.2132 16.4448 20.6525C14.946 19.9408 13.3177 18.6253 12.7786 16.2279C12.6744 15.7642 12.6204 15.2898 12.6564 14.8189C12.8181 12.5725 14.5614 11.602 16.1357 11.1851C17.2967 10.876 18.5187 10.8436 19.7013 11.0521L35.6457 13.8233C36.6018 13.9886 37.504 14.4199 38.2013 15.0993C38.2767 15.1748 38.3522 15.2502 38.4277 15.3329C39.0819 16.0662 39.5312 17.184 39.5312 18.4025C39.5312 18.4025 39.4952 21.6949 37.0044 21.6949H33.3489L33.3453 21.6913Z" fill="#FEFEFE"/>
<path d="M37.1986 16.4939C37.1986 16.4939 36.4366 15.0274 33.9853 15.8505C32.0695 16.4939 32.1306 18.8913 32.1306 18.8913C32.1306 18.8913 33.367 19.8546 35.6422 19.0135C37.3711 18.2479 37.1986 16.4903 37.1986 16.4903V16.4939Z" fill="#222222"/>
<path d="M24.4171 17.4284C24.4171 17.4284 22.8536 16.1416 19.3886 16.1416C15.9237 16.1416 18.3283 17.4284 19.7804 17.928C21.2325 18.4276 25.3696 18.3198 24.4171 17.4248V17.4284Z" fill="#222222"/>
<path d="M29.6576 25.5372C31.7387 25.1239 31.8429 27.9921 30.0601 28.0425C28.5793 28.082 28.3133 25.8068 29.6576 25.5372Z" fill="#222222"/>
<path d="M29.3951 22.2664L28.6116 23.546" stroke="#222222" stroke-width="0.776375" stroke-miterlimit="10" stroke-linecap="round"/>
<path d="M31.4871 23.3698L30.9192 22.4425" stroke="#222222" stroke-width="0.66495" stroke-miterlimit="10" stroke-linecap="round"/>
<path d="M60.9986 11.3127H66.9471L74.011 33H68.1244L66.8231 29.0343H61.1225L59.8212 33H53.9347L60.9986 11.3127ZM62.1139 25.9361H65.8317L64.4995 21.4437C64.3549 20.948 64.262 20.4007 64.2207 19.8017C64.1794 19.1821 64.1587 18.6141 64.1587 18.0977H63.7869C63.7869 18.6141 63.7663 19.1821 63.725 19.8017C63.6836 20.4007 63.5907 20.948 63.4461 21.4437L62.1139 25.9361ZM81.7772 24.1082V33H75.8907V11.3127H83.915C85.7326 11.3127 87.2301 11.4779 88.4074 11.8084C89.5847 12.1182 90.5141 12.5416 91.1957 13.0786C91.8773 13.6157 92.3524 14.225 92.6209 14.9066C92.8894 15.5882 93.0237 16.2904 93.0237 17.0133C93.0237 17.7569 92.8997 18.4178 92.6519 18.9962C92.4247 19.5539 92.1045 20.0496 91.6915 20.4833C91.299 20.9171 90.8343 21.2992 90.2973 21.6296C89.7809 21.9395 89.2336 22.208 88.6552 22.4352C89.3988 22.8276 90.0701 23.2923 90.669 23.8294C91.268 24.3664 91.7741 25.017 92.1872 25.7812C92.6209 26.5454 92.9514 27.4542 93.1786 28.5076C93.4058 29.5404 93.5194 30.759 93.5194 32.1635V33H87.6328V32.1635C87.6328 30.8209 87.5605 29.6746 87.4159 28.7245C87.2714 27.7537 87.0751 26.9379 86.8273 26.2769C86.5794 25.5953 86.3006 25.0273 85.9908 24.5729C85.681 24.1185 85.3608 23.7364 85.0303 23.4266C84.9271 23.4472 84.8341 23.4679 84.7515 23.4886C84.6895 23.5092 84.6069 23.5299 84.5037 23.5505L81.7772 24.1082ZM83.6671 20.6382C84.9271 20.3697 85.7946 20.0392 86.2696 19.6468C86.7447 19.2544 86.9822 18.8103 86.9822 18.3146C86.9822 17.7156 86.7447 17.2818 86.2696 17.0133C85.8152 16.7242 84.9477 16.5796 83.6671 16.5796H81.7772V21.01L83.6671 20.6382ZM110.572 16.5796L100.038 27.7331H110.882V33H95.3911V27.7331L105.925 16.5796H95.7009V11.3127H110.572V16.5796Z" fill="white"/>
</svg>
