<svg width="878" height="510" viewBox="0 0 878 510" fill="none" xmlns="http://www.w3.org/2000/svg">
<path opacity="0.1" d="M166.137 50.7246V101H275.242V50.7246H384.348V101H493.453V50.7246H602.559V101H711.664V50.7246H766.217C799.828 50.7248 827.075 77.9729 827.075 111.584V183.292H776.801V326.708H827.075V398.416L827.07 399.202C826.649 432.451 799.566 459.275 766.217 459.275H711.664V409H602.559V459.275H493.453V409H384.348V459.275H275.242V409H166.137V459.275H111.584C77.9723 459.275 50.7247 432.027 50.7246 398.416V326.708H101V183.292H50.7246V111.584L50.7305 110.798C51.1515 77.5488 78.235 50.7247 111.584 50.7246H166.137Z" fill="#FBFF28" stroke="white" stroke-width="100.55" stroke-linejoin="round" stroke-dasharray="120 120"/>
</svg>
