<svg width="280" height="276" viewBox="0 0 280 276" fill="none" xmlns="http://www.w3.org/2000/svg">
<g opacity="0.8">
<path d="M182.02 238.147C184.123 242.116 186.26 246.117 188.463 250.117L188.598 250.362L188.452 250.601C186.338 254.06 184.405 257.644 182.535 261.27C191.454 262.481 199.282 258.073 206.601 253.139L207.904 252.261L207.318 253.719C204.745 260.116 199.842 263.854 194.2 266.437C188.588 269.006 182.143 270.47 176.515 272.251C169.448 274.536 161.575 273.284 155.235 269.735L155.17 269.699L155.12 269.646C151.071 265.359 147.329 260.868 143.567 256.429L143.307 256.122L143.563 255.811C147.804 250.653 152.047 245.528 156.358 240.437L156.915 239.779L157.183 240.598C160.359 250.26 162.728 260.268 168.327 268.793C168.884 268.711 169.615 268.605 170.346 268.499C171.089 268.391 171.831 268.281 172.391 268.199C176.19 258.54 178.84 248.414 181.125 238.268L181.411 236.996L182.02 238.147Z" fill="#E8E8E8" stroke="white" stroke-width="0.963876"/>
<path d="M111.188 196.779C115.402 197.629 119.582 198.581 123.826 199.6L124.234 199.697L124.194 200.114L123.821 203.982L123.82 203.983C122.855 213.696 122.806 223.48 123.03 233.28C127.586 233.021 132.155 232.732 136.723 232.229L138.751 231.99C141.905 231.482 145.094 231.007 148.319 230.6L149.947 230.395L148.689 231.447C137.628 240.709 137.188 254.955 138.105 268.501L138.136 268.96L137.679 269.013C133.27 269.521 128.904 270.063 124.575 270.807L123.854 270.931L124.026 270.219C125.168 265.485 126.343 260.812 127.61 256.141C124.674 255.901 119.663 255.472 116.789 255.211C116.069 259.642 115.392 264.062 114.999 268.542L114.958 269.006L114.493 268.98C103.222 268.375 90.9886 266.937 83.8303 256.825C77.6672 256.614 71.5886 255.585 65.7863 253.593L64.6154 253.176L62.9885 252.577L64.6906 252.25C73.2111 250.613 80.1132 245.364 86.9113 240.062L87.3127 239.755C91.4838 236.641 96.2917 235.196 101.242 234.372C103.797 233.947 106.4 233.686 108.977 233.449C111.317 233.234 113.632 233.037 115.892 232.758C113.026 227.558 109.95 222.521 106.78 217.563L105.362 215.359L105.236 215.165L105.309 214.945C107.275 209.046 109.137 203.123 110.625 197.136L110.737 196.688L111.188 196.779ZM98.9338 251.256C95.8224 248.707 91.9138 247.526 87.0569 248.932C89.5266 253.056 92.0823 257.184 94.6731 261.312C98.3879 261.468 102.162 261.624 105.966 261.808C104.343 257.686 102.024 253.788 98.9338 251.256ZM113.416 241.598C110.517 241.022 107.387 241.617 105.168 243.38C105.229 245.239 105.849 246.26 106.729 246.83C107.685 247.449 109.055 247.612 110.695 247.514C112.324 247.416 114.116 247.07 115.87 246.761C117.285 246.511 118.688 246.286 119.908 246.26C118.625 243.717 116.154 242.142 113.416 241.598Z" fill="#E4E4E4" stroke="white" stroke-width="0.963876"/>
<path d="M52.6554 88.1055C56.0814 89.564 59.6094 91.057 63.1378 92.5498L63.6075 92.748L63.382 93.2061C62.2623 95.4793 60.0231 100.026 58.9034 102.299L58.7052 102.703L58.2882 102.531C53.9254 100.739 49.492 99.1824 45.1144 97.6553L44.4572 97.4258L44.9034 96.8916C47.3121 94.008 49.6869 91.1589 52.0948 88.2422L52.3234 87.9648L52.6554 88.1055Z" fill="#453333" stroke="white" stroke-width="0.963876"/>
<path d="M196.71 90.457C200.789 91.4992 204.817 92.6977 208.84 94.0986L210.563 94.7119L210.788 94.793L210.859 95.0205C212.119 99.038 213.208 103.157 214.127 107.344L214.277 108.029L213.584 107.923C209.139 107.244 204.761 106.565 200.418 105.887L200.133 105.843L200.038 105.57C198.366 100.794 197.139 95.8854 196.119 91.0225L195.96 90.2656L196.71 90.457Z" fill="#453333" stroke="white" stroke-width="0.963876"/>
<path d="M69.8362 125.681L70.9407 131.688C72.0642 137.693 73.2756 143.683 74.8489 149.596L74.8772 149.699L74.8577 149.805C74.4843 151.875 73.774 156.006 73.3997 158.116L73.3372 158.467L72.9827 158.51C70.4761 158.815 65.4936 159.492 62.9807 159.832L62.4641 159.902L62.4348 159.382C61.9253 150.414 61.7216 141.408 62.0276 132.434L62.0344 132.238L62.175 132.103C63.9031 130.442 67.3273 127.086 69.0247 125.423L69.6731 124.787L69.8362 125.681Z" fill="#453333" stroke="white" stroke-width="0.963876"/>
<path d="M232.929 195.315C234.518 205.93 237.895 216.127 240.787 226.539L240.912 226.989L240.466 227.128C236.415 228.382 233.353 227.896 231.053 226.195C228.782 224.517 227.341 221.717 226.367 218.53C225.391 215.334 224.864 211.675 224.472 208.2C224.078 204.703 223.822 201.422 223.393 198.895L223.327 198.51L223.691 198.365C225.821 197.52 230.105 195.786 232.276 194.938L232.839 194.718L232.929 195.315Z" fill="#453333" stroke="white" stroke-width="0.963876"/>
<path d="M86.1764 248.194C91.6338 246.41 96.0701 247.664 99.5445 250.511C102.992 253.335 105.473 257.708 107.133 262.157L107.389 262.843L106.659 262.807C102.522 262.603 98.4184 262.433 94.3805 262.264L94.1275 262.254L93.9928 262.039C91.2438 257.661 88.5268 253.281 85.9117 248.899L85.6031 248.382L86.1764 248.194Z" fill="#453333" stroke="white" stroke-width="0.963876"/>
<path d="M141.186 18.1514C142.178 18.1704 143.006 18.4407 143.586 19.0391C144.163 19.6351 144.421 20.4798 144.436 21.4893C144.45 22.4979 144.225 23.7208 143.785 25.1445L143.71 25.3867L143.469 25.4619C142.061 25.9025 140.85 26.122 139.852 26.0957C138.851 26.0693 138.017 25.7931 137.436 25.1934C136.855 24.5944 136.602 23.7488 136.598 22.7422C136.594 21.7376 136.837 20.5244 137.303 19.1172L137.38 18.8848L137.612 18.8096C139.003 18.3605 140.199 18.1325 141.186 18.1514Z" fill="#646464" stroke="white" stroke-width="0.963876"/>
<path d="M236.252 112.2C237.616 111.904 238.73 112.27 239.535 113.052C240.319 113.813 240.771 114.931 240.94 116.097C241.11 117.268 241.001 118.538 240.611 119.653C240.222 120.765 239.536 121.765 238.519 122.322L238.455 122.357L238.382 122.372C237.011 122.648 235.894 122.27 235.087 121.485C234.3 120.719 233.844 119.602 233.675 118.437C233.506 117.267 233.617 116.001 234.012 114.892C234.407 113.785 235.1 112.794 236.127 112.246L236.186 112.215L236.252 112.2Z" fill="#2C2C2C" stroke="white" stroke-width="0.963876"/>
<path d="M242.267 176.211C251.278 181.611 257.078 190.228 257.768 200.885L257.782 201.117L257.61 201.273C253.917 204.628 250.29 208.051 246.696 211.51L246.278 211.912L245.959 211.427C239.181 201.107 234.637 188.095 241.604 176.378L241.852 175.962L242.267 176.211Z" fill="#6E6E6E" stroke="white" stroke-width="0.963876"/>
<path d="M182.967 55.4004C185.055 54.3961 187.282 53.8282 189.293 53.9688L189.692 54.0068L190.099 54.0547L190.116 54.4639C190.288 58.4158 189.691 62.806 187.814 66.2148C185.92 69.6543 182.721 72.0852 177.789 72.0322L177.634 72.0312L177.509 71.9385C175.183 70.2276 174.227 68.1432 174.306 65.9854C174.383 63.8584 175.462 61.7379 177.038 59.9043C178.619 58.0656 180.735 56.4739 182.967 55.4004Z" fill="#757575" stroke="white" stroke-width="0.963876"/>
<path d="M48.4409 221.811C49.7519 222.343 51.4075 222.706 53.1664 223.093C54.9046 223.475 56.7355 223.88 58.3168 224.501C59.8959 225.121 61.2985 225.983 62.1157 227.326C62.944 228.688 63.1151 230.45 62.4272 232.743L62.3657 232.95L62.1684 233.042C57.7841 235.076 53.609 234.832 49.6342 232.37L49.4487 232.255L49.4125 232.039C49.209 230.818 48.9034 229.004 48.5981 227.188C48.2928 225.374 47.9873 223.558 47.7836 222.336L47.642 221.486L48.4409 221.811Z" fill="#757575" stroke="white" stroke-width="0.963876"/>
<path d="M116.43 254.212C119.38 254.483 125.315 254.991 128.265 255.229L128.844 255.275L128.692 255.836C127.37 260.682 126.149 265.529 124.962 270.445L124.861 270.867L124.431 270.81C123.762 270.72 122.819 270.869 121.708 271.1C120.632 271.323 119.418 271.617 118.319 271.752C117.234 271.885 116.126 271.884 115.295 271.409C114.399 270.897 113.965 269.924 114.039 268.476V268.467L114.04 268.458L114.207 266.711C114.628 262.642 115.258 258.622 115.911 254.614L115.983 254.17L116.43 254.212Z" fill="#6F6F6F" stroke="white" stroke-width="0.963876"/>
<path d="M55.795 129.545C56.1352 132.402 56.7776 138.023 57.1172 140.842L57.1544 141.151L56.8878 141.312C55.2575 142.296 51.9983 144.233 50.4053 145.182L49.7237 145.588L49.6778 144.795C49.5938 143.342 49.3686 141.784 49.1973 140.173C49.0282 138.582 48.9144 136.96 49.0772 135.466C49.2405 133.968 49.6857 132.561 50.6631 131.432C51.6444 130.298 53.1165 129.497 55.2325 129.127L55.7344 129.039L55.795 129.545Z" fill="#515151" stroke="white" stroke-width="0.963876"/>
<path d="M103.032 10.2178C104.113 10.1606 105.184 10.4933 106.224 11.3691L106.432 11.5518L106.515 11.6279L106.556 11.7334C108.078 15.6706 109.436 19.7038 110.667 23.8311C112.712 23.7737 114.612 23.4939 116.162 22.7188C117.779 21.9105 119.046 20.5529 119.688 18.2578L119.773 17.9561L120.082 17.9102C123.786 17.3664 127.524 16.8912 131.296 16.4834L131.841 16.4238L131.83 16.9717C131.623 27.5275 124.486 35.2984 118.141 42.6221L117.781 43.0371L117.416 42.626C112.063 36.5909 107.429 30.0487 101.138 25.2402C96.6353 24.0206 91.9508 24.4372 87.2463 24.5508L86.2991 24.5693L85.7454 24.5762L85.8137 24.0273L86.0969 21.7617L86.1438 21.6787C87.5061 19.2606 88.9363 16.9111 90.4338 14.5967L90.5872 14.3604L90.8674 14.3779L91.304 14.4102C92.2684 14.4977 93.2539 14.6865 94.2415 14.9922C95.0556 14.6589 95.9103 14.0935 96.8215 13.4385C97.7685 12.7578 98.7807 11.9807 99.7981 11.3711C100.818 10.7601 101.905 10.2776 103.032 10.2178Z" fill="#737373" stroke="white" stroke-width="0.963876"/>
<path d="M199.68 16.998C203.649 20.289 207.655 23.6152 211.66 27.0098L212.193 27.4609L211.582 27.7988C210.364 28.4747 209.149 29.3022 207.888 30.1289C206.637 30.949 205.347 31.7647 204.019 32.3789C201.339 33.6178 198.452 34.0572 195.32 32.1309L195.096 31.9932L195.09 31.7305C194.986 26.5219 197.071 21.7728 198.925 17.1885L199.172 16.5771L199.68 16.998Z" fill="#5D5D5D" stroke="white" stroke-width="0.963876"/>
<path d="M153.74 216.636C156.713 216.687 159.464 217.338 161.152 218.899C162.008 219.691 162.579 220.709 162.762 221.965C162.944 223.212 162.738 224.665 162.094 226.333L161.999 226.582L161.736 226.633C153.651 228.189 144.065 229.244 137.487 222.666L137.158 222.337L137.475 221.997C138.973 220.391 141.573 219.031 144.493 218.086C147.425 217.137 150.746 216.584 153.74 216.636Z" fill="#5D5D5D" stroke="white" stroke-width="0.963876"/>
<path d="M131.342 32.3262C136.297 31.909 140.689 33.3035 144.786 35.4014C148.864 37.4892 152.713 40.3121 156.511 42.749L156.861 42.9736L156.689 43.3535C155.313 46.394 153.97 49.4299 152.714 52.5205C154.792 52.8913 156.87 53.2568 158.959 53.6211L165.867 54.8252L166.195 54.8828L166.258 55.209C166.596 56.9664 167.309 60.5726 167.648 62.3701L167.756 62.9385L167.178 62.9414C165.569 62.9497 163.847 63.1716 162.063 63.417C160.291 63.6608 158.456 63.927 156.667 64.0088C153.082 64.1727 149.566 63.5994 146.896 60.5361L146.851 60.4844L146.822 60.4209C144.563 55.4984 143.035 50.3424 141.435 45.2979C139.82 44.5322 138.223 43.7815 136.636 43.0391L131.72 40.7412L131.465 40.6211L131.444 40.3389C131.376 39.4057 131.275 37.9975 131.173 36.5898C131.071 35.1821 130.969 33.7746 130.901 32.8418L130.866 32.3662L131.342 32.3262Z" fill="#545454" stroke="white" stroke-width="0.963876"/>
<path d="M153.525 14.9697C155.173 15.4107 157.06 15.6717 159.004 15.9736C160.93 16.2729 162.904 16.6119 164.656 17.2148C166.411 17.8186 167.987 18.7015 169.083 20.1172C170.185 21.5417 170.758 23.4499 170.608 26.0156L170.59 26.3271L170.298 26.4375C165.986 28.0672 161.705 29.6306 157.389 31.0918L157.173 31.165L156.978 31.043C154.04 29.1978 152.95 26.603 152.637 23.8145C152.33 21.0764 152.771 18.0587 152.92 15.4082L152.953 14.8164L153.525 14.9697Z" fill="#676767" stroke="white" stroke-width="0.963876"/>
<path d="M218.931 84.2266C220.247 83.1671 221.677 82.9226 222.983 83.2422C224.277 83.5587 225.414 84.4189 226.204 85.5049C226.994 86.591 227.466 87.9413 227.378 89.2773C227.289 90.6305 226.628 91.935 225.224 92.8838C223.893 93.9162 222.456 94.1433 221.146 93.8164C219.843 93.4914 218.699 92.6293 217.906 91.543C217.114 90.4567 216.645 89.1079 216.744 87.7773C216.844 86.4374 217.518 85.1542 218.931 84.2266Z" fill="#676767" stroke="white" stroke-width="0.963876"/>
<path d="M216.005 134.837L216.371 135.328C220.056 140.437 220.664 146.691 219.833 152.805L219.754 153.385L219.2 153.196C217.507 152.62 214.117 151.502 212.423 150.96L212.291 150.918L212.201 150.812C209.861 148.039 209.826 145.102 210.778 142.341C211.719 139.617 213.634 137.02 215.235 134.846L215.614 134.331L216.005 134.837Z" fill="#676767" stroke="white" stroke-width="0.963876"/>
<path d="M31.1214 216.903C44.0155 210.742 60.3622 210.389 70.5736 221.997L71.055 222.56L71.1331 222.653L71.1576 222.773C72.0291 227.097 71.2575 231.193 69.9515 235.137C69.2988 237.108 68.509 239.05 67.7201 240.967C66.9289 242.889 66.1389 244.782 65.474 246.676L65.2396 247.343L64.7044 246.881C62.9274 245.346 60.9096 244.011 58.8197 242.709C56.74 241.414 54.5737 240.142 52.554 238.758C48.5157 235.99 44.9436 232.697 43.4652 227.556C42.3508 225.136 40.3587 223.482 38.0648 222.028C36.9121 221.298 35.7057 220.63 34.5013 219.936C33.3045 219.245 32.1167 218.531 31.0404 217.724L30.4037 217.246L31.1214 216.903ZM49.5492 227.029C49.8366 228.738 50.1229 230.447 50.3255 231.661C53.9018 233.808 57.6079 234.029 61.5628 232.257C62.1234 230.252 61.9161 228.854 61.2923 227.828C60.6358 226.749 59.464 225.988 57.9642 225.399C56.4666 224.812 54.7135 224.421 52.9593 224.035C51.5395 223.723 50.1127 223.408 48.8714 222.992C49.0632 224.138 49.3059 225.583 49.5492 227.029Z" fill="#C3C3C3" stroke="white" stroke-width="0.963876"/>
<path d="M81.5716 48.7861C83.4958 52.9305 85.509 57.0992 87.4593 61.3262L88.2913 63.1416L88.304 63.1699L88.3128 63.2002L89.2972 66.4229L89.2991 66.4287L91.4691 73.8232L91.5599 74.127L91.3157 74.3301C89.2061 76.0839 87.1147 77.8573 85.0423 79.6357L82.9769 81.415L82.6624 81.6865L82.348 81.417C77.3574 77.1444 76.1515 71.5061 76.5823 65.71C77.0116 59.9365 79.071 53.9264 80.6751 48.8438L81.0491 47.6602L81.5716 48.7861Z" fill="#F7F7F7" stroke="white" stroke-width="0.963876"/>
<path d="M84.0303 181.628C87.1994 185.831 89.1624 190.565 88.5684 196.05L88.5255 196.447L88.127 196.479C84.013 196.798 79.7261 197.378 75.5215 197.51C71.5599 197.634 67.5994 197.366 63.7549 196.105L62.9883 195.84L62.7198 195.742L62.6768 195.46C62.2422 192.621 62.9218 190.545 64.3497 188.996C65.7517 187.475 67.8305 186.514 70.0948 185.777C72.3543 185.043 74.9048 184.503 77.2383 183.891C79.603 183.27 81.765 182.571 83.3819 181.515L83.7589 181.269L84.0303 181.628Z" fill="#696969" stroke="white" stroke-width="0.963876"/>
<path d="M101.106 194.879C103.617 195.354 108.638 196.303 111.181 196.778L111.684 196.872L111.56 197.369C110.082 203.318 108.238 209.196 106.296 215.031C110.055 220.843 113.716 226.762 117.08 232.917L117.417 233.533L116.72 233.626C114.214 233.958 111.635 234.173 109.065 234.409C106.49 234.646 103.918 234.905 101.401 235.324C96.5245 236.136 91.887 237.544 87.8894 240.528L87.5046 240.822C80.7318 246.105 73.6553 251.51 64.8728 253.197L64.2732 253.312L64.3005 252.702C64.3344 251.941 64.3763 250.782 64.4187 249.615C64.4611 248.45 64.5038 247.277 64.5378 246.494L64.5408 246.423L64.5642 246.355C65.2394 244.432 66.0403 242.513 66.8279 240.6C67.6175 238.682 68.3952 236.768 69.0359 234.833C70.3042 231.003 71.0217 227.131 70.2351 223.084C60.4513 211.474 44.392 211.63 31.5369 217.772L31.114 217.975L30.9001 217.558C29.2965 214.427 27.7114 211.294 26.1736 208.176L24.6531 205.062L24.3806 204.499L24.9939 204.379C27.5432 203.881 30.152 203.222 32.8142 202.595C35.4687 201.97 38.1676 201.379 40.8611 201.032C46.2372 200.34 51.6364 200.612 56.7058 203.531C63.0115 205.867 67.6903 210.226 71.7576 215.179C73.7945 217.659 75.6852 220.298 77.5496 222.913C79.3477 225.435 81.1218 227.931 82.99 230.267C89.502 227.84 96.1428 225.411 100.201 219.695C92.2429 218.813 84.312 218.452 76.365 218.124L75.8005 218.102L75.9128 217.548C76.2549 215.855 76.6734 214.206 77.0886 212.579C77.5048 210.948 77.9171 209.339 78.2537 207.707L78.3582 207.201L78.8552 207.34C83.3126 208.58 87.7156 209.933 92.3123 210.649C94.4277 208.72 95.8052 206.223 96.9871 203.522C98.1825 200.791 99.2086 197.772 100.59 195.129L100.755 194.812L101.106 194.879Z" fill="#696969" stroke="white" stroke-width="0.963876"/>
<path d="M207.7 54.3828C210.151 54.5362 212.688 55.7988 215.067 58.4746L215.397 58.8457L215.016 59.1641C209.437 63.8246 203.544 68.1515 197.236 71.7656L196.68 72.085L196.528 71.4609C195.195 65.9542 197.372 60.029 201.097 56.8057C202.967 55.1868 205.253 54.2297 207.7 54.3828Z" fill="#626262" stroke="white" stroke-width="0.963876"/>
<path d="M15.4686 97.0889C18.0145 100.633 19.8936 104.864 20.1815 109.059C20.4707 113.273 19.1502 117.438 15.327 120.771L14.9706 121.08L14.6532 120.731C8.36831 113.822 7.70374 103.747 14.745 97.0215L15.1454 96.6387L15.4686 97.0889Z" fill="#626262" stroke="white" stroke-width="0.963876"/>
<path d="M87.2366 16.459L86.592 19.2412L86.5686 19.3408L86.5081 19.4219C83.0349 24.0527 79.2216 28.3765 75.4944 32.6797L75.3499 32.8467H75.1301C74.1445 32.8467 72.6747 32.8376 71.2122 32.8291C69.7485 32.8206 68.2915 32.8125 67.3264 32.8125H67.137L66.9983 32.6836C66.252 31.9882 65.1488 30.9619 64.0461 29.9355C62.9436 28.9093 61.8415 27.8822 61.095 27.1865L60.5745 26.7021L61.217 26.3984C69.4381 22.5078 77.7002 18.2402 86.6438 15.8848L87.4163 15.6807L87.2366 16.459Z" fill="#535353" stroke="white" stroke-width="0.963876"/>
<path d="M58.4952 40.5322C57.4607 44.3313 56.4346 48.1389 55.4083 51.9473C54.382 55.7555 53.3554 59.5646 52.3204 63.3652L51.3829 63.335C50.1626 57.369 49.0096 51.3973 47.8243 45.4707L47.6486 44.7002C47.585 44.4096 47.5183 44.0937 47.4523 43.7783L47.1075 42.0947L47.0079 41.5967L47.5099 41.5234C50.9711 41.0144 54.4282 40.5057 57.9523 39.9297L58.6915 39.8086L58.4952 40.5322Z" fill="#423A33" stroke="white" stroke-width="0.963876"/>
<path d="M192.433 39.9258C195.584 40.2506 197.137 43.2849 197.199 46.1113C197.231 47.5455 196.889 49.0035 196.136 50.1543C195.374 51.3166 194.194 52.1581 192.601 52.3184L192.531 52.3252L192.462 52.3125C189.639 51.7745 188.223 48.809 188.144 46.0723C188.064 43.3325 189.32 40.3727 192.312 39.9287L192.372 39.9199L192.433 39.9258Z" fill="#423A33" stroke="white" stroke-width="0.963876"/>
<path d="M232.991 37.7305C233.262 39.055 233.662 41.0494 234.06 43.042C234.459 45.0358 234.857 47.0279 235.128 48.3496L235.194 48.666L234.925 48.8467C229.931 52.199 224.458 54.7641 218.714 56.5078L217.461 56.8877L218.169 55.7861C222.327 49.3113 227.196 43.3536 232.152 37.5156L232.792 36.7607L232.991 37.7305Z" fill="#423A33" stroke="white" stroke-width="0.963876"/>
<path d="M114.446 47.1943C115.6 46.0119 117.111 45.6119 118.597 45.7363C120.076 45.8602 121.553 46.5015 122.71 47.4307C123.863 48.3571 124.744 49.6089 124.953 50.9844C125.166 52.3904 124.663 53.8412 123.214 55.0889L123.213 55.0879C120.707 57.3758 117.313 56.7106 115.187 54.9043C114.115 53.993 113.318 52.7588 113.096 51.3936C112.872 50.0125 113.245 48.5426 114.43 47.21L114.446 47.1943Z" fill="#423A33" stroke="white" stroke-width="0.963876"/>
<path d="M90.6823 73.6035C97.2126 67.0111 105.499 62.2533 115.279 63.918L116.179 64.0703L115.545 64.7275C112.656 67.7184 109.733 70.6063 106.744 73.46L106.714 73.4893L106.678 73.5127C103.281 75.7776 99.9158 77.8737 96.5699 80.127L96.5573 80.1357L96.5446 80.1426C93.4815 81.9464 90.4406 83.6698 87.4596 85.499L87.1559 85.6855L86.8893 85.4492C85.7257 84.4225 83.4676 82.401 82.3434 81.4131L81.9283 81.0479L82.3463 80.6865C85.0902 78.3152 87.869 75.9425 90.6823 73.6035Z" fill="#423A33" stroke="white" stroke-width="0.963876"/>
<path d="M248.133 64.29C248.133 68.152 248.201 72.0141 248.336 75.9102L248.36 76.585L247.714 76.3887C246.933 76.151 245.745 75.7855 244.558 75.4209C243.37 75.0561 242.183 74.6914 241.404 74.4541L241.118 74.3682L241.069 74.0742C240.636 71.5278 240.222 69.0004 239.827 66.4922L239.439 63.9902L239.349 63.4043L239.941 63.4355C240.906 63.4863 242.355 63.5542 243.806 63.6221C245.255 63.6899 246.707 63.7576 247.676 63.8086L248.133 63.833V64.29Z" fill="#423A33" stroke="white" stroke-width="0.963876"/>
<path d="M191.718 77.3525C193.405 77.6405 195.328 77.6294 197.351 77.5811C199.356 77.5332 201.459 77.4482 203.435 77.6055C205.413 77.763 207.317 78.1656 208.922 79.126C210.542 80.095 211.823 81.6108 212.586 83.9189L212.805 84.5781L212.111 84.5518C210.408 84.4853 208.403 84.6718 206.276 84.8438C204.166 85.0142 201.948 85.1681 199.888 85.0166C197.829 84.8652 195.874 84.4061 194.314 83.3096C192.736 82.201 191.614 80.4775 191.162 77.9102L191.044 77.2373L191.718 77.3525Z" fill="#423A33" stroke="white" stroke-width="0.963876"/>
<path d="M26.551 79.8955C26.7883 83.1495 27.0595 86.4379 27.3645 89.7256L27.3909 90.0117L27.1516 90.1709C26.1327 90.8502 24.1297 92.174 23.1448 92.8193L22.887 92.9883L22.6243 92.8242C20.2408 91.326 17.9452 89.8395 15.6389 88.415L15.0354 88.043L15.6038 87.6191C19.0571 85.0461 22.4424 82.3714 25.759 79.5625L26.4817 78.9502L26.551 79.8955Z" fill="#423A33" stroke="white" stroke-width="0.963876"/>
<path d="M235.781 80.376C238.562 82.7163 241.444 85.1236 244.359 87.4961L244.549 87.6514L244.536 87.8975C244.434 89.6589 244.265 93.1166 244.197 94.8438L244.178 95.3115L243.711 95.3066C240.423 95.2727 237.169 95.2728 233.983 95.3066L233.449 95.3125L233.499 94.7803C233.94 90.0625 234.415 85.3407 234.993 80.6855L235.102 79.8047L235.781 80.376Z" fill="#423A33" stroke="white" stroke-width="0.963876"/>
<path d="M71.2729 82.999C75.689 88.8419 79.9341 94.8197 84.1098 100.896L83.4731 101.588C79.3335 99.2127 75.2628 96.8722 71.226 94.5654L71.0005 94.4365L70.9839 94.1787C70.7462 90.5458 70.5426 86.9106 70.4067 83.3086L70.3491 81.7773L71.2729 82.999Z" fill="#423A33" stroke="white" stroke-width="0.963876"/>
<path d="M39.1621 91.0547L39.4629 91.4326C42.4477 95.3865 41.6795 100.83 39.9511 105.018L39.8144 105.349L39.458 105.313C35.268 104.896 32.725 101.433 32.3974 98.0439C32.2331 96.3418 32.6205 94.617 33.6728 93.2764C34.7322 91.9268 36.4256 91.0168 38.7656 90.8828L39.0068 90.8691L39.1621 91.0547Z" fill="#423A33" stroke="white" stroke-width="0.963876"/>
<path d="M220.079 97.5791C221.793 97.9905 225.199 98.7242 226.964 99.1396L227.356 99.2314L227.335 99.6338C227.2 102.239 227.132 104.878 227.064 107.56L227.055 107.911L226.717 108.01C225.091 108.484 221.828 109.436 220.194 109.879L219.597 110.04L219.586 109.422C219.519 105.619 219.484 101.817 219.484 98.0479V97.4365L220.079 97.5791Z" fill="#423A33" stroke="white" stroke-width="0.963876"/>
<path d="M12.7401 126.955L13.4198 127.651C16.675 131.036 19.5472 134.746 22.2401 138.674C25.2348 136.305 28.2906 133.963 31.3388 131.596L32.2382 130.897L32.1132 132.028C31.7063 135.724 31.3342 139.416 31.0634 143.173L31.0292 143.647L30.5536 143.619C24.9254 143.28 19.3307 143.009 13.7704 142.806L13.3564 142.79L13.3095 142.379C12.7323 137.354 12.222 132.323 11.9159 127.323L11.8378 126.045L12.7401 126.955Z" fill="#423A33" stroke="white" stroke-width="0.963876"/>
<path d="M51.8644 156.635C52.542 156.906 53.5659 157.303 54.5948 157.701L57.3566 158.771L57.6261 158.875L57.6603 159.162C57.862 160.843 58.3052 164.293 58.5079 166.017L58.5714 166.555H58.0294C54.0541 166.555 50.1258 166.521 46.2267 166.555L45.3585 166.562L45.8116 165.821C47.202 163.549 49.9162 159.072 51.2736 156.832L51.4845 156.482L51.8644 156.635Z" fill="#423A33" stroke="white" stroke-width="0.963876"/>
<path d="M210.946 164.789C210.641 168.45 210.37 172.146 210.099 175.845L210.07 176.226L209.693 176.285C206.974 176.717 204.292 177.168 201.648 177.639L199.019 178.115L197.92 178.318L198.525 177.38C201.662 172.523 204.848 167.315 210.232 164.327L211.022 163.89L210.946 164.789Z" fill="#423A33" stroke="white" stroke-width="0.963876"/>
<path d="M228.769 174.955L229.454 174.978L229.201 175.614C226.521 182.367 221.377 187.497 216.24 192.245C217.855 195.799 219.503 199.324 221.247 202.911L221.587 203.609L220.811 203.604C217.326 203.578 213.842 203.572 210.388 203.599L206.945 203.638L205.909 203.652L206.565 202.851C208.397 200.606 209.706 197.748 210.884 194.687C212.05 191.656 213.102 188.381 214.389 185.451C215.683 182.507 217.253 179.812 219.523 177.888C221.808 175.951 224.766 174.824 228.769 174.955Z" fill="#423A33" stroke="white" stroke-width="0.963876"/>
<path d="M166.263 202.973C166.467 205.079 166.874 209.349 167.111 211.447L167.185 212.109L166.533 211.973C162.154 211.056 157.807 210.106 153.562 209.121L152.489 208.872L153.401 208.253C157.129 205.722 161.187 203.62 165.672 202.551L166.21 202.423L166.263 202.973Z" fill="#423A33" stroke="white" stroke-width="0.963876"/>
<path d="M187.333 223.41C187.198 225.373 186.995 229.303 186.893 231.307L186.87 231.755L186.421 231.764C181.33 231.865 176.235 231.933 171.239 231.865L170.353 231.854L170.846 231.116C172.669 228.39 175.29 226.831 178.109 225.711C179.516 225.151 180.984 224.696 182.434 224.262C183.89 223.825 185.324 223.41 186.692 222.923L187.384 222.677L187.333 223.41Z" fill="#423A33" stroke="white" stroke-width="0.963876"/>
<path d="M104.37 242.788C106.858 240.694 110.39 240.015 113.604 240.653C116.824 241.293 119.797 243.272 121.108 246.576L121.389 247.283L120.629 247.234C119.382 247.154 117.788 247.402 116.038 247.711C114.314 248.015 112.452 248.376 110.753 248.478C109.063 248.579 107.429 248.433 106.204 247.64C104.938 246.819 104.217 245.381 104.199 243.161L104.197 242.935L104.37 242.788Z" fill="#423A33" stroke="white" stroke-width="0.963876"/>
<path d="M40.1986 54.3516L41.8275 57.2695L41.8392 57.291L41.849 57.3135C42.881 59.7022 44.34 61.9841 45.9203 64.2617C47.4908 66.5253 49.1964 68.8053 50.6644 71.1318C53.612 75.8035 55.7139 80.8253 54.1546 86.8701L53.9691 87.5908L53.3871 87.127C45.3014 80.672 37.7162 73.6663 29.9945 66.9268L29.8216 66.7754L29.8304 66.5459C29.9661 62.7121 30.1019 58.9463 30.2376 55.1807L30.2533 54.751L30.681 54.7168C33.6705 54.479 36.6941 54.2753 39.7513 54.1055L40.0521 54.0889L40.1986 54.3516Z" fill="#565656" stroke="white" stroke-width="0.963876"/>
<path d="M31.2006 55.2158C31.0675 58.9069 30.9342 62.5978 30.8011 66.3525C38.4895 73.0686 45.9841 79.9846 53.9877 86.374L54.3373 86.6523L54.0863 87.0215L52.8646 88.8193L52.8519 88.8389L52.8383 88.8555C50.5773 91.5941 48.3449 94.2722 46.0883 96.9746C49.7047 98.2375 53.3712 99.5331 57.0052 100.975L58.6547 101.641L58.7006 101.659L58.7416 101.688C59.7904 102.398 61.8912 103.786 62.9398 104.463L63.7611 104.993L62.8402 105.322C58.2035 106.981 53.6658 108.809 49.1556 110.674L49.1302 110.684C44.8455 112.18 40.4932 113.506 36.222 114.828L35.2719 115.122L35.6293 114.194L36.7152 111.378C37.3246 109.718 38.4719 106.343 39.0502 104.676L39.0599 104.65C40.8042 100.424 41.4003 95.2274 38.4242 91.6748L38.4017 91.6475L38.3832 91.6172C35.8328 87.4769 33.3798 83.3057 30.9935 79.167C29.6314 79.5252 27.3669 80.1195 26.181 80.4004L25.7533 80.502L25.6136 80.085C22.6311 71.2059 22.8995 61.535 30.3978 54.8389L31.2406 54.0859L31.2006 55.2158Z" fill="#F2F2F2" stroke="white" stroke-width="0.963876"/>
<path d="M28.6357 151.277C33.7728 151.856 38.9177 152.673 43.999 153.935L44.5566 154.073L44.3232 154.598C42.697 158.257 41.138 161.951 39.5771 165.649L39.418 166.027L39.0195 165.931C31.3276 164.067 23.5696 162.407 15.8135 161.052V161.053C10.8073 160.218 6.72198 157.081 2.74805 154.644L1.61133 153.946L2.93066 153.756C11.3868 152.533 19.9572 151.547 28.5664 151.274L28.6006 151.273L28.6357 151.277Z" fill="#505050" stroke="white" stroke-width="0.963876"/>
<path d="M221.741 60.127C225.643 62.0606 229.613 64.0288 233.584 66.0312L234.024 66.2529L233.794 66.6875C230.927 72.1154 227.407 77.2086 223.13 81.6562L222.875 81.9209L222.552 81.7451C221.399 81.118 219.67 80.186 217.941 79.2578L213.328 76.7949L212.923 76.5801L213.117 76.1641L214.067 74.1543C216.297 69.4729 218.635 64.8483 221.104 60.3271L221.326 59.9209L221.741 60.127Z" fill="#6D6D6D" stroke="white" stroke-width="0.963876"/>
<path d="M234.088 107.135C235.057 107.152 236.501 107.185 237.942 107.219L241.79 107.304L242.21 107.312L242.26 107.729C243.773 120.343 239.059 132.073 229.334 140.217L229.023 140.478L228.713 140.215C226.594 138.416 224.188 136.657 221.789 134.785C219.401 132.923 217.037 130.962 215.06 128.798C213.082 126.632 211.476 124.246 210.622 121.527C209.765 118.801 209.674 115.769 210.683 112.332L210.817 111.875L211.276 112.004C213.373 112.593 215.146 113.854 216.752 115.321C218.344 116.775 219.841 118.503 221.302 119.993C222.788 121.508 224.266 122.813 225.908 123.566C227.46 124.279 229.175 124.503 231.219 123.897C232.299 118.482 232.9 113.036 233.602 107.555L233.657 107.127L234.088 107.135ZM238.863 113.743C238.31 113.206 237.549 112.925 236.52 113.13C235.796 113.54 235.251 114.285 234.919 115.215C234.58 116.168 234.481 117.275 234.629 118.298C234.778 119.325 235.169 120.22 235.759 120.795C236.317 121.338 237.084 121.627 238.117 121.439C238.833 121.022 239.373 120.271 239.701 119.335C240.037 118.374 240.134 117.261 239.986 116.235C239.837 115.205 239.448 114.311 238.863 113.743Z" fill="#6A6A6A" stroke="white" stroke-width="0.963876"/>
<path d="M215.751 30.332L220.093 31.1797L220.599 31.2783L220.466 31.7773C219.075 37.0033 217.65 42.2298 216.225 47.4873L216.122 47.8691L215.727 47.8418C214.218 47.7401 211.963 47.5963 209.707 47.4521C207.451 47.308 205.194 47.1634 203.683 47.0615L202.864 47.0068L203.311 46.3184C206.91 40.7843 210.696 35.2899 215.309 30.4717L215.492 30.2812L215.751 30.332Z" fill="#707070" stroke="white" stroke-width="0.963876"/>
<path d="M138.508 45.6396C138.282 47.035 138.401 48.6845 138.598 50.458C138.793 52.2071 139.066 54.0809 139.111 55.8301C139.156 57.5817 138.978 59.2882 138.223 60.7119C137.456 62.1596 136.123 63.2584 133.985 63.8398L133.933 63.8535L133.88 63.8555C132.256 63.9272 130.965 63.5617 129.93 62.873C128.902 62.1884 128.164 61.2089 127.599 60.1133C127.036 59.0198 126.634 57.7875 126.291 56.5732C125.941 55.3352 125.663 54.1594 125.324 53.0674L125.281 52.9297L125.321 52.79C126.189 49.8055 128.229 48.2572 130.59 47.2725C131.762 46.7836 133.023 46.4285 134.264 46.1035C135.516 45.7758 136.738 45.4801 137.882 45.1045L138.634 44.8574L138.508 45.6396Z" fill="#707070" stroke="white" stroke-width="0.963876"/>
<path d="M27.0009 104.728L32.2226 107.935C34.1782 109.139 36.1296 110.344 37.4189 111.142L37.7588 111.352L37.6152 111.725L36.5293 114.54L36.5224 114.558L36.5146 114.575C35.9543 115.747 35.1057 117.503 34.2578 119.259C33.4094 121.015 32.5612 122.77 32.0019 123.939L31.7959 124.371L31.3623 124.167C27.0469 122.14 24.9882 119.226 24.4336 115.823C23.8862 112.464 24.8165 108.7 26.3017 104.961L26.5127 104.43L27.0009 104.728Z" fill="#707070" stroke="white" stroke-width="0.963876"/>
<path d="M86.5981 19.0576L87.0395 21.8398L87.0503 21.9072L87.0415 21.9746L86.77 24.1396L86.771 24.1406C85.8191 32.6054 84.3552 41.0575 81.5913 49.1445C79.9729 54.2715 77.9631 60.1495 77.5444 65.7803C77.1402 71.2165 78.225 76.3477 82.5464 80.3047L82.9751 80.6846L82.9799 80.6885L85.2426 82.6963C85.973 83.3467 86.7066 83.9992 87.2612 84.4902C90.1546 82.724 93.1158 81.043 96.0561 79.3115L96.7133 79.9766C92.4411 87.063 88.3041 94.2174 84.1303 101.411L83.7475 102.07L83.3159 101.442C79.1509 95.3811 74.9198 89.4235 70.521 83.6025C65.7999 78.765 62.8556 71.7858 62.4555 64.8525C62.0553 57.9149 64.2022 50.9696 69.7348 46.2695C72.397 43.3531 75.3442 40.6606 78.1528 37.9102C74.4059 36.246 70.6801 34.5952 67.1059 32.7598L67.3266 31.8486C68.2953 31.8486 69.7558 31.8567 71.2182 31.8652C72.5763 31.8731 73.936 31.8798 74.9096 31.8809C78.5992 27.6229 82.3334 23.3816 85.7368 18.8438L86.4204 17.9326L86.5981 19.0576Z" fill="#808080" stroke="white" stroke-width="0.963876"/>
<path d="M52.4435 173.264L52.9688 174.193C55.5678 178.862 57.7416 183.847 57.9688 189.43L57.9913 189.973L57.4493 189.93C55.9554 189.811 53.7144 189.624 51.4757 189.438C49.2363 189.251 46.9985 189.064 45.5069 188.945L45.047 188.909L45.0636 188.448C45.2698 182.572 46.924 177.016 51.7218 173.129L52.1622 172.771L52.4435 173.264Z" fill="#808080" stroke="white" stroke-width="0.963876"/>
<path d="M61.744 166.476C66.2396 165.99 70.6433 166.537 74.8944 168.026L75.7421 168.336L75.9364 168.41L76.0155 168.603C77.679 172.617 76.0048 176.5 73.1151 179.307C70.2307 182.108 66.0407 183.945 62.3993 183.892L61.9472 183.885L61.9247 183.434C61.6531 177.933 61.4502 172.433 61.3144 166.967L61.3026 166.523L61.744 166.476Z" fill="#7F7F7F" stroke="white" stroke-width="0.963876"/>
<path d="M261.489 81.0498C263.899 86.2089 266.309 91.4711 268.652 96.7676L268.815 97.1338L268.483 97.3604C266.348 98.8175 262.078 101.732 259.939 103.191C256.904 105.553 254.001 108.051 251.126 110.589L250.792 110.884L250.471 110.574C249.914 110.034 249.059 109.221 248.202 108.406C247.346 107.593 246.487 106.776 245.925 106.231L245.701 106.014L245.808 105.72L246.126 104.864C249.456 96.0453 254.209 87.8143 260.702 80.9238L261.189 80.4062L261.489 81.0498Z" fill="#636363" stroke="white" stroke-width="0.963876"/>
<path d="M252.701 118.783C255.608 120.707 257.211 122.89 257.823 125.219C258.433 127.54 258.04 129.935 257.092 132.252C255.268 136.714 251.324 141.035 248.111 144.301C253.49 150.092 258.371 156.708 259.254 164.967C260.244 165.179 261.378 165.269 262.572 165.357C263.878 165.454 265.254 165.551 266.49 165.832C267.727 166.113 268.887 166.592 269.725 167.495C270.574 168.41 271.036 169.698 271.001 171.478L270.997 171.633L270.904 171.757C267.557 176.23 263.593 180.161 259.807 184.149L259.351 184.63L259.035 184.048C253.36 173.633 248.344 162.894 243.726 152.024C241.943 153.575 241.228 155.568 241.036 157.817C240.824 160.29 241.245 163.002 241.56 165.717C241.871 168.389 242.081 171.076 241.348 173.338C240.597 175.657 238.877 177.474 235.503 178.445L235.037 178.579L234.905 178.112C233.561 173.325 232.344 168.572 231.163 163.822C226.982 165.321 222.773 166.789 218.628 168.192L218.211 168.333L218.033 167.932C216.881 165.338 216.861 163.235 217.66 161.485C218.447 159.76 219.994 158.464 221.789 157.39C223.584 156.315 225.702 155.421 227.686 154.538C229.692 153.646 231.558 152.767 232.94 151.712C237.963 147.653 241.384 142.357 244.221 136.623C245.641 133.754 246.911 130.782 248.165 127.805C249.417 124.832 250.653 121.851 251.999 118.981L252.235 118.476L252.701 118.783Z" fill="#636363" stroke="white" stroke-width="0.963876"/>
<path d="M173.452 27.7842C178.774 23.4432 185.76 23.7422 192.026 23.9443L192.638 23.9639L192.474 24.5547C190.844 30.4344 187.109 34.7669 182.933 38.6875C178.725 42.6377 174.137 46.1198 170.565 50.417L170.259 50.7852L169.889 50.4814C168.563 49.3933 165.922 47.2268 164.596 46.1387L164.32 45.9121L164.456 45.5811C165.692 42.6091 166.822 39.3901 168.163 36.3721C169.518 33.3262 171.128 30.383 173.397 27.8369L173.422 27.8086L173.452 27.7842Z" fill="#727272" stroke="white" stroke-width="0.963876"/>
<path d="M120.563 62.3145L121.196 62.5537C127.747 64.9601 134.682 65.4426 141.75 65.6191C148.795 65.7951 155.995 65.6651 162.961 66.8838L163.634 67.0059L163.663 67.0117L163.691 67.0205C174.929 70.6192 185.475 76.7919 193.334 85.751C199.546 86.5207 205.792 87.1596 212.112 87.832L212.139 88.7871C207.117 89.6077 202.126 90.4598 197.166 91.3135C198.159 95.9849 199.345 100.673 200.938 105.23C201.84 107.218 202.81 109.194 203.783 111.185C204.758 113.179 205.737 115.188 206.648 117.224C208.357 121.041 209.837 124.97 210.624 129.129L210.772 129.963L210.775 129.98L210.777 129.998C211.002 132.452 210.853 134.981 210.632 137.497C210.409 140.027 210.115 142.527 210.028 144.987C209.856 149.888 210.523 154.479 214.208 158.344L215.061 159.239L213.827 159.157C209.835 158.893 206.849 159.878 204.539 161.649C202.217 163.43 200.538 166.037 199.225 169.08C197.913 172.123 196.982 175.567 196.135 178.993C195.291 182.404 194.528 185.812 193.553 188.72L193.508 188.853L193.399 188.94C188.148 193.209 182.947 197.527 177.689 201.767L177.541 201.887L177.351 201.872C175.617 201.743 173.855 201.487 172.098 201.218C170.336 200.948 168.581 200.667 166.836 200.484C163.345 200.118 159.952 200.152 156.769 201.432L156.759 201.436C153.944 202.489 152.83 204.697 152.278 207.375C152 208.722 151.871 210.161 151.735 211.611C151.601 213.049 151.461 214.5 151.156 215.817L150.912 216.867L150.292 215.986C144.001 207.052 134.427 201.889 123.654 200.547L123.628 200.543L123.601 200.537C119.366 199.521 115.202 198.572 111.005 197.726V197.727C108.459 197.251 103.437 196.301 100.927 195.826L100.798 195.802L100.699 195.715C91.8979 188.005 84.8451 178.701 78.7235 168.872L78.7176 168.861L78.7108 168.851C77.638 166.91 75.9239 165.898 73.9403 165.205C72.945 164.857 71.8959 164.594 70.8348 164.333C69.7821 164.074 68.7133 163.814 67.7147 163.476L66.534 163.075L67.6766 162.577L70.6493 161.268C73.4542 160.016 76.2517 158.716 79.0331 157.336C77.3416 154.845 75.6813 152.391 73.9901 149.998L73.9393 149.928L73.9178 149.844C71.8085 141.917 70.3458 133.857 68.8875 125.854L68.8524 125.661L68.9618 125.499C73.9165 118.099 77.925 110.2 82.3973 102.469L83.2977 100.925C87.4695 93.7343 91.6107 86.5727 95.8875 79.4785L95.9422 79.3877L96.0311 79.3281C99.3315 77.1054 102.816 74.9279 106.133 72.7168C110.876 69.3385 115.752 66.2473 120.068 62.4033L120.289 62.208L120.563 62.3145Z" fill="#FCFCFC" stroke="white" stroke-width="0.963876"/>
<path d="M62.6926 104.387C65.2694 104.463 67.8642 104.596 70.4758 104.759L73.093 104.93L73.4846 104.957L73.5374 105.346C73.947 108.335 73.5552 110.835 72.5706 112.943C71.5875 115.049 70.0285 116.733 68.1516 118.118C64.5172 120.801 59.6206 122.409 55.219 123.802C55.3816 125.705 55.5731 127.61 55.7952 129.546L55.8469 129.998L55.3997 130.076C53.4446 130.418 52.1939 131.136 51.3918 132.062C50.5862 132.993 50.187 134.188 50.0364 135.569C49.8854 136.955 49.9875 138.49 50.1555 140.07C50.3213 141.63 50.5542 143.257 50.6399 144.739L49.7454 145.014C47.0216 140.451 44.64 135.755 42.3 131.109V131.11C40.9084 128.395 39.5494 125.711 38.2581 123.061L38.1262 122.789L38.3127 122.552C41.6702 118.279 45.0365 113.994 48.6086 109.911L48.6829 109.826L48.7874 109.783C53.3017 107.916 57.8566 106.081 62.5159 104.414L62.6018 104.384L62.6926 104.387Z" fill="#898989" stroke="white" stroke-width="0.963876"/>
<path d="M193.265 188.116C194.292 188.501 196.066 189.186 197.476 189.719L198.723 190.185L198.986 190.28L199.033 190.556C200.184 197.259 201.64 203.929 203.4 210.53L203.509 210.938L203.119 211.1C196.769 213.723 190.316 212.135 184.521 209.295C181.273 211.021 178.026 212.812 174.844 214.635L173.91 215.171L174.133 214.116L175.5 207.678C175.958 205.538 176.425 203.406 176.918 201.283L176.956 201.121L177.085 201.017C182.345 196.775 187.526 192.474 192.792 188.193L193.007 188.02L193.265 188.116Z" fill="#5A5A5A" stroke="white" stroke-width="0.963876"/>
<path d="M208.55 214.01L209.09 214.355C220.321 221.745 224.484 236.981 216.321 248.423L215.82 249.125L215.485 248.33C213.056 242.573 210.885 236.813 208.664 231.103C204.141 231.794 199.619 232.453 195.161 233.048L194.563 233.128L194.618 232.526C195.386 224.045 201.846 218.636 208.006 214.033L208.27 213.836L208.55 214.01Z" fill="#5A5A5A" stroke="white" stroke-width="0.963876"/>
<path d="M96.7384 31.8574C97.7351 31.8758 98.5708 32.1446 99.1642 32.7354C99.7564 33.3251 100.035 34.164 100.07 35.1719C100.105 36.1776 99.8999 37.3958 99.4767 38.8125L99.4025 39.0605L99.1554 39.1357C97.7392 39.5675 96.5213 39.7823 95.5157 39.7549C94.5082 39.7274 93.6675 39.4543 93.0763 38.8633C92.4843 38.2713 92.2158 37.4332 92.1974 36.4316C92.1791 35.4332 92.4065 34.2274 92.8556 32.8281L92.9318 32.5928L93.1661 32.5166L93.6759 32.3584C94.8449 32.0138 95.8693 31.8414 96.7384 31.8574Z" fill="#888888" stroke="white" stroke-width="0.963876"/>
<path d="M85.554 47.3213C88.4679 47.5743 90.5086 48.5114 91.8167 49.9404C93.1241 51.3689 93.6404 53.2253 93.636 55.1992C93.6271 59.1223 91.5652 63.665 89.2249 66.8486L88.6565 67.623L88.3762 66.7041L87.3918 63.4814L87.384 63.4561L87.3792 63.4307C86.3929 58.2614 85.6116 53.0576 85.0334 47.8545L84.968 47.2705L85.554 47.3213Z" fill="#888888" stroke="white" stroke-width="0.963876"/>
<path d="M148.52 230.617L149.038 230.779C151.629 231.616 154.179 232.789 156.702 234.002C159.404 235.3 162.07 236.641 164.769 237.699C170.151 239.809 175.569 240.755 181.384 237.938L182.284 237.503L182.064 238.479C179.755 248.733 177.069 259.008 173.188 268.813L173.085 269.072L172.81 269.112C172.232 269.197 171.358 269.325 170.484 269.452C169.611 269.579 168.737 269.706 168.161 269.791L167.859 269.836L167.69 269.582C162.04 261.106 159.577 251.131 156.533 241.722C152.505 246.488 148.534 251.284 144.562 256.111C148.244 260.459 151.887 264.818 155.82 268.983L156.216 269.401L155.734 269.718C153.667 271.073 149.491 273.823 147.386 275.182L147.149 275.334L146.9 275.203C143.444 273.39 140.263 271.269 137.322 268.91L137.157 268.777L137.144 268.566C136.228 255.038 136.603 240.311 148.07 230.709L148.27 230.541L148.52 230.617ZM153.905 235.168C153.5 235.016 152.967 235.029 152.267 235.301C151.614 235.554 150.85 236.019 149.972 236.717C150.086 237.758 150.289 238.56 150.566 239.143C150.863 239.765 151.229 240.107 151.634 240.257C152.045 240.409 152.585 240.397 153.295 240.134C153.953 239.889 154.722 239.44 155.604 238.768C155.475 237.713 155.263 236.897 154.979 236.304C154.675 235.666 154.307 235.319 153.905 235.168Z" fill="#767676" stroke="white" stroke-width="0.963876"/>
<path d="M187.692 250.016C190.031 247.569 194.396 246.374 198.394 246.77C202.402 247.166 206.248 249.192 207.337 253.418L207.422 253.748L207.14 253.938C199.642 258.992 191.321 263.717 181.719 262.122L181.067 262.014L181.369 261.427C183.339 257.589 185.381 253.777 187.629 250.098L187.656 250.054L187.692 250.016Z" fill="#717171" stroke="white" stroke-width="0.963876"/>
<path d="M107.753 38.7715C108.097 39.893 108.69 41.1391 109.324 42.4805C109.95 43.8063 110.612 45.2163 111.052 46.6143C111.492 48.0117 111.725 49.4426 111.458 50.8086C111.188 52.1929 110.414 53.4617 108.933 54.5361L108.869 54.583L108.793 54.6064C107.656 54.9628 105.943 55.497 104.23 56.0312C102.516 56.5656 100.804 57.0999 99.6674 57.4561L99.0649 57.6455L99.0414 57.0137C98.8717 52.3297 98.7366 47.6423 98.7026 43.0215L98.6996 42.7256L98.9623 42.5898C101.001 41.5367 105.04 39.5006 107.077 38.4824L107.586 38.2275L107.753 38.7715Z" fill="#7E7E7E" stroke="white" stroke-width="0.963876"/>
<path d="M10.6697 173.101C13.2864 173.68 15.8903 174.385 18.4851 175.093C21.0837 175.802 23.6729 176.514 26.2762 177.113C31.4815 178.312 36.7124 179.054 42.0955 178.419L42.7097 178.347L42.6297 178.96C41.9518 184.18 41.3062 189.445 40.5935 194.705L40.5164 195.273L39.9695 195.1C37.0566 194.174 33.7113 193.462 30.2947 192.638C26.8944 191.817 23.4389 190.889 20.3748 189.534C17.3093 188.179 14.6024 186.383 12.7273 183.808C10.8457 181.223 9.8324 177.897 10.0838 173.544L10.117 172.979L10.6697 173.101Z" fill="#7E7E7E" stroke="white" stroke-width="0.963876"/>
<path d="M123.442 203.465C128.534 204.551 133.661 205.705 138.788 206.928L139.472 207.091L139.073 207.67C135.988 212.147 132.971 216.685 129.917 221.203C133.027 224.781 136.106 228.423 139.184 232.163L139.74 232.839L138.872 232.947C133.425 233.628 127.982 233.968 122.587 234.273L122.09 234.302L122.079 233.804C121.841 223.822 121.874 213.824 122.861 203.889L122.914 203.353L123.442 203.465Z" fill="#747474" stroke="white" stroke-width="0.963876"/>
<path d="M151.918 234.401C152.754 234.077 153.543 234.001 154.245 234.265C154.949 234.529 155.474 235.103 155.849 235.888C156.222 236.668 156.464 237.692 156.594 238.933L156.621 239.197L156.412 239.361C155.399 240.158 154.471 240.725 153.631 241.037C152.791 241.349 151.999 241.419 151.299 241.16C150.594 240.899 150.067 240.335 149.697 239.558C149.329 238.786 149.099 237.775 148.986 236.55L148.962 236.295L149.16 236.133L149.533 235.836C150.393 235.168 151.189 234.684 151.918 234.401Z" fill="#2F2F2F" stroke="white" stroke-width="0.963876"/>
<path d="M43.1592 130.674C45.4953 135.312 47.8566 139.969 50.5528 144.488C53.9076 148.681 57.8045 153.197 57.6641 159.231L57.6475 159.919L57.0069 159.669C55.6255 159.13 52.8777 158.078 51.5157 157.533C49.5563 156.858 45.6819 155.544 43.7442 154.864C38.7224 153.619 33.6288 152.81 28.5274 152.235L27.8594 152.16L28.1446 151.552C31.7491 143.867 36.0224 136.367 42.4034 130.535L42.8731 130.105L43.1592 130.674Z" fill="#EDEDED" stroke="white" stroke-width="0.963876"/>
<mask id="path-75-outside-1_394_9198" maskUnits="userSpaceOnUse" x="79.1348" y="0" width="201" height="252" fill="black">
<rect fill="white" x="79.1348" width="201" height="252"/>
<path d="M131.89 5.15523C135.554 3.86599 139.32 2.94997 143.12 2C142.747 5.01955 142.408 8.03907 142.136 11.0925C147.768 10.4819 153.4 9.87116 159.066 9.19261C155.979 7.22482 152.857 5.35872 149.736 3.59449C157.268 3.11951 164.902 2.94995 172.535 3.45886C183.257 3.49279 189.703 13.9424 199.372 17.3691C197.506 21.9832 195.47 26.6314 195.572 31.7205C201.476 35.3508 206.395 30.1258 211.349 27.3777C212.74 28.4634 214.164 29.617 215.657 30.8044C211.077 35.5882 207.311 41.0506 203.715 46.5808C206.734 46.7844 212.74 47.1575 215.759 47.3611C217.184 42.1023 218.609 36.8774 220 31.6526C224.105 33.79 228.278 35.8257 232.519 37.8274C227.566 43.663 222.714 49.6003 218.575 56.0465C224.275 54.3162 229.703 51.7717 234.657 48.4468C245.547 57.3018 255.556 67.2425 262.341 79.7278L261.052 81.2546C254.402 88.3115 249.585 96.7934 246.26 105.886C247.379 106.972 249.687 109.143 250.806 110.229C253.69 107.684 256.608 105.173 259.661 102.798C263.834 103.782 267.94 104.665 272.214 105.615C273.131 117.659 276.116 129.398 279 141.103C276.422 152.129 273.198 163.02 271.027 174.182C267.532 183.58 260.509 191.315 257.286 200.917C256.608 190.433 250.908 181.951 242.019 176.625C235.2 188.092 239.61 200.883 246.362 211.163C244.326 226.396 231.332 235.218 221.832 245.871C219.084 249.399 214.097 248.789 210.297 249.84C209.347 245.328 208.431 240.782 207.616 236.303C198.795 234.709 189.94 235.184 181.594 238.373C169.618 244.174 159.304 234.403 148.379 231.079C145.156 231.486 141.967 231.961 138.812 232.47C135.656 228.636 132.501 224.904 129.312 221.24C132.433 216.625 135.52 211.977 138.676 207.397C133.553 206.176 128.43 205.022 123.341 203.937L123.714 200.069C134.604 201.426 144.308 206.651 150.686 215.709C151.874 210.586 150.516 203.258 156.59 200.985C163.171 198.338 170.534 200.883 177.387 201.392C176.403 205.633 175.521 209.908 174.605 214.217C177.862 212.35 181.187 210.518 184.512 208.754C190.313 211.638 196.692 213.233 202.934 210.654C201.17 204.038 199.711 197.354 198.558 190.637C197.167 190.128 194.453 189.076 193.096 188.567C196.963 177.032 197.472 157.592 213.859 158.677C206.225 150.67 211.179 139.678 210.297 130.042C208.838 121.221 204.122 113.418 200.492 105.411C204.834 106.09 209.211 106.768 213.656 107.447C212.74 103.274 211.654 99.1682 210.398 95.1648C205.818 93.5023 201.238 92.1113 196.59 90.9239C201.713 90.0417 206.87 89.1598 212.061 88.3116C205.683 87.633 199.372 86.9884 193.096 86.2081C185.292 77.2512 174.775 71.0764 163.545 67.48C149.295 64.7998 134.028 68.0568 120.389 62.7641C116.046 66.6318 111.127 69.7531 106.411 73.1119C109.396 70.262 112.314 67.3783 115.198 64.3927C105.63 62.7642 97.4877 67.4121 91.0076 73.9601C90.4647 72.128 89.379 68.4299 88.8362 66.5639C93.4503 60.2873 96.8431 48.786 85.5113 47.8021C86.0881 52.993 86.8684 58.184 87.8523 63.341C85.6471 58.4894 83.3401 53.7394 81.1348 48.9895C83.8829 40.9487 85.3416 32.5348 86.2916 24.0868C91.2789 24.019 96.4359 23.4421 101.355 24.7992C107.734 29.6508 112.45 36.3007 117.776 42.3059C124.155 34.9436 131.144 27.3098 131.347 16.9619C127.581 17.3691 123.849 17.8442 120.151 18.387L115.978 18.7942L116.996 15.6389C121.644 11.7373 126.699 8.34442 131.89 5.15523ZM175.691 9.49785C168.803 10.6175 172.23 20.9315 178.54 18.5227C186.378 17.7763 182.171 6.91936 175.691 9.49785ZM153.4 15.4352C153.095 20.8636 151.67 27.1403 157.234 30.6348C161.543 29.1759 165.818 27.6153 170.127 25.9868C170.703 16.0799 160.118 17.2333 153.4 15.4352ZM137.76 19.269C135.928 24.7992 137.794 26.733 143.324 25.0027C145.054 19.4047 143.222 17.5048 137.76 19.269ZM173.757 28.158C169.312 33.1453 167.412 39.7273 164.902 45.7664C166.225 46.852 168.871 49.0235 170.194 50.1092C177.387 41.4577 188.821 35.9275 192.01 24.426C185.699 24.2225 178.914 23.951 173.757 28.158ZM93.3146 32.9758C91.5504 38.4721 93.4503 40.372 99.0144 38.6756C100.677 33.1115 98.743 31.2116 93.3146 32.9758ZM131.381 32.8062C131.517 34.6722 131.788 38.4381 131.924 40.3041C135.181 41.8308 138.472 43.3575 141.831 44.9521C143.46 50.0752 144.986 55.2661 147.259 60.2195C152.315 66.0211 160.593 62.4928 167.175 62.4588C166.836 60.6607 166.123 57.0642 165.784 55.3C161.136 54.4857 156.589 53.7055 152.043 52.8913C153.366 49.6003 154.791 46.3772 156.25 43.1541C148.583 38.2346 141.051 31.992 131.381 32.8062ZM99.1842 43.0182C99.2182 47.6324 99.3538 52.3144 99.5234 56.9964C101.797 56.2839 106.377 54.859 108.65 54.1466C114.214 50.1092 108.718 43.5612 107.293 38.9131C105.257 39.931 101.22 41.9665 99.1842 43.0182ZM192.383 40.406C187.124 41.1863 187.565 50.8895 192.553 51.8395C198.286 51.2627 197.981 40.9827 192.383 40.406ZM114.791 47.5307C110.414 52.4501 118.353 58.8964 122.9 54.7233C128.26 50.1091 118.93 43.2897 114.791 47.5307ZM125.783 52.9252C127.14 57.3019 127.717 63.6462 133.858 63.3747C141.967 61.1695 137.081 51.4323 138.031 45.5628C133.383 47.0895 127.412 47.3272 125.783 52.9252ZM177.794 71.5514C187.26 71.6532 189.974 62.2891 189.635 54.4858C181.662 53.5358 168.939 65.0373 177.794 71.5514ZM196.997 71.3478C203.274 67.7515 209.143 63.4427 214.707 58.7946C205.445 48.3789 194.419 60.6946 196.997 71.3478ZM213.554 76.369C215.861 77.5904 220.475 80.0672 222.782 81.3225C227.023 76.9119 230.518 71.8567 233.367 66.4623C229.398 64.4605 225.428 62.4928 221.527 60.5589C218.711 65.7159 216.064 71.0085 213.554 76.369ZM239.915 63.9177C240.424 67.2426 240.967 70.6013 241.544 73.9941C243.105 74.469 246.294 75.453 247.855 75.928C247.719 72.0263 247.651 68.1586 247.651 64.2908C245.717 64.1891 241.849 64.0195 239.915 63.9177ZM191.637 77.8279C193.367 87.6669 205.174 83.7992 212.129 84.0706C209.211 75.2495 198.592 79.0154 191.637 77.8279ZM235.471 80.7456C234.894 85.3937 234.419 90.1097 233.978 94.8256C237.167 94.7917 240.424 94.7917 243.715 94.8256C243.783 93.0953 243.953 89.6347 244.055 87.8705C241.137 85.4956 238.253 83.0866 235.471 80.7456ZM219.22 84.6134C213.995 88.0061 220.068 96.3184 224.954 92.4846C230.077 89.024 224.037 80.7117 219.22 84.6134ZM219.966 98.0488C219.966 101.815 220 105.615 220.068 109.414C221.696 108.973 224.953 108.023 226.582 107.548C226.65 104.868 226.718 102.222 226.853 99.6095C225.123 99.2024 221.662 98.4559 219.966 98.0488ZM234.08 107.616C233.368 113.18 232.757 118.744 231.637 124.275C222.511 127.26 219.118 114.707 211.145 112.468C207.209 125.869 220.509 132.621 229.025 139.847C238.626 131.807 243.274 120.237 241.781 107.786C239.848 107.752 236.014 107.65 234.08 107.616ZM264.106 130.721C274.318 127.803 269.568 114.809 270.077 107.107C260.34 110.398 265.463 122.952 264.106 130.721ZM233.232 152.095C227.498 156.472 214.029 157.727 218.473 167.736C222.782 166.277 227.159 164.75 231.501 163.19C232.723 168.109 233.978 173.029 235.369 177.982C248.329 174.25 234.792 158.066 243.919 151.247C248.601 162.307 253.69 173.232 259.458 183.817C263.258 179.814 267.193 175.912 270.518 171.468C270.654 164.716 263.258 166.48 258.813 165.361C258.033 156.947 253.011 150.229 247.447 144.292C253.995 137.676 263.766 126.684 252.435 119.186C247.074 130.619 243.444 143.851 233.232 152.095ZM212.57 150.501C214.266 151.044 217.659 152.163 219.355 152.74C220.204 146.497 219.525 140.187 215.623 135.132C212.4 139.508 208.159 145.276 212.57 150.501ZM265.87 157.32C271.672 151.552 276.93 144.937 277.88 136.489C264.92 132.791 255.963 147.956 265.87 157.32ZM198.931 177.643C202.425 176.998 205.988 176.387 209.618 175.811C209.89 172.112 210.161 168.414 210.466 164.75C205.208 167.668 202.086 172.757 198.931 177.643ZM206.938 203.156C211.518 203.088 216.166 203.088 220.814 203.122C219.016 199.424 217.32 195.794 215.657 192.13C220.882 187.312 226.073 182.189 228.753 175.437C213.181 174.928 214.47 193.928 206.938 203.156ZM223.868 198.813C225.598 208.992 224.546 231.553 240.323 226.668C237.439 216.286 234.046 206.04 232.451 195.387C230.28 196.235 226.005 197.965 223.868 198.813ZM153.672 208.652C157.913 209.636 162.255 210.586 166.632 211.502C166.395 209.399 165.987 205.124 165.784 203.02C161.373 204.072 157.37 206.142 153.672 208.652ZM195.097 232.571C199.677 231.96 204.326 231.282 208.974 230.57C211.247 236.405 213.452 242.275 215.929 248.144C224.037 236.778 219.729 221.545 208.295 214.42C202.12 219.034 195.844 224.327 195.097 232.571ZM137.827 222.325C144.206 228.704 153.536 227.72 161.645 226.159C166.632 213.233 143.493 216.252 137.827 222.325ZM171.246 231.384C176.234 231.452 181.323 231.384 186.412 231.282C186.513 229.28 186.717 225.345 186.853 223.377C181.323 225.345 174.741 226.159 171.246 231.384Z"/>
</mask>
<path d="M131.89 5.15523C135.554 3.86599 139.32 2.94997 143.12 2C142.747 5.01955 142.408 8.03907 142.136 11.0925C147.768 10.4819 153.4 9.87116 159.066 9.19261C155.979 7.22482 152.857 5.35872 149.736 3.59449C157.268 3.11951 164.902 2.94995 172.535 3.45886C183.257 3.49279 189.703 13.9424 199.372 17.3691C197.506 21.9832 195.47 26.6314 195.572 31.7205C201.476 35.3508 206.395 30.1258 211.349 27.3777C212.74 28.4634 214.164 29.617 215.657 30.8044C211.077 35.5882 207.311 41.0506 203.715 46.5808C206.734 46.7844 212.74 47.1575 215.759 47.3611C217.184 42.1023 218.609 36.8774 220 31.6526C224.105 33.79 228.278 35.8257 232.519 37.8274C227.566 43.663 222.714 49.6003 218.575 56.0465C224.275 54.3162 229.703 51.7717 234.657 48.4468C245.547 57.3018 255.556 67.2425 262.341 79.7278L261.052 81.2546C254.402 88.3115 249.585 96.7934 246.26 105.886C247.379 106.972 249.687 109.143 250.806 110.229C253.69 107.684 256.608 105.173 259.661 102.798C263.834 103.782 267.94 104.665 272.214 105.615C273.131 117.659 276.116 129.398 279 141.103C276.422 152.129 273.198 163.02 271.027 174.182C267.532 183.58 260.509 191.315 257.286 200.917C256.608 190.433 250.908 181.951 242.019 176.625C235.2 188.092 239.61 200.883 246.362 211.163C244.326 226.396 231.332 235.218 221.832 245.871C219.084 249.399 214.097 248.789 210.297 249.84C209.347 245.328 208.431 240.782 207.616 236.303C198.795 234.709 189.94 235.184 181.594 238.373C169.618 244.174 159.304 234.403 148.379 231.079C145.156 231.486 141.967 231.961 138.812 232.47C135.656 228.636 132.501 224.904 129.312 221.24C132.433 216.625 135.52 211.977 138.676 207.397C133.553 206.176 128.43 205.022 123.341 203.937L123.714 200.069C134.604 201.426 144.308 206.651 150.686 215.709C151.874 210.586 150.516 203.258 156.59 200.985C163.171 198.338 170.534 200.883 177.387 201.392C176.403 205.633 175.521 209.908 174.605 214.217C177.862 212.35 181.187 210.518 184.512 208.754C190.313 211.638 196.692 213.233 202.934 210.654C201.17 204.038 199.711 197.354 198.558 190.637C197.167 190.128 194.453 189.076 193.096 188.567C196.963 177.032 197.472 157.592 213.859 158.677C206.225 150.67 211.179 139.678 210.297 130.042C208.838 121.221 204.122 113.418 200.492 105.411C204.834 106.09 209.211 106.768 213.656 107.447C212.74 103.274 211.654 99.1682 210.398 95.1648C205.818 93.5023 201.238 92.1113 196.59 90.9239C201.713 90.0417 206.87 89.1598 212.061 88.3116C205.683 87.633 199.372 86.9884 193.096 86.2081C185.292 77.2512 174.775 71.0764 163.545 67.48C149.295 64.7998 134.028 68.0568 120.389 62.7641C116.046 66.6318 111.127 69.7531 106.411 73.1119C109.396 70.262 112.314 67.3783 115.198 64.3927C105.63 62.7642 97.4877 67.4121 91.0076 73.9601C90.4647 72.128 89.379 68.4299 88.8362 66.5639C93.4503 60.2873 96.8431 48.786 85.5113 47.8021C86.0881 52.993 86.8684 58.184 87.8523 63.341C85.6471 58.4894 83.3401 53.7394 81.1348 48.9895C83.8829 40.9487 85.3416 32.5348 86.2916 24.0868C91.2789 24.019 96.4359 23.4421 101.355 24.7992C107.734 29.6508 112.45 36.3007 117.776 42.3059C124.155 34.9436 131.144 27.3098 131.347 16.9619C127.581 17.3691 123.849 17.8442 120.151 18.387L115.978 18.7942L116.996 15.6389C121.644 11.7373 126.699 8.34442 131.89 5.15523ZM175.691 9.49785C168.803 10.6175 172.23 20.9315 178.54 18.5227C186.378 17.7763 182.171 6.91936 175.691 9.49785ZM153.4 15.4352C153.095 20.8636 151.67 27.1403 157.234 30.6348C161.543 29.1759 165.818 27.6153 170.127 25.9868C170.703 16.0799 160.118 17.2333 153.4 15.4352ZM137.76 19.269C135.928 24.7992 137.794 26.733 143.324 25.0027C145.054 19.4047 143.222 17.5048 137.76 19.269ZM173.757 28.158C169.312 33.1453 167.412 39.7273 164.902 45.7664C166.225 46.852 168.871 49.0235 170.194 50.1092C177.387 41.4577 188.821 35.9275 192.01 24.426C185.699 24.2225 178.914 23.951 173.757 28.158ZM93.3146 32.9758C91.5504 38.4721 93.4503 40.372 99.0144 38.6756C100.677 33.1115 98.743 31.2116 93.3146 32.9758ZM131.381 32.8062C131.517 34.6722 131.788 38.4381 131.924 40.3041C135.181 41.8308 138.472 43.3575 141.831 44.9521C143.46 50.0752 144.986 55.2661 147.259 60.2195C152.315 66.0211 160.593 62.4928 167.175 62.4588C166.836 60.6607 166.123 57.0642 165.784 55.3C161.136 54.4857 156.589 53.7055 152.043 52.8913C153.366 49.6003 154.791 46.3772 156.25 43.1541C148.583 38.2346 141.051 31.992 131.381 32.8062ZM99.1842 43.0182C99.2182 47.6324 99.3538 52.3144 99.5234 56.9964C101.797 56.2839 106.377 54.859 108.65 54.1466C114.214 50.1092 108.718 43.5612 107.293 38.9131C105.257 39.931 101.22 41.9665 99.1842 43.0182ZM192.383 40.406C187.124 41.1863 187.565 50.8895 192.553 51.8395C198.286 51.2627 197.981 40.9827 192.383 40.406ZM114.791 47.5307C110.414 52.4501 118.353 58.8964 122.9 54.7233C128.26 50.1091 118.93 43.2897 114.791 47.5307ZM125.783 52.9252C127.14 57.3019 127.717 63.6462 133.858 63.3747C141.967 61.1695 137.081 51.4323 138.031 45.5628C133.383 47.0895 127.412 47.3272 125.783 52.9252ZM177.794 71.5514C187.26 71.6532 189.974 62.2891 189.635 54.4858C181.662 53.5358 168.939 65.0373 177.794 71.5514ZM196.997 71.3478C203.274 67.7515 209.143 63.4427 214.707 58.7946C205.445 48.3789 194.419 60.6946 196.997 71.3478ZM213.554 76.369C215.861 77.5904 220.475 80.0672 222.782 81.3225C227.023 76.9119 230.518 71.8567 233.367 66.4623C229.398 64.4605 225.428 62.4928 221.527 60.5589C218.711 65.7159 216.064 71.0085 213.554 76.369ZM239.915 63.9177C240.424 67.2426 240.967 70.6013 241.544 73.9941C243.105 74.469 246.294 75.453 247.855 75.928C247.719 72.0263 247.651 68.1586 247.651 64.2908C245.717 64.1891 241.849 64.0195 239.915 63.9177ZM191.637 77.8279C193.367 87.6669 205.174 83.7992 212.129 84.0706C209.211 75.2495 198.592 79.0154 191.637 77.8279ZM235.471 80.7456C234.894 85.3937 234.419 90.1097 233.978 94.8256C237.167 94.7917 240.424 94.7917 243.715 94.8256C243.783 93.0953 243.953 89.6347 244.055 87.8705C241.137 85.4956 238.253 83.0866 235.471 80.7456ZM219.22 84.6134C213.995 88.0061 220.068 96.3184 224.954 92.4846C230.077 89.024 224.037 80.7117 219.22 84.6134ZM219.966 98.0488C219.966 101.815 220 105.615 220.068 109.414C221.696 108.973 224.953 108.023 226.582 107.548C226.65 104.868 226.718 102.222 226.853 99.6095C225.123 99.2024 221.662 98.4559 219.966 98.0488ZM234.08 107.616C233.368 113.18 232.757 118.744 231.637 124.275C222.511 127.26 219.118 114.707 211.145 112.468C207.209 125.869 220.509 132.621 229.025 139.847C238.626 131.807 243.274 120.237 241.781 107.786C239.848 107.752 236.014 107.65 234.08 107.616ZM264.106 130.721C274.318 127.803 269.568 114.809 270.077 107.107C260.34 110.398 265.463 122.952 264.106 130.721ZM233.232 152.095C227.498 156.472 214.029 157.727 218.473 167.736C222.782 166.277 227.159 164.75 231.501 163.19C232.723 168.109 233.978 173.029 235.369 177.982C248.329 174.25 234.792 158.066 243.919 151.247C248.601 162.307 253.69 173.232 259.458 183.817C263.258 179.814 267.193 175.912 270.518 171.468C270.654 164.716 263.258 166.48 258.813 165.361C258.033 156.947 253.011 150.229 247.447 144.292C253.995 137.676 263.766 126.684 252.435 119.186C247.074 130.619 243.444 143.851 233.232 152.095ZM212.57 150.501C214.266 151.044 217.659 152.163 219.355 152.74C220.204 146.497 219.525 140.187 215.623 135.132C212.4 139.508 208.159 145.276 212.57 150.501ZM265.87 157.32C271.672 151.552 276.93 144.937 277.88 136.489C264.92 132.791 255.963 147.956 265.87 157.32ZM198.931 177.643C202.425 176.998 205.988 176.387 209.618 175.811C209.89 172.112 210.161 168.414 210.466 164.75C205.208 167.668 202.086 172.757 198.931 177.643ZM206.938 203.156C211.518 203.088 216.166 203.088 220.814 203.122C219.016 199.424 217.32 195.794 215.657 192.13C220.882 187.312 226.073 182.189 228.753 175.437C213.181 174.928 214.47 193.928 206.938 203.156ZM223.868 198.813C225.598 208.992 224.546 231.553 240.323 226.668C237.439 216.286 234.046 206.04 232.451 195.387C230.28 196.235 226.005 197.965 223.868 198.813ZM153.672 208.652C157.913 209.636 162.255 210.586 166.632 211.502C166.395 209.399 165.987 205.124 165.784 203.02C161.373 204.072 157.37 206.142 153.672 208.652ZM195.097 232.571C199.677 231.96 204.326 231.282 208.974 230.57C211.247 236.405 213.452 242.275 215.929 248.144C224.037 236.778 219.729 221.545 208.295 214.42C202.12 219.034 195.844 224.327 195.097 232.571ZM137.827 222.325C144.206 228.704 153.536 227.72 161.645 226.159C166.632 213.233 143.493 216.252 137.827 222.325ZM171.246 231.384C176.234 231.452 181.323 231.384 186.412 231.282C186.513 229.28 186.717 225.345 186.853 223.377C181.323 225.345 174.741 226.159 171.246 231.384Z" fill="#D5D5D5"/>
<path d="M131.89 5.15523C135.554 3.86599 139.32 2.94997 143.12 2C142.747 5.01955 142.408 8.03907 142.136 11.0925C147.768 10.4819 153.4 9.87116 159.066 9.19261C155.979 7.22482 152.857 5.35872 149.736 3.59449C157.268 3.11951 164.902 2.94995 172.535 3.45886C183.257 3.49279 189.703 13.9424 199.372 17.3691C197.506 21.9832 195.47 26.6314 195.572 31.7205C201.476 35.3508 206.395 30.1258 211.349 27.3777C212.74 28.4634 214.164 29.617 215.657 30.8044C211.077 35.5882 207.311 41.0506 203.715 46.5808C206.734 46.7844 212.74 47.1575 215.759 47.3611C217.184 42.1023 218.609 36.8774 220 31.6526C224.105 33.79 228.278 35.8257 232.519 37.8274C227.566 43.663 222.714 49.6003 218.575 56.0465C224.275 54.3162 229.703 51.7717 234.657 48.4468C245.547 57.3018 255.556 67.2425 262.341 79.7278L261.052 81.2546C254.402 88.3115 249.585 96.7934 246.26 105.886C247.379 106.972 249.687 109.143 250.806 110.229C253.69 107.684 256.608 105.173 259.661 102.798C263.834 103.782 267.94 104.665 272.214 105.615C273.131 117.659 276.116 129.398 279 141.103C276.422 152.129 273.198 163.02 271.027 174.182C267.532 183.58 260.509 191.315 257.286 200.917C256.608 190.433 250.908 181.951 242.019 176.625C235.2 188.092 239.61 200.883 246.362 211.163C244.326 226.396 231.332 235.218 221.832 245.871C219.084 249.399 214.097 248.789 210.297 249.84C209.347 245.328 208.431 240.782 207.616 236.303C198.795 234.709 189.94 235.184 181.594 238.373C169.618 244.174 159.304 234.403 148.379 231.079C145.156 231.486 141.967 231.961 138.812 232.47C135.656 228.636 132.501 224.904 129.312 221.24C132.433 216.625 135.52 211.977 138.676 207.397C133.553 206.176 128.43 205.022 123.341 203.937L123.714 200.069C134.604 201.426 144.308 206.651 150.686 215.709C151.874 210.586 150.516 203.258 156.59 200.985C163.171 198.338 170.534 200.883 177.387 201.392C176.403 205.633 175.521 209.908 174.605 214.217C177.862 212.35 181.187 210.518 184.512 208.754C190.313 211.638 196.692 213.233 202.934 210.654C201.17 204.038 199.711 197.354 198.558 190.637C197.167 190.128 194.453 189.076 193.096 188.567C196.963 177.032 197.472 157.592 213.859 158.677C206.225 150.67 211.179 139.678 210.297 130.042C208.838 121.221 204.122 113.418 200.492 105.411C204.834 106.09 209.211 106.768 213.656 107.447C212.74 103.274 211.654 99.1682 210.398 95.1648C205.818 93.5023 201.238 92.1113 196.59 90.9239C201.713 90.0417 206.87 89.1598 212.061 88.3116C205.683 87.633 199.372 86.9884 193.096 86.2081C185.292 77.2512 174.775 71.0764 163.545 67.48C149.295 64.7998 134.028 68.0568 120.389 62.7641C116.046 66.6318 111.127 69.7531 106.411 73.1119C109.396 70.262 112.314 67.3783 115.198 64.3927C105.63 62.7642 97.4877 67.4121 91.0076 73.9601C90.4647 72.128 89.379 68.4299 88.8362 66.5639C93.4503 60.2873 96.8431 48.786 85.5113 47.8021C86.0881 52.993 86.8684 58.184 87.8523 63.341C85.6471 58.4894 83.3401 53.7394 81.1348 48.9895C83.8829 40.9487 85.3416 32.5348 86.2916 24.0868C91.2789 24.019 96.4359 23.4421 101.355 24.7992C107.734 29.6508 112.45 36.3007 117.776 42.3059C124.155 34.9436 131.144 27.3098 131.347 16.9619C127.581 17.3691 123.849 17.8442 120.151 18.387L115.978 18.7942L116.996 15.6389C121.644 11.7373 126.699 8.34442 131.89 5.15523ZM175.691 9.49785C168.803 10.6175 172.23 20.9315 178.54 18.5227C186.378 17.7763 182.171 6.91936 175.691 9.49785ZM153.4 15.4352C153.095 20.8636 151.67 27.1403 157.234 30.6348C161.543 29.1759 165.818 27.6153 170.127 25.9868C170.703 16.0799 160.118 17.2333 153.4 15.4352ZM137.76 19.269C135.928 24.7992 137.794 26.733 143.324 25.0027C145.054 19.4047 143.222 17.5048 137.76 19.269ZM173.757 28.158C169.312 33.1453 167.412 39.7273 164.902 45.7664C166.225 46.852 168.871 49.0235 170.194 50.1092C177.387 41.4577 188.821 35.9275 192.01 24.426C185.699 24.2225 178.914 23.951 173.757 28.158ZM93.3146 32.9758C91.5504 38.4721 93.4503 40.372 99.0144 38.6756C100.677 33.1115 98.743 31.2116 93.3146 32.9758ZM131.381 32.8062C131.517 34.6722 131.788 38.4381 131.924 40.3041C135.181 41.8308 138.472 43.3575 141.831 44.9521C143.46 50.0752 144.986 55.2661 147.259 60.2195C152.315 66.0211 160.593 62.4928 167.175 62.4588C166.836 60.6607 166.123 57.0642 165.784 55.3C161.136 54.4857 156.589 53.7055 152.043 52.8913C153.366 49.6003 154.791 46.3772 156.25 43.1541C148.583 38.2346 141.051 31.992 131.381 32.8062ZM99.1842 43.0182C99.2182 47.6324 99.3538 52.3144 99.5234 56.9964C101.797 56.2839 106.377 54.859 108.65 54.1466C114.214 50.1092 108.718 43.5612 107.293 38.9131C105.257 39.931 101.22 41.9665 99.1842 43.0182ZM192.383 40.406C187.124 41.1863 187.565 50.8895 192.553 51.8395C198.286 51.2627 197.981 40.9827 192.383 40.406ZM114.791 47.5307C110.414 52.4501 118.353 58.8964 122.9 54.7233C128.26 50.1091 118.93 43.2897 114.791 47.5307ZM125.783 52.9252C127.14 57.3019 127.717 63.6462 133.858 63.3747C141.967 61.1695 137.081 51.4323 138.031 45.5628C133.383 47.0895 127.412 47.3272 125.783 52.9252ZM177.794 71.5514C187.26 71.6532 189.974 62.2891 189.635 54.4858C181.662 53.5358 168.939 65.0373 177.794 71.5514ZM196.997 71.3478C203.274 67.7515 209.143 63.4427 214.707 58.7946C205.445 48.3789 194.419 60.6946 196.997 71.3478ZM213.554 76.369C215.861 77.5904 220.475 80.0672 222.782 81.3225C227.023 76.9119 230.518 71.8567 233.367 66.4623C229.398 64.4605 225.428 62.4928 221.527 60.5589C218.711 65.7159 216.064 71.0085 213.554 76.369ZM239.915 63.9177C240.424 67.2426 240.967 70.6013 241.544 73.9941C243.105 74.469 246.294 75.453 247.855 75.928C247.719 72.0263 247.651 68.1586 247.651 64.2908C245.717 64.1891 241.849 64.0195 239.915 63.9177ZM191.637 77.8279C193.367 87.6669 205.174 83.7992 212.129 84.0706C209.211 75.2495 198.592 79.0154 191.637 77.8279ZM235.471 80.7456C234.894 85.3937 234.419 90.1097 233.978 94.8256C237.167 94.7917 240.424 94.7917 243.715 94.8256C243.783 93.0953 243.953 89.6347 244.055 87.8705C241.137 85.4956 238.253 83.0866 235.471 80.7456ZM219.22 84.6134C213.995 88.0061 220.068 96.3184 224.954 92.4846C230.077 89.024 224.037 80.7117 219.22 84.6134ZM219.966 98.0488C219.966 101.815 220 105.615 220.068 109.414C221.696 108.973 224.953 108.023 226.582 107.548C226.65 104.868 226.718 102.222 226.853 99.6095C225.123 99.2024 221.662 98.4559 219.966 98.0488ZM234.08 107.616C233.368 113.18 232.757 118.744 231.637 124.275C222.511 127.26 219.118 114.707 211.145 112.468C207.209 125.869 220.509 132.621 229.025 139.847C238.626 131.807 243.274 120.237 241.781 107.786C239.848 107.752 236.014 107.65 234.08 107.616ZM264.106 130.721C274.318 127.803 269.568 114.809 270.077 107.107C260.34 110.398 265.463 122.952 264.106 130.721ZM233.232 152.095C227.498 156.472 214.029 157.727 218.473 167.736C222.782 166.277 227.159 164.75 231.501 163.19C232.723 168.109 233.978 173.029 235.369 177.982C248.329 174.25 234.792 158.066 243.919 151.247C248.601 162.307 253.69 173.232 259.458 183.817C263.258 179.814 267.193 175.912 270.518 171.468C270.654 164.716 263.258 166.48 258.813 165.361C258.033 156.947 253.011 150.229 247.447 144.292C253.995 137.676 263.766 126.684 252.435 119.186C247.074 130.619 243.444 143.851 233.232 152.095ZM212.57 150.501C214.266 151.044 217.659 152.163 219.355 152.74C220.204 146.497 219.525 140.187 215.623 135.132C212.4 139.508 208.159 145.276 212.57 150.501ZM265.87 157.32C271.672 151.552 276.93 144.937 277.88 136.489C264.92 132.791 255.963 147.956 265.87 157.32ZM198.931 177.643C202.425 176.998 205.988 176.387 209.618 175.811C209.89 172.112 210.161 168.414 210.466 164.75C205.208 167.668 202.086 172.757 198.931 177.643ZM206.938 203.156C211.518 203.088 216.166 203.088 220.814 203.122C219.016 199.424 217.32 195.794 215.657 192.13C220.882 187.312 226.073 182.189 228.753 175.437C213.181 174.928 214.47 193.928 206.938 203.156ZM223.868 198.813C225.598 208.992 224.546 231.553 240.323 226.668C237.439 216.286 234.046 206.04 232.451 195.387C230.28 196.235 226.005 197.965 223.868 198.813ZM153.672 208.652C157.913 209.636 162.255 210.586 166.632 211.502C166.395 209.399 165.987 205.124 165.784 203.02C161.373 204.072 157.37 206.142 153.672 208.652ZM195.097 232.571C199.677 231.96 204.326 231.282 208.974 230.57C211.247 236.405 213.452 242.275 215.929 248.144C224.037 236.778 219.729 221.545 208.295 214.42C202.12 219.034 195.844 224.327 195.097 232.571ZM137.827 222.325C144.206 228.704 153.536 227.72 161.645 226.159C166.632 213.233 143.493 216.252 137.827 222.325ZM171.246 231.384C176.234 231.452 181.323 231.384 186.412 231.282C186.513 229.28 186.717 225.345 186.853 223.377C181.323 225.345 174.741 226.159 171.246 231.384Z" stroke="white" stroke-width="1.92775" mask="url(#path-75-outside-1_394_9198)"/>
<path d="M61.752 26.4824C62.4982 27.1778 63.6006 28.2042 64.7031 29.2305C65.7811 30.2338 66.8593 31.2373 67.6045 31.9316C71.3383 33.8461 75.2401 35.5624 79.1934 37.3193L79.8379 37.6055L79.3359 38.1025C76.3286 41.0757 73.2362 43.8635 70.4307 46.9395L70.4092 46.9619L70.3857 46.9824C65.1164 51.4424 63.0301 58.0745 63.418 64.7979C63.7941 71.3154 66.4953 77.8689 70.8105 82.5098L71.2334 82.9531L71.3633 83.0859L71.3701 83.2725C71.5024 86.7777 71.6996 90.3163 71.9297 93.8574C75.8937 96.1231 79.8915 98.4215 83.9531 100.752L84.376 100.995L84.1289 101.415C79.3368 109.548 75.0628 118.119 69.7627 126.035L69.7344 126.077L69.6992 126.111C68.0489 127.729 64.7553 130.955 62.9834 132.661C62.6939 141.363 62.886 150.098 63.3691 158.808C65.8695 158.469 70.0824 157.9 72.5107 157.599C72.8956 155.418 73.5559 151.594 73.9092 149.635L74.1133 148.503L74.7773 149.442C76.5786 151.991 78.3458 154.609 80.1426 157.253L80.4521 157.708L79.959 157.955C76.4092 159.73 72.8317 161.362 69.2568 162.934C69.8425 163.094 70.4477 163.245 71.0664 163.397C72.1224 163.658 73.2133 163.93 74.2578 164.295C76.3469 165.025 78.307 166.145 79.542 168.363L80.6953 170.19C86.5155 179.291 93.1727 187.841 101.334 194.99L101.619 195.24L101.443 195.576C100.076 198.192 99.1175 201.059 97.8701 203.909C96.6399 206.72 95.155 209.435 92.7852 211.524L92.6172 211.673L92.3945 211.64C87.8146 210.948 83.4224 209.621 79.0879 208.406C78.7675 209.891 78.3952 211.357 78.0225 212.817C77.6527 214.266 77.288 215.712 76.9746 217.186C84.9951 217.519 93.0325 217.897 101.105 218.827L101.877 218.916L101.455 219.567C97.1793 226.172 89.7803 228.763 83 231.293L82.6748 231.414L82.4561 231.144C80.486 228.704 78.6278 226.086 76.7646 223.473C74.8982 220.855 73.0257 218.242 71.0127 215.79C66.9875 210.888 62.4305 206.671 56.3369 204.423L56.2979 204.408L56.2617 204.388C51.4357 201.595 46.2637 201.308 40.9834 201.988C38.3419 202.328 35.6838 202.909 33.0352 203.533C30.3943 204.155 27.7522 204.822 25.1787 205.325L24.8799 205.384L24.6992 205.139C22.1125 201.639 19.3161 198.302 16.5576 194.91C13.9758 191.736 11.4312 188.519 9.1543 185.105L8.70312 184.42L8.65234 184.343L8.63477 184.253C7.82592 180.278 7.77628 176.279 7.97656 172.309C8.07669 170.324 8.23968 168.34 8.40234 166.369C8.56522 164.396 8.72777 162.435 8.8291 160.484L8.85254 160.027H9.31055C10.1459 160.027 11.3885 160.045 12.6211 160.062C13.8565 160.079 15.0826 160.095 15.8926 160.095H15.9336L15.9746 160.103C23.622 161.438 31.2682 163.069 38.8477 164.898C40.3552 161.326 41.8671 157.751 43.4424 154.207L43.6221 153.801L44.042 153.947C45.9749 154.625 49.8695 155.947 51.8428 156.627L52.4072 156.821L52.0977 157.332C50.8753 159.349 48.5494 163.184 47.083 165.587C50.5251 165.565 53.9966 165.587 57.4844 165.59C57.263 163.758 56.8889 160.826 56.7031 159.277L56.6992 159.243L56.7002 159.209C56.831 153.584 53.2098 149.352 49.7832 145.068L49.4375 144.636L49.9121 144.353C51.4259 143.451 54.4301 141.665 56.124 140.645C55.7768 137.744 55.1642 132.399 54.8379 129.658L54.8369 129.656C54.5989 127.582 54.3947 125.541 54.2246 123.5L54.1934 123.117L54.5605 123.001C59.0901 121.571 63.9956 119.988 67.5791 117.343C69.3617 116.027 70.7986 114.461 71.6973 112.536C72.553 110.704 72.9328 108.518 72.6299 105.865C69.2732 105.64 65.952 105.447 62.6641 105.35L62.5303 105.346L62.417 105.273C61.3622 104.593 59.2559 103.2 58.2012 102.485L57.8535 102.25L58.0391 101.873C58.5988 100.737 59.4387 99.0319 60.2783 97.3271C61.0117 95.8382 61.7441 94.3487 62.291 93.2383C58.9198 91.812 55.5521 90.3864 52.2773 88.9922L51.7383 88.7627L52.0674 88.2783L53.2383 86.5537C54.6615 80.9274 52.732 76.2173 49.8486 71.6475C48.3947 69.3431 46.7263 67.1152 45.1279 64.8115C43.5393 62.5218 42.0343 60.1761 40.9629 57.6963L40.8701 57.4795L40.9834 57.2734L42.6768 54.2227C44.3817 51.1773 46.1195 48.1465 47.876 45.1172L48.5156 44.0146L48.7656 45.2646C49.8216 50.5444 50.8512 55.8418 51.9238 61.1455C52.7778 57.9994 53.6282 54.8488 54.4775 51.6973C55.5038 47.889 56.5304 44.0799 57.5654 40.2793C58.6504 35.7369 59.8393 31.2157 60.9551 26.7188L61.1523 25.9238L61.752 26.4824ZM83.5225 182.561C81.8203 183.573 79.684 184.245 77.4834 184.822C75.0823 185.452 72.6206 185.969 70.3936 186.693C68.171 187.416 66.288 188.315 65.0586 189.648C63.8998 190.905 63.2823 192.593 63.5918 195.028C67.4317 196.375 71.4257 196.673 75.4922 196.546C79.5414 196.419 83.5856 195.88 87.6475 195.55C88.0613 190.695 86.3606 186.438 83.5225 182.561ZM11.0234 174.169C10.8995 178.047 11.8542 180.97 13.5068 183.24C15.2461 185.629 17.7871 187.336 20.7646 188.652C23.7437 189.969 27.1269 190.881 30.5215 191.7C33.6927 192.465 36.8876 193.155 39.7129 194.014C40.368 189.147 40.9693 184.285 41.5957 179.441C36.2719 179.971 31.1184 179.218 26.0596 178.053C23.434 177.448 20.8256 176.731 18.2324 176.023C15.8233 175.366 13.426 174.718 11.0234 174.169ZM51.8906 174.246C47.8411 177.77 46.3064 182.666 46.0459 188.023C47.5187 188.142 49.5385 188.309 51.5566 188.478C53.5358 188.643 55.5139 188.805 56.9766 188.923C56.6339 183.621 54.4814 178.839 51.8906 174.246ZM75.2002 169.165C71.024 167.603 66.7034 166.985 62.29 167.394C62.4216 172.55 62.6137 177.736 62.8662 182.923C66.1122 182.821 69.8359 181.15 72.4443 178.616C75.12 176.017 76.5291 172.617 75.2002 169.165Z" fill="#E0E0E0" stroke="white" stroke-width="0.963876"/>
<path d="M31.6455 78.3682C34.087 82.6068 36.5952 86.877 39.2041 91.1123L39.6279 91.7998L38.8213 91.8457C36.7167 91.9662 35.2965 92.7703 34.4316 93.8721C33.5598 94.9827 33.2123 96.4474 33.3574 97.9512C33.6493 100.974 35.9067 103.991 39.5537 104.354L40.1611 104.415L39.9609 104.992C39.3866 106.648 38.2299 110.05 37.6172 111.718L37.4141 112.272L36.9111 111.962C34.4857 110.462 29.7197 107.523 26.9893 105.853C25.6521 109.353 24.9047 112.723 25.3848 115.669C25.8642 118.611 27.5787 121.194 31.3428 123.086C31.8934 121.938 32.6418 120.388 33.3896 118.84C34.2379 117.084 35.0853 115.329 35.6445 114.16L35.7354 113.97L35.9365 113.907C40.2148 112.583 44.5478 111.263 48.8125 109.773L50.5371 109.172L49.334 110.546C45.8474 114.531 42.5553 118.713 39.2578 122.909C40.5055 125.463 41.8152 128.05 43.1582 130.671L43.3262 130.998L43.0547 131.246C36.8148 136.949 32.6056 144.311 29.0176 151.961L28.8926 152.229L28.5967 152.237C20.0387 152.508 11.509 153.49 3.06934 154.71L2.33887 154.815L2.53516 154.104L3.85645 149.325C6.91217 138.137 9.52925 126.688 6.10449 115.403C4.03383 110.076 4.97441 105.08 7.12695 100.47C9.27311 95.8728 12.6542 91.599 15.5039 87.7207L15.7676 87.3623L16.1455 87.5957C18.3675 88.9681 20.6 90.4089 22.875 91.8418C23.8348 91.2114 25.4065 90.1733 26.3789 89.5264C26.0841 86.3285 25.8206 83.1316 25.5898 79.9668L25.5605 79.5566L25.96 79.4629L27.123 79.1758C28.4476 78.8415 30.1364 78.3976 31.1055 78.1426L31.4609 78.0488L31.6455 78.3682ZM12.9658 128.573C13.266 132.982 13.714 137.418 14.2207 141.858C19.496 142.055 24.8016 142.312 30.1377 142.63C30.378 139.401 30.6916 136.221 31.0342 133.05C28.1419 135.291 25.2618 137.507 22.4346 139.75L22.0283 140.072L21.7363 139.644C19.046 135.685 16.1909 131.963 12.9658 128.573ZM15.0107 98.1152C8.95327 104.297 9.47277 113.287 15.0479 119.723C18.3466 116.666 19.4812 112.936 19.2197 109.125C18.9597 105.336 17.316 101.459 15.0107 98.1152Z" fill="#D0D0D0" stroke="white" stroke-width="0.963876"/>
</g>
</svg>
